G04 ================== begin FILE IDENTIFICATION RECORD ==================*
G04 Layout Name:  C:/TouchstnPDM/TTI Designs/ASY5772/PCB0389/Allegro/PCB0389.brd*
G04 Film Name:    BOTTOM*
G04 File Format:  Gerber RS274X*
G04 File Origin:  Cadence Allegro 16.6-2015-S062*
G04 Origin Date:  Fri Jun 10 11:04:38 2016*
G04 *
G04 Layer:  ETCH/BOTTOM*
G04 Layer:  PIN/BOTTOM*
G04 Layer:  VIA CLASS/BOTTOM*
G04 *
G04 Offset:    (0.0000 0.0000)*
G04 Mirror:    No*
G04 Mode:      Positive*
G04 Rotation:  0*
G04 FullContactRelief:  No*
G04 UndefLineWidth:     0.0000*
G04 ================== end FILE IDENTIFICATION RECORD ====================*
%FSLAX25Y25*MOIN*%
%IR0*IPPOS*OFA0.00000B0.00000*MIA0B0*SFA1.00000B1.00000*%
%ADD11C,.03*%
%ADD12C,.024*%
%ADD10R,.012X.02402*%
%ADD13R,.03X.02*%
%ADD14C,.01*%
%ADD15C,.007*%
G75*
%LPD*%
G75*
G54D10*
X10281Y15833D03*
X9100Y4967D03*
X7919Y15833D03*
X6738Y4967D03*
X5557Y15833D03*
X12643D03*
X11462Y4967D03*
G54D11*
X6700Y12000D03*
X14600Y8200D03*
G54D12*
X11000Y12936D03*
X6700Y7600D03*
X24600Y4000D03*
X27600Y10000D03*
X62600Y4000D03*
X66600Y10000D03*
X100600Y4000D03*
X104600Y10000D03*
X140600Y4000D03*
X143600Y10000D03*
G54D13*
X27600Y8000D03*
Y4000D03*
X66600Y8000D03*
Y4000D03*
X104600Y8000D03*
Y4000D03*
X143600Y8000D03*
Y4000D03*
G54D14*
G01X10281Y15833D02*
Y13719D01*
X11000Y13000D01*
Y12936D01*
G01X6700Y7600D02*
X6738D01*
Y4967D01*
G01X6700Y12000D02*
X5557Y13143D01*
Y15833D01*
G01X6700Y12000D02*
X7919Y13219D01*
Y15833D01*
G01X27600Y4000D02*
X24600D01*
G01X12643Y15833D02*
Y15232D01*
X14092Y13783D01*
Y11908D01*
X14200Y11800D01*
Y8600D01*
X14600Y8200D01*
G01X11462Y4967D02*
Y7200D01*
X12462Y8200D01*
X14600D01*
G01X27600Y8000D02*
Y10000D01*
G01X66600Y4000D02*
X62600D01*
G01X66600Y8000D02*
Y10000D01*
G01X104600Y4000D02*
X100600D01*
G01X104600Y8000D02*
Y10000D01*
G01X143600Y4000D02*
X140600D01*
G01X143600Y8000D02*
Y10000D01*
G54D15*
G01X180363Y31000D02*
Y36000D01*
X178835D01*
X178326Y35750D01*
X177944Y35167D01*
X177817Y34500D01*
X177944Y33833D01*
X178262Y33333D01*
X178835Y33083D01*
X180363D01*
G01X172259Y35583D02*
X172641Y35833D01*
X173087Y36000D01*
X173596D01*
X174169Y35750D01*
X174615Y35333D01*
X174933Y34833D01*
X175188Y34000D01*
X175252Y33250D01*
X175124Y32500D01*
X174933Y32000D01*
X174551Y31500D01*
X174106Y31167D01*
X173660Y31000D01*
X173215D01*
X172769Y31167D01*
X172387Y31417D01*
X172068Y31750D01*
G01X167721Y33667D02*
X167466Y33917D01*
X167275Y34333D01*
X167148Y34917D01*
X167275Y35417D01*
X167530Y35750D01*
X167976Y36000D01*
X169694D01*
Y31000D01*
X167593D01*
X167148Y31333D01*
X166893Y31833D01*
X166766Y32417D01*
X166893Y33000D01*
X167275Y33500D01*
X167721Y33667D01*
X169694D01*
G01X162800Y36000D02*
X163309Y35833D01*
X163691Y35417D01*
X163946Y34917D01*
X164137Y34250D01*
X164201Y33500D01*
X164137Y32750D01*
X163946Y32083D01*
X163691Y31583D01*
X163309Y31167D01*
X162800Y31000D01*
X162291Y31167D01*
X161909Y31583D01*
X161654Y32083D01*
X161463Y32750D01*
X161400Y33500D01*
X161463Y34250D01*
X161654Y34917D01*
X161909Y35417D01*
X162291Y35833D01*
X162800Y36000D01*
G01X158771Y32000D02*
X158389Y31417D01*
X157880Y31083D01*
X157307Y31000D01*
X156797Y31083D01*
X156288Y31500D01*
X155970Y32000D01*
X155906Y32500D01*
X156033Y33083D01*
X156479Y33500D01*
X156925Y33667D01*
X157498D01*
G01X156925D02*
X156543Y33917D01*
X156224Y34333D01*
X156097Y34833D01*
X156224Y35333D01*
X156543Y35750D01*
X157116Y36000D01*
X157689Y35917D01*
X158261Y35583D01*
G01X151941Y31000D02*
X151495Y31083D01*
X150985Y31333D01*
X150667Y31750D01*
X150540Y32333D01*
X150667Y32917D01*
X151049Y33417D01*
X151622Y33667D01*
X152259D01*
X152641Y33833D01*
X152959Y34250D01*
X153087Y34833D01*
X152895Y35417D01*
X152450Y35833D01*
X151941Y36000D01*
X151431Y35833D01*
X150985Y35417D01*
X150794Y34833D01*
X150922Y34250D01*
X151240Y33833D01*
X151622Y33667D01*
X152259D01*
X152831Y33417D01*
X153214Y32917D01*
X153341Y32333D01*
X153214Y31750D01*
X152895Y31333D01*
X152386Y31083D01*
X151941Y31000D01*
G01X147593Y31583D02*
X147147Y31167D01*
X146638Y31000D01*
X146128Y31167D01*
X145683Y31667D01*
X145364Y32417D01*
X145237Y33167D01*
Y34083D01*
X145364Y34833D01*
X145683Y35500D01*
X146065Y35833D01*
X146511Y36000D01*
X147020Y35833D01*
X147402Y35500D01*
X147657Y35000D01*
X147784Y34333D01*
X147657Y33750D01*
X147338Y33167D01*
X146956Y32833D01*
X146511Y32750D01*
X146001Y32917D01*
X145619Y33333D01*
X145237Y34083D01*
G01X180363Y24000D02*
Y29000D01*
X178772D01*
X178262Y28750D01*
X177944Y28417D01*
X177817Y27750D01*
X177944Y27083D01*
X178326Y26667D01*
X178772Y26417D01*
X180363D01*
G01X178772D02*
X177817Y24000D01*
G01X172387D02*
X174933D01*
Y29000D01*
X172387D01*
G01X173406Y26583D02*
X174933D01*
G01X169822Y29000D02*
X168230Y24000D01*
X166638Y29000D01*
G01X157370Y24000D02*
Y29000D01*
X158134Y28000D01*
G01Y24000D02*
X156606D01*
M02*
