G04 ================== begin FILE IDENTIFICATION RECORD ==================*
G04 Layout Name:  C:/TouchstnPDM/TTI Designs/ASY5772/PCB0389/Allegro/PCB0389.brd*
G04 Film Name:    TOP*
G04 File Format:  Gerber RS274X*
G04 File Origin:  Cadence Allegro 16.6-2015-S062*
G04 Origin Date:  Fri Jun 10 11:05:22 2016*
G04 *
G04 Layer:  ETCH/TOP*
G04 Layer:  PIN/TOP*
G04 Layer:  VIA CLASS/TOP*
G04 *
G04 Offset:    (0.0000 0.0000)*
G04 Mirror:    No*
G04 Mode:      Positive*
G04 Rotation:  0*
G04 FullContactRelief:  No*
G04 UndefLineWidth:     0.0000*
G04 ================== end FILE IDENTIFICATION RECORD ====================*
%FSLAX35Y35*MOMM*%
%IR0*IPPOS*OFA0.00000B0.00000*MIA0B0*SFA1.00000B1.00000*%
%ADD10C,.762*%
%ADD12R,1.651X.8128*%
%ADD11C,.6096*%
%ADD13C,.7*%
%ADD14C,.254*%
%ADD15C,.381*%
%ADD16C,1.5244*%
G75*
%LPD*%
G75*
G36*
G01X27940Y27940D02*
Y472440D01*
X103810D01*
G02X110820Y455520I2J-9911D01*
G01X97060Y441770D01*
Y326330D01*
X96870Y325660D01*
G03Y283940I73310J-20860D01*
G01X97060Y283270D01*
Y193040D01*
G03X243300I73120J0D01*
G01Y283270D01*
X243490Y283940D01*
G03Y325660I-73310J20860D01*
G01X243300Y326330D01*
Y363760D01*
X578170D01*
Y241240D01*
X633530D01*
X634460Y237480D01*
G03X767620I66580J16520D01*
G01X768550Y241240D01*
X819510D01*
Y363760D01*
X938170D01*
Y241240D01*
X1179510D01*
Y363760D01*
X1562670D01*
Y241240D01*
X1624130D01*
X1625060Y237480D01*
G03X1758220I66580J16520D01*
G01X1759150Y241240D01*
X1804010D01*
Y363760D01*
X1922670D01*
Y241240D01*
X2164010D01*
Y363760D01*
X2547170D01*
Y241240D01*
X2589330D01*
X2590260Y237480D01*
G03X2723420I66580J16520D01*
G01X2724350Y241240D01*
X2788510D01*
Y363760D01*
X2907170D01*
Y241240D01*
X3148510D01*
Y358680D01*
X3531670D01*
Y241240D01*
X3579930D01*
X3580860Y237480D01*
G03X3714020I66580J16520D01*
G01X3714950Y241240D01*
X3773010D01*
Y358680D01*
X3891670D01*
Y241240D01*
X4133010D01*
Y398760D01*
X4093940D01*
Y411480D01*
G03X4072520Y463180I-73117J-6D01*
G01X4071730Y463980D01*
G02X4075230Y472440I3501J3506D01*
G01X4673600D01*
Y27940D01*
X27940D01*
G37*
%LPC*%
G75*
G54D16*
X370840Y208280D03*
%LPD*%
G75*
G54D10*
X170180Y304800D03*
X370840Y208280D03*
G54D11*
X279400Y328580D03*
X170180Y193040D03*
X624840Y101600D03*
X701040Y254000D03*
X1590040Y101600D03*
X1691640Y254000D03*
X2555240Y101600D03*
X2656840Y254000D03*
X3571240Y101600D03*
X3647440Y254000D03*
G54D12*
X698840Y320000D03*
X1058840D03*
X1683340D03*
X2043340D03*
X2667840D03*
X3027840D03*
X3652340D03*
X4012340D03*
G54D13*
G01X170180Y304800D02*
Y193040D01*
G01X1057720Y436880D02*
X195580D01*
X170180Y411480D01*
Y304800D01*
G01X2046370Y436880D02*
X1057720D01*
G01X3026940Y431800D02*
X3021860Y436880D01*
X2046370D01*
G01X4012340Y320000D02*
X4020820Y328480D01*
Y411480D01*
X4000500Y431800D01*
X3026940D01*
G54D14*
G01X701040Y254000D02*
Y317800D01*
X698840Y320000D01*
G01X1058840D02*
X1057720Y321120D01*
Y436880D01*
G01X1691640Y254000D02*
Y311700D01*
X1683340Y320000D01*
G01X2046370Y436880D02*
Y323030D01*
X2043340Y320000D01*
G01X3027840D02*
X3026940Y320900D01*
Y431800D01*
G01X2656840Y254000D02*
Y309000D01*
X2667840Y320000D01*
G01X3647440Y254000D02*
Y315100D01*
X3652340Y320000D01*
G54D15*
G01X370840Y127110D02*
Y208280D01*
G01D02*
Y289450D01*
G01X289670Y208280D02*
X370840D01*
G01D02*
X452010D01*
M02*
