G04 ================== begin FILE IDENTIFICATION RECORD ==================*
G04 Layout Name:  C:/TouchstnPDM/TTI Designs/ASY5772/PCB0389/Allegro/PCB0389.brd*
G04 Film Name:    TOP*
G04 File Format:  Gerber RS274X*
G04 File Origin:  Cadence Allegro 16.6-2015-S062*
G04 Origin Date:  Fri Jun 10 11:04:38 2016*
G04 *
G04 Layer:  ETCH/TOP*
G04 Layer:  PIN/TOP*
G04 Layer:  VIA CLASS/TOP*
G04 *
G04 Offset:    (0.0000 0.0000)*
G04 Mirror:    No*
G04 Mode:      Positive*
G04 Rotation:  0*
G04 FullContactRelief:  No*
G04 UndefLineWidth:     0.0000*
G04 ================== end FILE IDENTIFICATION RECORD ====================*
%FSLAX25Y25*MOIN*%
%IR0*IPPOS*OFA0.00000B0.00000*MIA0B0*SFA1.00000B1.00000*%
%ADD10C,.03*%
%ADD12R,.065X.032*%
%ADD11C,.024*%
%ADD13C,.027559*%
%ADD14C,.01*%
%ADD15C,.015*%
%ADD16C,.060016*%
G75*
%LPD*%
G75*
G36*
G01X1100Y1100D02*
Y18600D01*
X4087D01*
G02X4363Y17934I0J-390D01*
G01X3821Y17393D01*
Y12848D01*
X3814Y12821D01*
G03Y11179I2886J-821D01*
G01X3821Y11152D01*
Y7600D01*
G03X9579I2879J0D01*
G01Y11152D01*
X9586Y11179D01*
G03Y12821I-2886J821D01*
G01X9579Y12848D01*
Y14321D01*
X22763D01*
Y9498D01*
X24942D01*
X24979Y9350D01*
G03X30221I2621J650D01*
G01X30258Y9498D01*
X32264D01*
Y14321D01*
X36936D01*
Y9498D01*
X46437D01*
Y14321D01*
X61522D01*
Y9498D01*
X63942D01*
X63979Y9350D01*
G03X69221I2621J650D01*
G01X69258Y9498D01*
X71024D01*
Y14321D01*
X75696D01*
Y9498D01*
X85197D01*
Y14321D01*
X100282D01*
Y9498D01*
X101942D01*
X101979Y9350D01*
G03X107221I2621J650D01*
G01X107258Y9498D01*
X109784D01*
Y14321D01*
X114456D01*
Y9498D01*
X123957D01*
Y14121D01*
X139042D01*
Y9498D01*
X140942D01*
X140979Y9350D01*
G03X146221I2621J650D01*
G01X146258Y9498D01*
X148544D01*
Y14121D01*
X153215D01*
Y9498D01*
X162717D01*
Y15699D01*
X161179D01*
Y16200D01*
G03X160335Y18235I-2879J0D01*
G01X160304Y18267D01*
G02X160442Y18600I138J138D01*
G01X184000D01*
Y1100D01*
X1100D01*
G37*
%LPC*%
G75*
G54D16*
X14600Y8200D03*
%LPD*%
G75*
G54D10*
X6700Y12000D03*
X14600Y8200D03*
G54D11*
X11000Y12936D03*
X6700Y7600D03*
X24600Y4000D03*
X27600Y10000D03*
X62600Y4000D03*
X66600Y10000D03*
X100600Y4000D03*
X104600Y10000D03*
X140600Y4000D03*
X143600Y10000D03*
G54D12*
X27513Y12598D03*
X41687D03*
X66273D03*
X80446D03*
X105033D03*
X119206D03*
X143793D03*
X157966D03*
G54D13*
G01X6700Y12000D02*
Y7600D01*
G01X41643Y17200D02*
X7700D01*
X6700Y16200D01*
Y12000D01*
G01X80566Y17200D02*
X41643D01*
G01X119171Y17000D02*
X118971Y17200D01*
X80566D01*
G01X157966Y12598D02*
X158300Y12932D01*
Y16200D01*
X157500Y17000D01*
X119171D01*
G54D14*
G01X27600Y10000D02*
Y12512D01*
X27513Y12598D01*
G01X41687D02*
X41643Y12643D01*
Y17200D01*
G01X66600Y10000D02*
Y12272D01*
X66273Y12598D01*
G01X80566Y17200D02*
Y12718D01*
X80446Y12598D01*
G01X119206D02*
X119171Y12634D01*
Y17000D01*
G01X104600Y10000D02*
Y12165D01*
X105033Y12598D01*
G01X143600Y10000D02*
Y12406D01*
X143793Y12598D01*
G54D15*
G01X14600Y5004D02*
Y8200D01*
G01D02*
Y11396D01*
G01X11404Y8200D02*
X14600D01*
G01D02*
X17796D01*
M02*
