G04 ================== begin FILE IDENTIFICATION RECORD ==================*
G04 Layout Name:  C:/TouchstnPDM/TTI Designs/ASY5772/PCB0389/Allegro/PCB0389.brd*
G04 Film Name:    top_silk*
G04 File Format:  Gerber RS274X*
G04 File Origin:  Cadence Allegro 16.6-2015-S062*
G04 Origin Date:  Fri Jun 10 11:04:38 2016*
G04 *
G04 Layer:  REF DES/SILKSCREEN_TOP*
G04 Layer:  PACKAGE GEOMETRY/SILKSCREEN_TOP*
G04 *
G04 Offset:    (0.0000 0.0000)*
G04 Mirror:    No*
G04 Mode:      Positive*
G04 Rotation:  0*
G04 FullContactRelief:  No*
G04 UndefLineWidth:     0.0000*
G04 ================== end FILE IDENTIFICATION RECORD ====================*
%FSLAX25Y25*MOIN*%
%IR0*IPPOS*OFA0.00000B0.00000*MIA0B0*SFA1.00000B1.00000*%
%ADD10C,.005*%
G75*
%LPD*%
G75*
G54D10*
G01X3150Y17100D02*
Y14000D01*
G01X2269Y17100D02*
X4031D01*
G01X5483Y14000D02*
Y17100D01*
X6403D01*
X6710Y16945D01*
X6940Y16583D01*
X7017Y16170D01*
X6940Y15757D01*
X6748Y15446D01*
X6403Y15292D01*
X5483D01*
G01X9350Y14000D02*
Y17100D01*
X8890Y16480D01*
G01Y14000D02*
X9810D01*
G01X31560Y7491D02*
Y10591D01*
X32327D01*
X32633Y10436D01*
X32863Y10230D01*
X33055Y9920D01*
X33209Y9558D01*
X33247Y9041D01*
X33209Y8525D01*
X33055Y8163D01*
X32863Y7853D01*
X32633Y7646D01*
X32327Y7491D01*
X31560D01*
G01X35504D02*
Y10591D01*
X35044Y9971D01*
G01Y7491D02*
X35963D01*
G01X38045Y12598D02*
X31057D01*
G01X45131Y14469D02*
Y17323D01*
X44147D01*
Y16535D01*
X42868D01*
Y17323D01*
X40013D01*
X38931Y16240D01*
X30269D01*
X29088Y17421D01*
X26431D01*
Y16535D01*
X24954D01*
Y17323D01*
X24069D01*
Y14567D01*
G01X15550Y13100D02*
Y10000D01*
G01X14669Y13100D02*
X16431D01*
G01X17883Y10000D02*
Y13100D01*
X18803D01*
X19110Y12945D01*
X19340Y12583D01*
X19417Y12170D01*
X19340Y11757D01*
X19148Y11446D01*
X18803Y11292D01*
X17883D01*
G01X21022Y12583D02*
X21252Y12893D01*
X21520Y13048D01*
X21827Y13100D01*
X22210Y12997D01*
X22478Y12738D01*
X22555Y12428D01*
X22517Y12118D01*
X22363Y11860D01*
X21597Y11343D01*
X21252Y10981D01*
X21022Y10465D01*
X20945Y10000D01*
X22555D01*
G01X70320Y7491D02*
Y10591D01*
X71087D01*
X71393Y10436D01*
X71623Y10230D01*
X71815Y9920D01*
X71969Y9558D01*
X72007Y9041D01*
X71969Y8525D01*
X71815Y8163D01*
X71623Y7853D01*
X71393Y7646D01*
X71087Y7491D01*
X70320D01*
G01X73535Y10075D02*
X73765Y10385D01*
X74033Y10540D01*
X74340Y10591D01*
X74723Y10488D01*
X74992Y10230D01*
X75069Y9920D01*
X75030Y9609D01*
X74877Y9351D01*
X74110Y8835D01*
X73765Y8473D01*
X73535Y7956D01*
X73458Y7491D01*
X75069D01*
G01X76805Y12598D02*
X69817D01*
G01X83891Y14469D02*
Y17323D01*
X82907D01*
Y16535D01*
X81628D01*
Y17323D01*
X78773D01*
X77691Y16240D01*
X69029D01*
X67848Y17421D01*
X65191D01*
Y16535D01*
X63714D01*
Y17323D01*
X62828D01*
Y14567D01*
G01X109080Y7491D02*
Y10591D01*
X109846D01*
X110153Y10436D01*
X110383Y10230D01*
X110575Y9920D01*
X110728Y9558D01*
X110767Y9041D01*
X110728Y8525D01*
X110575Y8163D01*
X110383Y7853D01*
X110153Y7646D01*
X109846Y7491D01*
X109080D01*
G01X112180Y8111D02*
X112410Y7750D01*
X112717Y7543D01*
X113061Y7491D01*
X113368Y7543D01*
X113675Y7801D01*
X113867Y8111D01*
X113905Y8421D01*
X113828Y8783D01*
X113560Y9041D01*
X113292Y9145D01*
X112946D01*
G01X113292D02*
X113522Y9300D01*
X113713Y9558D01*
X113790Y9868D01*
X113713Y10178D01*
X113522Y10436D01*
X113176Y10591D01*
X112831Y10540D01*
X112487Y10333D01*
G01X115565Y12598D02*
X108576D01*
G01X122651Y14469D02*
Y17323D01*
X121667D01*
Y16535D01*
X120387D01*
Y17323D01*
X117533D01*
X116450Y16240D01*
X107789D01*
X106608Y17421D01*
X103950D01*
Y16535D01*
X102474D01*
Y17323D01*
X101588D01*
Y14567D01*
G01X161411Y14469D02*
Y17323D01*
X160427D01*
Y16535D01*
X159147D01*
Y17323D01*
X156293D01*
X155210Y16240D01*
X146549D01*
X145368Y17421D01*
X142710D01*
Y16535D01*
X141234D01*
Y17323D01*
X140348D01*
Y14567D01*
G01X147840Y7491D02*
Y10591D01*
X148606D01*
X148913Y10436D01*
X149143Y10230D01*
X149335Y9920D01*
X149488Y9558D01*
X149526Y9041D01*
X149488Y8525D01*
X149335Y8163D01*
X149143Y7853D01*
X148913Y7646D01*
X148606Y7491D01*
X147840D01*
G01X152243D02*
Y10591D01*
X150825Y8370D01*
X152741D01*
G01X154324Y12598D02*
X147336D01*
M02*
