
M48
INCH,LZ
T01C0.0118
T02C0.02
%
T01
X01936Y07548
X01546Y07548
X01166Y07548
X00776Y07548
X00567Y07524
X01906Y07488
X01506Y07488
X01126Y07488
X00746Y07488
X0061Y075774
X037872Y07548
X033972Y07548
X030172Y07548
X026272Y07548
X024182Y07524
X037572Y07488
X033572Y07488
X029772Y07488
X025972Y07488
X024612Y075774
X056384Y07548
X052484Y07548
X048684Y07548
X044784Y07548
X042694Y07524
X056084Y07488
X052084Y07488
X048284Y07488
X044484Y07488
X043124Y075774
X056384Y07156
X052484Y07156
X048684Y07156
X044784Y07156
X042694Y07132
X056084Y07096
X052084Y07096
X048284Y07096
X044484Y07096
X043124Y071854
X037872Y07156
X033972Y07156
X030172Y07156
X026272Y07156
X024182Y07132
X037572Y07096
X033572Y07096
X029772Y07096
X025972Y07096
X024612Y071854
X01936Y07156
X01546Y07156
X01166Y07156
X00776Y07156
X00567Y07132
X01906Y07096
X01506Y07096
X01126Y07096
X00746Y07096
X0061Y071854
X01936Y06764
X01546Y06764
X01166Y06764
X00776Y06764
X00567Y0674
X01906Y06704
X01506Y06704
X01126Y06704
X00746Y06704
X0061Y067934
X037872Y06764
X033972Y06764
X030172Y06764
X026272Y06764
X024182Y0674
X037572Y06704
X033572Y06704
X029772Y06704
X025972Y06704
X024612Y067934
X056384Y06764
X052484Y06764
X048684Y06764
X044784Y06764
X042694Y0674
X056084Y06704
X052084Y06704
X048284Y06704
X044484Y06704
X043124Y067934
X056384Y06372
X052484Y06372
X048684Y06372
X044784Y06372
X042694Y06348
X056084Y06312
X052084Y06312
X048284Y06312
X044484Y06312
X043124Y064014
X037872Y06372
X033972Y06372
X030172Y06372
X026272Y06372
X024182Y06348
X037572Y06312
X033572Y06312
X029772Y06312
X025972Y06312
X024612Y064014
X01936Y06372
X01546Y06372
X01166Y06372
X00776Y06372
X00567Y06348
X01906Y06312
X01506Y06312
X01126Y06312
X00746Y06312
X0061Y064014
X01936Y0598
X01546Y0598
X01166Y0598
X00776Y0598
X00567Y05956
X01906Y0592
X01506Y0592
X01126Y0592
X00746Y0592
X0061Y060094
X037872Y0598
X033972Y0598
X030172Y0598
X026272Y0598
X024182Y05956
X037572Y0592
X033572Y0592
X029772Y0592
X025972Y0592
X024612Y060094
X056384Y0598
X052484Y0598
X048684Y0598
X044784Y0598
X042694Y05956
X056084Y0592
X052084Y0592
X048284Y0592
X044484Y0592
X043124Y060094
X056384Y05588
X052484Y05588
X048684Y05588
X044784Y05588
X042694Y05564
X056084Y05528
X052084Y05528
X048284Y05528
X044484Y05528
X043124Y056174
X037872Y05588
X033972Y05588
X030172Y05588
X026272Y05588
X024182Y05564
X037572Y05528
X033572Y05528
X029772Y05528
X025972Y05528
X024612Y056174
X01936Y05588
X01546Y05588
X01166Y05588
X00776Y05588
X00567Y05564
X01906Y05528
X01506Y05528
X01126Y05528
X00746Y05528
X0061Y056174
X01936Y05196
X01546Y05196
X01166Y05196
X00776Y05196
X00567Y05172
X01906Y05136
X01506Y05136
X01126Y05136
X00746Y05136
X0061Y052254
X037872Y05196
X033972Y05196
X030172Y05196
X026272Y05196
X024182Y05172
X037572Y05136
X033572Y05136
X029772Y05136
X025972Y05136
X024612Y052254
X056384Y05196
X052484Y05196
X048684Y05196
X044784Y05196
X042694Y05172
X056084Y05136
X052084Y05136
X048284Y05136
X044484Y05136
X043124Y052254
X056384Y04804
X052484Y04804
X048684Y04804
X044784Y04804
X042694Y0478
X056084Y04744
X052084Y04744
X048284Y04744
X044484Y04744
X043124Y048334
X037872Y04804
X033972Y04804
X030172Y04804
X026272Y04804
X024182Y0478
X037572Y04744
X033572Y04744
X029772Y04744
X025972Y04744
X024612Y048334
X01936Y04804
X01546Y04804
X01166Y04804
X00776Y04804
X00567Y0478
X01906Y04744
X01506Y04744
X01126Y04744
X00746Y04744
X0061Y048334
X01936Y04412
X01546Y04412
X01166Y04412
X00776Y04412
X00567Y04388
X01906Y04352
X01506Y04352
X01126Y04352
X00746Y04352
X0061Y044414
X037872Y04412
X033972Y04412
X030172Y04412
X026272Y04412
X024182Y04388
X037572Y04352
X033572Y04352
X029772Y04352
X025972Y04352
X024612Y044414
X056384Y04412
X052484Y04412
X048684Y04412
X044784Y04412
X042694Y04388
X056084Y04352
X052084Y04352
X048284Y04352
X044484Y04352
X043124Y044414
X056384Y0402
X052484Y0402
X048684Y0402
X044784Y0402
X042694Y03996
X056084Y0396
X052084Y0396
X048284Y0396
X044484Y0396
X043124Y040494
X037872Y0402
X033972Y0402
X030172Y0402
X026272Y0402
X024182Y03996
X037572Y0396
X033572Y0396
X029772Y0396
X025972Y0396
X024612Y040494
X01936Y0402
X01546Y0402
X01166Y0402
X00776Y0402
X00567Y03996
X01906Y0396
X01506Y0396
X01126Y0396
X00746Y0396
X0061Y040494
X01936Y03628
X01546Y03628
X01166Y03628
X00776Y03628
X00567Y03604
X01906Y03568
X01506Y03568
X01126Y03568
X00746Y03568
X0061Y036574
X037872Y03628
X033972Y03628
X030172Y03628
X026272Y03628
X024182Y03604
X037572Y03568
X033572Y03568
X029772Y03568
X025972Y03568
X024612Y036574
X056384Y03628
X052484Y03628
X048684Y03628
X044784Y03628
X042694Y03604
X056084Y03568
X052084Y03568
X048284Y03568
X044484Y03568
X043124Y036574
X056384Y03236
X052484Y03236
X048684Y03236
X044784Y03236
X042694Y03212
X056084Y03176
X052084Y03176
X048284Y03176
X044484Y03176
X043124Y032654
X037872Y03236
X033972Y03236
X030172Y03236
X026272Y03236
X024182Y03212
X037572Y03176
X033572Y03176
X029772Y03176
X025972Y03176
X024612Y032654
X01936Y03236
X01546Y03236
X01166Y03236
X00776Y03236
X00567Y03212
X01906Y03176
X01506Y03176
X01126Y03176
X00746Y03176
X0061Y032654
X01936Y02844
X01546Y02844
X01166Y02844
X00776Y02844
X00567Y0282
X01906Y02784
X01506Y02784
X01126Y02784
X00746Y02784
X0061Y028734
X037872Y02844
X033972Y02844
X030172Y02844
X026272Y02844
X024182Y0282
X037572Y02784
X033572Y02784
X029772Y02784
X025972Y02784
X024612Y028734
X056384Y02844
X052484Y02844
X048684Y02844
X044784Y02844
X042694Y0282
X056084Y02784
X052084Y02784
X048284Y02784
X044484Y02784
X043124Y028734
X056384Y02452
X052484Y02452
X048684Y02452
X044784Y02452
X042694Y02428
X056084Y02392
X052084Y02392
X048284Y02392
X044484Y02392
X043124Y024814
X037872Y02452
X033972Y02452
X030172Y02452
X026272Y02452
X024182Y02428
X037572Y02392
X033572Y02392
X029772Y02392
X025972Y02392
X024612Y024814
X01936Y02452
X01546Y02452
X01166Y02452
X00776Y02452
X00567Y02428
X01906Y02392
X01506Y02392
X01126Y02392
X00746Y02392
X0061Y024814
X01936Y0206
X01546Y0206
X01166Y0206
X00776Y0206
X00567Y02036
X01906Y02
X01506Y02
X01126Y02
X00746Y02
X0061Y020894
X037872Y0206
X033972Y0206
X030172Y0206
X026272Y0206
X024182Y02036
X037572Y02
X033572Y02
X029772Y02
X025972Y02
X024612Y020894
X056384Y0206
X052484Y0206
X048684Y0206
X044784Y0206
X042694Y02036
X056084Y02
X052084Y02
X048284Y02
X044484Y02
X043124Y020894
X056384Y01668
X052484Y01668
X048684Y01668
X044784Y01668
X042694Y01644
X056084Y01608
X052084Y01608
X048284Y01608
X044484Y01608
X043124Y016974
X037872Y01668
X033972Y01668
X030172Y01668
X026272Y01668
X024182Y01644
X037572Y01608
X033572Y01608
X029772Y01608
X025972Y01608
X024612Y016974
X01936Y01668
X01546Y01668
X01166Y01668
X00776Y01668
X00567Y01644
X01906Y01608
X01506Y01608
X01126Y01608
X00746Y01608
X0061Y016974
X01936Y01276
X01546Y01276
X01166Y01276
X00776Y01276
X00567Y01252
X01906Y01216
X01506Y01216
X01126Y01216
X00746Y01216
X0061Y013054
X037872Y01276
X033972Y01276
X030172Y01276
X026272Y01276
X024182Y01252
X037572Y01216
X033572Y01216
X029772Y01216
X025972Y01216
X024612Y013054
X056384Y01276
X052484Y01276
X048684Y01276
X044784Y01276
X042694Y01252
X056084Y01216
X052084Y01216
X048284Y01216
X044484Y01216
X043124Y013054
X056384Y00884
X052484Y00884
X048684Y00884
X044784Y00884
X042694Y0086
X056084Y00824
X052084Y00824
X048284Y00824
X044484Y00824
X043124Y009134
X037872Y00884
X033972Y00884
X030172Y00884
X026272Y00884
X024182Y0086
X037572Y00824
X033572Y00824
X029772Y00824
X025972Y00824
X024612Y009134
X01936Y00884
X01546Y00884
X01166Y00884
X00776Y00884
X00567Y0086
X01906Y00824
X01506Y00824
X01126Y00824
X00746Y00824
X0061Y009134
X01936Y00492
X01546Y00492
X01166Y00492
X00776Y00492
X00567Y00468
X01906Y00432
X01506Y00432
X01126Y00432
X00746Y00432
X0061Y005214
X037872Y00492
X033972Y00492
X030172Y00492
X026272Y00492
X024182Y00468
X037572Y00432
X033572Y00432
X029772Y00432
X025972Y00432
X024612Y005214
X056384Y00492
X052484Y00492
X048684Y00492
X044784Y00492
X042694Y00468
X056084Y00432
X052084Y00432
X048284Y00432
X044484Y00432
X043124Y005214
X056384Y001
X052484Y001
X048684Y001
X044784Y001
X042694Y00076
X056084Y0004
X052084Y0004
X048284Y0004
X044484Y0004
X043124Y001294
X037872Y001
X033972Y001
X030172Y001
X026272Y001
X024182Y00076
X037572Y0004
X033572Y0004
X029772Y0004
X025972Y0004
X024612Y001294
X01936Y001
X01546Y001
X01166Y001
X00776Y001
X00567Y00076
X01906Y0004
X01506Y0004
X01126Y0004
X00746Y0004
X0061Y001294
T02
X00646Y0753
X00567Y07568
X024972Y0753
X024182Y07568
X043484Y0753
X042694Y07568
X043484Y07138
X042694Y07176
X024972Y07138
X024182Y07176
X00646Y07138
X00567Y07176
X00646Y06746
X00567Y06784
X024972Y06746
X024182Y06784
X043484Y06746
X042694Y06784
X043484Y06354
X042694Y06392
X024972Y06354
X024182Y06392
X00646Y06354
X00567Y06392
X00646Y05962
X00567Y06
X024972Y05962
X024182Y06
X043484Y05962
X042694Y06
X043484Y0557
X042694Y05608
X024972Y0557
X024182Y05608
X00646Y0557
X00567Y05608
X00646Y05178
X00567Y05216
X024972Y05178
X024182Y05216
X043484Y05178
X042694Y05216
X043484Y04786
X042694Y04824
X024972Y04786
X024182Y04824
X00646Y04786
X00567Y04824
X00646Y04394
X00567Y04432
X024972Y04394
X024182Y04432
X043484Y04394
X042694Y04432
X043484Y04002
X042694Y0404
X024972Y04002
X024182Y0404
X00646Y04002
X00567Y0404
X00646Y0361
X00567Y03648
X024972Y0361
X024182Y03648
X043484Y0361
X042694Y03648
X043484Y03218
X042694Y03256
X024972Y03218
X024182Y03256
X00646Y03218
X00567Y03256
X00646Y02826
X00567Y02864
X024972Y02826
X024182Y02864
X043484Y02826
X042694Y02864
X043484Y02434
X042694Y02472
X024972Y02434
X024182Y02472
X00646Y02434
X00567Y02472
X00646Y02042
X00567Y0208
X024972Y02042
X024182Y0208
X043484Y02042
X042694Y0208
X043484Y0165
X042694Y01688
X024972Y0165
X024182Y01688
X00646Y0165
X00567Y01688
X00646Y01258
X00567Y01296
X024972Y01258
X024182Y01296
X043484Y01258
X042694Y01296
X043484Y00866
X042694Y00904
X024972Y00866
X024182Y00904
X00646Y00866
X00567Y00904
X00646Y00474
X00567Y00512
X024972Y00474
X024182Y00512
X043484Y00474
X042694Y00512
X043484Y00082
X042694Y0012
X024972Y00082
X024182Y0012
X00646Y00082
X00567Y0012
M30
