*%FSLAX24Y24*%
%MOIN*%
%IPPOS*%
%ADD10C,0.03*%
%ADD11C,0.024*%
%ADD12R,0.065X0.032*%
%ADD13C,0.0276*%
%ADD14C,0.01*%
%ADD15C,0.015*%
%ADD16C,0.125*%
%ADD17R,0.075X0.075*%
%ADD18R,0.08X0.08*%
%AMD19*
1,1,0.1,0.0,0.0*
1,0,0.0875,0.0,0.0*
1,1,0.05,0.0,0.0*
1,0,0.0375,0.0,0.0*
20,1,0.0062,0.0,-0.0969,0.0,0.0969,0.0*
20,1,0.0062,-0.0969,0.0,0.0969,0.0,0.0*%
%ADD19D19*%
G04:---LTIenv:A019:6,0.2,6 *
%ADD100C,0.03*%
%ADD101C,0.024*%
%ADD102R,0.012X0.024*%
%ADD103R,0.03X0.02*%
%ADD104C,0.007*%
%ADD105R,0.062X0.028*%
%ADD106R,0.0085X0.02*%
%ADD107R,0.026X0.018*%
%ADD108C,0.035*%
%ADD109R,0.07X0.037*%
%ADD110C,0.035*%
%ADD111R,0.017X0.029*%
%ADD112R,0.035X0.025*%
%ADD113C,0.005*%
%AMD117*
1,1,0.001,0.01,0.0*
20,1,0.001,0.01,0.0,-0.01,0.0,0.0*
1,1,0.001,-0.01,0.0*
1,1,0.001,0.0,0.01*
20,1,0.001,0.0,0.01,0.0,-0.01,0.0*
1,1,0.001,0.0,-0.01*%
%ADD117D117*%
%AMD118*
1,1,0.001,0.025,0.0*
20,1,0.001,0.025,0.0,0.0246,-0.0043,0.0*
1,1,0.001,0.0246,-0.0043*
20,1,0.001,0.0246,-0.0043,0.0235,-0.0086,0.0*
1,1,0.001,0.0235,-0.0086*
20,1,0.001,0.0235,-0.0086,0.0217,-0.0125,0.0*
1,1,0.001,0.0217,-0.0125*
20,1,0.001,0.0217,-0.0125,0.0192,-0.0161,0.0*
1,1,0.001,0.0192,-0.0161*
20,1,0.001,0.0192,-0.0161,0.0161,-0.0192,0.0*
1,1,0.001,0.0161,-0.0192*
20,1,0.001,0.0161,-0.0192,0.0125,-0.0217,0.0*
1,1,0.001,0.0125,-0.0217*
20,1,0.001,0.0125,-0.0217,0.0086,-0.0235,0.0*
1,1,0.001,0.0086,-0.0235*
20,1,0.001,0.0086,-0.0235,0.0043,-0.0246,0.0*
1,1,0.001,0.0043,-0.0246*
20,1,0.001,0.0043,-0.0246,0.0,-0.025,0.0*
1,1,0.001,0.0,-0.025*
20,1,0.001,0.0,-0.025,-0.0043,-0.0246,0.0*
1,1,0.001,-0.0043,-0.0246*
20,1,0.001,-0.0043,-0.0246,-0.0086,-0.0235,0.0*
1,1,0.001,-0.0086,-0.0235*
20,1,0.001,-0.0086,-0.0235,-0.0125,-0.0217,0.0*
1,1,0.001,-0.0125,-0.0217*
20,1,0.001,-0.0125,-0.0217,-0.0161,-0.0192,0.0*
1,1,0.001,-0.0161,-0.0192*
20,1,0.001,-0.0161,-0.0192,-0.0192,-0.0161,0.0*
1,1,0.001,-0.0192,-0.0161*
20,1,0.001,-0.0192,-0.0161,-0.0217,-0.0125,0.0*
1,1,0.001,-0.0217,-0.0125*
20,1,0.001,-0.0217,-0.0125,-0.0235,-0.0086,0.0*
1,1,0.001,-0.0235,-0.0086*
20,1,0.001,-0.0235,-0.0086,-0.0246,-0.0043,0.0*
1,1,0.001,-0.0246,-0.0043*
20,1,0.001,-0.0246,-0.0043,-0.025,0.0,0.0*
1,1,0.001,-0.025,0.0*
20,1,0.001,-0.025,0.0,-0.0246,0.0043,0.0*
1,1,0.001,-0.0246,0.0043*
20,1,0.001,-0.0246,0.0043,-0.0235,0.0086,0.0*
1,1,0.001,-0.0235,0.0086*
20,1,0.001,-0.0235,0.0086,-0.0217,0.0125,0.0*
1,1,0.001,-0.0217,0.0125*
20,1,0.001,-0.0217,0.0125,-0.0192,0.0161,0.0*
1,1,0.001,-0.0192,0.0161*
20,1,0.001,-0.0192,0.0161,-0.0161,0.0192,0.0*
1,1,0.001,-0.0161,0.0192*
20,1,0.001,-0.0161,0.0192,-0.0125,0.0217,0.0*
1,1,0.001,-0.0125,0.0217*
20,1,0.001,-0.0125,0.0217,-0.0086,0.0235,0.0*
1,1,0.001,-0.0086,0.0235*
20,1,0.001,-0.0086,0.0235,-0.0043,0.0246,0.0*
1,1,0.001,-0.0043,0.0246*
20,1,0.001,-0.0043,0.0246,0.0,0.025,0.0*
1,1,0.001,0.0,0.025*
20,1,0.001,0.0,0.025,0.0043,0.0246,0.0*
1,1,0.001,0.0043,0.0246*
20,1,0.001,0.0043,0.0246,0.0086,0.0235,0.0*
1,1,0.001,0.0086,0.0235*
20,1,0.001,0.0086,0.0235,0.0125,0.0217,0.0*
1,1,0.001,0.0125,0.0217*
20,1,0.001,0.0125,0.0217,0.0161,0.0192,0.0*
1,1,0.001,0.0161,0.0192*
20,1,0.001,0.0161,0.0192,0.0192,0.0161,0.0*
1,1,0.001,0.0192,0.0161*
20,1,0.001,0.0192,0.0161,0.0217,0.0125,0.0*
1,1,0.001,0.0217,0.0125*
20,1,0.001,0.0217,0.0125,0.0235,0.0086,0.0*
1,1,0.001,0.0235,0.0086*
20,1,0.001,0.0235,0.0086,0.0246,0.0043,0.0*
1,1,0.001,0.0246,0.0043*
20,1,0.001,0.0246,0.0043,0.025,0.0,0.0*
1,1,0.001,0.025,0.0*
1,1,0.001,0.0125,0.0*
20,1,0.001,0.0125,0.0,-0.0125,0.0,0.0*
1,1,0.001,-0.0125,0.0*
1,1,0.001,0.0,0.0125*
20,1,0.001,0.0,0.0125,0.0,-0.0125,0.0*
1,1,0.001,0.0,-0.0125*%
%ADD118D118*%
%ADD119C,0.08*%
%ADD120C,0.008*%
%ADD200C,0.002*%
%ADD901C,0.0118*%
G04:---LTIenv:A901:15,0.0118,1 *
%ADD902C,0.02*%
G04:---LTIenv:A902:15,0.02,2 *

%LPD*%
D14*X19360Y75280D2*Y75480D1*Y74880D2*X19060D1*X15460Y75280D2*Y75480D1*Y74880D2*X15060D1*X11660Y75280D2*Y75480D1*Y74880D2*X11260D1*X7760Y75280D2*Y75480D1*X6460Y75300D2*X6246D1*X6146Y75200*Y74977*X6460Y75300D2*X6420Y75340D1*Y75660*X6409Y75671*Y75858*X6264Y76003*Y76063*X7760Y74880D2*X7460D1*X5792Y76063D2*Y75802D1*X5670Y75680*X5556Y76063D2*Y75794D1*X5670Y75680*X5674Y74977D2*Y75240D1*X5670*X6100Y75774D2*Y75780D1*X6028Y75852*Y76063*X37872Y75280D2*Y75480D1*Y74880D2*X37572D1*X33972Y75280D2*Y75480D1*Y74880D2*X33572D1*X30172Y75280D2*Y75480D1*Y74880D2*X29772D1*X26272Y75280D2*Y75480D1*X24972Y75300D2*X24758D1*X24658Y75200*Y74977*X24972Y75300D2*X24932Y75340D1*Y75660*X24921Y75671*Y75858*X24776Y76003*Y76063*X26272Y74880D2*X25972D1*X24304Y76063D2*Y75802D1*X24182Y75680*X24068Y76063D2*Y75794D1*X24182Y75680*X24186Y74977D2*Y75240D1*X24182*X24612Y75774D2*Y75780D1*X24540Y75852*Y76063*X56384Y75280D2*Y75480D1*Y74880D2*X56084D1*X52484Y75280D2*Y75480D1*Y74880D2*X52084D1*X48684Y75280D2*Y75480D1*Y74880D2*X48284D1*X44784Y75280D2*Y75480D1*X43484Y75300D2*X43270D1*X43170Y75200*Y74977*X43484Y75300D2*X43444Y75340D1*Y75660*X43433Y75671*Y75858*X43288Y76003*Y76063*X44784Y74880D2*X44484D1*X42816Y76063D2*Y75802D1*X42694Y75680*X42580Y76063D2*Y75794D1*X42694Y75680*X42698Y74977D2*Y75240D1*X42694*X43124Y75774D2*Y75780D1*X43052Y75852*Y76063*X56384Y71360D2*Y71560D1*Y70960D2*X56084D1*X52484Y71360D2*Y71560D1*Y70960D2*X52084D1*X48684Y71360D2*Y71560D1*Y70960D2*X48284D1*X44784Y71360D2*Y71560D1*X43484Y71380D2*X43270D1*X43170Y71280*Y71057*X43484Y71380D2*X43444Y71420D1*Y71740*X43433Y71751*Y71938*X43288Y72083*Y72143*X44784Y70960D2*X44484D1*X42816Y72143D2*Y71882D1*X42694Y71760*X42580Y72143D2*Y71874D1*X42694Y71760*X42698Y71057D2*Y71320D1*X42694*X43124Y71854D2*Y71860D1*X43052Y71932*Y72143*X37872Y71360D2*Y71560D1*Y70960D2*X37572D1*X33972Y71360D2*Y71560D1*Y70960D2*X33572D1*X30172Y71360D2*Y71560D1*Y70960D2*X29772D1*X26272Y71360D2*Y71560D1*X24972Y71380D2*X24758D1*X24658Y71280*Y71057*X24972Y71380D2*X24932Y71420D1*Y71740*X24921Y71751*Y71938*X24776Y72083*Y72143*X26272Y70960D2*X25972D1*X24304Y72143D2*Y71882D1*X24182Y71760*X24068Y72143D2*Y71874D1*X24182Y71760*X24186Y71057D2*Y71320D1*X24182*X24612Y71854D2*Y71860D1*X24540Y71932*Y72143*X19360Y71360D2*Y71560D1*Y70960D2*X19060D1*X15460Y71360D2*Y71560D1*Y70960D2*X15060D1*X11660Y71360D2*Y71560D1*Y70960D2*X11260D1*X7760Y71360D2*Y71560D1*X6460Y71380D2*X6246D1*X6146Y71280*Y71057*X6460Y71380D2*X6420Y71420D1*Y71740*X6409Y71751*Y71938*X6264Y72083*Y72143*X7760Y70960D2*X7460D1*X5792Y72143D2*Y71882D1*X5670Y71760*X5556Y72143D2*Y71874D1*X5670Y71760*X5674Y71057D2*Y71320D1*X5670*X6100Y71854D2*Y71860D1*X6028Y71932*Y72143*X19360Y67440D2*Y67640D1*Y67040D2*X19060D1*X15460Y67440D2*Y67640D1*Y67040D2*X15060D1*X11660Y67440D2*Y67640D1*Y67040D2*X11260D1*X7760Y67440D2*Y67640D1*X6460Y67460D2*X6246D1*X6146Y67360*Y67137*X6460Y67460D2*X6420Y67500D1*Y67820*X6409Y67831*Y68018*X6264Y68163*Y68223*X7760Y67040D2*X7460D1*X5792Y68223D2*Y67962D1*X5670Y67840*X5556Y68223D2*Y67954D1*X5670Y67840*X5674Y67137D2*Y67400D1*X5670*X6100Y67934D2*Y67940D1*X6028Y68012*Y68223*X37872Y67440D2*Y67640D1*Y67040D2*X37572D1*X33972Y67440D2*Y67640D1*Y67040D2*X33572D1*X30172Y67440D2*Y67640D1*Y67040D2*X29772D1*X26272Y67440D2*Y67640D1*X24972Y67460D2*X24758D1*X24658Y67360*Y67137*X24972Y67460D2*X24932Y67500D1*Y67820*X24921Y67831*Y68018*X24776Y68163*Y68223*X26272Y67040D2*X25972D1*X24304Y68223D2*Y67962D1*X24182Y67840*X24068Y68223D2*Y67954D1*X24182Y67840*X24186Y67137D2*Y67400D1*X24182*X24612Y67934D2*Y67940D1*X24540Y68012*Y68223*X56384Y67440D2*Y67640D1*Y67040D2*X56084D1*X52484Y67440D2*Y67640D1*Y67040D2*X52084D1*X48684Y67440D2*Y67640D1*Y67040D2*X48284D1*X44784Y67440D2*Y67640D1*X43484Y67460D2*X43270D1*X43170Y67360*Y67137*X43484Y67460D2*X43444Y67500D1*Y67820*X43433Y67831*Y68018*X43288Y68163*Y68223*X44784Y67040D2*X44484D1*X42816Y68223D2*Y67962D1*X42694Y67840*X42580Y68223D2*Y67954D1*X42694Y67840*X42698Y67137D2*Y67400D1*X42694*X43124Y67934D2*Y67940D1*X43052Y68012*Y68223*X56384Y63520D2*Y63720D1*Y63120D2*X56084D1*X52484Y63520D2*Y63720D1*Y63120D2*X52084D1*X48684Y63520D2*Y63720D1*Y63120D2*X48284D1*X44784Y63520D2*Y63720D1*X43484Y63540D2*X43270D1*X43170Y63440*Y63217*X43484Y63540D2*X43444Y63580D1*Y63900*X43433Y63911*Y64098*X43288Y64243*Y64303*X44784Y63120D2*X44484D1*X42816Y64303D2*Y64042D1*X42694Y63920*X42580Y64303D2*Y64034D1*X42694Y63920*X42698Y63217D2*Y63480D1*X42694*X43124Y64014D2*Y64020D1*X43052Y64092*Y64303*X37872Y63520D2*Y63720D1*Y63120D2*X37572D1*X33972Y63520D2*Y63720D1*Y63120D2*X33572D1*X30172Y63520D2*Y63720D1*Y63120D2*X29772D1*X26272Y63520D2*Y63720D1*X24972Y63540D2*X24758D1*X24658Y63440*Y63217*X24972Y63540D2*X24932Y63580D1*Y63900*X24921Y63911*Y64098*X24776Y64243*Y64303*X26272Y63120D2*X25972D1*X24304Y64303D2*Y64042D1*X24182Y63920*X24068Y64303D2*Y64034D1*X24182Y63920*X24186Y63217D2*Y63480D1*X24182*X24612Y64014D2*Y64020D1*X24540Y64092*Y64303*X19360Y63520D2*Y63720D1*Y63120D2*X19060D1*X15460Y63520D2*Y63720D1*Y63120D2*X15060D1*X11660Y63520D2*Y63720D1*Y63120D2*X11260D1*X7760Y63520D2*Y63720D1*X6460Y63540D2*X6246D1*X6146Y63440*Y63217*X6460Y63540D2*X6420Y63580D1*Y63900*X6409Y63911*Y64098*X6264Y64243*Y64303*X7760Y63120D2*X7460D1*X5792Y64303D2*Y64042D1*X5670Y63920*X5556Y64303D2*Y64034D1*X5670Y63920*X5674Y63217D2*Y63480D1*X5670*X6100Y64014D2*Y64020D1*X6028Y64092*Y64303*X19360Y59600D2*Y59800D1*Y59200D2*X19060D1*X15460Y59600D2*Y59800D1*Y59200D2*X15060D1*X11660Y59600D2*Y59800D1*Y59200D2*X11260D1*X7760Y59600D2*Y59800D1*X6460Y59620D2*X6246D1*X6146Y59520*Y59297*X6460Y59620D2*X6420Y59660D1*Y59980*X6409Y59991*Y60178*X6264Y60323*Y60383*X7760Y59200D2*X7460D1*X5792Y60383D2*Y60122D1*X5670Y60000*X5556Y60383D2*Y60114D1*X5670Y60000*X5674Y59297D2*Y59560D1*X5670*X6100Y60094D2*Y60100D1*X6028Y60172*Y60383*X37872Y59600D2*Y59800D1*Y59200D2*X37572D1*X33972Y59600D2*Y59800D1*Y59200D2*X33572D1*X30172Y59600D2*Y59800D1*Y59200D2*X29772D1*X26272Y59600D2*Y59800D1*X24972Y59620D2*X24758D1*X24658Y59520*Y59297*X24972Y59620D2*X24932Y59660D1*Y59980*X24921Y59991*Y60178*X24776Y60323*Y60383*X26272Y59200D2*X25972D1*X24304Y60383D2*Y60122D1*X24182Y60000*X24068Y60383D2*Y60114D1*X24182Y60000*X24186Y59297D2*Y59560D1*X24182*X24612Y60094D2*Y60100D1*X24540Y60172*Y60383*X56384Y59600D2*Y59800D1*Y59200D2*X56084D1*X52484Y59600D2*Y59800D1*Y59200D2*X52084D1*X48684Y59600D2*Y59800D1*Y59200D2*X48284D1*X44784Y59600D2*Y59800D1*X43484Y59620D2*X43270D1*X43170Y59520*Y59297*X43484Y59620D2*X43444Y59660D1*Y59980*X43433Y59991*Y60178*X43288Y60323*Y60383*X44784Y59200D2*X44484D1*X42816Y60383D2*Y60122D1*X42694Y60000*X42580Y60383D2*Y60114D1*X42694Y60000*X42698Y59297D2*Y59560D1*X42694*X43124Y60094D2*Y60100D1*X43052Y60172*Y60383*X56384Y55680D2*Y55880D1*Y55280D2*X56084D1*X52484Y55680D2*Y55880D1*Y55280D2*X52084D1*X48684Y55680D2*Y55880D1*Y55280D2*X48284D1*X44784Y55680D2*Y55880D1*X43484Y55700D2*X43270D1*X43170Y55600*Y55377*X43484Y55700D2*X43444Y55740D1*Y56060*X43433Y56071*Y56258*X43288Y56403*Y56463*X44784Y55280D2*X44484D1*X42816Y56463D2*Y56202D1*X42694Y56080*X42580Y56463D2*Y56194D1*X42694Y56080*X42698Y55377D2*Y55640D1*X42694*X43124Y56174D2*Y56180D1*X43052Y56252*Y56463*X37872Y55680D2*Y55880D1*Y55280D2*X37572D1*X33972Y55680D2*Y55880D1*Y55280D2*X33572D1*X30172Y55680D2*Y55880D1*Y55280D2*X29772D1*X26272Y55680D2*Y55880D1*X24972Y55700D2*X24758D1*X24658Y55600*Y55377*X24972Y55700D2*X24932Y55740D1*Y56060*X24921Y56071*Y56258*X24776Y56403*Y56463*X26272Y55280D2*X25972D1*X24304Y56463D2*Y56202D1*X24182Y56080*X24068Y56463D2*Y56194D1*X24182Y56080*X24186Y55377D2*Y55640D1*X24182*X24612Y56174D2*Y56180D1*X24540Y56252*Y56463*X19360Y55680D2*Y55880D1*Y55280D2*X19060D1*X15460Y55680D2*Y55880D1*Y55280D2*X15060D1*X11660Y55680D2*Y55880D1*Y55280D2*X11260D1*X7760Y55680D2*Y55880D1*X6460Y55700D2*X6246D1*X6146Y55600*Y55377*X6460Y55700D2*X6420Y55740D1*Y56060*X6409Y56071*Y56258*X6264Y56403*Y56463*X7760Y55280D2*X7460D1*X5792Y56463D2*Y56202D1*X5670Y56080*X5556Y56463D2*Y56194D1*X5670Y56080*X5674Y55377D2*Y55640D1*X5670*X6100Y56174D2*Y56180D1*X6028Y56252*Y56463*X19360Y51760D2*Y51960D1*Y51360D2*X19060D1*X15460Y51760D2*Y51960D1*Y51360D2*X15060D1*X11660Y51760D2*Y51960D1*Y51360D2*X11260D1*X7760Y51760D2*Y51960D1*X6460Y51780D2*X6246D1*X6146Y51680*Y51457*X6460Y51780D2*X6420Y51820D1*Y52140*X6409Y52151*Y52338*X6264Y52483*Y52543*X7760Y51360D2*X7460D1*X5792Y52543D2*Y52282D1*X5670Y52160*X5556Y52543D2*Y52274D1*X5670Y52160*X5674Y51457D2*Y51720D1*X5670*X6100Y52254D2*Y52260D1*X6028Y52332*Y52543*X37872Y51760D2*Y51960D1*Y51360D2*X37572D1*X33972Y51760D2*Y51960D1*Y51360D2*X33572D1*X30172Y51760D2*Y51960D1*Y51360D2*X29772D1*X26272Y51760D2*Y51960D1*X24972Y51780D2*X24758D1*X24658Y51680*Y51457*X24972Y51780D2*X24932Y51820D1*Y52140*X24921Y52151*Y52338*X24776Y52483*Y52543*X26272Y51360D2*X25972D1*X24304Y52543D2*Y52282D1*X24182Y52160*X24068Y52543D2*Y52274D1*X24182Y52160*X24186Y51457D2*Y51720D1*X24182*X24612Y52254D2*Y52260D1*X24540Y52332*Y52543*X56384Y51760D2*Y51960D1*Y51360D2*X56084D1*X52484Y51760D2*Y51960D1*Y51360D2*X52084D1*X48684Y51760D2*Y51960D1*Y51360D2*X48284D1*X44784Y51760D2*Y51960D1*X43484Y51780D2*X43270D1*X43170Y51680*Y51457*X43484Y51780D2*X43444Y51820D1*Y52140*X43433Y52151*Y52338*X43288Y52483*Y52543*X44784Y51360D2*X44484D1*X42816Y52543D2*Y52282D1*X42694Y52160*X42580Y52543D2*Y52274D1*X42694Y52160*X42698Y51457D2*Y51720D1*X42694*X43124Y52254D2*Y52260D1*X43052Y52332*Y52543*X56384Y47840D2*Y48040D1*Y47440D2*X56084D1*X52484Y47840D2*Y48040D1*Y47440D2*X52084D1*X48684Y47840D2*Y48040D1*Y47440D2*X48284D1*X44784Y47840D2*Y48040D1*X43484Y47860D2*X43270D1*X43170Y47760*Y47537*X43484Y47860D2*X43444Y47900D1*Y48220*X43433Y48231*Y48418*X43288Y48563*Y48623*X44784Y47440D2*X44484D1*X42816Y48623D2*Y48362D1*X42694Y48240*X42580Y48623D2*Y48354D1*X42694Y48240*X42698Y47537D2*Y47800D1*X42694*X43124Y48334D2*Y48340D1*X43052Y48412*Y48623*X37872Y47840D2*Y48040D1*Y47440D2*X37572D1*X33972Y47840D2*Y48040D1*Y47440D2*X33572D1*X30172Y47840D2*Y48040D1*Y47440D2*X29772D1*X26272Y47840D2*Y48040D1*X24972Y47860D2*X24758D1*X24658Y47760*Y47537*X24972Y47860D2*X24932Y47900D1*Y48220*X24921Y48231*Y48418*X24776Y48563*Y48623*X26272Y47440D2*X25972D1*X24304Y48623D2*Y48362D1*X24182Y48240*X24068Y48623D2*Y48354D1*X24182Y48240*X24186Y47537D2*Y47800D1*X24182*X24612Y48334D2*Y48340D1*X24540Y48412*Y48623*X19360Y47840D2*Y48040D1*Y47440D2*X19060D1*X15460Y47840D2*Y48040D1*Y47440D2*X15060D1*X11660Y47840D2*Y48040D1*Y47440D2*X11260D1*X7760Y47840D2*Y48040D1*X6460Y47860D2*X6246D1*X6146Y47760*Y47537*X6460Y47860D2*X6420Y47900D1*Y48220*X6409Y48231*Y48418*X6264Y48563*Y48623*X7760Y47440D2*X7460D1*X5792Y48623D2*Y48362D1*X5670Y48240*X5556Y48623D2*Y48354D1*X5670Y48240*X5674Y47537D2*Y47800D1*X5670*X6100Y48334D2*Y48340D1*X6028Y48412*Y48623*X19360Y43920D2*Y44120D1*Y43520D2*X19060D1*X15460Y43920D2*Y44120D1*Y43520D2*X15060D1*X11660Y43920D2*Y44120D1*Y43520D2*X11260D1*X7760Y43920D2*Y44120D1*X6460Y43940D2*X6246D1*X6146Y43840*Y43617*X6460Y43940D2*X6420Y43980D1*Y44300*X6409Y44311*Y44498*X6264Y44643*Y44703*X7760Y43520D2*X7460D1*X5792Y44703D2*Y44442D1*X5670Y44320*X5556Y44703D2*Y44434D1*X5670Y44320*X5674Y43617D2*Y43880D1*X5670*X6100Y44414D2*Y44420D1*X6028Y44492*Y44703*X37872Y43920D2*Y44120D1*Y43520D2*X37572D1*X33972Y43920D2*Y44120D1*Y43520D2*X33572D1*X30172Y43920D2*Y44120D1*Y43520D2*X29772D1*X26272Y43920D2*Y44120D1*X24972Y43940D2*X24758D1*X24658Y43840*Y43617*X24972Y43940D2*X24932Y43980D1*Y44300*X24921Y44311*Y44498*X24776Y44643*Y44703*X26272Y43520D2*X25972D1*X24304Y44703D2*Y44442D1*X24182Y44320*X24068Y44703D2*Y44434D1*X24182Y44320*X24186Y43617D2*Y43880D1*X24182*X24612Y44414D2*Y44420D1*X24540Y44492*Y44703*X56384Y43920D2*Y44120D1*Y43520D2*X56084D1*X52484Y43920D2*Y44120D1*Y43520D2*X52084D1*X48684Y43920D2*Y44120D1*Y43520D2*X48284D1*X44784Y43920D2*Y44120D1*X43484Y43940D2*X43270D1*X43170Y43840*Y43617*X43484Y43940D2*X43444Y43980D1*Y44300*X43433Y44311*Y44498*X43288Y44643*Y44703*X44784Y43520D2*X44484D1*X42816Y44703D2*Y44442D1*X42694Y44320*X42580Y44703D2*Y44434D1*X42694Y44320*X42698Y43617D2*Y43880D1*X42694*X43124Y44414D2*Y44420D1*X43052Y44492*Y44703*X56384Y40000D2*Y40200D1*Y39600D2*X56084D1*X52484Y40000D2*Y40200D1*Y39600D2*X52084D1*X48684Y40000D2*Y40200D1*Y39600D2*X48284D1*X44784Y40000D2*Y40200D1*X43484Y40020D2*X43270D1*X43170Y39920*Y39697*X43484Y40020D2*X43444Y40060D1*Y40380*X43433Y40391*Y40578*X43288Y40723*Y40783*X44784Y39600D2*X44484D1*X42816Y40783D2*Y40522D1*X42694Y40400*X42580Y40783D2*Y40514D1*X42694Y40400*X42698Y39697D2*Y39960D1*X42694*X43124Y40494D2*Y40500D1*X43052Y40572*Y40783*X37872Y40000D2*Y40200D1*Y39600D2*X37572D1*X33972Y40000D2*Y40200D1*Y39600D2*X33572D1*X30172Y40000D2*Y40200D1*Y39600D2*X29772D1*X26272Y40000D2*Y40200D1*X24972Y40020D2*X24758D1*X24658Y39920*Y39697*X24972Y40020D2*X24932Y40060D1*Y40380*X24921Y40391*Y40578*X24776Y40723*Y40783*X26272Y39600D2*X25972D1*X24304Y40783D2*Y40522D1*X24182Y40400*X24068Y40783D2*Y40514D1*X24182Y40400*X24186Y39697D2*Y39960D1*X24182*X24612Y40494D2*Y40500D1*X24540Y40572*Y40783*X19360Y40000D2*Y40200D1*Y39600D2*X19060D1*X15460Y40000D2*Y40200D1*Y39600D2*X15060D1*X11660Y40000D2*Y40200D1*Y39600D2*X11260D1*X7760Y40000D2*Y40200D1*X6460Y40020D2*X6246D1*X6146Y39920*Y39697*X6460Y40020D2*X6420Y40060D1*Y40380*X6409Y40391*Y40578*X6264Y40723*Y40783*X7760Y39600D2*X7460D1*X5792Y40783D2*Y40522D1*X5670Y40400*X5556Y40783D2*Y40514D1*X5670Y40400*X5674Y39697D2*Y39960D1*X5670*X6100Y40494D2*Y40500D1*X6028Y40572*Y40783*X19360Y36080D2*Y36280D1*Y35680D2*X19060D1*X15460Y36080D2*Y36280D1*Y35680D2*X15060D1*X11660Y36080D2*Y36280D1*Y35680D2*X11260D1*X7760Y36080D2*Y36280D1*X6460Y36100D2*X6246D1*X6146Y36000*Y35777*X6460Y36100D2*X6420Y36140D1*Y36460*X6409Y36471*Y36658*X6264Y36803*Y36863*X7760Y35680D2*X7460D1*X5792Y36863D2*Y36602D1*X5670Y36480*X5556Y36863D2*Y36594D1*X5670Y36480*X5674Y35777D2*Y36040D1*X5670*X6100Y36574D2*Y36580D1*X6028Y36652*Y36863*X37872Y36080D2*Y36280D1*Y35680D2*X37572D1*X33972Y36080D2*Y36280D1*Y35680D2*X33572D1*X30172Y36080D2*Y36280D1*Y35680D2*X29772D1*X26272Y36080D2*Y36280D1*X24972Y36100D2*X24758D1*X24658Y36000*Y35777*X24972Y36100D2*X24932Y36140D1*Y36460*X24921Y36471*Y36658*X24776Y36803*Y36863*X26272Y35680D2*X25972D1*X24304Y36863D2*Y36602D1*X24182Y36480*X24068Y36863D2*Y36594D1*X24182Y36480*X24186Y35777D2*Y36040D1*X24182*X24612Y36574D2*Y36580D1*X24540Y36652*Y36863*X56384Y36080D2*Y36280D1*Y35680D2*X56084D1*X52484Y36080D2*Y36280D1*Y35680D2*X52084D1*X48684Y36080D2*Y36280D1*Y35680D2*X48284D1*X44784Y36080D2*Y36280D1*X43484Y36100D2*X43270D1*X43170Y36000*Y35777*X43484Y36100D2*X43444Y36140D1*Y36460*X43433Y36471*Y36658*X43288Y36803*Y36863*X44784Y35680D2*X44484D1*X42816Y36863D2*Y36602D1*X42694Y36480*X42580Y36863D2*Y36594D1*X42694Y36480*X42698Y35777D2*Y36040D1*X42694*X43124Y36574D2*Y36580D1*X43052Y36652*Y36863*X56384Y32160D2*Y32360D1*Y31760D2*X56084D1*X52484Y32160D2*Y32360D1*Y31760D2*X52084D1*X48684Y32160D2*Y32360D1*Y31760D2*X48284D1*X44784Y32160D2*Y32360D1*X43484Y32180D2*X43270D1*X43170Y32080*Y31857*X43484Y32180D2*X43444Y32220D1*Y32540*X43433Y32551*Y32738*X43288Y32883*Y32943*X44784Y31760D2*X44484D1*X42816Y32943D2*Y32682D1*X42694Y32560*X42580Y32943D2*Y32674D1*X42694Y32560*X42698Y31857D2*Y32120D1*X42694*X43124Y32654D2*Y32660D1*X43052Y32732*Y32943*X37872Y32160D2*Y32360D1*Y31760D2*X37572D1*X33972Y32160D2*Y32360D1*Y31760D2*X33572D1*X30172Y32160D2*Y32360D1*Y31760D2*X29772D1*X26272Y32160D2*Y32360D1*X24972Y32180D2*X24758D1*X24658Y32080*Y31857*X24972Y32180D2*X24932Y32220D1*Y32540*X24921Y32551*Y32738*X24776Y32883*Y32943*X26272Y31760D2*X25972D1*X24304Y32943D2*Y32682D1*X24182Y32560*X24068Y32943D2*Y32674D1*X24182Y32560*X24186Y31857D2*Y32120D1*X24182*X24612Y32654D2*Y32660D1*X24540Y32732*Y32943*X19360Y32160D2*Y32360D1*Y31760D2*X19060D1*X15460Y32160D2*Y32360D1*Y31760D2*X15060D1*X11660Y32160D2*Y32360D1*Y31760D2*X11260D1*X7760Y32160D2*Y32360D1*X6460Y32180D2*X6246D1*X6146Y32080*Y31857*X6460Y32180D2*X6420Y32220D1*Y32540*X6409Y32551*Y32738*X6264Y32883*Y32943*X7760Y31760D2*X7460D1*X5792Y32943D2*Y32682D1*X5670Y32560*X5556Y32943D2*Y32674D1*X5670Y32560*X5674Y31857D2*Y32120D1*X5670*X6100Y32654D2*Y32660D1*X6028Y32732*Y32943*X19360Y28240D2*Y28440D1*Y27840D2*X19060D1*X15460Y28240D2*Y28440D1*Y27840D2*X15060D1*X11660Y28240D2*Y28440D1*Y27840D2*X11260D1*X7760Y28240D2*Y28440D1*X6460Y28260D2*X6246D1*X6146Y28160*Y27937*X6460Y28260D2*X6420Y28300D1*Y28620*X6409Y28631*Y28818*X6264Y28963*Y29023*X7760Y27840D2*X7460D1*X5792Y29023D2*Y28762D1*X5670Y28640*X5556Y29023D2*Y28754D1*X5670Y28640*X5674Y27937D2*Y28200D1*X5670*X6100Y28734D2*Y28740D1*X6028Y28812*Y29023*X37872Y28240D2*Y28440D1*Y27840D2*X37572D1*X33972Y28240D2*Y28440D1*Y27840D2*X33572D1*X30172Y28240D2*Y28440D1*Y27840D2*X29772D1*X26272Y28240D2*Y28440D1*X24972Y28260D2*X24758D1*X24658Y28160*Y27937*X24972Y28260D2*X24932Y28300D1*Y28620*X24921Y28631*Y28818*X24776Y28963*Y29023*X26272Y27840D2*X25972D1*X24304Y29023D2*Y28762D1*X24182Y28640*X24068Y29023D2*Y28754D1*X24182Y28640*X24186Y27937D2*Y28200D1*X24182*X24612Y28734D2*Y28740D1*X24540Y28812*Y29023*X56384Y28240D2*Y28440D1*Y27840D2*X56084D1*X52484Y28240D2*Y28440D1*Y27840D2*X52084D1*X48684Y28240D2*Y28440D1*Y27840D2*X48284D1*X44784Y28240D2*Y28440D1*X43484Y28260D2*X43270D1*X43170Y28160*Y27937*X43484Y28260D2*X43444Y28300D1*Y28620*X43433Y28631*Y28818*X43288Y28963*Y29023*X44784Y27840D2*X44484D1*X42816Y29023D2*Y28762D1*X42694Y28640*X42580Y29023D2*Y28754D1*X42694Y28640*X42698Y27937D2*Y28200D1*X42694*X43124Y28734D2*Y28740D1*X43052Y28812*Y29023*X56384Y24320D2*Y24520D1*Y23920D2*X56084D1*X52484Y24320D2*Y24520D1*Y23920D2*X52084D1*X48684Y24320D2*Y24520D1*Y23920D2*X48284D1*X44784Y24320D2*Y24520D1*X43484Y24340D2*X43270D1*X43170Y24240*Y24017*X43484Y24340D2*X43444Y24380D1*Y24700*X43433Y24711*Y24898*X43288Y25043*Y25103*X44784Y23920D2*X44484D1*X42816Y25103D2*Y24842D1*X42694Y24720*X42580Y25103D2*Y24834D1*X42694Y24720*X42698Y24017D2*Y24280D1*X42694*X43124Y24814D2*Y24820D1*X43052Y24892*Y25103*X37872Y24320D2*Y24520D1*Y23920D2*X37572D1*X33972Y24320D2*Y24520D1*Y23920D2*X33572D1*X30172Y24320D2*Y24520D1*Y23920D2*X29772D1*X26272Y24320D2*Y24520D1*X24972Y24340D2*X24758D1*X24658Y24240*Y24017*X24972Y24340D2*X24932Y24380D1*Y24700*X24921Y24711*Y24898*X24776Y25043*Y25103*X26272Y23920D2*X25972D1*X24304Y25103D2*Y24842D1*X24182Y24720*X24068Y25103D2*Y24834D1*X24182Y24720*X24186Y24017D2*Y24280D1*X24182*X24612Y24814D2*Y24820D1*X24540Y24892*Y25103*X19360Y24320D2*Y24520D1*Y23920D2*X19060D1*X15460Y24320D2*Y24520D1*Y23920D2*X15060D1*X11660Y24320D2*Y24520D1*Y23920D2*X11260D1*X7760Y24320D2*Y24520D1*X6460Y24340D2*X6246D1*X6146Y24240*Y24017*X6460Y24340D2*X6420Y24380D1*Y24700*X6409Y24711*Y24898*X6264Y25043*Y25103*X7760Y23920D2*X7460D1*X5792Y25103D2*Y24842D1*X5670Y24720*X5556Y25103D2*Y24834D1*X5670Y24720*X5674Y24017D2*Y24280D1*X5670*X6100Y24814D2*Y24820D1*X6028Y24892*Y25103*X19360Y20400D2*Y20600D1*Y20000D2*X19060D1*X15460Y20400D2*Y20600D1*Y20000D2*X15060D1*X11660Y20400D2*Y20600D1*Y20000D2*X11260D1*X7760Y20400D2*Y20600D1*X6460Y20420D2*X6246D1*X6146Y20320*Y20097*X6460Y20420D2*X6420Y20460D1*Y20780*X6409Y20791*Y20978*X6264Y21123*Y21183*X7760Y20000D2*X7460D1*X5792Y21183D2*Y20922D1*X5670Y20800*X5556Y21183D2*Y20914D1*X5670Y20800*X5674Y20097D2*Y20360D1*X5670*X6100Y20894D2*Y20900D1*X6028Y20972*Y21183*X37872Y20400D2*Y20600D1*Y20000D2*X37572D1*X33972Y20400D2*Y20600D1*Y20000D2*X33572D1*X30172Y20400D2*Y20600D1*Y20000D2*X29772D1*X26272Y20400D2*Y20600D1*X24972Y20420D2*X24758D1*X24658Y20320*Y20097*X24972Y20420D2*X24932Y20460D1*Y20780*X24921Y20791*Y20978*X24776Y21123*Y21183*X26272Y20000D2*X25972D1*X24304Y21183D2*Y20922D1*X24182Y20800*X24068Y21183D2*Y20914D1*X24182Y20800*X24186Y20097D2*Y20360D1*X24182*X24612Y20894D2*Y20900D1*X24540Y20972*Y21183*X56384Y20400D2*Y20600D1*Y20000D2*X56084D1*X52484Y20400D2*Y20600D1*Y20000D2*X52084D1*X48684Y20400D2*Y20600D1*Y20000D2*X48284D1*X44784Y20400D2*Y20600D1*X43484Y20420D2*X43270D1*X43170Y20320*Y20097*X43484Y20420D2*X43444Y20460D1*Y20780*X43433Y20791*Y20978*X43288Y21123*Y21183*X44784Y20000D2*X44484D1*X42816Y21183D2*Y20922D1*X42694Y20800*X42580Y21183D2*Y20914D1*X42694Y20800*X42698Y20097D2*Y20360D1*X42694*X43124Y20894D2*Y20900D1*X43052Y20972*Y21183*X56384Y16480D2*Y16680D1*Y16080D2*X56084D1*X52484Y16480D2*Y16680D1*Y16080D2*X52084D1*X48684Y16480D2*Y16680D1*Y16080D2*X48284D1*X44784Y16480D2*Y16680D1*X43484Y16500D2*X43270D1*X43170Y16400*Y16177*X43484Y16500D2*X43444Y16540D1*Y16860*X43433Y16871*Y17058*X43288Y17203*Y17263*X44784Y16080D2*X44484D1*X42816Y17263D2*Y17002D1*X42694Y16880*X42580Y17263D2*Y16994D1*X42694Y16880*X42698Y16177D2*Y16440D1*X42694*X43124Y16974D2*Y16980D1*X43052Y17052*Y17263*X37872Y16480D2*Y16680D1*Y16080D2*X37572D1*X33972Y16480D2*Y16680D1*Y16080D2*X33572D1*X30172Y16480D2*Y16680D1*Y16080D2*X29772D1*X26272Y16480D2*Y16680D1*X24972Y16500D2*X24758D1*X24658Y16400*Y16177*X24972Y16500D2*X24932Y16540D1*Y16860*X24921Y16871*Y17058*X24776Y17203*Y17263*X26272Y16080D2*X25972D1*X24304Y17263D2*Y17002D1*X24182Y16880*X24068Y17263D2*Y16994D1*X24182Y16880*X24186Y16177D2*Y16440D1*X24182*X24612Y16974D2*Y16980D1*X24540Y17052*Y17263*X19360Y16480D2*Y16680D1*Y16080D2*X19060D1*X15460Y16480D2*Y16680D1*Y16080D2*X15060D1*X11660Y16480D2*Y16680D1*Y16080D2*X11260D1*X7760Y16480D2*Y16680D1*X6460Y16500D2*X6246D1*X6146Y16400*Y16177*X6460Y16500D2*X6420Y16540D1*Y16860*X6409Y16871*Y17058*X6264Y17203*Y17263*X7760Y16080D2*X7460D1*X5792Y17263D2*Y17002D1*X5670Y16880*X5556Y17263D2*Y16994D1*X5670Y16880*X5674Y16177D2*Y16440D1*X5670*X6100Y16974D2*Y16980D1*X6028Y17052*Y17263*X19360Y12560D2*Y12760D1*Y12160D2*X19060D1*X15460Y12560D2*Y12760D1*Y12160D2*X15060D1*X11660Y12560D2*Y12760D1*Y12160D2*X11260D1*X7760Y12560D2*Y12760D1*X6460Y12580D2*X6246D1*X6146Y12480*Y12257*X6460Y12580D2*X6420Y12620D1*Y12940*X6409Y12951*Y13138*X6264Y13283*Y13343*X7760Y12160D2*X7460D1*X5792Y13343D2*Y13082D1*X5670Y12960*X5556Y13343D2*Y13074D1*X5670Y12960*X5674Y12257D2*Y12520D1*X5670*X6100Y13054D2*Y13060D1*X6028Y13132*Y13343*X37872Y12560D2*Y12760D1*Y12160D2*X37572D1*X33972Y12560D2*Y12760D1*Y12160D2*X33572D1*X30172Y12560D2*Y12760D1*Y12160D2*X29772D1*X26272Y12560D2*Y12760D1*X24972Y12580D2*X24758D1*X24658Y12480*Y12257*X24972Y12580D2*X24932Y12620D1*Y12940*X24921Y12951*Y13138*X24776Y13283*Y13343*X26272Y12160D2*X25972D1*X24304Y13343D2*Y13082D1*X24182Y12960*X24068Y13343D2*Y13074D1*X24182Y12960*X24186Y12257D2*Y12520D1*X24182*X24612Y13054D2*Y13060D1*X24540Y13132*Y13343*X56384Y12560D2*Y12760D1*Y12160D2*X56084D1*X52484Y12560D2*Y12760D1*Y12160D2*X52084D1*X48684Y12560D2*Y12760D1*Y12160D2*X48284D1*X44784Y12560D2*Y12760D1*X43484Y12580D2*X43270D1*X43170Y12480*Y12257*X43484Y12580D2*X43444Y12620D1*Y12940*X43433Y12951*Y13138*X43288Y13283*Y13343*X44784Y12160D2*X44484D1*X42816Y13343D2*Y13082D1*X42694Y12960*X42580Y13343D2*Y13074D1*X42694Y12960*X42698Y12257D2*Y12520D1*X42694*X43124Y13054D2*Y13060D1*X43052Y13132*Y13343*X56384Y8640D2*Y8840D1*Y8240D2*X56084D1*X52484Y8640D2*Y8840D1*Y8240D2*X52084D1*X48684Y8640D2*Y8840D1*Y8240D2*X48284D1*X44784Y8640D2*Y8840D1*X43484Y8660D2*X43270D1*X43170Y8560*Y8337*X43484Y8660D2*X43444Y8700D1*Y9020*X43433Y9031*Y9218*X43288Y9363*Y9423*X44784Y8240D2*X44484D1*X42816Y9423D2*Y9162D1*X42694Y9040*X42580Y9423D2*Y9154D1*X42694Y9040*X42698Y8337D2*Y8600D1*X42694*X43124Y9134D2*Y9140D1*X43052Y9212*Y9423*X37872Y8640D2*Y8840D1*Y8240D2*X37572D1*X33972Y8640D2*Y8840D1*Y8240D2*X33572D1*X30172Y8640D2*Y8840D1*Y8240D2*X29772D1*X26272Y8640D2*Y8840D1*X24972Y8660D2*X24758D1*X24658Y8560*Y8337*X24972Y8660D2*X24932Y8700D1*Y9020*X24921Y9031*Y9218*X24776Y9363*Y9423*X26272Y8240D2*X25972D1*X24304Y9423D2*Y9162D1*X24182Y9040*X24068Y9423D2*Y9154D1*X24182Y9040*X24186Y8337D2*Y8600D1*X24182*X24612Y9134D2*Y9140D1*X24540Y9212*Y9423*X19360Y8640D2*Y8840D1*Y8240D2*X19060D1*X15460Y8640D2*Y8840D1*Y8240D2*X15060D1*X11660Y8640D2*Y8840D1*Y8240D2*X11260D1*X7760Y8640D2*Y8840D1*X6460Y8660D2*X6246D1*X6146Y8560*Y8337*X6460Y8660D2*X6420Y8700D1*Y9020*X6409Y9031*Y9218*X6264Y9363*Y9423*X7760Y8240D2*X7460D1*X5792Y9423D2*Y9162D1*X5670Y9040*X5556Y9423D2*Y9154D1*X5670Y9040*X5674Y8337D2*Y8600D1*X5670*X6100Y9134D2*Y9140D1*X6028Y9212*Y9423*X19360Y4720D2*Y4920D1*Y4320D2*X19060D1*X15460Y4720D2*Y4920D1*Y4320D2*X15060D1*X11660Y4720D2*Y4920D1*Y4320D2*X11260D1*X7760Y4720D2*Y4920D1*X6460Y4740D2*X6246D1*X6146Y4640*Y4417*X6460Y4740D2*X6420Y4780D1*Y5100*X6409Y5111*Y5298*X6264Y5443*Y5503*X7760Y4320D2*X7460D1*X5792Y5503D2*Y5242D1*X5670Y5120*X5556Y5503D2*Y5234D1*X5670Y5120*X5674Y4417D2*Y4680D1*X5670*X6100Y5214D2*Y5220D1*X6028Y5292*Y5503*X37872Y4720D2*Y4920D1*Y4320D2*X37572D1*X33972Y4720D2*Y4920D1*Y4320D2*X33572D1*X30172Y4720D2*Y4920D1*Y4320D2*X29772D1*X26272Y4720D2*Y4920D1*X24972Y4740D2*X24758D1*X24658Y4640*Y4417*X24972Y4740D2*X24932Y4780D1*Y5100*X24921Y5111*Y5298*X24776Y5443*Y5503*X26272Y4320D2*X25972D1*X24304Y5503D2*Y5242D1*X24182Y5120*X24068Y5503D2*Y5234D1*X24182Y5120*X24186Y4417D2*Y4680D1*X24182*X24612Y5214D2*Y5220D1*X24540Y5292*Y5503*X56384Y4720D2*Y4920D1*Y4320D2*X56084D1*X52484Y4720D2*Y4920D1*Y4320D2*X52084D1*X48684Y4720D2*Y4920D1*Y4320D2*X48284D1*X44784Y4720D2*Y4920D1*X43484Y4740D2*X43270D1*X43170Y4640*Y4417*X43484Y4740D2*X43444Y4780D1*Y5100*X43433Y5111*Y5298*X43288Y5443*Y5503*X44784Y4320D2*X44484D1*X42816Y5503D2*Y5242D1*X42694Y5120*X42580Y5503D2*Y5234D1*X42694Y5120*X42698Y4417D2*Y4680D1*X42694*X43124Y5214D2*Y5220D1*X43052Y5292*Y5503*X56384Y800D2*Y1000D1*Y400D2*X56084D1*X52484Y800D2*Y1000D1*Y400D2*X52084D1*X48684Y800D2*Y1000D1*Y400D2*X48284D1*X44784Y800D2*Y1000D1*X43484Y820D2*X43270D1*X43170Y720*Y497*X43484Y820D2*X43444Y860D1*Y1180*X43433Y1191*Y1378*X43288Y1523*Y1583*X44784Y400D2*X44484D1*X42816Y1583D2*Y1322D1*X42694Y1200*X42580Y1583D2*Y1314D1*X42694Y1200*X42698Y497D2*Y760D1*X42694*X43124Y1294D2*Y1300D1*X43052Y1372*Y1583*X37872Y800D2*Y1000D1*Y400D2*X37572D1*X33972Y800D2*Y1000D1*Y400D2*X33572D1*X30172Y800D2*Y1000D1*Y400D2*X29772D1*X26272Y800D2*Y1000D1*X24972Y820D2*X24758D1*X24658Y720*Y497*X24972Y820D2*X24932Y860D1*Y1180*X24921Y1191*Y1378*X24776Y1523*Y1583*X26272Y400D2*X25972D1*X24304Y1583D2*Y1322D1*X24182Y1200*X24068Y1583D2*Y1314D1*X24182Y1200*X24186Y497D2*Y760D1*X24182*X24612Y1294D2*Y1300D1*X24540Y1372*Y1583*X19360Y800D2*Y1000D1*Y400D2*X19060D1*X15460Y800D2*Y1000D1*Y400D2*X15060D1*X11660Y800D2*Y1000D1*Y400D2*X11260D1*X7760Y800D2*Y1000D1*X6460Y820D2*X6246D1*X6146Y720*Y497*X6460Y820D2*X6420Y860D1*Y1180*X6409Y1191*Y1378*X6264Y1523*Y1583*X7760Y400D2*X7460D1*X5792Y1583D2*Y1322D1*X5670Y1200*X5556Y1583D2*Y1314D1*X5670Y1200*X5674Y497D2*Y760D1*X5670*X6100Y1294D2*Y1300D1*X6028Y1372*Y1583*D104*X60060Y30340D2*Y29840D1*X20813Y76880D2*X20661D1*X20813Y77280D2*X20737Y77380D1*Y76880*X21664Y77380D2*X21823Y76880D1*X21982Y77380*X22341Y77138D2*X22493D1*X22239Y77380D2*X22493D1*Y76880*X22239*X22782D2*X22877Y77122D1*X23036*X22877D2*X22833Y77147D1*X22794Y77188*X22782Y77255*X22794Y77322*X22826Y77355*X22877Y77380*X23036*Y76880*X19524Y77888D2*X19562Y77813D1*X19600Y77772*X19651Y77755*X19696Y77763*X19734Y77797*X19766Y77855*X19778Y77913*X19766Y77980*X19740Y78030*X19702Y78063*X19651Y78080*X19606Y78063*X19568Y78030*X19536Y77963*X19524Y77888*Y77797*X19536Y77722*X19568Y77647*X19613Y77597*X19664Y77580*X19715Y77597*X19759Y77638*X20194Y77580D2*X20239Y77588D1*X20290Y77613*X20321Y77655*X20334Y77713*X20321Y77772*X20283Y77822*X20226Y77847*X20162*X20124Y77863*X20092Y77905*X20079Y77963*X20099Y78022*X20143Y78063*X20194Y78080*X20245Y78063*X20290Y78022*X20309Y77963*X20296Y77905*X20264Y77863*X20226Y77847*X20162*X20105Y77822*X20067Y77772*X20054Y77713*X20067Y77655*X20099Y77613*X20149Y77588*X20194Y77580*X20826Y78038D2*X20769Y78072D1*X20712Y78080*X20654Y78055*X20622Y78013*X20610Y77963*X20622Y77913*X20654Y77872*X20692Y77847*X20750*X20692D2*X20648Y77830D1*X20603Y77788*X20591Y77730*X20597Y77680*X20629Y77630*X20680Y77588*X20731Y77580*X20788Y77588*X20839Y77622*X20877Y77680*X21280Y78080D2*X21229Y78063D1*X21191Y78022*X21165Y77972*X21146Y77905*X21140Y77830*X21146Y77755*X21165Y77688*X21191Y77638*X21229Y77597*X21280Y77580*X21331Y77597*X21369Y77638*X21395Y77688*X21414Y77755*X21420Y77830*X21414Y77905*X21395Y77972*X21369Y78022*X21331Y78063*X21280Y78080*X21969Y77847D2*X21772D1*X21728Y77830*X21689Y77780*X21677Y77722*X21689Y77663*X21715Y77613*X21759Y77580*X21969*Y78080*X21798*X21753Y78055*X21728Y78022*X21715Y77972*X21728Y77913*X21747Y77872*X21772Y77847*X22207Y77655D2*X22239Y77622D1*X22277Y77597*X22321Y77580*X22366*X22411Y77597*X22455Y77630*X22493Y77680*X22512Y77730*X22525Y77805*X22519Y77880*X22493Y77963*X22462Y78013*X22417Y78055*X22360Y78080*X22309*X22264Y78063*X22226Y78038*X23036Y77788D2*X22884D1*X22826Y77813*X22794Y77863*X22782Y77930*X22794Y77997*X22833Y78055*X22884Y78080*X23036*Y77580*X39325Y76880D2*X39173D1*X39325Y77280D2*X39249Y77380D1*Y76880*X40176Y77380D2*X40335Y76880D1*X40494Y77380*X40853Y77138D2*X41005D1*X40751Y77380D2*X41005D1*Y76880*X40751*X41294D2*X41389Y77122D1*X41548*X41389D2*X41345Y77147D1*X41306Y77188*X41294Y77255*X41306Y77322*X41338Y77355*X41389Y77380*X41548*Y76880*X38036Y77888D2*X38074Y77813D1*X38112Y77772*X38163Y77755*X38208Y77763*X38246Y77797*X38278Y77855*X38290Y77913*X38278Y77980*X38252Y78030*X38214Y78063*X38163Y78080*X38118Y78063*X38080Y78030*X38048Y77963*X38036Y77888*Y77797*X38048Y77722*X38080Y77647*X38125Y77597*X38176Y77580*X38227Y77597*X38271Y77638*X38706Y77580D2*X38751Y77588D1*X38802Y77613*X38833Y77655*X38846Y77713*X38833Y77772*X38795Y77822*X38738Y77847*X38674*X38636Y77863*X38604Y77905*X38591Y77963*X38611Y78022*X38655Y78063*X38706Y78080*X38757Y78063*X38802Y78022*X38821Y77963*X38808Y77905*X38776Y77863*X38738Y77847*X38674*X38617Y77822*X38579Y77772*X38566Y77713*X38579Y77655*X38611Y77613*X38661Y77588*X38706Y77580*X39338Y78038D2*X39281Y78072D1*X39224Y78080*X39166Y78055*X39134Y78013*X39122Y77963*X39134Y77913*X39166Y77872*X39204Y77847*X39262*X39204D2*X39160Y77830D1*X39115Y77788*X39103Y77730*X39109Y77680*X39141Y77630*X39192Y77588*X39243Y77580*X39300Y77588*X39351Y77622*X39389Y77680*X39792Y78080D2*X39741Y78063D1*X39703Y78022*X39677Y77972*X39658Y77905*X39652Y77830*X39658Y77755*X39677Y77688*X39703Y77638*X39741Y77597*X39792Y77580*X39843Y77597*X39881Y77638*X39907Y77688*X39926Y77755*X39932Y77830*X39926Y77905*X39907Y77972*X39881Y78022*X39843Y78063*X39792Y78080*X40481Y77847D2*X40284D1*X40240Y77830*X40201Y77780*X40189Y77722*X40201Y77663*X40227Y77613*X40271Y77580*X40481*Y78080*X40310*X40265Y78055*X40240Y78022*X40227Y77972*X40240Y77913*X40259Y77872*X40284Y77847*X40719Y77655D2*X40751Y77622D1*X40789Y77597*X40833Y77580*X40878*X40923Y77597*X40967Y77630*X41005Y77680*X41024Y77730*X41037Y77805*X41031Y77880*X41005Y77963*X40974Y78013*X40929Y78055*X40872Y78080*X40821*X40776Y78063*X40738Y78038*X41548Y77788D2*X41396D1*X41338Y77813*X41306Y77863*X41294Y77930*X41306Y77997*X41345Y78055*X41396Y78080*X41548*Y77580*X57837Y76880D2*X57685D1*X57837Y77280D2*X57761Y77380D1*Y76880*X58688Y77380D2*X58847Y76880D1*X59006Y77380*X59365Y77138D2*X59517D1*X59263Y77380D2*X59517D1*Y76880*X59263*X59806D2*X59901Y77122D1*X60060*X59901D2*X59857Y77147D1*X59818Y77188*X59806Y77255*X59818Y77322*X59850Y77355*X59901Y77380*X60060*Y76880*X56548Y77888D2*X56586Y77813D1*X56624Y77772*X56675Y77755*X56720Y77763*X56758Y77797*X56790Y77855*X56802Y77913*X56790Y77980*X56764Y78030*X56726Y78063*X56675Y78080*X56630Y78063*X56592Y78030*X56560Y77963*X56548Y77888*Y77797*X56560Y77722*X56592Y77647*X56637Y77597*X56688Y77580*X56739Y77597*X56783Y77638*X57218Y77580D2*X57263Y77588D1*X57314Y77613*X57345Y77655*X57358Y77713*X57345Y77772*X57307Y77822*X57250Y77847*X57186*X57148Y77863*X57116Y77905*X57103Y77963*X57123Y78022*X57167Y78063*X57218Y78080*X57269Y78063*X57314Y78022*X57333Y77963*X57320Y77905*X57288Y77863*X57250Y77847*X57186*X57129Y77822*X57091Y77772*X57078Y77713*X57091Y77655*X57123Y77613*X57173Y77588*X57218Y77580*X57850Y78038D2*X57793Y78072D1*X57736Y78080*X57678Y78055*X57646Y78013*X57634Y77963*X57646Y77913*X57678Y77872*X57716Y77847*X57774*X57716D2*X57672Y77830D1*X57627Y77788*X57615Y77730*X57621Y77680*X57653Y77630*X57704Y77588*X57755Y77580*X57812Y77588*X57863Y77622*X57901Y77680*X58304Y78080D2*X58253Y78063D1*X58215Y78022*X58189Y77972*X58170Y77905*X58164Y77830*X58170Y77755*X58189Y77688*X58215Y77638*X58253Y77597*X58304Y77580*X58355Y77597*X58393Y77638*X58419Y77688*X58438Y77755*X58444Y77830*X58438Y77905*X58419Y77972*X58393Y78022*X58355Y78063*X58304Y78080*X58993Y77847D2*X58796D1*X58752Y77830*X58713Y77780*X58701Y77722*X58713Y77663*X58739Y77613*X58783Y77580*X58993*Y78080*X58822*X58777Y78055*X58752Y78022*X58739Y77972*X58752Y77913*X58771Y77872*X58796Y77847*X59231Y77655D2*X59263Y77622D1*X59301Y77597*X59345Y77580*X59390*X59435Y77597*X59479Y77630*X59517Y77680*X59536Y77730*X59549Y77805*X59543Y77880*X59517Y77963*X59486Y78013*X59441Y78055*X59384Y78080*X59333*X59288Y78063*X59250Y78038*X60060Y77788D2*X59908D1*X59850Y77813*X59818Y77863*X59806Y77930*X59818Y77997*X59857Y78055*X59908Y78080*X60060*Y77580*X57837Y72960D2*X57685D1*X57837Y73360D2*X57761Y73460D1*Y72960*X58688Y73460D2*X58847Y72960D1*X59006Y73460*X59365Y73218D2*X59517D1*X59263Y73460D2*X59517D1*Y72960*X59263*X59806D2*X59901Y73202D1*X60060*X59901D2*X59857Y73227D1*X59818Y73268*X59806Y73335*X59818Y73402*X59850Y73435*X59901Y73460*X60060*Y72960*X56548Y73968D2*X56586Y73893D1*X56624Y73852*X56675Y73835*X56720Y73843*X56758Y73877*X56790Y73935*X56802Y73993*X56790Y74060*X56764Y74110*X56726Y74143*X56675Y74160*X56630Y74143*X56592Y74110*X56560Y74043*X56548Y73968*Y73877*X56560Y73802*X56592Y73727*X56637Y73677*X56688Y73660*X56739Y73677*X56783Y73718*X57218Y73660D2*X57263Y73668D1*X57314Y73693*X57345Y73735*X57358Y73793*X57345Y73852*X57307Y73902*X57250Y73927*X57186*X57148Y73943*X57116Y73985*X57103Y74043*X57123Y74102*X57167Y74143*X57218Y74160*X57269Y74143*X57314Y74102*X57333Y74043*X57320Y73985*X57288Y73943*X57250Y73927*X57186*X57129Y73902*X57091Y73852*X57078Y73793*X57091Y73735*X57123Y73693*X57173Y73668*X57218Y73660*X57850Y74118D2*X57793Y74152D1*X57736Y74160*X57678Y74135*X57646Y74093*X57634Y74043*X57646Y73993*X57678Y73952*X57716Y73927*X57774*X57716D2*X57672Y73910D1*X57627Y73868*X57615Y73810*X57621Y73760*X57653Y73710*X57704Y73668*X57755Y73660*X57812Y73668*X57863Y73702*X57901Y73760*X58304Y74160D2*X58253Y74143D1*X58215Y74102*X58189Y74052*X58170Y73985*X58164Y73910*X58170Y73835*X58189Y73768*X58215Y73718*X58253Y73677*X58304Y73660*X58355Y73677*X58393Y73718*X58419Y73768*X58438Y73835*X58444Y73910*X58438Y73985*X58419Y74052*X58393Y74102*X58355Y74143*X58304Y74160*X58993Y73927D2*X58796D1*X58752Y73910*X58713Y73860*X58701Y73802*X58713Y73743*X58739Y73693*X58783Y73660*X58993*Y74160*X58822*X58777Y74135*X58752Y74102*X58739Y74052*X58752Y73993*X58771Y73952*X58796Y73927*X59231Y73735D2*X59263Y73702D1*X59301Y73677*X59345Y73660*X59390*X59435Y73677*X59479Y73710*X59517Y73760*X59536Y73810*X59549Y73885*X59543Y73960*X59517Y74043*X59486Y74093*X59441Y74135*X59384Y74160*X59333*X59288Y74143*X59250Y74118*X60060Y73868D2*X59908D1*X59850Y73893*X59818Y73943*X59806Y74010*X59818Y74077*X59857Y74135*X59908Y74160*X60060*Y73660*X39325Y72960D2*X39173D1*X39325Y73360D2*X39249Y73460D1*Y72960*X40176Y73460D2*X40335Y72960D1*X40494Y73460*X40853Y73218D2*X41005D1*X40751Y73460D2*X41005D1*Y72960*X40751*X41294D2*X41389Y73202D1*X41548*X41389D2*X41345Y73227D1*X41306Y73268*X41294Y73335*X41306Y73402*X41338Y73435*X41389Y73460*X41548*Y72960*X38036Y73968D2*X38074Y73893D1*X38112Y73852*X38163Y73835*X38208Y73843*X38246Y73877*X38278Y73935*X38290Y73993*X38278Y74060*X38252Y74110*X38214Y74143*X38163Y74160*X38118Y74143*X38080Y74110*X38048Y74043*X38036Y73968*Y73877*X38048Y73802*X38080Y73727*X38125Y73677*X38176Y73660*X38227Y73677*X38271Y73718*X38706Y73660D2*X38751Y73668D1*X38802Y73693*X38833Y73735*X38846Y73793*X38833Y73852*X38795Y73902*X38738Y73927*X38674*X38636Y73943*X38604Y73985*X38591Y74043*X38611Y74102*X38655Y74143*X38706Y74160*X38757Y74143*X38802Y74102*X38821Y74043*X38808Y73985*X38776Y73943*X38738Y73927*X38674*X38617Y73902*X38579Y73852*X38566Y73793*X38579Y73735*X38611Y73693*X38661Y73668*X38706Y73660*X39338Y74118D2*X39281Y74152D1*X39224Y74160*X39166Y74135*X39134Y74093*X39122Y74043*X39134Y73993*X39166Y73952*X39204Y73927*X39262*X39204D2*X39160Y73910D1*X39115Y73868*X39103Y73810*X39109Y73760*X39141Y73710*X39192Y73668*X39243Y73660*X39300Y73668*X39351Y73702*X39389Y73760*X39792Y74160D2*X39741Y74143D1*X39703Y74102*X39677Y74052*X39658Y73985*X39652Y73910*X39658Y73835*X39677Y73768*X39703Y73718*X39741Y73677*X39792Y73660*X39843Y73677*X39881Y73718*X39907Y73768*X39926Y73835*X39932Y73910*X39926Y73985*X39907Y74052*X39881Y74102*X39843Y74143*X39792Y74160*X40481Y73927D2*X40284D1*X40240Y73910*X40201Y73860*X40189Y73802*X40201Y73743*X40227Y73693*X40271Y73660*X40481*Y74160*X40310*X40265Y74135*X40240Y74102*X40227Y74052*X40240Y73993*X40259Y73952*X40284Y73927*X40719Y73735D2*X40751Y73702D1*X40789Y73677*X40833Y73660*X40878*X40923Y73677*X40967Y73710*X41005Y73760*X41024Y73810*X41037Y73885*X41031Y73960*X41005Y74043*X40974Y74093*X40929Y74135*X40872Y74160*X40821*X40776Y74143*X40738Y74118*X41548Y73868D2*X41396D1*X41338Y73893*X41306Y73943*X41294Y74010*X41306Y74077*X41345Y74135*X41396Y74160*X41548*Y73660*X20813Y72960D2*X20661D1*X20813Y73360D2*X20737Y73460D1*Y72960*X21664Y73460D2*X21823Y72960D1*X21982Y73460*X22341Y73218D2*X22493D1*X22239Y73460D2*X22493D1*Y72960*X22239*X22782D2*X22877Y73202D1*X23036*X22877D2*X22833Y73227D1*X22794Y73268*X22782Y73335*X22794Y73402*X22826Y73435*X22877Y73460*X23036*Y72960*X19524Y73968D2*X19562Y73893D1*X19600Y73852*X19651Y73835*X19696Y73843*X19734Y73877*X19766Y73935*X19778Y73993*X19766Y74060*X19740Y74110*X19702Y74143*X19651Y74160*X19606Y74143*X19568Y74110*X19536Y74043*X19524Y73968*Y73877*X19536Y73802*X19568Y73727*X19613Y73677*X19664Y73660*X19715Y73677*X19759Y73718*X20194Y73660D2*X20239Y73668D1*X20290Y73693*X20321Y73735*X20334Y73793*X20321Y73852*X20283Y73902*X20226Y73927*X20162*X20124Y73943*X20092Y73985*X20079Y74043*X20099Y74102*X20143Y74143*X20194Y74160*X20245Y74143*X20290Y74102*X20309Y74043*X20296Y73985*X20264Y73943*X20226Y73927*X20162*X20105Y73902*X20067Y73852*X20054Y73793*X20067Y73735*X20099Y73693*X20149Y73668*X20194Y73660*X20826Y74118D2*X20769Y74152D1*X20712Y74160*X20654Y74135*X20622Y74093*X20610Y74043*X20622Y73993*X20654Y73952*X20692Y73927*X20750*X20692D2*X20648Y73910D1*X20603Y73868*X20591Y73810*X20597Y73760*X20629Y73710*X20680Y73668*X20731Y73660*X20788Y73668*X20839Y73702*X20877Y73760*X21280Y74160D2*X21229Y74143D1*X21191Y74102*X21165Y74052*X21146Y73985*X21140Y73910*X21146Y73835*X21165Y73768*X21191Y73718*X21229Y73677*X21280Y73660*X21331Y73677*X21369Y73718*X21395Y73768*X21414Y73835*X21420Y73910*X21414Y73985*X21395Y74052*X21369Y74102*X21331Y74143*X21280Y74160*X21969Y73927D2*X21772D1*X21728Y73910*X21689Y73860*X21677Y73802*X21689Y73743*X21715Y73693*X21759Y73660*X21969*Y74160*X21798*X21753Y74135*X21728Y74102*X21715Y74052*X21728Y73993*X21747Y73952*X21772Y73927*X22207Y73735D2*X22239Y73702D1*X22277Y73677*X22321Y73660*X22366*X22411Y73677*X22455Y73710*X22493Y73760*X22512Y73810*X22525Y73885*X22519Y73960*X22493Y74043*X22462Y74093*X22417Y74135*X22360Y74160*X22309*X22264Y74143*X22226Y74118*X23036Y73868D2*X22884D1*X22826Y73893*X22794Y73943*X22782Y74010*X22794Y74077*X22833Y74135*X22884Y74160*X23036*Y73660*X20813Y69040D2*X20661D1*X20813Y69440D2*X20737Y69540D1*Y69040*X21664Y69540D2*X21823Y69040D1*X21982Y69540*X22341Y69298D2*X22493D1*X22239Y69540D2*X22493D1*Y69040*X22239*X22782D2*X22877Y69282D1*X23036*X22877D2*X22833Y69307D1*X22794Y69348*X22782Y69415*X22794Y69482*X22826Y69515*X22877Y69540*X23036*Y69040*X19524Y70048D2*X19562Y69973D1*X19600Y69932*X19651Y69915*X19696Y69923*X19734Y69957*X19766Y70015*X19778Y70073*X19766Y70140*X19740Y70190*X19702Y70223*X19651Y70240*X19606Y70223*X19568Y70190*X19536Y70123*X19524Y70048*Y69957*X19536Y69882*X19568Y69807*X19613Y69757*X19664Y69740*X19715Y69757*X19759Y69798*X20194Y69740D2*X20239Y69748D1*X20290Y69773*X20321Y69815*X20334Y69873*X20321Y69932*X20283Y69982*X20226Y70007*X20162*X20124Y70023*X20092Y70065*X20079Y70123*X20099Y70182*X20143Y70223*X20194Y70240*X20245Y70223*X20290Y70182*X20309Y70123*X20296Y70065*X20264Y70023*X20226Y70007*X20162*X20105Y69982*X20067Y69932*X20054Y69873*X20067Y69815*X20099Y69773*X20149Y69748*X20194Y69740*X20826Y70198D2*X20769Y70232D1*X20712Y70240*X20654Y70215*X20622Y70173*X20610Y70123*X20622Y70073*X20654Y70032*X20692Y70007*X20750*X20692D2*X20648Y69990D1*X20603Y69948*X20591Y69890*X20597Y69840*X20629Y69790*X20680Y69748*X20731Y69740*X20788Y69748*X20839Y69782*X20877Y69840*X21280Y70240D2*X21229Y70223D1*X21191Y70182*X21165Y70132*X21146Y70065*X21140Y69990*X21146Y69915*X21165Y69848*X21191Y69798*X21229Y69757*X21280Y69740*X21331Y69757*X21369Y69798*X21395Y69848*X21414Y69915*X21420Y69990*X21414Y70065*X21395Y70132*X21369Y70182*X21331Y70223*X21280Y70240*X21969Y70007D2*X21772D1*X21728Y69990*X21689Y69940*X21677Y69882*X21689Y69823*X21715Y69773*X21759Y69740*X21969*Y70240*X21798*X21753Y70215*X21728Y70182*X21715Y70132*X21728Y70073*X21747Y70032*X21772Y70007*X22207Y69815D2*X22239Y69782D1*X22277Y69757*X22321Y69740*X22366*X22411Y69757*X22455Y69790*X22493Y69840*X22512Y69890*X22525Y69965*X22519Y70040*X22493Y70123*X22462Y70173*X22417Y70215*X22360Y70240*X22309*X22264Y70223*X22226Y70198*X23036Y69948D2*X22884D1*X22826Y69973*X22794Y70023*X22782Y70090*X22794Y70157*X22833Y70215*X22884Y70240*X23036*Y69740*X39325Y69040D2*X39173D1*X39325Y69440D2*X39249Y69540D1*Y69040*X40176Y69540D2*X40335Y69040D1*X40494Y69540*X40853Y69298D2*X41005D1*X40751Y69540D2*X41005D1*Y69040*X40751*X41294D2*X41389Y69282D1*X41548*X41389D2*X41345Y69307D1*X41306Y69348*X41294Y69415*X41306Y69482*X41338Y69515*X41389Y69540*X41548*Y69040*X38036Y70048D2*X38074Y69973D1*X38112Y69932*X38163Y69915*X38208Y69923*X38246Y69957*X38278Y70015*X38290Y70073*X38278Y70140*X38252Y70190*X38214Y70223*X38163Y70240*X38118Y70223*X38080Y70190*X38048Y70123*X38036Y70048*Y69957*X38048Y69882*X38080Y69807*X38125Y69757*X38176Y69740*X38227Y69757*X38271Y69798*X38706Y69740D2*X38751Y69748D1*X38802Y69773*X38833Y69815*X38846Y69873*X38833Y69932*X38795Y69982*X38738Y70007*X38674*X38636Y70023*X38604Y70065*X38591Y70123*X38611Y70182*X38655Y70223*X38706Y70240*X38757Y70223*X38802Y70182*X38821Y70123*X38808Y70065*X38776Y70023*X38738Y70007*X38674*X38617Y69982*X38579Y69932*X38566Y69873*X38579Y69815*X38611Y69773*X38661Y69748*X38706Y69740*X39338Y70198D2*X39281Y70232D1*X39224Y70240*X39166Y70215*X39134Y70173*X39122Y70123*X39134Y70073*X39166Y70032*X39204Y70007*X39262*X39204D2*X39160Y69990D1*X39115Y69948*X39103Y69890*X39109Y69840*X39141Y69790*X39192Y69748*X39243Y69740*X39300Y69748*X39351Y69782*X39389Y69840*X39792Y70240D2*X39741Y70223D1*X39703Y70182*X39677Y70132*X39658Y70065*X39652Y69990*X39658Y69915*X39677Y69848*X39703Y69798*X39741Y69757*X39792Y69740*X39843Y69757*X39881Y69798*X39907Y69848*X39926Y69915*X39932Y69990*X39926Y70065*X39907Y70132*X39881Y70182*X39843Y70223*X39792Y70240*X40481Y70007D2*X40284D1*X40240Y69990*X40201Y69940*X40189Y69882*X40201Y69823*X40227Y69773*X40271Y69740*X40481*Y70240*X40310*X40265Y70215*X40240Y70182*X40227Y70132*X40240Y70073*X40259Y70032*X40284Y70007*X40719Y69815D2*X40751Y69782D1*X40789Y69757*X40833Y69740*X40878*X40923Y69757*X40967Y69790*X41005Y69840*X41024Y69890*X41037Y69965*X41031Y70040*X41005Y70123*X40974Y70173*X40929Y70215*X40872Y70240*X40821*X40776Y70223*X40738Y70198*X41548Y69948D2*X41396D1*X41338Y69973*X41306Y70023*X41294Y70090*X41306Y70157*X41345Y70215*X41396Y70240*X41548*Y69740*X57837Y69040D2*X57685D1*X57837Y69440D2*X57761Y69540D1*Y69040*X58688Y69540D2*X58847Y69040D1*X59006Y69540*X59365Y69298D2*X59517D1*X59263Y69540D2*X59517D1*Y69040*X59263*X59806D2*X59901Y69282D1*X60060*X59901D2*X59857Y69307D1*X59818Y69348*X59806Y69415*X59818Y69482*X59850Y69515*X59901Y69540*X60060*Y69040*X56548Y70048D2*X56586Y69973D1*X56624Y69932*X56675Y69915*X56720Y69923*X56758Y69957*X56790Y70015*X56802Y70073*X56790Y70140*X56764Y70190*X56726Y70223*X56675Y70240*X56630Y70223*X56592Y70190*X56560Y70123*X56548Y70048*Y69957*X56560Y69882*X56592Y69807*X56637Y69757*X56688Y69740*X56739Y69757*X56783Y69798*X57218Y69740D2*X57263Y69748D1*X57314Y69773*X57345Y69815*X57358Y69873*X57345Y69932*X57307Y69982*X57250Y70007*X57186*X57148Y70023*X57116Y70065*X57103Y70123*X57123Y70182*X57167Y70223*X57218Y70240*X57269Y70223*X57314Y70182*X57333Y70123*X57320Y70065*X57288Y70023*X57250Y70007*X57186*X57129Y69982*X57091Y69932*X57078Y69873*X57091Y69815*X57123Y69773*X57173Y69748*X57218Y69740*X57850Y70198D2*X57793Y70232D1*X57736Y70240*X57678Y70215*X57646Y70173*X57634Y70123*X57646Y70073*X57678Y70032*X57716Y70007*X57774*X57716D2*X57672Y69990D1*X57627Y69948*X57615Y69890*X57621Y69840*X57653Y69790*X57704Y69748*X57755Y69740*X57812Y69748*X57863Y69782*X57901Y69840*X58304Y70240D2*X58253Y70223D1*X58215Y70182*X58189Y70132*X58170Y70065*X58164Y69990*X58170Y69915*X58189Y69848*X58215Y69798*X58253Y69757*X58304Y69740*X58355Y69757*X58393Y69798*X58419Y69848*X58438Y69915*X58444Y69990*X58438Y70065*X58419Y70132*X58393Y70182*X58355Y70223*X58304Y70240*X58993Y70007D2*X58796D1*X58752Y69990*X58713Y69940*X58701Y69882*X58713Y69823*X58739Y69773*X58783Y69740*X58993*Y70240*X58822*X58777Y70215*X58752Y70182*X58739Y70132*X58752Y70073*X58771Y70032*X58796Y70007*X59231Y69815D2*X59263Y69782D1*X59301Y69757*X59345Y69740*X59390*X59435Y69757*X59479Y69790*X59517Y69840*X59536Y69890*X59549Y69965*X59543Y70040*X59517Y70123*X59486Y70173*X59441Y70215*X59384Y70240*X59333*X59288Y70223*X59250Y70198*X60060Y69948D2*X59908D1*X59850Y69973*X59818Y70023*X59806Y70090*X59818Y70157*X59857Y70215*X59908Y70240*X60060*Y69740*X57837Y65120D2*X57685D1*X57837Y65520D2*X57761Y65620D1*Y65120*X58688Y65620D2*X58847Y65120D1*X59006Y65620*X59365Y65378D2*X59517D1*X59263Y65620D2*X59517D1*Y65120*X59263*X59806D2*X59901Y65362D1*X60060*X59901D2*X59857Y65387D1*X59818Y65428*X59806Y65495*X59818Y65562*X59850Y65595*X59901Y65620*X60060*Y65120*X56548Y66128D2*X56586Y66053D1*X56624Y66012*X56675Y65995*X56720Y66003*X56758Y66037*X56790Y66095*X56802Y66153*X56790Y66220*X56764Y66270*X56726Y66303*X56675Y66320*X56630Y66303*X56592Y66270*X56560Y66203*X56548Y66128*Y66037*X56560Y65962*X56592Y65887*X56637Y65837*X56688Y65820*X56739Y65837*X56783Y65878*X57218Y65820D2*X57263Y65828D1*X57314Y65853*X57345Y65895*X57358Y65953*X57345Y66012*X57307Y66062*X57250Y66087*X57186*X57148Y66103*X57116Y66145*X57103Y66203*X57123Y66262*X57167Y66303*X57218Y66320*X57269Y66303*X57314Y66262*X57333Y66203*X57320Y66145*X57288Y66103*X57250Y66087*X57186*X57129Y66062*X57091Y66012*X57078Y65953*X57091Y65895*X57123Y65853*X57173Y65828*X57218Y65820*X57850Y66278D2*X57793Y66312D1*X57736Y66320*X57678Y66295*X57646Y66253*X57634Y66203*X57646Y66153*X57678Y66112*X57716Y66087*X57774*X57716D2*X57672Y66070D1*X57627Y66028*X57615Y65970*X57621Y65920*X57653Y65870*X57704Y65828*X57755Y65820*X57812Y65828*X57863Y65862*X57901Y65920*X58304Y66320D2*X58253Y66303D1*X58215Y66262*X58189Y66212*X58170Y66145*X58164Y66070*X58170Y65995*X58189Y65928*X58215Y65878*X58253Y65837*X58304Y65820*X58355Y65837*X58393Y65878*X58419Y65928*X58438Y65995*X58444Y66070*X58438Y66145*X58419Y66212*X58393Y66262*X58355Y66303*X58304Y66320*X58993Y66087D2*X58796D1*X58752Y66070*X58713Y66020*X58701Y65962*X58713Y65903*X58739Y65853*X58783Y65820*X58993*Y66320*X58822*X58777Y66295*X58752Y66262*X58739Y66212*X58752Y66153*X58771Y66112*X58796Y66087*X59231Y65895D2*X59263Y65862D1*X59301Y65837*X59345Y65820*X59390*X59435Y65837*X59479Y65870*X59517Y65920*X59536Y65970*X59549Y66045*X59543Y66120*X59517Y66203*X59486Y66253*X59441Y66295*X59384Y66320*X59333*X59288Y66303*X59250Y66278*X60060Y66028D2*X59908D1*X59850Y66053*X59818Y66103*X59806Y66170*X59818Y66237*X59857Y66295*X59908Y66320*X60060*Y65820*X39325Y65120D2*X39173D1*X39325Y65520D2*X39249Y65620D1*Y65120*X40176Y65620D2*X40335Y65120D1*X40494Y65620*X40853Y65378D2*X41005D1*X40751Y65620D2*X41005D1*Y65120*X40751*X41294D2*X41389Y65362D1*X41548*X41389D2*X41345Y65387D1*X41306Y65428*X41294Y65495*X41306Y65562*X41338Y65595*X41389Y65620*X41548*Y65120*X38036Y66128D2*X38074Y66053D1*X38112Y66012*X38163Y65995*X38208Y66003*X38246Y66037*X38278Y66095*X38290Y66153*X38278Y66220*X38252Y66270*X38214Y66303*X38163Y66320*X38118Y66303*X38080Y66270*X38048Y66203*X38036Y66128*Y66037*X38048Y65962*X38080Y65887*X38125Y65837*X38176Y65820*X38227Y65837*X38271Y65878*X38706Y65820D2*X38751Y65828D1*X38802Y65853*X38833Y65895*X38846Y65953*X38833Y66012*X38795Y66062*X38738Y66087*X38674*X38636Y66103*X38604Y66145*X38591Y66203*X38611Y66262*X38655Y66303*X38706Y66320*X38757Y66303*X38802Y66262*X38821Y66203*X38808Y66145*X38776Y66103*X38738Y66087*X38674*X38617Y66062*X38579Y66012*X38566Y65953*X38579Y65895*X38611Y65853*X38661Y65828*X38706Y65820*X39338Y66278D2*X39281Y66312D1*X39224Y66320*X39166Y66295*X39134Y66253*X39122Y66203*X39134Y66153*X39166Y66112*X39204Y66087*X39262*X39204D2*X39160Y66070D1*X39115Y66028*X39103Y65970*X39109Y65920*X39141Y65870*X39192Y65828*X39243Y65820*X39300Y65828*X39351Y65862*X39389Y65920*X39792Y66320D2*X39741Y66303D1*X39703Y66262*X39677Y66212*X39658Y66145*X39652Y66070*X39658Y65995*X39677Y65928*X39703Y65878*X39741Y65837*X39792Y65820*X39843Y65837*X39881Y65878*X39907Y65928*X39926Y65995*X39932Y66070*X39926Y66145*X39907Y66212*X39881Y66262*X39843Y66303*X39792Y66320*X40481Y66087D2*X40284D1*X40240Y66070*X40201Y66020*X40189Y65962*X40201Y65903*X40227Y65853*X40271Y65820*X40481*Y66320*X40310*X40265Y66295*X40240Y66262*X40227Y66212*X40240Y66153*X40259Y66112*X40284Y66087*X40719Y65895D2*X40751Y65862D1*X40789Y65837*X40833Y65820*X40878*X40923Y65837*X40967Y65870*X41005Y65920*X41024Y65970*X41037Y66045*X41031Y66120*X41005Y66203*X40974Y66253*X40929Y66295*X40872Y66320*X40821*X40776Y66303*X40738Y66278*X41548Y66028D2*X41396D1*X41338Y66053*X41306Y66103*X41294Y66170*X41306Y66237*X41345Y66295*X41396Y66320*X41548*Y65820*X20813Y65120D2*X20661D1*X20813Y65520D2*X20737Y65620D1*Y65120*X21664Y65620D2*X21823Y65120D1*X21982Y65620*X22341Y65378D2*X22493D1*X22239Y65620D2*X22493D1*Y65120*X22239*X22782D2*X22877Y65362D1*X23036*X22877D2*X22833Y65387D1*X22794Y65428*X22782Y65495*X22794Y65562*X22826Y65595*X22877Y65620*X23036*Y65120*X19524Y66128D2*X19562Y66053D1*X19600Y66012*X19651Y65995*X19696Y66003*X19734Y66037*X19766Y66095*X19778Y66153*X19766Y66220*X19740Y66270*X19702Y66303*X19651Y66320*X19606Y66303*X19568Y66270*X19536Y66203*X19524Y66128*Y66037*X19536Y65962*X19568Y65887*X19613Y65837*X19664Y65820*X19715Y65837*X19759Y65878*X20194Y65820D2*X20239Y65828D1*X20290Y65853*X20321Y65895*X20334Y65953*X20321Y66012*X20283Y66062*X20226Y66087*X20162*X20124Y66103*X20092Y66145*X20079Y66203*X20099Y66262*X20143Y66303*X20194Y66320*X20245Y66303*X20290Y66262*X20309Y66203*X20296Y66145*X20264Y66103*X20226Y66087*X20162*X20105Y66062*X20067Y66012*X20054Y65953*X20067Y65895*X20099Y65853*X20149Y65828*X20194Y65820*X20826Y66278D2*X20769Y66312D1*X20712Y66320*X20654Y66295*X20622Y66253*X20610Y66203*X20622Y66153*X20654Y66112*X20692Y66087*X20750*X20692D2*X20648Y66070D1*X20603Y66028*X20591Y65970*X20597Y65920*X20629Y65870*X20680Y65828*X20731Y65820*X20788Y65828*X20839Y65862*X20877Y65920*X21280Y66320D2*X21229Y66303D1*X21191Y66262*X21165Y66212*X21146Y66145*X21140Y66070*X21146Y65995*X21165Y65928*X21191Y65878*X21229Y65837*X21280Y65820*X21331Y65837*X21369Y65878*X21395Y65928*X21414Y65995*X21420Y66070*X21414Y66145*X21395Y66212*X21369Y66262*X21331Y66303*X21280Y66320*X21969Y66087D2*X21772D1*X21728Y66070*X21689Y66020*X21677Y65962*X21689Y65903*X21715Y65853*X21759Y65820*X21969*Y66320*X21798*X21753Y66295*X21728Y66262*X21715Y66212*X21728Y66153*X21747Y66112*X21772Y66087*X22207Y65895D2*X22239Y65862D1*X22277Y65837*X22321Y65820*X22366*X22411Y65837*X22455Y65870*X22493Y65920*X22512Y65970*X22525Y66045*X22519Y66120*X22493Y66203*X22462Y66253*X22417Y66295*X22360Y66320*X22309*X22264Y66303*X22226Y66278*X23036Y66028D2*X22884D1*X22826Y66053*X22794Y66103*X22782Y66170*X22794Y66237*X22833Y66295*X22884Y66320*X23036*Y65820*X20813Y61200D2*X20661D1*X20813Y61600D2*X20737Y61700D1*Y61200*X21664Y61700D2*X21823Y61200D1*X21982Y61700*X22341Y61458D2*X22493D1*X22239Y61700D2*X22493D1*Y61200*X22239*X22782D2*X22877Y61442D1*X23036*X22877D2*X22833Y61467D1*X22794Y61508*X22782Y61575*X22794Y61642*X22826Y61675*X22877Y61700*X23036*Y61200*X19524Y62208D2*X19562Y62133D1*X19600Y62092*X19651Y62075*X19696Y62083*X19734Y62117*X19766Y62175*X19778Y62233*X19766Y62300*X19740Y62350*X19702Y62383*X19651Y62400*X19606Y62383*X19568Y62350*X19536Y62283*X19524Y62208*Y62117*X19536Y62042*X19568Y61967*X19613Y61917*X19664Y61900*X19715Y61917*X19759Y61958*X20194Y61900D2*X20239Y61908D1*X20290Y61933*X20321Y61975*X20334Y62033*X20321Y62092*X20283Y62142*X20226Y62167*X20162*X20124Y62183*X20092Y62225*X20079Y62283*X20099Y62342*X20143Y62383*X20194Y62400*X20245Y62383*X20290Y62342*X20309Y62283*X20296Y62225*X20264Y62183*X20226Y62167*X20162*X20105Y62142*X20067Y62092*X20054Y62033*X20067Y61975*X20099Y61933*X20149Y61908*X20194Y61900*X20826Y62358D2*X20769Y62392D1*X20712Y62400*X20654Y62375*X20622Y62333*X20610Y62283*X20622Y62233*X20654Y62192*X20692Y62167*X20750*X20692D2*X20648Y62150D1*X20603Y62108*X20591Y62050*X20597Y62000*X20629Y61950*X20680Y61908*X20731Y61900*X20788Y61908*X20839Y61942*X20877Y62000*X21280Y62400D2*X21229Y62383D1*X21191Y62342*X21165Y62292*X21146Y62225*X21140Y62150*X21146Y62075*X21165Y62008*X21191Y61958*X21229Y61917*X21280Y61900*X21331Y61917*X21369Y61958*X21395Y62008*X21414Y62075*X21420Y62150*X21414Y62225*X21395Y62292*X21369Y62342*X21331Y62383*X21280Y62400*X21969Y62167D2*X21772D1*X21728Y62150*X21689Y62100*X21677Y62042*X21689Y61983*X21715Y61933*X21759Y61900*X21969*Y62400*X21798*X21753Y62375*X21728Y62342*X21715Y62292*X21728Y62233*X21747Y62192*X21772Y62167*X22207Y61975D2*X22239Y61942D1*X22277Y61917*X22321Y61900*X22366*X22411Y61917*X22455Y61950*X22493Y62000*X22512Y62050*X22525Y62125*X22519Y62200*X22493Y62283*X22462Y62333*X22417Y62375*X22360Y62400*X22309*X22264Y62383*X22226Y62358*X23036Y62108D2*X22884D1*X22826Y62133*X22794Y62183*X22782Y62250*X22794Y62317*X22833Y62375*X22884Y62400*X23036*Y61900*X39325Y61200D2*X39173D1*X39325Y61600D2*X39249Y61700D1*Y61200*X40176Y61700D2*X40335Y61200D1*X40494Y61700*X40853Y61458D2*X41005D1*X40751Y61700D2*X41005D1*Y61200*X40751*X41294D2*X41389Y61442D1*X41548*X41389D2*X41345Y61467D1*X41306Y61508*X41294Y61575*X41306Y61642*X41338Y61675*X41389Y61700*X41548*Y61200*X38036Y62208D2*X38074Y62133D1*X38112Y62092*X38163Y62075*X38208Y62083*X38246Y62117*X38278Y62175*X38290Y62233*X38278Y62300*X38252Y62350*X38214Y62383*X38163Y62400*X38118Y62383*X38080Y62350*X38048Y62283*X38036Y62208*Y62117*X38048Y62042*X38080Y61967*X38125Y61917*X38176Y61900*X38227Y61917*X38271Y61958*X38706Y61900D2*X38751Y61908D1*X38802Y61933*X38833Y61975*X38846Y62033*X38833Y62092*X38795Y62142*X38738Y62167*X38674*X38636Y62183*X38604Y62225*X38591Y62283*X38611Y62342*X38655Y62383*X38706Y62400*X38757Y62383*X38802Y62342*X38821Y62283*X38808Y62225*X38776Y62183*X38738Y62167*X38674*X38617Y62142*X38579Y62092*X38566Y62033*X38579Y61975*X38611Y61933*X38661Y61908*X38706Y61900*X39338Y62358D2*X39281Y62392D1*X39224Y62400*X39166Y62375*X39134Y62333*X39122Y62283*X39134Y62233*X39166Y62192*X39204Y62167*X39262*X39204D2*X39160Y62150D1*X39115Y62108*X39103Y62050*X39109Y62000*X39141Y61950*X39192Y61908*X39243Y61900*X39300Y61908*X39351Y61942*X39389Y62000*X39792Y62400D2*X39741Y62383D1*X39703Y62342*X39677Y62292*X39658Y62225*X39652Y62150*X39658Y62075*X39677Y62008*X39703Y61958*X39741Y61917*X39792Y61900*X39843Y61917*X39881Y61958*X39907Y62008*X39926Y62075*X39932Y62150*X39926Y62225*X39907Y62292*X39881Y62342*X39843Y62383*X39792Y62400*X40481Y62167D2*X40284D1*X40240Y62150*X40201Y62100*X40189Y62042*X40201Y61983*X40227Y61933*X40271Y61900*X40481*Y62400*X40310*X40265Y62375*X40240Y62342*X40227Y62292*X40240Y62233*X40259Y62192*X40284Y62167*X40719Y61975D2*X40751Y61942D1*X40789Y61917*X40833Y61900*X40878*X40923Y61917*X40967Y61950*X41005Y62000*X41024Y62050*X41037Y62125*X41031Y62200*X41005Y62283*X40974Y62333*X40929Y62375*X40872Y62400*X40821*X40776Y62383*X40738Y62358*X41548Y62108D2*X41396D1*X41338Y62133*X41306Y62183*X41294Y62250*X41306Y62317*X41345Y62375*X41396Y62400*X41548*Y61900*X57837Y61200D2*X57685D1*X57837Y61600D2*X57761Y61700D1*Y61200*X58688Y61700D2*X58847Y61200D1*X59006Y61700*X59365Y61458D2*X59517D1*X59263Y61700D2*X59517D1*Y61200*X59263*X59806D2*X59901Y61442D1*X60060*X59901D2*X59857Y61467D1*X59818Y61508*X59806Y61575*X59818Y61642*X59850Y61675*X59901Y61700*X60060*Y61200*X56548Y62208D2*X56586Y62133D1*X56624Y62092*X56675Y62075*X56720Y62083*X56758Y62117*X56790Y62175*X56802Y62233*X56790Y62300*X56764Y62350*X56726Y62383*X56675Y62400*X56630Y62383*X56592Y62350*X56560Y62283*X56548Y62208*Y62117*X56560Y62042*X56592Y61967*X56637Y61917*X56688Y61900*X56739Y61917*X56783Y61958*X57218Y61900D2*X57263Y61908D1*X57314Y61933*X57345Y61975*X57358Y62033*X57345Y62092*X57307Y62142*X57250Y62167*X57186*X57148Y62183*X57116Y62225*X57103Y62283*X57123Y62342*X57167Y62383*X57218Y62400*X57269Y62383*X57314Y62342*X57333Y62283*X57320Y62225*X57288Y62183*X57250Y62167*X57186*X57129Y62142*X57091Y62092*X57078Y62033*X57091Y61975*X57123Y61933*X57173Y61908*X57218Y61900*X57850Y62358D2*X57793Y62392D1*X57736Y62400*X57678Y62375*X57646Y62333*X57634Y62283*X57646Y62233*X57678Y62192*X57716Y62167*X57774*X57716D2*X57672Y62150D1*X57627Y62108*X57615Y62050*X57621Y62000*X57653Y61950*X57704Y61908*X57755Y61900*X57812Y61908*X57863Y61942*X57901Y62000*X58304Y62400D2*X58253Y62383D1*X58215Y62342*X58189Y62292*X58170Y62225*X58164Y62150*X58170Y62075*X58189Y62008*X58215Y61958*X58253Y61917*X58304Y61900*X58355Y61917*X58393Y61958*X58419Y62008*X58438Y62075*X58444Y62150*X58438Y62225*X58419Y62292*X58393Y62342*X58355Y62383*X58304Y62400*X58993Y62167D2*X58796D1*X58752Y62150*X58713Y62100*X58701Y62042*X58713Y61983*X58739Y61933*X58783Y61900*X58993*Y62400*X58822*X58777Y62375*X58752Y62342*X58739Y62292*X58752Y62233*X58771Y62192*X58796Y62167*X59231Y61975D2*X59263Y61942D1*X59301Y61917*X59345Y61900*X59390*X59435Y61917*X59479Y61950*X59517Y62000*X59536Y62050*X59549Y62125*X59543Y62200*X59517Y62283*X59486Y62333*X59441Y62375*X59384Y62400*X59333*X59288Y62383*X59250Y62358*X60060Y62108D2*X59908D1*X59850Y62133*X59818Y62183*X59806Y62250*X59818Y62317*X59857Y62375*X59908Y62400*X60060*Y61900*X57837Y57280D2*X57685D1*X57837Y57680D2*X57761Y57780D1*Y57280*X58688Y57780D2*X58847Y57280D1*X59006Y57780*X59365Y57538D2*X59517D1*X59263Y57780D2*X59517D1*Y57280*X59263*X59806D2*X59901Y57522D1*X60060*X59901D2*X59857Y57547D1*X59818Y57588*X59806Y57655*X59818Y57722*X59850Y57755*X59901Y57780*X60060*Y57280*X56548Y58288D2*X56586Y58213D1*X56624Y58172*X56675Y58155*X56720Y58163*X56758Y58197*X56790Y58255*X56802Y58313*X56790Y58380*X56764Y58430*X56726Y58463*X56675Y58480*X56630Y58463*X56592Y58430*X56560Y58363*X56548Y58288*Y58197*X56560Y58122*X56592Y58047*X56637Y57997*X56688Y57980*X56739Y57997*X56783Y58038*X57218Y57980D2*X57263Y57988D1*X57314Y58013*X57345Y58055*X57358Y58113*X57345Y58172*X57307Y58222*X57250Y58247*X57186*X57148Y58263*X57116Y58305*X57103Y58363*X57123Y58422*X57167Y58463*X57218Y58480*X57269Y58463*X57314Y58422*X57333Y58363*X57320Y58305*X57288Y58263*X57250Y58247*X57186*X57129Y58222*X57091Y58172*X57078Y58113*X57091Y58055*X57123Y58013*X57173Y57988*X57218Y57980*X57850Y58438D2*X57793Y58472D1*X57736Y58480*X57678Y58455*X57646Y58413*X57634Y58363*X57646Y58313*X57678Y58272*X57716Y58247*X57774*X57716D2*X57672Y58230D1*X57627Y58188*X57615Y58130*X57621Y58080*X57653Y58030*X57704Y57988*X57755Y57980*X57812Y57988*X57863Y58022*X57901Y58080*X58304Y58480D2*X58253Y58463D1*X58215Y58422*X58189Y58372*X58170Y58305*X58164Y58230*X58170Y58155*X58189Y58088*X58215Y58038*X58253Y57997*X58304Y57980*X58355Y57997*X58393Y58038*X58419Y58088*X58438Y58155*X58444Y58230*X58438Y58305*X58419Y58372*X58393Y58422*X58355Y58463*X58304Y58480*X58993Y58247D2*X58796D1*X58752Y58230*X58713Y58180*X58701Y58122*X58713Y58063*X58739Y58013*X58783Y57980*X58993*Y58480*X58822*X58777Y58455*X58752Y58422*X58739Y58372*X58752Y58313*X58771Y58272*X58796Y58247*X59231Y58055D2*X59263Y58022D1*X59301Y57997*X59345Y57980*X59390*X59435Y57997*X59479Y58030*X59517Y58080*X59536Y58130*X59549Y58205*X59543Y58280*X59517Y58363*X59486Y58413*X59441Y58455*X59384Y58480*X59333*X59288Y58463*X59250Y58438*X60060Y58188D2*X59908D1*X59850Y58213*X59818Y58263*X59806Y58330*X59818Y58397*X59857Y58455*X59908Y58480*X60060*Y57980*X39325Y57280D2*X39173D1*X39325Y57680D2*X39249Y57780D1*Y57280*X40176Y57780D2*X40335Y57280D1*X40494Y57780*X40853Y57538D2*X41005D1*X40751Y57780D2*X41005D1*Y57280*X40751*X41294D2*X41389Y57522D1*X41548*X41389D2*X41345Y57547D1*X41306Y57588*X41294Y57655*X41306Y57722*X41338Y57755*X41389Y57780*X41548*Y57280*X38036Y58288D2*X38074Y58213D1*X38112Y58172*X38163Y58155*X38208Y58163*X38246Y58197*X38278Y58255*X38290Y58313*X38278Y58380*X38252Y58430*X38214Y58463*X38163Y58480*X38118Y58463*X38080Y58430*X38048Y58363*X38036Y58288*Y58197*X38048Y58122*X38080Y58047*X38125Y57997*X38176Y57980*X38227Y57997*X38271Y58038*X38706Y57980D2*X38751Y57988D1*X38802Y58013*X38833Y58055*X38846Y58113*X38833Y58172*X38795Y58222*X38738Y58247*X38674*X38636Y58263*X38604Y58305*X38591Y58363*X38611Y58422*X38655Y58463*X38706Y58480*X38757Y58463*X38802Y58422*X38821Y58363*X38808Y58305*X38776Y58263*X38738Y58247*X38674*X38617Y58222*X38579Y58172*X38566Y58113*X38579Y58055*X38611Y58013*X38661Y57988*X38706Y57980*X39338Y58438D2*X39281Y58472D1*X39224Y58480*X39166Y58455*X39134Y58413*X39122Y58363*X39134Y58313*X39166Y58272*X39204Y58247*X39262*X39204D2*X39160Y58230D1*X39115Y58188*X39103Y58130*X39109Y58080*X39141Y58030*X39192Y57988*X39243Y57980*X39300Y57988*X39351Y58022*X39389Y58080*X39792Y58480D2*X39741Y58463D1*X39703Y58422*X39677Y58372*X39658Y58305*X39652Y58230*X39658Y58155*X39677Y58088*X39703Y58038*X39741Y57997*X39792Y57980*X39843Y57997*X39881Y58038*X39907Y58088*X39926Y58155*X39932Y58230*X39926Y58305*X39907Y58372*X39881Y58422*X39843Y58463*X39792Y58480*X40481Y58247D2*X40284D1*X40240Y58230*X40201Y58180*X40189Y58122*X40201Y58063*X40227Y58013*X40271Y57980*X40481*Y58480*X40310*X40265Y58455*X40240Y58422*X40227Y58372*X40240Y58313*X40259Y58272*X40284Y58247*X40719Y58055D2*X40751Y58022D1*X40789Y57997*X40833Y57980*X40878*X40923Y57997*X40967Y58030*X41005Y58080*X41024Y58130*X41037Y58205*X41031Y58280*X41005Y58363*X40974Y58413*X40929Y58455*X40872Y58480*X40821*X40776Y58463*X40738Y58438*X41548Y58188D2*X41396D1*X41338Y58213*X41306Y58263*X41294Y58330*X41306Y58397*X41345Y58455*X41396Y58480*X41548*Y57980*X20813Y57280D2*X20661D1*X20813Y57680D2*X20737Y57780D1*Y57280*X21664Y57780D2*X21823Y57280D1*X21982Y57780*X22341Y57538D2*X22493D1*X22239Y57780D2*X22493D1*Y57280*X22239*X22782D2*X22877Y57522D1*X23036*X22877D2*X22833Y57547D1*X22794Y57588*X22782Y57655*X22794Y57722*X22826Y57755*X22877Y57780*X23036*Y57280*X19524Y58288D2*X19562Y58213D1*X19600Y58172*X19651Y58155*X19696Y58163*X19734Y58197*X19766Y58255*X19778Y58313*X19766Y58380*X19740Y58430*X19702Y58463*X19651Y58480*X19606Y58463*X19568Y58430*X19536Y58363*X19524Y58288*Y58197*X19536Y58122*X19568Y58047*X19613Y57997*X19664Y57980*X19715Y57997*X19759Y58038*X20194Y57980D2*X20239Y57988D1*X20290Y58013*X20321Y58055*X20334Y58113*X20321Y58172*X20283Y58222*X20226Y58247*X20162*X20124Y58263*X20092Y58305*X20079Y58363*X20099Y58422*X20143Y58463*X20194Y58480*X20245Y58463*X20290Y58422*X20309Y58363*X20296Y58305*X20264Y58263*X20226Y58247*X20162*X20105Y58222*X20067Y58172*X20054Y58113*X20067Y58055*X20099Y58013*X20149Y57988*X20194Y57980*X20826Y58438D2*X20769Y58472D1*X20712Y58480*X20654Y58455*X20622Y58413*X20610Y58363*X20622Y58313*X20654Y58272*X20692Y58247*X20750*X20692D2*X20648Y58230D1*X20603Y58188*X20591Y58130*X20597Y58080*X20629Y58030*X20680Y57988*X20731Y57980*X20788Y57988*X20839Y58022*X20877Y58080*X21280Y58480D2*X21229Y58463D1*X21191Y58422*X21165Y58372*X21146Y58305*X21140Y58230*X21146Y58155*X21165Y58088*X21191Y58038*X21229Y57997*X21280Y57980*X21331Y57997*X21369Y58038*X21395Y58088*X21414Y58155*X21420Y58230*X21414Y58305*X21395Y58372*X21369Y58422*X21331Y58463*X21280Y58480*X21969Y58247D2*X21772D1*X21728Y58230*X21689Y58180*X21677Y58122*X21689Y58063*X21715Y58013*X21759Y57980*X21969*Y58480*X21798*X21753Y58455*X21728Y58422*X21715Y58372*X21728Y58313*X21747Y58272*X21772Y58247*X22207Y58055D2*X22239Y58022D1*X22277Y57997*X22321Y57980*X22366*X22411Y57997*X22455Y58030*X22493Y58080*X22512Y58130*X22525Y58205*X22519Y58280*X22493Y58363*X22462Y58413*X22417Y58455*X22360Y58480*X22309*X22264Y58463*X22226Y58438*X23036Y58188D2*X22884D1*X22826Y58213*X22794Y58263*X22782Y58330*X22794Y58397*X22833Y58455*X22884Y58480*X23036*Y57980*X20813Y53360D2*X20661D1*X20813Y53760D2*X20737Y53860D1*Y53360*X21664Y53860D2*X21823Y53360D1*X21982Y53860*X22341Y53618D2*X22493D1*X22239Y53860D2*X22493D1*Y53360*X22239*X22782D2*X22877Y53602D1*X23036*X22877D2*X22833Y53627D1*X22794Y53668*X22782Y53735*X22794Y53802*X22826Y53835*X22877Y53860*X23036*Y53360*X19524Y54368D2*X19562Y54293D1*X19600Y54252*X19651Y54235*X19696Y54243*X19734Y54277*X19766Y54335*X19778Y54393*X19766Y54460*X19740Y54510*X19702Y54543*X19651Y54560*X19606Y54543*X19568Y54510*X19536Y54443*X19524Y54368*Y54277*X19536Y54202*X19568Y54127*X19613Y54077*X19664Y54060*X19715Y54077*X19759Y54118*X20194Y54060D2*X20239Y54068D1*X20290Y54093*X20321Y54135*X20334Y54193*X20321Y54252*X20283Y54302*X20226Y54327*X20162*X20124Y54343*X20092Y54385*X20079Y54443*X20099Y54502*X20143Y54543*X20194Y54560*X20245Y54543*X20290Y54502*X20309Y54443*X20296Y54385*X20264Y54343*X20226Y54327*X20162*X20105Y54302*X20067Y54252*X20054Y54193*X20067Y54135*X20099Y54093*X20149Y54068*X20194Y54060*X20826Y54518D2*X20769Y54552D1*X20712Y54560*X20654Y54535*X20622Y54493*X20610Y54443*X20622Y54393*X20654Y54352*X20692Y54327*X20750*X20692D2*X20648Y54310D1*X20603Y54268*X20591Y54210*X20597Y54160*X20629Y54110*X20680Y54068*X20731Y54060*X20788Y54068*X20839Y54102*X20877Y54160*X21280Y54560D2*X21229Y54543D1*X21191Y54502*X21165Y54452*X21146Y54385*X21140Y54310*X21146Y54235*X21165Y54168*X21191Y54118*X21229Y54077*X21280Y54060*X21331Y54077*X21369Y54118*X21395Y54168*X21414Y54235*X21420Y54310*X21414Y54385*X21395Y54452*X21369Y54502*X21331Y54543*X21280Y54560*X21969Y54327D2*X21772D1*X21728Y54310*X21689Y54260*X21677Y54202*X21689Y54143*X21715Y54093*X21759Y54060*X21969*Y54560*X21798*X21753Y54535*X21728Y54502*X21715Y54452*X21728Y54393*X21747Y54352*X21772Y54327*X22207Y54135D2*X22239Y54102D1*X22277Y54077*X22321Y54060*X22366*X22411Y54077*X22455Y54110*X22493Y54160*X22512Y54210*X22525Y54285*X22519Y54360*X22493Y54443*X22462Y54493*X22417Y54535*X22360Y54560*X22309*X22264Y54543*X22226Y54518*X23036Y54268D2*X22884D1*X22826Y54293*X22794Y54343*X22782Y54410*X22794Y54477*X22833Y54535*X22884Y54560*X23036*Y54060*X39325Y53360D2*X39173D1*X39325Y53760D2*X39249Y53860D1*Y53360*X40176Y53860D2*X40335Y53360D1*X40494Y53860*X40853Y53618D2*X41005D1*X40751Y53860D2*X41005D1*Y53360*X40751*X41294D2*X41389Y53602D1*X41548*X41389D2*X41345Y53627D1*X41306Y53668*X41294Y53735*X41306Y53802*X41338Y53835*X41389Y53860*X41548*Y53360*X38036Y54368D2*X38074Y54293D1*X38112Y54252*X38163Y54235*X38208Y54243*X38246Y54277*X38278Y54335*X38290Y54393*X38278Y54460*X38252Y54510*X38214Y54543*X38163Y54560*X38118Y54543*X38080Y54510*X38048Y54443*X38036Y54368*Y54277*X38048Y54202*X38080Y54127*X38125Y54077*X38176Y54060*X38227Y54077*X38271Y54118*X38706Y54060D2*X38751Y54068D1*X38802Y54093*X38833Y54135*X38846Y54193*X38833Y54252*X38795Y54302*X38738Y54327*X38674*X38636Y54343*X38604Y54385*X38591Y54443*X38611Y54502*X38655Y54543*X38706Y54560*X38757Y54543*X38802Y54502*X38821Y54443*X38808Y54385*X38776Y54343*X38738Y54327*X38674*X38617Y54302*X38579Y54252*X38566Y54193*X38579Y54135*X38611Y54093*X38661Y54068*X38706Y54060*X39338Y54518D2*X39281Y54552D1*X39224Y54560*X39166Y54535*X39134Y54493*X39122Y54443*X39134Y54393*X39166Y54352*X39204Y54327*X39262*X39204D2*X39160Y54310D1*X39115Y54268*X39103Y54210*X39109Y54160*X39141Y54110*X39192Y54068*X39243Y54060*X39300Y54068*X39351Y54102*X39389Y54160*X39792Y54560D2*X39741Y54543D1*X39703Y54502*X39677Y54452*X39658Y54385*X39652Y54310*X39658Y54235*X39677Y54168*X39703Y54118*X39741Y54077*X39792Y54060*X39843Y54077*X39881Y54118*X39907Y54168*X39926Y54235*X39932Y54310*X39926Y54385*X39907Y54452*X39881Y54502*X39843Y54543*X39792Y54560*X40481Y54327D2*X40284D1*X40240Y54310*X40201Y54260*X40189Y54202*X40201Y54143*X40227Y54093*X40271Y54060*X40481*Y54560*X40310*X40265Y54535*X40240Y54502*X40227Y54452*X40240Y54393*X40259Y54352*X40284Y54327*X40719Y54135D2*X40751Y54102D1*X40789Y54077*X40833Y54060*X40878*X40923Y54077*X40967Y54110*X41005Y54160*X41024Y54210*X41037Y54285*X41031Y54360*X41005Y54443*X40974Y54493*X40929Y54535*X40872Y54560*X40821*X40776Y54543*X40738Y54518*X41548Y54268D2*X41396D1*X41338Y54293*X41306Y54343*X41294Y54410*X41306Y54477*X41345Y54535*X41396Y54560*X41548*Y54060*X57837Y53360D2*X57685D1*X57837Y53760D2*X57761Y53860D1*Y53360*X58688Y53860D2*X58847Y53360D1*X59006Y53860*X59365Y53618D2*X59517D1*X59263Y53860D2*X59517D1*Y53360*X59263*X59806D2*X59901Y53602D1*X60060*X59901D2*X59857Y53627D1*X59818Y53668*X59806Y53735*X59818Y53802*X59850Y53835*X59901Y53860*X60060*Y53360*X56548Y54368D2*X56586Y54293D1*X56624Y54252*X56675Y54235*X56720Y54243*X56758Y54277*X56790Y54335*X56802Y54393*X56790Y54460*X56764Y54510*X56726Y54543*X56675Y54560*X56630Y54543*X56592Y54510*X56560Y54443*X56548Y54368*Y54277*X56560Y54202*X56592Y54127*X56637Y54077*X56688Y54060*X56739Y54077*X56783Y54118*X57218Y54060D2*X57263Y54068D1*X57314Y54093*X57345Y54135*X57358Y54193*X57345Y54252*X57307Y54302*X57250Y54327*X57186*X57148Y54343*X57116Y54385*X57103Y54443*X57123Y54502*X57167Y54543*X57218Y54560*X57269Y54543*X57314Y54502*X57333Y54443*X57320Y54385*X57288Y54343*X57250Y54327*X57186*X57129Y54302*X57091Y54252*X57078Y54193*X57091Y54135*X57123Y54093*X57173Y54068*X57218Y54060*X57850Y54518D2*X57793Y54552D1*X57736Y54560*X57678Y54535*X57646Y54493*X57634Y54443*X57646Y54393*X57678Y54352*X57716Y54327*X57774*X57716D2*X57672Y54310D1*X57627Y54268*X57615Y54210*X57621Y54160*X57653Y54110*X57704Y54068*X57755Y54060*X57812Y54068*X57863Y54102*X57901Y54160*X58304Y54560D2*X58253Y54543D1*X58215Y54502*X58189Y54452*X58170Y54385*X58164Y54310*X58170Y54235*X58189Y54168*X58215Y54118*X58253Y54077*X58304Y54060*X58355Y54077*X58393Y54118*X58419Y54168*X58438Y54235*X58444Y54310*X58438Y54385*X58419Y54452*X58393Y54502*X58355Y54543*X58304Y54560*X58993Y54327D2*X58796D1*X58752Y54310*X58713Y54260*X58701Y54202*X58713Y54143*X58739Y54093*X58783Y54060*X58993*Y54560*X58822*X58777Y54535*X58752Y54502*X58739Y54452*X58752Y54393*X58771Y54352*X58796Y54327*X59231Y54135D2*X59263Y54102D1*X59301Y54077*X59345Y54060*X59390*X59435Y54077*X59479Y54110*X59517Y54160*X59536Y54210*X59549Y54285*X59543Y54360*X59517Y54443*X59486Y54493*X59441Y54535*X59384Y54560*X59333*X59288Y54543*X59250Y54518*X60060Y54268D2*X59908D1*X59850Y54293*X59818Y54343*X59806Y54410*X59818Y54477*X59857Y54535*X59908Y54560*X60060*Y54060*X57837Y49440D2*X57685D1*X57837Y49840D2*X57761Y49940D1*Y49440*X58688Y49940D2*X58847Y49440D1*X59006Y49940*X59365Y49698D2*X59517D1*X59263Y49940D2*X59517D1*Y49440*X59263*X59806D2*X59901Y49682D1*X60060*X59901D2*X59857Y49707D1*X59818Y49748*X59806Y49815*X59818Y49882*X59850Y49915*X59901Y49940*X60060*Y49440*X56548Y50448D2*X56586Y50373D1*X56624Y50332*X56675Y50315*X56720Y50323*X56758Y50357*X56790Y50415*X56802Y50473*X56790Y50540*X56764Y50590*X56726Y50623*X56675Y50640*X56630Y50623*X56592Y50590*X56560Y50523*X56548Y50448*Y50357*X56560Y50282*X56592Y50207*X56637Y50157*X56688Y50140*X56739Y50157*X56783Y50198*X57218Y50140D2*X57263Y50148D1*X57314Y50173*X57345Y50215*X57358Y50273*X57345Y50332*X57307Y50382*X57250Y50407*X57186*X57148Y50423*X57116Y50465*X57103Y50523*X57123Y50582*X57167Y50623*X57218Y50640*X57269Y50623*X57314Y50582*X57333Y50523*X57320Y50465*X57288Y50423*X57250Y50407*X57186*X57129Y50382*X57091Y50332*X57078Y50273*X57091Y50215*X57123Y50173*X57173Y50148*X57218Y50140*X57850Y50598D2*X57793Y50632D1*X57736Y50640*X57678Y50615*X57646Y50573*X57634Y50523*X57646Y50473*X57678Y50432*X57716Y50407*X57774*X57716D2*X57672Y50390D1*X57627Y50348*X57615Y50290*X57621Y50240*X57653Y50190*X57704Y50148*X57755Y50140*X57812Y50148*X57863Y50182*X57901Y50240*X58304Y50640D2*X58253Y50623D1*X58215Y50582*X58189Y50532*X58170Y50465*X58164Y50390*X58170Y50315*X58189Y50248*X58215Y50198*X58253Y50157*X58304Y50140*X58355Y50157*X58393Y50198*X58419Y50248*X58438Y50315*X58444Y50390*X58438Y50465*X58419Y50532*X58393Y50582*X58355Y50623*X58304Y50640*X58993Y50407D2*X58796D1*X58752Y50390*X58713Y50340*X58701Y50282*X58713Y50223*X58739Y50173*X58783Y50140*X58993*Y50640*X58822*X58777Y50615*X58752Y50582*X58739Y50532*X58752Y50473*X58771Y50432*X58796Y50407*X59231Y50215D2*X59263Y50182D1*X59301Y50157*X59345Y50140*X59390*X59435Y50157*X59479Y50190*X59517Y50240*X59536Y50290*X59549Y50365*X59543Y50440*X59517Y50523*X59486Y50573*X59441Y50615*X59384Y50640*X59333*X59288Y50623*X59250Y50598*X60060Y50348D2*X59908D1*X59850Y50373*X59818Y50423*X59806Y50490*X59818Y50557*X59857Y50615*X59908Y50640*X60060*Y50140*X39325Y49440D2*X39173D1*X39325Y49840D2*X39249Y49940D1*Y49440*X40176Y49940D2*X40335Y49440D1*X40494Y49940*X40853Y49698D2*X41005D1*X40751Y49940D2*X41005D1*Y49440*X40751*X41294D2*X41389Y49682D1*X41548*X41389D2*X41345Y49707D1*X41306Y49748*X41294Y49815*X41306Y49882*X41338Y49915*X41389Y49940*X41548*Y49440*X38036Y50448D2*X38074Y50373D1*X38112Y50332*X38163Y50315*X38208Y50323*X38246Y50357*X38278Y50415*X38290Y50473*X38278Y50540*X38252Y50590*X38214Y50623*X38163Y50640*X38118Y50623*X38080Y50590*X38048Y50523*X38036Y50448*Y50357*X38048Y50282*X38080Y50207*X38125Y50157*X38176Y50140*X38227Y50157*X38271Y50198*X38706Y50140D2*X38751Y50148D1*X38802Y50173*X38833Y50215*X38846Y50273*X38833Y50332*X38795Y50382*X38738Y50407*X38674*X38636Y50423*X38604Y50465*X38591Y50523*X38611Y50582*X38655Y50623*X38706Y50640*X38757Y50623*X38802Y50582*X38821Y50523*X38808Y50465*X38776Y50423*X38738Y50407*X38674*X38617Y50382*X38579Y50332*X38566Y50273*X38579Y50215*X38611Y50173*X38661Y50148*X38706Y50140*X39338Y50598D2*X39281Y50632D1*X39224Y50640*X39166Y50615*X39134Y50573*X39122Y50523*X39134Y50473*X39166Y50432*X39204Y50407*X39262*X39204D2*X39160Y50390D1*X39115Y50348*X39103Y50290*X39109Y50240*X39141Y50190*X39192Y50148*X39243Y50140*X39300Y50148*X39351Y50182*X39389Y50240*X39792Y50640D2*X39741Y50623D1*X39703Y50582*X39677Y50532*X39658Y50465*X39652Y50390*X39658Y50315*X39677Y50248*X39703Y50198*X39741Y50157*X39792Y50140*X39843Y50157*X39881Y50198*X39907Y50248*X39926Y50315*X39932Y50390*X39926Y50465*X39907Y50532*X39881Y50582*X39843Y50623*X39792Y50640*X40481Y50407D2*X40284D1*X40240Y50390*X40201Y50340*X40189Y50282*X40201Y50223*X40227Y50173*X40271Y50140*X40481*Y50640*X40310*X40265Y50615*X40240Y50582*X40227Y50532*X40240Y50473*X40259Y50432*X40284Y50407*X40719Y50215D2*X40751Y50182D1*X40789Y50157*X40833Y50140*X40878*X40923Y50157*X40967Y50190*X41005Y50240*X41024Y50290*X41037Y50365*X41031Y50440*X41005Y50523*X40974Y50573*X40929Y50615*X40872Y50640*X40821*X40776Y50623*X40738Y50598*X41548Y50348D2*X41396D1*X41338Y50373*X41306Y50423*X41294Y50490*X41306Y50557*X41345Y50615*X41396Y50640*X41548*Y50140*X20813Y49440D2*X20661D1*X20813Y49840D2*X20737Y49940D1*Y49440*X21664Y49940D2*X21823Y49440D1*X21982Y49940*X22341Y49698D2*X22493D1*X22239Y49940D2*X22493D1*Y49440*X22239*X22782D2*X22877Y49682D1*X23036*X22877D2*X22833Y49707D1*X22794Y49748*X22782Y49815*X22794Y49882*X22826Y49915*X22877Y49940*X23036*Y49440*X19524Y50448D2*X19562Y50373D1*X19600Y50332*X19651Y50315*X19696Y50323*X19734Y50357*X19766Y50415*X19778Y50473*X19766Y50540*X19740Y50590*X19702Y50623*X19651Y50640*X19606Y50623*X19568Y50590*X19536Y50523*X19524Y50448*Y50357*X19536Y50282*X19568Y50207*X19613Y50157*X19664Y50140*X19715Y50157*X19759Y50198*X20194Y50140D2*X20239Y50148D1*X20290Y50173*X20321Y50215*X20334Y50273*X20321Y50332*X20283Y50382*X20226Y50407*X20162*X20124Y50423*X20092Y50465*X20079Y50523*X20099Y50582*X20143Y50623*X20194Y50640*X20245Y50623*X20290Y50582*X20309Y50523*X20296Y50465*X20264Y50423*X20226Y50407*X20162*X20105Y50382*X20067Y50332*X20054Y50273*X20067Y50215*X20099Y50173*X20149Y50148*X20194Y50140*X20826Y50598D2*X20769Y50632D1*X20712Y50640*X20654Y50615*X20622Y50573*X20610Y50523*X20622Y50473*X20654Y50432*X20692Y50407*X20750*X20692D2*X20648Y50390D1*X20603Y50348*X20591Y50290*X20597Y50240*X20629Y50190*X20680Y50148*X20731Y50140*X20788Y50148*X20839Y50182*X20877Y50240*X21280Y50640D2*X21229Y50623D1*X21191Y50582*X21165Y50532*X21146Y50465*X21140Y50390*X21146Y50315*X21165Y50248*X21191Y50198*X21229Y50157*X21280Y50140*X21331Y50157*X21369Y50198*X21395Y50248*X21414Y50315*X21420Y50390*X21414Y50465*X21395Y50532*X21369Y50582*X21331Y50623*X21280Y50640*X21969Y50407D2*X21772D1*X21728Y50390*X21689Y50340*X21677Y50282*X21689Y50223*X21715Y50173*X21759Y50140*X21969*Y50640*X21798*X21753Y50615*X21728Y50582*X21715Y50532*X21728Y50473*X21747Y50432*X21772Y50407*X22207Y50215D2*X22239Y50182D1*X22277Y50157*X22321Y50140*X22366*X22411Y50157*X22455Y50190*X22493Y50240*X22512Y50290*X22525Y50365*X22519Y50440*X22493Y50523*X22462Y50573*X22417Y50615*X22360Y50640*X22309*X22264Y50623*X22226Y50598*X23036Y50348D2*X22884D1*X22826Y50373*X22794Y50423*X22782Y50490*X22794Y50557*X22833Y50615*X22884Y50640*X23036*Y50140*X20813Y45520D2*X20661D1*X20813Y45920D2*X20737Y46020D1*Y45520*X21664Y46020D2*X21823Y45520D1*X21982Y46020*X22341Y45778D2*X22493D1*X22239Y46020D2*X22493D1*Y45520*X22239*X22782D2*X22877Y45762D1*X23036*X22877D2*X22833Y45787D1*X22794Y45828*X22782Y45895*X22794Y45962*X22826Y45995*X22877Y46020*X23036*Y45520*X19524Y46528D2*X19562Y46453D1*X19600Y46412*X19651Y46395*X19696Y46403*X19734Y46437*X19766Y46495*X19778Y46553*X19766Y46620*X19740Y46670*X19702Y46703*X19651Y46720*X19606Y46703*X19568Y46670*X19536Y46603*X19524Y46528*Y46437*X19536Y46362*X19568Y46287*X19613Y46237*X19664Y46220*X19715Y46237*X19759Y46278*X20194Y46220D2*X20239Y46228D1*X20290Y46253*X20321Y46295*X20334Y46353*X20321Y46412*X20283Y46462*X20226Y46487*X20162*X20124Y46503*X20092Y46545*X20079Y46603*X20099Y46662*X20143Y46703*X20194Y46720*X20245Y46703*X20290Y46662*X20309Y46603*X20296Y46545*X20264Y46503*X20226Y46487*X20162*X20105Y46462*X20067Y46412*X20054Y46353*X20067Y46295*X20099Y46253*X20149Y46228*X20194Y46220*X20826Y46678D2*X20769Y46712D1*X20712Y46720*X20654Y46695*X20622Y46653*X20610Y46603*X20622Y46553*X20654Y46512*X20692Y46487*X20750*X20692D2*X20648Y46470D1*X20603Y46428*X20591Y46370*X20597Y46320*X20629Y46270*X20680Y46228*X20731Y46220*X20788Y46228*X20839Y46262*X20877Y46320*X21280Y46720D2*X21229Y46703D1*X21191Y46662*X21165Y46612*X21146Y46545*X21140Y46470*X21146Y46395*X21165Y46328*X21191Y46278*X21229Y46237*X21280Y46220*X21331Y46237*X21369Y46278*X21395Y46328*X21414Y46395*X21420Y46470*X21414Y46545*X21395Y46612*X21369Y46662*X21331Y46703*X21280Y46720*X21969Y46487D2*X21772D1*X21728Y46470*X21689Y46420*X21677Y46362*X21689Y46303*X21715Y46253*X21759Y46220*X21969*Y46720*X21798*X21753Y46695*X21728Y46662*X21715Y46612*X21728Y46553*X21747Y46512*X21772Y46487*X22207Y46295D2*X22239Y46262D1*X22277Y46237*X22321Y46220*X22366*X22411Y46237*X22455Y46270*X22493Y46320*X22512Y46370*X22525Y46445*X22519Y46520*X22493Y46603*X22462Y46653*X22417Y46695*X22360Y46720*X22309*X22264Y46703*X22226Y46678*X23036Y46428D2*X22884D1*X22826Y46453*X22794Y46503*X22782Y46570*X22794Y46637*X22833Y46695*X22884Y46720*X23036*Y46220*X39325Y45520D2*X39173D1*X39325Y45920D2*X39249Y46020D1*Y45520*X40176Y46020D2*X40335Y45520D1*X40494Y46020*X40853Y45778D2*X41005D1*X40751Y46020D2*X41005D1*Y45520*X40751*X41294D2*X41389Y45762D1*X41548*X41389D2*X41345Y45787D1*X41306Y45828*X41294Y45895*X41306Y45962*X41338Y45995*X41389Y46020*X41548*Y45520*X38036Y46528D2*X38074Y46453D1*X38112Y46412*X38163Y46395*X38208Y46403*X38246Y46437*X38278Y46495*X38290Y46553*X38278Y46620*X38252Y46670*X38214Y46703*X38163Y46720*X38118Y46703*X38080Y46670*X38048Y46603*X38036Y46528*Y46437*X38048Y46362*X38080Y46287*X38125Y46237*X38176Y46220*X38227Y46237*X38271Y46278*X38706Y46220D2*X38751Y46228D1*X38802Y46253*X38833Y46295*X38846Y46353*X38833Y46412*X38795Y46462*X38738Y46487*X38674*X38636Y46503*X38604Y46545*X38591Y46603*X38611Y46662*X38655Y46703*X38706Y46720*X38757Y46703*X38802Y46662*X38821Y46603*X38808Y46545*X38776Y46503*X38738Y46487*X38674*X38617Y46462*X38579Y46412*X38566Y46353*X38579Y46295*X38611Y46253*X38661Y46228*X38706Y46220*X39338Y46678D2*X39281Y46712D1*X39224Y46720*X39166Y46695*X39134Y46653*X39122Y46603*X39134Y46553*X39166Y46512*X39204Y46487*X39262*X39204D2*X39160Y46470D1*X39115Y46428*X39103Y46370*X39109Y46320*X39141Y46270*X39192Y46228*X39243Y46220*X39300Y46228*X39351Y46262*X39389Y46320*X39792Y46720D2*X39741Y46703D1*X39703Y46662*X39677Y46612*X39658Y46545*X39652Y46470*X39658Y46395*X39677Y46328*X39703Y46278*X39741Y46237*X39792Y46220*X39843Y46237*X39881Y46278*X39907Y46328*X39926Y46395*X39932Y46470*X39926Y46545*X39907Y46612*X39881Y46662*X39843Y46703*X39792Y46720*X40481Y46487D2*X40284D1*X40240Y46470*X40201Y46420*X40189Y46362*X40201Y46303*X40227Y46253*X40271Y46220*X40481*Y46720*X40310*X40265Y46695*X40240Y46662*X40227Y46612*X40240Y46553*X40259Y46512*X40284Y46487*X40719Y46295D2*X40751Y46262D1*X40789Y46237*X40833Y46220*X40878*X40923Y46237*X40967Y46270*X41005Y46320*X41024Y46370*X41037Y46445*X41031Y46520*X41005Y46603*X40974Y46653*X40929Y46695*X40872Y46720*X40821*X40776Y46703*X40738Y46678*X41548Y46428D2*X41396D1*X41338Y46453*X41306Y46503*X41294Y46570*X41306Y46637*X41345Y46695*X41396Y46720*X41548*Y46220*X57837Y45520D2*X57685D1*X57837Y45920D2*X57761Y46020D1*Y45520*X58688Y46020D2*X58847Y45520D1*X59006Y46020*X59365Y45778D2*X59517D1*X59263Y46020D2*X59517D1*Y45520*X59263*X59806D2*X59901Y45762D1*X60060*X59901D2*X59857Y45787D1*X59818Y45828*X59806Y45895*X59818Y45962*X59850Y45995*X59901Y46020*X60060*Y45520*X56548Y46528D2*X56586Y46453D1*X56624Y46412*X56675Y46395*X56720Y46403*X56758Y46437*X56790Y46495*X56802Y46553*X56790Y46620*X56764Y46670*X56726Y46703*X56675Y46720*X56630Y46703*X56592Y46670*X56560Y46603*X56548Y46528*Y46437*X56560Y46362*X56592Y46287*X56637Y46237*X56688Y46220*X56739Y46237*X56783Y46278*X57218Y46220D2*X57263Y46228D1*X57314Y46253*X57345Y46295*X57358Y46353*X57345Y46412*X57307Y46462*X57250Y46487*X57186*X57148Y46503*X57116Y46545*X57103Y46603*X57123Y46662*X57167Y46703*X57218Y46720*X57269Y46703*X57314Y46662*X57333Y46603*X57320Y46545*X57288Y46503*X57250Y46487*X57186*X57129Y46462*X57091Y46412*X57078Y46353*X57091Y46295*X57123Y46253*X57173Y46228*X57218Y46220*X57850Y46678D2*X57793Y46712D1*X57736Y46720*X57678Y46695*X57646Y46653*X57634Y46603*X57646Y46553*X57678Y46512*X57716Y46487*X57774*X57716D2*X57672Y46470D1*X57627Y46428*X57615Y46370*X57621Y46320*X57653Y46270*X57704Y46228*X57755Y46220*X57812Y46228*X57863Y46262*X57901Y46320*X58304Y46720D2*X58253Y46703D1*X58215Y46662*X58189Y46612*X58170Y46545*X58164Y46470*X58170Y46395*X58189Y46328*X58215Y46278*X58253Y46237*X58304Y46220*X58355Y46237*X58393Y46278*X58419Y46328*X58438Y46395*X58444Y46470*X58438Y46545*X58419Y46612*X58393Y46662*X58355Y46703*X58304Y46720*X58993Y46487D2*X58796D1*X58752Y46470*X58713Y46420*X58701Y46362*X58713Y46303*X58739Y46253*X58783Y46220*X58993*Y46720*X58822*X58777Y46695*X58752Y46662*X58739Y46612*X58752Y46553*X58771Y46512*X58796Y46487*X59231Y46295D2*X59263Y46262D1*X59301Y46237*X59345Y46220*X59390*X59435Y46237*X59479Y46270*X59517Y46320*X59536Y46370*X59549Y46445*X59543Y46520*X59517Y46603*X59486Y46653*X59441Y46695*X59384Y46720*X59333*X59288Y46703*X59250Y46678*X60060Y46428D2*X59908D1*X59850Y46453*X59818Y46503*X59806Y46570*X59818Y46637*X59857Y46695*X59908Y46720*X60060*Y46220*X57837Y41600D2*X57685D1*X57837Y42000D2*X57761Y42100D1*Y41600*X58688Y42100D2*X58847Y41600D1*X59006Y42100*X59365Y41858D2*X59517D1*X59263Y42100D2*X59517D1*Y41600*X59263*X59806D2*X59901Y41842D1*X60060*X59901D2*X59857Y41867D1*X59818Y41908*X59806Y41975*X59818Y42042*X59850Y42075*X59901Y42100*X60060*Y41600*X56548Y42608D2*X56586Y42533D1*X56624Y42492*X56675Y42475*X56720Y42483*X56758Y42517*X56790Y42575*X56802Y42633*X56790Y42700*X56764Y42750*X56726Y42783*X56675Y42800*X56630Y42783*X56592Y42750*X56560Y42683*X56548Y42608*Y42517*X56560Y42442*X56592Y42367*X56637Y42317*X56688Y42300*X56739Y42317*X56783Y42358*X57218Y42300D2*X57263Y42308D1*X57314Y42333*X57345Y42375*X57358Y42433*X57345Y42492*X57307Y42542*X57250Y42567*X57186*X57148Y42583*X57116Y42625*X57103Y42683*X57123Y42742*X57167Y42783*X57218Y42800*X57269Y42783*X57314Y42742*X57333Y42683*X57320Y42625*X57288Y42583*X57250Y42567*X57186*X57129Y42542*X57091Y42492*X57078Y42433*X57091Y42375*X57123Y42333*X57173Y42308*X57218Y42300*X57850Y42758D2*X57793Y42792D1*X57736Y42800*X57678Y42775*X57646Y42733*X57634Y42683*X57646Y42633*X57678Y42592*X57716Y42567*X57774*X57716D2*X57672Y42550D1*X57627Y42508*X57615Y42450*X57621Y42400*X57653Y42350*X57704Y42308*X57755Y42300*X57812Y42308*X57863Y42342*X57901Y42400*X58304Y42800D2*X58253Y42783D1*X58215Y42742*X58189Y42692*X58170Y42625*X58164Y42550*X58170Y42475*X58189Y42408*X58215Y42358*X58253Y42317*X58304Y42300*X58355Y42317*X58393Y42358*X58419Y42408*X58438Y42475*X58444Y42550*X58438Y42625*X58419Y42692*X58393Y42742*X58355Y42783*X58304Y42800*X58993Y42567D2*X58796D1*X58752Y42550*X58713Y42500*X58701Y42442*X58713Y42383*X58739Y42333*X58783Y42300*X58993*Y42800*X58822*X58777Y42775*X58752Y42742*X58739Y42692*X58752Y42633*X58771Y42592*X58796Y42567*X59231Y42375D2*X59263Y42342D1*X59301Y42317*X59345Y42300*X59390*X59435Y42317*X59479Y42350*X59517Y42400*X59536Y42450*X59549Y42525*X59543Y42600*X59517Y42683*X59486Y42733*X59441Y42775*X59384Y42800*X59333*X59288Y42783*X59250Y42758*X60060Y42508D2*X59908D1*X59850Y42533*X59818Y42583*X59806Y42650*X59818Y42717*X59857Y42775*X59908Y42800*X60060*Y42300*X39325Y41600D2*X39173D1*X39325Y42000D2*X39249Y42100D1*Y41600*X40176Y42100D2*X40335Y41600D1*X40494Y42100*X40853Y41858D2*X41005D1*X40751Y42100D2*X41005D1*Y41600*X40751*X41294D2*X41389Y41842D1*X41548*X41389D2*X41345Y41867D1*X41306Y41908*X41294Y41975*X41306Y42042*X41338Y42075*X41389Y42100*X41548*Y41600*X38036Y42608D2*X38074Y42533D1*X38112Y42492*X38163Y42475*X38208Y42483*X38246Y42517*X38278Y42575*X38290Y42633*X38278Y42700*X38252Y42750*X38214Y42783*X38163Y42800*X38118Y42783*X38080Y42750*X38048Y42683*X38036Y42608*Y42517*X38048Y42442*X38080Y42367*X38125Y42317*X38176Y42300*X38227Y42317*X38271Y42358*X38706Y42300D2*X38751Y42308D1*X38802Y42333*X38833Y42375*X38846Y42433*X38833Y42492*X38795Y42542*X38738Y42567*X38674*X38636Y42583*X38604Y42625*X38591Y42683*X38611Y42742*X38655Y42783*X38706Y42800*X38757Y42783*X38802Y42742*X38821Y42683*X38808Y42625*X38776Y42583*X38738Y42567*X38674*X38617Y42542*X38579Y42492*X38566Y42433*X38579Y42375*X38611Y42333*X38661Y42308*X38706Y42300*X39338Y42758D2*X39281Y42792D1*X39224Y42800*X39166Y42775*X39134Y42733*X39122Y42683*X39134Y42633*X39166Y42592*X39204Y42567*X39262*X39204D2*X39160Y42550D1*X39115Y42508*X39103Y42450*X39109Y42400*X39141Y42350*X39192Y42308*X39243Y42300*X39300Y42308*X39351Y42342*X39389Y42400*X39792Y42800D2*X39741Y42783D1*X39703Y42742*X39677Y42692*X39658Y42625*X39652Y42550*X39658Y42475*X39677Y42408*X39703Y42358*X39741Y42317*X39792Y42300*X39843Y42317*X39881Y42358*X39907Y42408*X39926Y42475*X39932Y42550*X39926Y42625*X39907Y42692*X39881Y42742*X39843Y42783*X39792Y42800*X40481Y42567D2*X40284D1*X40240Y42550*X40201Y42500*X40189Y42442*X40201Y42383*X40227Y42333*X40271Y42300*X40481*Y42800*X40310*X40265Y42775*X40240Y42742*X40227Y42692*X40240Y42633*X40259Y42592*X40284Y42567*X40719Y42375D2*X40751Y42342D1*X40789Y42317*X40833Y42300*X40878*X40923Y42317*X40967Y42350*X41005Y42400*X41024Y42450*X41037Y42525*X41031Y42600*X41005Y42683*X40974Y42733*X40929Y42775*X40872Y42800*X40821*X40776Y42783*X40738Y42758*X41548Y42508D2*X41396D1*X41338Y42533*X41306Y42583*X41294Y42650*X41306Y42717*X41345Y42775*X41396Y42800*X41548*Y42300*X20813Y41600D2*X20661D1*X20813Y42000D2*X20737Y42100D1*Y41600*X21664Y42100D2*X21823Y41600D1*X21982Y42100*X22341Y41858D2*X22493D1*X22239Y42100D2*X22493D1*Y41600*X22239*X22782D2*X22877Y41842D1*X23036*X22877D2*X22833Y41867D1*X22794Y41908*X22782Y41975*X22794Y42042*X22826Y42075*X22877Y42100*X23036*Y41600*X19524Y42608D2*X19562Y42533D1*X19600Y42492*X19651Y42475*X19696Y42483*X19734Y42517*X19766Y42575*X19778Y42633*X19766Y42700*X19740Y42750*X19702Y42783*X19651Y42800*X19606Y42783*X19568Y42750*X19536Y42683*X19524Y42608*Y42517*X19536Y42442*X19568Y42367*X19613Y42317*X19664Y42300*X19715Y42317*X19759Y42358*X20194Y42300D2*X20239Y42308D1*X20290Y42333*X20321Y42375*X20334Y42433*X20321Y42492*X20283Y42542*X20226Y42567*X20162*X20124Y42583*X20092Y42625*X20079Y42683*X20099Y42742*X20143Y42783*X20194Y42800*X20245Y42783*X20290Y42742*X20309Y42683*X20296Y42625*X20264Y42583*X20226Y42567*X20162*X20105Y42542*X20067Y42492*X20054Y42433*X20067Y42375*X20099Y42333*X20149Y42308*X20194Y42300*X20826Y42758D2*X20769Y42792D1*X20712Y42800*X20654Y42775*X20622Y42733*X20610Y42683*X20622Y42633*X20654Y42592*X20692Y42567*X20750*X20692D2*X20648Y42550D1*X20603Y42508*X20591Y42450*X20597Y42400*X20629Y42350*X20680Y42308*X20731Y42300*X20788Y42308*X20839Y42342*X20877Y42400*X21280Y42800D2*X21229Y42783D1*X21191Y42742*X21165Y42692*X21146Y42625*X21140Y42550*X21146Y42475*X21165Y42408*X21191Y42358*X21229Y42317*X21280Y42300*X21331Y42317*X21369Y42358*X21395Y42408*X21414Y42475*X21420Y42550*X21414Y42625*X21395Y42692*X21369Y42742*X21331Y42783*X21280Y42800*X21969Y42567D2*X21772D1*X21728Y42550*X21689Y42500*X21677Y42442*X21689Y42383*X21715Y42333*X21759Y42300*X21969*Y42800*X21798*X21753Y42775*X21728Y42742*X21715Y42692*X21728Y42633*X21747Y42592*X21772Y42567*X22207Y42375D2*X22239Y42342D1*X22277Y42317*X22321Y42300*X22366*X22411Y42317*X22455Y42350*X22493Y42400*X22512Y42450*X22525Y42525*X22519Y42600*X22493Y42683*X22462Y42733*X22417Y42775*X22360Y42800*X22309*X22264Y42783*X22226Y42758*X23036Y42508D2*X22884D1*X22826Y42533*X22794Y42583*X22782Y42650*X22794Y42717*X22833Y42775*X22884Y42800*X23036*Y42300*X20813Y37680D2*X20661D1*X20813Y38080D2*X20737Y38180D1*Y37680*X21664Y38180D2*X21823Y37680D1*X21982Y38180*X22341Y37938D2*X22493D1*X22239Y38180D2*X22493D1*Y37680*X22239*X22782D2*X22877Y37922D1*X23036*X22877D2*X22833Y37947D1*X22794Y37988*X22782Y38055*X22794Y38122*X22826Y38155*X22877Y38180*X23036*Y37680*X19524Y38688D2*X19562Y38613D1*X19600Y38572*X19651Y38555*X19696Y38563*X19734Y38597*X19766Y38655*X19778Y38713*X19766Y38780*X19740Y38830*X19702Y38863*X19651Y38880*X19606Y38863*X19568Y38830*X19536Y38763*X19524Y38688*Y38597*X19536Y38522*X19568Y38447*X19613Y38397*X19664Y38380*X19715Y38397*X19759Y38438*X20194Y38380D2*X20239Y38388D1*X20290Y38413*X20321Y38455*X20334Y38513*X20321Y38572*X20283Y38622*X20226Y38647*X20162*X20124Y38663*X20092Y38705*X20079Y38763*X20099Y38822*X20143Y38863*X20194Y38880*X20245Y38863*X20290Y38822*X20309Y38763*X20296Y38705*X20264Y38663*X20226Y38647*X20162*X20105Y38622*X20067Y38572*X20054Y38513*X20067Y38455*X20099Y38413*X20149Y38388*X20194Y38380*X20826Y38838D2*X20769Y38872D1*X20712Y38880*X20654Y38855*X20622Y38813*X20610Y38763*X20622Y38713*X20654Y38672*X20692Y38647*X20750*X20692D2*X20648Y38630D1*X20603Y38588*X20591Y38530*X20597Y38480*X20629Y38430*X20680Y38388*X20731Y38380*X20788Y38388*X20839Y38422*X20877Y38480*X21280Y38880D2*X21229Y38863D1*X21191Y38822*X21165Y38772*X21146Y38705*X21140Y38630*X21146Y38555*X21165Y38488*X21191Y38438*X21229Y38397*X21280Y38380*X21331Y38397*X21369Y38438*X21395Y38488*X21414Y38555*X21420Y38630*X21414Y38705*X21395Y38772*X21369Y38822*X21331Y38863*X21280Y38880*X21969Y38647D2*X21772D1*X21728Y38630*X21689Y38580*X21677Y38522*X21689Y38463*X21715Y38413*X21759Y38380*X21969*Y38880*X21798*X21753Y38855*X21728Y38822*X21715Y38772*X21728Y38713*X21747Y38672*X21772Y38647*X22207Y38455D2*X22239Y38422D1*X22277Y38397*X22321Y38380*X22366*X22411Y38397*X22455Y38430*X22493Y38480*X22512Y38530*X22525Y38605*X22519Y38680*X22493Y38763*X22462Y38813*X22417Y38855*X22360Y38880*X22309*X22264Y38863*X22226Y38838*X23036Y38588D2*X22884D1*X22826Y38613*X22794Y38663*X22782Y38730*X22794Y38797*X22833Y38855*X22884Y38880*X23036*Y38380*X39325Y37680D2*X39173D1*X39325Y38080D2*X39249Y38180D1*Y37680*X40176Y38180D2*X40335Y37680D1*X40494Y38180*X40853Y37938D2*X41005D1*X40751Y38180D2*X41005D1*Y37680*X40751*X41294D2*X41389Y37922D1*X41548*X41389D2*X41345Y37947D1*X41306Y37988*X41294Y38055*X41306Y38122*X41338Y38155*X41389Y38180*X41548*Y37680*X38036Y38688D2*X38074Y38613D1*X38112Y38572*X38163Y38555*X38208Y38563*X38246Y38597*X38278Y38655*X38290Y38713*X38278Y38780*X38252Y38830*X38214Y38863*X38163Y38880*X38118Y38863*X38080Y38830*X38048Y38763*X38036Y38688*Y38597*X38048Y38522*X38080Y38447*X38125Y38397*X38176Y38380*X38227Y38397*X38271Y38438*X38706Y38380D2*X38751Y38388D1*X38802Y38413*X38833Y38455*X38846Y38513*X38833Y38572*X38795Y38622*X38738Y38647*X38674*X38636Y38663*X38604Y38705*X38591Y38763*X38611Y38822*X38655Y38863*X38706Y38880*X38757Y38863*X38802Y38822*X38821Y38763*X38808Y38705*X38776Y38663*X38738Y38647*X38674*X38617Y38622*X38579Y38572*X38566Y38513*X38579Y38455*X38611Y38413*X38661Y38388*X38706Y38380*X39338Y38838D2*X39281Y38872D1*X39224Y38880*X39166Y38855*X39134Y38813*X39122Y38763*X39134Y38713*X39166Y38672*X39204Y38647*X39262*X39204D2*X39160Y38630D1*X39115Y38588*X39103Y38530*X39109Y38480*X39141Y38430*X39192Y38388*X39243Y38380*X39300Y38388*X39351Y38422*X39389Y38480*X39792Y38880D2*X39741Y38863D1*X39703Y38822*X39677Y38772*X39658Y38705*X39652Y38630*X39658Y38555*X39677Y38488*X39703Y38438*X39741Y38397*X39792Y38380*X39843Y38397*X39881Y38438*X39907Y38488*X39926Y38555*X39932Y38630*X39926Y38705*X39907Y38772*X39881Y38822*X39843Y38863*X39792Y38880*X40481Y38647D2*X40284D1*X40240Y38630*X40201Y38580*X40189Y38522*X40201Y38463*X40227Y38413*X40271Y38380*X40481*Y38880*X40310*X40265Y38855*X40240Y38822*X40227Y38772*X40240Y38713*X40259Y38672*X40284Y38647*X40719Y38455D2*X40751Y38422D1*X40789Y38397*X40833Y38380*X40878*X40923Y38397*X40967Y38430*X41005Y38480*X41024Y38530*X41037Y38605*X41031Y38680*X41005Y38763*X40974Y38813*X40929Y38855*X40872Y38880*X40821*X40776Y38863*X40738Y38838*X41548Y38588D2*X41396D1*X41338Y38613*X41306Y38663*X41294Y38730*X41306Y38797*X41345Y38855*X41396Y38880*X41548*Y38380*X57837Y37680D2*X57685D1*X57837Y38080D2*X57761Y38180D1*Y37680*X58688Y38180D2*X58847Y37680D1*X59006Y38180*X59365Y37938D2*X59517D1*X59263Y38180D2*X59517D1*Y37680*X59263*X59806D2*X59901Y37922D1*X60060*X59901D2*X59857Y37947D1*X59818Y37988*X59806Y38055*X59818Y38122*X59850Y38155*X59901Y38180*X60060*Y37680*X56548Y38688D2*X56586Y38613D1*X56624Y38572*X56675Y38555*X56720Y38563*X56758Y38597*X56790Y38655*X56802Y38713*X56790Y38780*X56764Y38830*X56726Y38863*X56675Y38880*X56630Y38863*X56592Y38830*X56560Y38763*X56548Y38688*Y38597*X56560Y38522*X56592Y38447*X56637Y38397*X56688Y38380*X56739Y38397*X56783Y38438*X57218Y38380D2*X57263Y38388D1*X57314Y38413*X57345Y38455*X57358Y38513*X57345Y38572*X57307Y38622*X57250Y38647*X57186*X57148Y38663*X57116Y38705*X57103Y38763*X57123Y38822*X57167Y38863*X57218Y38880*X57269Y38863*X57314Y38822*X57333Y38763*X57320Y38705*X57288Y38663*X57250Y38647*X57186*X57129Y38622*X57091Y38572*X57078Y38513*X57091Y38455*X57123Y38413*X57173Y38388*X57218Y38380*X57850Y38838D2*X57793Y38872D1*X57736Y38880*X57678Y38855*X57646Y38813*X57634Y38763*X57646Y38713*X57678Y38672*X57716Y38647*X57774*X57716D2*X57672Y38630D1*X57627Y38588*X57615Y38530*X57621Y38480*X57653Y38430*X57704Y38388*X57755Y38380*X57812Y38388*X57863Y38422*X57901Y38480*X58304Y38880D2*X58253Y38863D1*X58215Y38822*X58189Y38772*X58170Y38705*X58164Y38630*X58170Y38555*X58189Y38488*X58215Y38438*X58253Y38397*X58304Y38380*X58355Y38397*X58393Y38438*X58419Y38488*X58438Y38555*X58444Y38630*X58438Y38705*X58419Y38772*X58393Y38822*X58355Y38863*X58304Y38880*X58993Y38647D2*X58796D1*X58752Y38630*X58713Y38580*X58701Y38522*X58713Y38463*X58739Y38413*X58783Y38380*X58993*Y38880*X58822*X58777Y38855*X58752Y38822*X58739Y38772*X58752Y38713*X58771Y38672*X58796Y38647*X59231Y38455D2*X59263Y38422D1*X59301Y38397*X59345Y38380*X59390*X59435Y38397*X59479Y38430*X59517Y38480*X59536Y38530*X59549Y38605*X59543Y38680*X59517Y38763*X59486Y38813*X59441Y38855*X59384Y38880*X59333*X59288Y38863*X59250Y38838*X60060Y38588D2*X59908D1*X59850Y38613*X59818Y38663*X59806Y38730*X59818Y38797*X59857Y38855*X59908Y38880*X60060*Y38380*X57837Y33760D2*X57685D1*X57837Y34160D2*X57761Y34260D1*Y33760*X58688Y34260D2*X58847Y33760D1*X59006Y34260*X59365Y34018D2*X59517D1*X59263Y34260D2*X59517D1*Y33760*X59263*X59806D2*X59901Y34002D1*X60060*X59901D2*X59857Y34027D1*X59818Y34068*X59806Y34135*X59818Y34202*X59850Y34235*X59901Y34260*X60060*Y33760*X56548Y34768D2*X56586Y34693D1*X56624Y34652*X56675Y34635*X56720Y34643*X56758Y34677*X56790Y34735*X56802Y34793*X56790Y34860*X56764Y34910*X56726Y34943*X56675Y34960*X56630Y34943*X56592Y34910*X56560Y34843*X56548Y34768*Y34677*X56560Y34602*X56592Y34527*X56637Y34477*X56688Y34460*X56739Y34477*X56783Y34518*X57218Y34460D2*X57263Y34468D1*X57314Y34493*X57345Y34535*X57358Y34593*X57345Y34652*X57307Y34702*X57250Y34727*X57186*X57148Y34743*X57116Y34785*X57103Y34843*X57123Y34902*X57167Y34943*X57218Y34960*X57269Y34943*X57314Y34902*X57333Y34843*X57320Y34785*X57288Y34743*X57250Y34727*X57186*X57129Y34702*X57091Y34652*X57078Y34593*X57091Y34535*X57123Y34493*X57173Y34468*X57218Y34460*X57850Y34918D2*X57793Y34952D1*X57736Y34960*X57678Y34935*X57646Y34893*X57634Y34843*X57646Y34793*X57678Y34752*X57716Y34727*X57774*X57716D2*X57672Y34710D1*X57627Y34668*X57615Y34610*X57621Y34560*X57653Y34510*X57704Y34468*X57755Y34460*X57812Y34468*X57863Y34502*X57901Y34560*X58304Y34960D2*X58253Y34943D1*X58215Y34902*X58189Y34852*X58170Y34785*X58164Y34710*X58170Y34635*X58189Y34568*X58215Y34518*X58253Y34477*X58304Y34460*X58355Y34477*X58393Y34518*X58419Y34568*X58438Y34635*X58444Y34710*X58438Y34785*X58419Y34852*X58393Y34902*X58355Y34943*X58304Y34960*X58993Y34727D2*X58796D1*X58752Y34710*X58713Y34660*X58701Y34602*X58713Y34543*X58739Y34493*X58783Y34460*X58993*Y34960*X58822*X58777Y34935*X58752Y34902*X58739Y34852*X58752Y34793*X58771Y34752*X58796Y34727*X59231Y34535D2*X59263Y34502D1*X59301Y34477*X59345Y34460*X59390*X59435Y34477*X59479Y34510*X59517Y34560*X59536Y34610*X59549Y34685*X59543Y34760*X59517Y34843*X59486Y34893*X59441Y34935*X59384Y34960*X59333*X59288Y34943*X59250Y34918*X60060Y34668D2*X59908D1*X59850Y34693*X59818Y34743*X59806Y34810*X59818Y34877*X59857Y34935*X59908Y34960*X60060*Y34460*X39325Y33760D2*X39173D1*X39325Y34160D2*X39249Y34260D1*Y33760*X40176Y34260D2*X40335Y33760D1*X40494Y34260*X40853Y34018D2*X41005D1*X40751Y34260D2*X41005D1*Y33760*X40751*X41294D2*X41389Y34002D1*X41548*X41389D2*X41345Y34027D1*X41306Y34068*X41294Y34135*X41306Y34202*X41338Y34235*X41389Y34260*X41548*Y33760*X38036Y34768D2*X38074Y34693D1*X38112Y34652*X38163Y34635*X38208Y34643*X38246Y34677*X38278Y34735*X38290Y34793*X38278Y34860*X38252Y34910*X38214Y34943*X38163Y34960*X38118Y34943*X38080Y34910*X38048Y34843*X38036Y34768*Y34677*X38048Y34602*X38080Y34527*X38125Y34477*X38176Y34460*X38227Y34477*X38271Y34518*X38706Y34460D2*X38751Y34468D1*X38802Y34493*X38833Y34535*X38846Y34593*X38833Y34652*X38795Y34702*X38738Y34727*X38674*X38636Y34743*X38604Y34785*X38591Y34843*X38611Y34902*X38655Y34943*X38706Y34960*X38757Y34943*X38802Y34902*X38821Y34843*X38808Y34785*X38776Y34743*X38738Y34727*X38674*X38617Y34702*X38579Y34652*X38566Y34593*X38579Y34535*X38611Y34493*X38661Y34468*X38706Y34460*X39338Y34918D2*X39281Y34952D1*X39224Y34960*X39166Y34935*X39134Y34893*X39122Y34843*X39134Y34793*X39166Y34752*X39204Y34727*X39262*X39204D2*X39160Y34710D1*X39115Y34668*X39103Y34610*X39109Y34560*X39141Y34510*X39192Y34468*X39243Y34460*X39300Y34468*X39351Y34502*X39389Y34560*X39792Y34960D2*X39741Y34943D1*X39703Y34902*X39677Y34852*X39658Y34785*X39652Y34710*X39658Y34635*X39677Y34568*X39703Y34518*X39741Y34477*X39792Y34460*X39843Y34477*X39881Y34518*X39907Y34568*X39926Y34635*X39932Y34710*X39926Y34785*X39907Y34852*X39881Y34902*X39843Y34943*X39792Y34960*X40481Y34727D2*X40284D1*X40240Y34710*X40201Y34660*X40189Y34602*X40201Y34543*X40227Y34493*X40271Y34460*X40481*Y34960*X40310*X40265Y34935*X40240Y34902*X40227Y34852*X40240Y34793*X40259Y34752*X40284Y34727*X40719Y34535D2*X40751Y34502D1*X40789Y34477*X40833Y34460*X40878*X40923Y34477*X40967Y34510*X41005Y34560*X41024Y34610*X41037Y34685*X41031Y34760*X41005Y34843*X40974Y34893*X40929Y34935*X40872Y34960*X40821*X40776Y34943*X40738Y34918*X41548Y34668D2*X41396D1*X41338Y34693*X41306Y34743*X41294Y34810*X41306Y34877*X41345Y34935*X41396Y34960*X41548*Y34460*X20813Y33760D2*X20661D1*X20813Y34160D2*X20737Y34260D1*Y33760*X21664Y34260D2*X21823Y33760D1*X21982Y34260*X22341Y34018D2*X22493D1*X22239Y34260D2*X22493D1*Y33760*X22239*X22782D2*X22877Y34002D1*X23036*X22877D2*X22833Y34027D1*X22794Y34068*X22782Y34135*X22794Y34202*X22826Y34235*X22877Y34260*X23036*Y33760*X19524Y34768D2*X19562Y34693D1*X19600Y34652*X19651Y34635*X19696Y34643*X19734Y34677*X19766Y34735*X19778Y34793*X19766Y34860*X19740Y34910*X19702Y34943*X19651Y34960*X19606Y34943*X19568Y34910*X19536Y34843*X19524Y34768*Y34677*X19536Y34602*X19568Y34527*X19613Y34477*X19664Y34460*X19715Y34477*X19759Y34518*X20194Y34460D2*X20239Y34468D1*X20290Y34493*X20321Y34535*X20334Y34593*X20321Y34652*X20283Y34702*X20226Y34727*X20162*X20124Y34743*X20092Y34785*X20079Y34843*X20099Y34902*X20143Y34943*X20194Y34960*X20245Y34943*X20290Y34902*X20309Y34843*X20296Y34785*X20264Y34743*X20226Y34727*X20162*X20105Y34702*X20067Y34652*X20054Y34593*X20067Y34535*X20099Y34493*X20149Y34468*X20194Y34460*X20826Y34918D2*X20769Y34952D1*X20712Y34960*X20654Y34935*X20622Y34893*X20610Y34843*X20622Y34793*X20654Y34752*X20692Y34727*X20750*X20692D2*X20648Y34710D1*X20603Y34668*X20591Y34610*X20597Y34560*X20629Y34510*X20680Y34468*X20731Y34460*X20788Y34468*X20839Y34502*X20877Y34560*X21280Y34960D2*X21229Y34943D1*X21191Y34902*X21165Y34852*X21146Y34785*X21140Y34710*X21146Y34635*X21165Y34568*X21191Y34518*X21229Y34477*X21280Y34460*X21331Y34477*X21369Y34518*X21395Y34568*X21414Y34635*X21420Y34710*X21414Y34785*X21395Y34852*X21369Y34902*X21331Y34943*X21280Y34960*X21969Y34727D2*X21772D1*X21728Y34710*X21689Y34660*X21677Y34602*X21689Y34543*X21715Y34493*X21759Y34460*X21969*Y34960*X21798*X21753Y34935*X21728Y34902*X21715Y34852*X21728Y34793*X21747Y34752*X21772Y34727*X22207Y34535D2*X22239Y34502D1*X22277Y34477*X22321Y34460*X22366*X22411Y34477*X22455Y34510*X22493Y34560*X22512Y34610*X22525Y34685*X22519Y34760*X22493Y34843*X22462Y34893*X22417Y34935*X22360Y34960*X22309*X22264Y34943*X22226Y34918*X23036Y34668D2*X22884D1*X22826Y34693*X22794Y34743*X22782Y34810*X22794Y34877*X22833Y34935*X22884Y34960*X23036*Y34460*X20813Y29840D2*X20661D1*X20813Y30240D2*X20737Y30340D1*Y29840*X21664Y30340D2*X21823Y29840D1*X21982Y30340*X22341Y30098D2*X22493D1*X22239Y30340D2*X22493D1*Y29840*X22239*X22782D2*X22877Y30082D1*X23036*X22877D2*X22833Y30107D1*X22794Y30148*X22782Y30215*X22794Y30282*X22826Y30315*X22877Y30340*X23036*Y29840*X19524Y30848D2*X19562Y30773D1*X19600Y30732*X19651Y30715*X19696Y30723*X19734Y30757*X19766Y30815*X19778Y30873*X19766Y30940*X19740Y30990*X19702Y31023*X19651Y31040*X19606Y31023*X19568Y30990*X19536Y30923*X19524Y30848*Y30757*X19536Y30682*X19568Y30607*X19613Y30557*X19664Y30540*X19715Y30557*X19759Y30598*X20194Y30540D2*X20239Y30548D1*X20290Y30573*X20321Y30615*X20334Y30673*X20321Y30732*X20283Y30782*X20226Y30807*X20162*X20124Y30823*X20092Y30865*X20079Y30923*X20099Y30982*X20143Y31023*X20194Y31040*X20245Y31023*X20290Y30982*X20309Y30923*X20296Y30865*X20264Y30823*X20226Y30807*X20162*X20105Y30782*X20067Y30732*X20054Y30673*X20067Y30615*X20099Y30573*X20149Y30548*X20194Y30540*X20826Y30998D2*X20769Y31032D1*X20712Y31040*X20654Y31015*X20622Y30973*X20610Y30923*X20622Y30873*X20654Y30832*X20692Y30807*X20750*X20692D2*X20648Y30790D1*X20603Y30748*X20591Y30690*X20597Y30640*X20629Y30590*X20680Y30548*X20731Y30540*X20788Y30548*X20839Y30582*X20877Y30640*X21280Y31040D2*X21229Y31023D1*X21191Y30982*X21165Y30932*X21146Y30865*X21140Y30790*X21146Y30715*X21165Y30648*X21191Y30598*X21229Y30557*X21280Y30540*X21331Y30557*X21369Y30598*X21395Y30648*X21414Y30715*X21420Y30790*X21414Y30865*X21395Y30932*X21369Y30982*X21331Y31023*X21280Y31040*X21969Y30807D2*X21772D1*X21728Y30790*X21689Y30740*X21677Y30682*X21689Y30623*X21715Y30573*X21759Y30540*X21969*Y31040*X21798*X21753Y31015*X21728Y30982*X21715Y30932*X21728Y30873*X21747Y30832*X21772Y30807*X22207Y30615D2*X22239Y30582D1*X22277Y30557*X22321Y30540*X22366*X22411Y30557*X22455Y30590*X22493Y30640*X22512Y30690*X22525Y30765*X22519Y30840*X22493Y30923*X22462Y30973*X22417Y31015*X22360Y31040*X22309*X22264Y31023*X22226Y30998*X23036Y30748D2*X22884D1*X22826Y30773*X22794Y30823*X22782Y30890*X22794Y30957*X22833Y31015*X22884Y31040*X23036*Y30540*X39325Y29840D2*X39173D1*X39325Y30240D2*X39249Y30340D1*Y29840*X40176Y30340D2*X40335Y29840D1*X40494Y30340*X40853Y30098D2*X41005D1*X40751Y30340D2*X41005D1*Y29840*X40751*X41294D2*X41389Y30082D1*X41548*X41389D2*X41345Y30107D1*X41306Y30148*X41294Y30215*X41306Y30282*X41338Y30315*X41389Y30340*X41548*Y29840*X38036Y30848D2*X38074Y30773D1*X38112Y30732*X38163Y30715*X38208Y30723*X38246Y30757*X38278Y30815*X38290Y30873*X38278Y30940*X38252Y30990*X38214Y31023*X38163Y31040*X38118Y31023*X38080Y30990*X38048Y30923*X38036Y30848*Y30757*X38048Y30682*X38080Y30607*X38125Y30557*X38176Y30540*X38227Y30557*X38271Y30598*X38706Y30540D2*X38751Y30548D1*X38802Y30573*X38833Y30615*X38846Y30673*X38833Y30732*X38795Y30782*X38738Y30807*X38674*X38636Y30823*X38604Y30865*X38591Y30923*X38611Y30982*X38655Y31023*X38706Y31040*X38757Y31023*X38802Y30982*X38821Y30923*X38808Y30865*X38776Y30823*X38738Y30807*X38674*X38617Y30782*X38579Y30732*X38566Y30673*X38579Y30615*X38611Y30573*X38661Y30548*X38706Y30540*X39338Y30998D2*X39281Y31032D1*X39224Y31040*X39166Y31015*X39134Y30973*X39122Y30923*X39134Y30873*X39166Y30832*X39204Y30807*X39262*X39204D2*X39160Y30790D1*X39115Y30748*X39103Y30690*X39109Y30640*X39141Y30590*X39192Y30548*X39243Y30540*X39300Y30548*X39351Y30582*X39389Y30640*X39792Y31040D2*X39741Y31023D1*X39703Y30982*X39677Y30932*X39658Y30865*X39652Y30790*X39658Y30715*X39677Y30648*X39703Y30598*X39741Y30557*X39792Y30540*X39843Y30557*X39881Y30598*X39907Y30648*X39926Y30715*X39932Y30790*X39926Y30865*X39907Y30932*X39881Y30982*X39843Y31023*X39792Y31040*X40481Y30807D2*X40284D1*X40240Y30790*X40201Y30740*X40189Y30682*X40201Y30623*X40227Y30573*X40271Y30540*X40481*Y31040*X40310*X40265Y31015*X40240Y30982*X40227Y30932*X40240Y30873*X40259Y30832*X40284Y30807*X40719Y30615D2*X40751Y30582D1*X40789Y30557*X40833Y30540*X40878*X40923Y30557*X40967Y30590*X41005Y30640*X41024Y30690*X41037Y30765*X41031Y30840*X41005Y30923*X40974Y30973*X40929Y31015*X40872Y31040*X40821*X40776Y31023*X40738Y30998*X41548Y30748D2*X41396D1*X41338Y30773*X41306Y30823*X41294Y30890*X41306Y30957*X41345Y31015*X41396Y31040*X41548*Y30540*X57837Y29840D2*X57685D1*X57837Y30240D2*X57761Y30340D1*Y29840*X58688Y30340D2*X58847Y29840D1*X59006Y30340*X59365Y30098D2*X59517D1*X59263Y30340D2*X59517D1*Y29840*X59263*X59806D2*X59901Y30082D1*X60060*X59901D2*X59857Y30107D1*X59818Y30148*X59806Y30215*X59818Y30282*X59850Y30315*X59901Y30340*X60060*X56548Y30848D2*X56586Y30773D1*X56624Y30732*X56675Y30715*X56720Y30723*X56758Y30757*X56790Y30815*X56802Y30873*X56790Y30940*X56764Y30990*X56726Y31023*X56675Y31040*X56630Y31023*X56592Y30990*X56560Y30923*X56548Y30848*Y30757*X56560Y30682*X56592Y30607*X56637Y30557*X56688Y30540*X56739Y30557*X56783Y30598*X57218Y30540D2*X57263Y30548D1*X57314Y30573*X57345Y30615*X57358Y30673*X57345Y30732*X57307Y30782*X57250Y30807*X57186*X57148Y30823*X57116Y30865*X57103Y30923*X57123Y30982*X57167Y31023*X57218Y31040*X57269Y31023*X57314Y30982*X57333Y30923*X57320Y30865*X57288Y30823*X57250Y30807*X57186*X57129Y30782*X57091Y30732*X57078Y30673*X57091Y30615*X57123Y30573*X57173Y30548*X57218Y30540*X57850Y30998D2*X57793Y31032D1*X57736Y31040*X57678Y31015*X57646Y30973*X57634Y30923*X57646Y30873*X57678Y30832*X57716Y30807*X57774*X57716D2*X57672Y30790D1*X57627Y30748*X57615Y30690*X57621Y30640*X57653Y30590*X57704Y30548*X57755Y30540*X57812Y30548*X57863Y30582*X57901Y30640*X58304Y31040D2*X58253Y31023D1*X58215Y30982*X58189Y30932*X58170Y30865*X58164Y30790*X58170Y30715*X58189Y30648*X58215Y30598*X58253Y30557*X58304Y30540*X58355Y30557*X58393Y30598*X58419Y30648*X58438Y30715*X58444Y30790*X58438Y30865*X58419Y30932*X58393Y30982*X58355Y31023*X58304Y31040*X58993Y30807D2*X58796D1*X58752Y30790*X58713Y30740*X58701Y30682*X58713Y30623*X58739Y30573*X58783Y30540*X58993*Y31040*X58822*X58777Y31015*X58752Y30982*X58739Y30932*X58752Y30873*X58771Y30832*X58796Y30807*X59231Y30615D2*X59263Y30582D1*X59301Y30557*X59345Y30540*X59390*X59435Y30557*X59479Y30590*X59517Y30640*X59536Y30690*X59549Y30765*X59543Y30840*X59517Y30923*X59486Y30973*X59441Y31015*X59384Y31040*X59333*X59288Y31023*X59250Y30998*X60060Y30748D2*X59908D1*X59850Y30773*X59818Y30823*X59806Y30890*X59818Y30957*X59857Y31015*X59908Y31040*X60060*Y30540*X57837Y25920D2*X57685D1*X57837Y26320D2*X57761Y26420D1*Y25920*X58688Y26420D2*X58847Y25920D1*X59006Y26420*X59365Y26178D2*X59517D1*X59263Y26420D2*X59517D1*Y25920*X59263*X59806D2*X59901Y26162D1*X60060*X59901D2*X59857Y26187D1*X59818Y26228*X59806Y26295*X59818Y26362*X59850Y26395*X59901Y26420*X60060*Y25920*X56548Y26928D2*X56586Y26853D1*X56624Y26812*X56675Y26795*X56720Y26803*X56758Y26837*X56790Y26895*X56802Y26953*X56790Y27020*X56764Y27070*X56726Y27103*X56675Y27120*X56630Y27103*X56592Y27070*X56560Y27003*X56548Y26928*Y26837*X56560Y26762*X56592Y26687*X56637Y26637*X56688Y26620*X56739Y26637*X56783Y26678*X57218Y26620D2*X57263Y26628D1*X57314Y26653*X57345Y26695*X57358Y26753*X57345Y26812*X57307Y26862*X57250Y26887*X57186*X57148Y26903*X57116Y26945*X57103Y27003*X57123Y27062*X57167Y27103*X57218Y27120*X57269Y27103*X57314Y27062*X57333Y27003*X57320Y26945*X57288Y26903*X57250Y26887*X57186*X57129Y26862*X57091Y26812*X57078Y26753*X57091Y26695*X57123Y26653*X57173Y26628*X57218Y26620*X57850Y27078D2*X57793Y27112D1*X57736Y27120*X57678Y27095*X57646Y27053*X57634Y27003*X57646Y26953*X57678Y26912*X57716Y26887*X57774*X57716D2*X57672Y26870D1*X57627Y26828*X57615Y26770*X57621Y26720*X57653Y26670*X57704Y26628*X57755Y26620*X57812Y26628*X57863Y26662*X57901Y26720*X58304Y27120D2*X58253Y27103D1*X58215Y27062*X58189Y27012*X58170Y26945*X58164Y26870*X58170Y26795*X58189Y26728*X58215Y26678*X58253Y26637*X58304Y26620*X58355Y26637*X58393Y26678*X58419Y26728*X58438Y26795*X58444Y26870*X58438Y26945*X58419Y27012*X58393Y27062*X58355Y27103*X58304Y27120*X58993Y26887D2*X58796D1*X58752Y26870*X58713Y26820*X58701Y26762*X58713Y26703*X58739Y26653*X58783Y26620*X58993*Y27120*X58822*X58777Y27095*X58752Y27062*X58739Y27012*X58752Y26953*X58771Y26912*X58796Y26887*X59231Y26695D2*X59263Y26662D1*X59301Y26637*X59345Y26620*X59390*X59435Y26637*X59479Y26670*X59517Y26720*X59536Y26770*X59549Y26845*X59543Y26920*X59517Y27003*X59486Y27053*X59441Y27095*X59384Y27120*X59333*X59288Y27103*X59250Y27078*X60060Y26828D2*X59908D1*X59850Y26853*X59818Y26903*X59806Y26970*X59818Y27037*X59857Y27095*X59908Y27120*X60060*Y26620*X39325Y25920D2*X39173D1*X39325Y26320D2*X39249Y26420D1*Y25920*X40176Y26420D2*X40335Y25920D1*X40494Y26420*X40853Y26178D2*X41005D1*X40751Y26420D2*X41005D1*Y25920*X40751*X41294D2*X41389Y26162D1*X41548*X41389D2*X41345Y26187D1*X41306Y26228*X41294Y26295*X41306Y26362*X41338Y26395*X41389Y26420*X41548*Y25920*X38036Y26928D2*X38074Y26853D1*X38112Y26812*X38163Y26795*X38208Y26803*X38246Y26837*X38278Y26895*X38290Y26953*X38278Y27020*X38252Y27070*X38214Y27103*X38163Y27120*X38118Y27103*X38080Y27070*X38048Y27003*X38036Y26928*Y26837*X38048Y26762*X38080Y26687*X38125Y26637*X38176Y26620*X38227Y26637*X38271Y26678*X38706Y26620D2*X38751Y26628D1*X38802Y26653*X38833Y26695*X38846Y26753*X38833Y26812*X38795Y26862*X38738Y26887*X38674*X38636Y26903*X38604Y26945*X38591Y27003*X38611Y27062*X38655Y27103*X38706Y27120*X38757Y27103*X38802Y27062*X38821Y27003*X38808Y26945*X38776Y26903*X38738Y26887*X38674*X38617Y26862*X38579Y26812*X38566Y26753*X38579Y26695*X38611Y26653*X38661Y26628*X38706Y26620*X39338Y27078D2*X39281Y27112D1*X39224Y27120*X39166Y27095*X39134Y27053*X39122Y27003*X39134Y26953*X39166Y26912*X39204Y26887*X39262*X39204D2*X39160Y26870D1*X39115Y26828*X39103Y26770*X39109Y26720*X39141Y26670*X39192Y26628*X39243Y26620*X39300Y26628*X39351Y26662*X39389Y26720*X39792Y27120D2*X39741Y27103D1*X39703Y27062*X39677Y27012*X39658Y26945*X39652Y26870*X39658Y26795*X39677Y26728*X39703Y26678*X39741Y26637*X39792Y26620*X39843Y26637*X39881Y26678*X39907Y26728*X39926Y26795*X39932Y26870*X39926Y26945*X39907Y27012*X39881Y27062*X39843Y27103*X39792Y27120*X40481Y26887D2*X40284D1*X40240Y26870*X40201Y26820*X40189Y26762*X40201Y26703*X40227Y26653*X40271Y26620*X40481*Y27120*X40310*X40265Y27095*X40240Y27062*X40227Y27012*X40240Y26953*X40259Y26912*X40284Y26887*X40719Y26695D2*X40751Y26662D1*X40789Y26637*X40833Y26620*X40878*X40923Y26637*X40967Y26670*X41005Y26720*X41024Y26770*X41037Y26845*X41031Y26920*X41005Y27003*X40974Y27053*X40929Y27095*X40872Y27120*X40821*X40776Y27103*X40738Y27078*X41548Y26828D2*X41396D1*X41338Y26853*X41306Y26903*X41294Y26970*X41306Y27037*X41345Y27095*X41396Y27120*X41548*Y26620*X20813Y25920D2*X20661D1*X20813Y26320D2*X20737Y26420D1*Y25920*X21664Y26420D2*X21823Y25920D1*X21982Y26420*X22341Y26178D2*X22493D1*X22239Y26420D2*X22493D1*Y25920*X22239*X22782D2*X22877Y26162D1*X23036*X22877D2*X22833Y26187D1*X22794Y26228*X22782Y26295*X22794Y26362*X22826Y26395*X22877Y26420*X23036*Y25920*X19524Y26928D2*X19562Y26853D1*X19600Y26812*X19651Y26795*X19696Y26803*X19734Y26837*X19766Y26895*X19778Y26953*X19766Y27020*X19740Y27070*X19702Y27103*X19651Y27120*X19606Y27103*X19568Y27070*X19536Y27003*X19524Y26928*Y26837*X19536Y26762*X19568Y26687*X19613Y26637*X19664Y26620*X19715Y26637*X19759Y26678*X20194Y26620D2*X20239Y26628D1*X20290Y26653*X20321Y26695*X20334Y26753*X20321Y26812*X20283Y26862*X20226Y26887*X20162*X20124Y26903*X20092Y26945*X20079Y27003*X20099Y27062*X20143Y27103*X20194Y27120*X20245Y27103*X20290Y27062*X20309Y27003*X20296Y26945*X20264Y26903*X20226Y26887*X20162*X20105Y26862*X20067Y26812*X20054Y26753*X20067Y26695*X20099Y26653*X20149Y26628*X20194Y26620*X20826Y27078D2*X20769Y27112D1*X20712Y27120*X20654Y27095*X20622Y27053*X20610Y27003*X20622Y26953*X20654Y26912*X20692Y26887*X20750*X20692D2*X20648Y26870D1*X20603Y26828*X20591Y26770*X20597Y26720*X20629Y26670*X20680Y26628*X20731Y26620*X20788Y26628*X20839Y26662*X20877Y26720*X21280Y27120D2*X21229Y27103D1*X21191Y27062*X21165Y27012*X21146Y26945*X21140Y26870*X21146Y26795*X21165Y26728*X21191Y26678*X21229Y26637*X21280Y26620*X21331Y26637*X21369Y26678*X21395Y26728*X21414Y26795*X21420Y26870*X21414Y26945*X21395Y27012*X21369Y27062*X21331Y27103*X21280Y27120*X21969Y26887D2*X21772D1*X21728Y26870*X21689Y26820*X21677Y26762*X21689Y26703*X21715Y26653*X21759Y26620*X21969*Y27120*X21798*X21753Y27095*X21728Y27062*X21715Y27012*X21728Y26953*X21747Y26912*X21772Y26887*X22207Y26695D2*X22239Y26662D1*X22277Y26637*X22321Y26620*X22366*X22411Y26637*X22455Y26670*X22493Y26720*X22512Y26770*X22525Y26845*X22519Y26920*X22493Y27003*X22462Y27053*X22417Y27095*X22360Y27120*X22309*X22264Y27103*X22226Y27078*X23036Y26828D2*X22884D1*X22826Y26853*X22794Y26903*X22782Y26970*X22794Y27037*X22833Y27095*X22884Y27120*X23036*Y26620*X20813Y22000D2*X20661D1*X20813Y22400D2*X20737Y22500D1*Y22000*X21664Y22500D2*X21823Y22000D1*X21982Y22500*X22341Y22258D2*X22493D1*X22239Y22500D2*X22493D1*Y22000*X22239*X22782D2*X22877Y22242D1*X23036*X22877D2*X22833Y22267D1*X22794Y22308*X22782Y22375*X22794Y22442*X22826Y22475*X22877Y22500*X23036*Y22000*X19524Y23008D2*X19562Y22933D1*X19600Y22892*X19651Y22875*X19696Y22883*X19734Y22917*X19766Y22975*X19778Y23033*X19766Y23100*X19740Y23150*X19702Y23183*X19651Y23200*X19606Y23183*X19568Y23150*X19536Y23083*X19524Y23008*Y22917*X19536Y22842*X19568Y22767*X19613Y22717*X19664Y22700*X19715Y22717*X19759Y22758*X20194Y22700D2*X20239Y22708D1*X20290Y22733*X20321Y22775*X20334Y22833*X20321Y22892*X20283Y22942*X20226Y22967*X20162*X20124Y22983*X20092Y23025*X20079Y23083*X20099Y23142*X20143Y23183*X20194Y23200*X20245Y23183*X20290Y23142*X20309Y23083*X20296Y23025*X20264Y22983*X20226Y22967*X20162*X20105Y22942*X20067Y22892*X20054Y22833*X20067Y22775*X20099Y22733*X20149Y22708*X20194Y22700*X20826Y23158D2*X20769Y23192D1*X20712Y23200*X20654Y23175*X20622Y23133*X20610Y23083*X20622Y23033*X20654Y22992*X20692Y22967*X20750*X20692D2*X20648Y22950D1*X20603Y22908*X20591Y22850*X20597Y22800*X20629Y22750*X20680Y22708*X20731Y22700*X20788Y22708*X20839Y22742*X20877Y22800*X21280Y23200D2*X21229Y23183D1*X21191Y23142*X21165Y23092*X21146Y23025*X21140Y22950*X21146Y22875*X21165Y22808*X21191Y22758*X21229Y22717*X21280Y22700*X21331Y22717*X21369Y22758*X21395Y22808*X21414Y22875*X21420Y22950*X21414Y23025*X21395Y23092*X21369Y23142*X21331Y23183*X21280Y23200*X21969Y22967D2*X21772D1*X21728Y22950*X21689Y22900*X21677Y22842*X21689Y22783*X21715Y22733*X21759Y22700*X21969*Y23200*X21798*X21753Y23175*X21728Y23142*X21715Y23092*X21728Y23033*X21747Y22992*X21772Y22967*X22207Y22775D2*X22239Y22742D1*X22277Y22717*X22321Y22700*X22366*X22411Y22717*X22455Y22750*X22493Y22800*X22512Y22850*X22525Y22925*X22519Y23000*X22493Y23083*X22462Y23133*X22417Y23175*X22360Y23200*X22309*X22264Y23183*X22226Y23158*X23036Y22908D2*X22884D1*X22826Y22933*X22794Y22983*X22782Y23050*X22794Y23117*X22833Y23175*X22884Y23200*X23036*Y22700*X39325Y22000D2*X39173D1*X39325Y22400D2*X39249Y22500D1*Y22000*X40176Y22500D2*X40335Y22000D1*X40494Y22500*X40853Y22258D2*X41005D1*X40751Y22500D2*X41005D1*Y22000*X40751*X41294D2*X41389Y22242D1*X41548*X41389D2*X41345Y22267D1*X41306Y22308*X41294Y22375*X41306Y22442*X41338Y22475*X41389Y22500*X41548*Y22000*X38036Y23008D2*X38074Y22933D1*X38112Y22892*X38163Y22875*X38208Y22883*X38246Y22917*X38278Y22975*X38290Y23033*X38278Y23100*X38252Y23150*X38214Y23183*X38163Y23200*X38118Y23183*X38080Y23150*X38048Y23083*X38036Y23008*Y22917*X38048Y22842*X38080Y22767*X38125Y22717*X38176Y22700*X38227Y22717*X38271Y22758*X38706Y22700D2*X38751Y22708D1*X38802Y22733*X38833Y22775*X38846Y22833*X38833Y22892*X38795Y22942*X38738Y22967*X38674*X38636Y22983*X38604Y23025*X38591Y23083*X38611Y23142*X38655Y23183*X38706Y23200*X38757Y23183*X38802Y23142*X38821Y23083*X38808Y23025*X38776Y22983*X38738Y22967*X38674*X38617Y22942*X38579Y22892*X38566Y22833*X38579Y22775*X38611Y22733*X38661Y22708*X38706Y22700*X39338Y23158D2*X39281Y23192D1*X39224Y23200*X39166Y23175*X39134Y23133*X39122Y23083*X39134Y23033*X39166Y22992*X39204Y22967*X39262*X39204D2*X39160Y22950D1*X39115Y22908*X39103Y22850*X39109Y22800*X39141Y22750*X39192Y22708*X39243Y22700*X39300Y22708*X39351Y22742*X39389Y22800*X39792Y23200D2*X39741Y23183D1*X39703Y23142*X39677Y23092*X39658Y23025*X39652Y22950*X39658Y22875*X39677Y22808*X39703Y22758*X39741Y22717*X39792Y22700*X39843Y22717*X39881Y22758*X39907Y22808*X39926Y22875*X39932Y22950*X39926Y23025*X39907Y23092*X39881Y23142*X39843Y23183*X39792Y23200*X40481Y22967D2*X40284D1*X40240Y22950*X40201Y22900*X40189Y22842*X40201Y22783*X40227Y22733*X40271Y22700*X40481*Y23200*X40310*X40265Y23175*X40240Y23142*X40227Y23092*X40240Y23033*X40259Y22992*X40284Y22967*X40719Y22775D2*X40751Y22742D1*X40789Y22717*X40833Y22700*X40878*X40923Y22717*X40967Y22750*X41005Y22800*X41024Y22850*X41037Y22925*X41031Y23000*X41005Y23083*X40974Y23133*X40929Y23175*X40872Y23200*X40821*X40776Y23183*X40738Y23158*X41548Y22908D2*X41396D1*X41338Y22933*X41306Y22983*X41294Y23050*X41306Y23117*X41345Y23175*X41396Y23200*X41548*Y22700*X57837Y22000D2*X57685D1*X57837Y22400D2*X57761Y22500D1*Y22000*X58688Y22500D2*X58847Y22000D1*X59006Y22500*X59365Y22258D2*X59517D1*X59263Y22500D2*X59517D1*Y22000*X59263*X59806D2*X59901Y22242D1*X60060*X59901D2*X59857Y22267D1*X59818Y22308*X59806Y22375*X59818Y22442*X59850Y22475*X59901Y22500*X60060*Y22000*X56548Y23008D2*X56586Y22933D1*X56624Y22892*X56675Y22875*X56720Y22883*X56758Y22917*X56790Y22975*X56802Y23033*X56790Y23100*X56764Y23150*X56726Y23183*X56675Y23200*X56630Y23183*X56592Y23150*X56560Y23083*X56548Y23008*Y22917*X56560Y22842*X56592Y22767*X56637Y22717*X56688Y22700*X56739Y22717*X56783Y22758*X57218Y22700D2*X57263Y22708D1*X57314Y22733*X57345Y22775*X57358Y22833*X57345Y22892*X57307Y22942*X57250Y22967*X57186*X57148Y22983*X57116Y23025*X57103Y23083*X57123Y23142*X57167Y23183*X57218Y23200*X57269Y23183*X57314Y23142*X57333Y23083*X57320Y23025*X57288Y22983*X57250Y22967*X57186*X57129Y22942*X57091Y22892*X57078Y22833*X57091Y22775*X57123Y22733*X57173Y22708*X57218Y22700*X57850Y23158D2*X57793Y23192D1*X57736Y23200*X57678Y23175*X57646Y23133*X57634Y23083*X57646Y23033*X57678Y22992*X57716Y22967*X57774*X57716D2*X57672Y22950D1*X57627Y22908*X57615Y22850*X57621Y22800*X57653Y22750*X57704Y22708*X57755Y22700*X57812Y22708*X57863Y22742*X57901Y22800*X58304Y23200D2*X58253Y23183D1*X58215Y23142*X58189Y23092*X58170Y23025*X58164Y22950*X58170Y22875*X58189Y22808*X58215Y22758*X58253Y22717*X58304Y22700*X58355Y22717*X58393Y22758*X58419Y22808*X58438Y22875*X58444Y22950*X58438Y23025*X58419Y23092*X58393Y23142*X58355Y23183*X58304Y23200*X58993Y22967D2*X58796D1*X58752Y22950*X58713Y22900*X58701Y22842*X58713Y22783*X58739Y22733*X58783Y22700*X58993*Y23200*X58822*X58777Y23175*X58752Y23142*X58739Y23092*X58752Y23033*X58771Y22992*X58796Y22967*X59231Y22775D2*X59263Y22742D1*X59301Y22717*X59345Y22700*X59390*X59435Y22717*X59479Y22750*X59517Y22800*X59536Y22850*X59549Y22925*X59543Y23000*X59517Y23083*X59486Y23133*X59441Y23175*X59384Y23200*X59333*X59288Y23183*X59250Y23158*X60060Y22908D2*X59908D1*X59850Y22933*X59818Y22983*X59806Y23050*X59818Y23117*X59857Y23175*X59908Y23200*X60060*Y22700*X57837Y18080D2*X57685D1*X57837Y18480D2*X57761Y18580D1*Y18080*X58688Y18580D2*X58847Y18080D1*X59006Y18580*X59365Y18338D2*X59517D1*X59263Y18580D2*X59517D1*Y18080*X59263*X59806D2*X59901Y18322D1*X60060*X59901D2*X59857Y18347D1*X59818Y18388*X59806Y18455*X59818Y18522*X59850Y18555*X59901Y18580*X60060*Y18080*X56548Y19088D2*X56586Y19013D1*X56624Y18972*X56675Y18955*X56720Y18963*X56758Y18997*X56790Y19055*X56802Y19113*X56790Y19180*X56764Y19230*X56726Y19263*X56675Y19280*X56630Y19263*X56592Y19230*X56560Y19163*X56548Y19088*Y18997*X56560Y18922*X56592Y18847*X56637Y18797*X56688Y18780*X56739Y18797*X56783Y18838*X57218Y18780D2*X57263Y18788D1*X57314Y18813*X57345Y18855*X57358Y18913*X57345Y18972*X57307Y19022*X57250Y19047*X57186*X57148Y19063*X57116Y19105*X57103Y19163*X57123Y19222*X57167Y19263*X57218Y19280*X57269Y19263*X57314Y19222*X57333Y19163*X57320Y19105*X57288Y19063*X57250Y19047*X57186*X57129Y19022*X57091Y18972*X57078Y18913*X57091Y18855*X57123Y18813*X57173Y18788*X57218Y18780*X57850Y19238D2*X57793Y19272D1*X57736Y19280*X57678Y19255*X57646Y19213*X57634Y19163*X57646Y19113*X57678Y19072*X57716Y19047*X57774*X57716D2*X57672Y19030D1*X57627Y18988*X57615Y18930*X57621Y18880*X57653Y18830*X57704Y18788*X57755Y18780*X57812Y18788*X57863Y18822*X57901Y18880*X58304Y19280D2*X58253Y19263D1*X58215Y19222*X58189Y19172*X58170Y19105*X58164Y19030*X58170Y18955*X58189Y18888*X58215Y18838*X58253Y18797*X58304Y18780*X58355Y18797*X58393Y18838*X58419Y18888*X58438Y18955*X58444Y19030*X58438Y19105*X58419Y19172*X58393Y19222*X58355Y19263*X58304Y19280*X58993Y19047D2*X58796D1*X58752Y19030*X58713Y18980*X58701Y18922*X58713Y18863*X58739Y18813*X58783Y18780*X58993*Y19280*X58822*X58777Y19255*X58752Y19222*X58739Y19172*X58752Y19113*X58771Y19072*X58796Y19047*X59231Y18855D2*X59263Y18822D1*X59301Y18797*X59345Y18780*X59390*X59435Y18797*X59479Y18830*X59517Y18880*X59536Y18930*X59549Y19005*X59543Y19080*X59517Y19163*X59486Y19213*X59441Y19255*X59384Y19280*X59333*X59288Y19263*X59250Y19238*X60060Y18988D2*X59908D1*X59850Y19013*X59818Y19063*X59806Y19130*X59818Y19197*X59857Y19255*X59908Y19280*X60060*Y18780*X39325Y18080D2*X39173D1*X39325Y18480D2*X39249Y18580D1*Y18080*X40176Y18580D2*X40335Y18080D1*X40494Y18580*X40853Y18338D2*X41005D1*X40751Y18580D2*X41005D1*Y18080*X40751*X41294D2*X41389Y18322D1*X41548*X41389D2*X41345Y18347D1*X41306Y18388*X41294Y18455*X41306Y18522*X41338Y18555*X41389Y18580*X41548*Y18080*X38036Y19088D2*X38074Y19013D1*X38112Y18972*X38163Y18955*X38208Y18963*X38246Y18997*X38278Y19055*X38290Y19113*X38278Y19180*X38252Y19230*X38214Y19263*X38163Y19280*X38118Y19263*X38080Y19230*X38048Y19163*X38036Y19088*Y18997*X38048Y18922*X38080Y18847*X38125Y18797*X38176Y18780*X38227Y18797*X38271Y18838*X38706Y18780D2*X38751Y18788D1*X38802Y18813*X38833Y18855*X38846Y18913*X38833Y18972*X38795Y19022*X38738Y19047*X38674*X38636Y19063*X38604Y19105*X38591Y19163*X38611Y19222*X38655Y19263*X38706Y19280*X38757Y19263*X38802Y19222*X38821Y19163*X38808Y19105*X38776Y19063*X38738Y19047*X38674*X38617Y19022*X38579Y18972*X38566Y18913*X38579Y18855*X38611Y18813*X38661Y18788*X38706Y18780*X39338Y19238D2*X39281Y19272D1*X39224Y19280*X39166Y19255*X39134Y19213*X39122Y19163*X39134Y19113*X39166Y19072*X39204Y19047*X39262*X39204D2*X39160Y19030D1*X39115Y18988*X39103Y18930*X39109Y18880*X39141Y18830*X39192Y18788*X39243Y18780*X39300Y18788*X39351Y18822*X39389Y18880*X39792Y19280D2*X39741Y19263D1*X39703Y19222*X39677Y19172*X39658Y19105*X39652Y19030*X39658Y18955*X39677Y18888*X39703Y18838*X39741Y18797*X39792Y18780*X39843Y18797*X39881Y18838*X39907Y18888*X39926Y18955*X39932Y19030*X39926Y19105*X39907Y19172*X39881Y19222*X39843Y19263*X39792Y19280*X40481Y19047D2*X40284D1*X40240Y19030*X40201Y18980*X40189Y18922*X40201Y18863*X40227Y18813*X40271Y18780*X40481*Y19280*X40310*X40265Y19255*X40240Y19222*X40227Y19172*X40240Y19113*X40259Y19072*X40284Y19047*X40719Y18855D2*X40751Y18822D1*X40789Y18797*X40833Y18780*X40878*X40923Y18797*X40967Y18830*X41005Y18880*X41024Y18930*X41037Y19005*X41031Y19080*X41005Y19163*X40974Y19213*X40929Y19255*X40872Y19280*X40821*X40776Y19263*X40738Y19238*X41548Y18988D2*X41396D1*X41338Y19013*X41306Y19063*X41294Y19130*X41306Y19197*X41345Y19255*X41396Y19280*X41548*Y18780*X20813Y18080D2*X20661D1*X20813Y18480D2*X20737Y18580D1*Y18080*X21664Y18580D2*X21823Y18080D1*X21982Y18580*X22341Y18338D2*X22493D1*X22239Y18580D2*X22493D1*Y18080*X22239*X22782D2*X22877Y18322D1*X23036*X22877D2*X22833Y18347D1*X22794Y18388*X22782Y18455*X22794Y18522*X22826Y18555*X22877Y18580*X23036*Y18080*X19524Y19088D2*X19562Y19013D1*X19600Y18972*X19651Y18955*X19696Y18963*X19734Y18997*X19766Y19055*X19778Y19113*X19766Y19180*X19740Y19230*X19702Y19263*X19651Y19280*X19606Y19263*X19568Y19230*X19536Y19163*X19524Y19088*Y18997*X19536Y18922*X19568Y18847*X19613Y18797*X19664Y18780*X19715Y18797*X19759Y18838*X20194Y18780D2*X20239Y18788D1*X20290Y18813*X20321Y18855*X20334Y18913*X20321Y18972*X20283Y19022*X20226Y19047*X20162*X20124Y19063*X20092Y19105*X20079Y19163*X20099Y19222*X20143Y19263*X20194Y19280*X20245Y19263*X20290Y19222*X20309Y19163*X20296Y19105*X20264Y19063*X20226Y19047*X20162*X20105Y19022*X20067Y18972*X20054Y18913*X20067Y18855*X20099Y18813*X20149Y18788*X20194Y18780*X20826Y19238D2*X20769Y19272D1*X20712Y19280*X20654Y19255*X20622Y19213*X20610Y19163*X20622Y19113*X20654Y19072*X20692Y19047*X20750*X20692D2*X20648Y19030D1*X20603Y18988*X20591Y18930*X20597Y18880*X20629Y18830*X20680Y18788*X20731Y18780*X20788Y18788*X20839Y18822*X20877Y18880*X21280Y19280D2*X21229Y19263D1*X21191Y19222*X21165Y19172*X21146Y19105*X21140Y19030*X21146Y18955*X21165Y18888*X21191Y18838*X21229Y18797*X21280Y18780*X21331Y18797*X21369Y18838*X21395Y18888*X21414Y18955*X21420Y19030*X21414Y19105*X21395Y19172*X21369Y19222*X21331Y19263*X21280Y19280*X21969Y19047D2*X21772D1*X21728Y19030*X21689Y18980*X21677Y18922*X21689Y18863*X21715Y18813*X21759Y18780*X21969*Y19280*X21798*X21753Y19255*X21728Y19222*X21715Y19172*X21728Y19113*X21747Y19072*X21772Y19047*X22207Y18855D2*X22239Y18822D1*X22277Y18797*X22321Y18780*X22366*X22411Y18797*X22455Y18830*X22493Y18880*X22512Y18930*X22525Y19005*X22519Y19080*X22493Y19163*X22462Y19213*X22417Y19255*X22360Y19280*X22309*X22264Y19263*X22226Y19238*X23036Y18988D2*X22884D1*X22826Y19013*X22794Y19063*X22782Y19130*X22794Y19197*X22833Y19255*X22884Y19280*X23036*Y18780*X20813Y14160D2*X20661D1*X20813Y14560D2*X20737Y14660D1*Y14160*X21664Y14660D2*X21823Y14160D1*X21982Y14660*X22341Y14418D2*X22493D1*X22239Y14660D2*X22493D1*Y14160*X22239*X22782D2*X22877Y14402D1*X23036*X22877D2*X22833Y14427D1*X22794Y14468*X22782Y14535*X22794Y14602*X22826Y14635*X22877Y14660*X23036*Y14160*X19524Y15168D2*X19562Y15093D1*X19600Y15052*X19651Y15035*X19696Y15043*X19734Y15077*X19766Y15135*X19778Y15193*X19766Y15260*X19740Y15310*X19702Y15343*X19651Y15360*X19606Y15343*X19568Y15310*X19536Y15243*X19524Y15168*Y15077*X19536Y15002*X19568Y14927*X19613Y14877*X19664Y14860*X19715Y14877*X19759Y14918*X20194Y14860D2*X20239Y14868D1*X20290Y14893*X20321Y14935*X20334Y14993*X20321Y15052*X20283Y15102*X20226Y15127*X20162*X20124Y15143*X20092Y15185*X20079Y15243*X20099Y15302*X20143Y15343*X20194Y15360*X20245Y15343*X20290Y15302*X20309Y15243*X20296Y15185*X20264Y15143*X20226Y15127*X20162*X20105Y15102*X20067Y15052*X20054Y14993*X20067Y14935*X20099Y14893*X20149Y14868*X20194Y14860*X20826Y15318D2*X20769Y15352D1*X20712Y15360*X20654Y15335*X20622Y15293*X20610Y15243*X20622Y15193*X20654Y15152*X20692Y15127*X20750*X20692D2*X20648Y15110D1*X20603Y15068*X20591Y15010*X20597Y14960*X20629Y14910*X20680Y14868*X20731Y14860*X20788Y14868*X20839Y14902*X20877Y14960*X21280Y15360D2*X21229Y15343D1*X21191Y15302*X21165Y15252*X21146Y15185*X21140Y15110*X21146Y15035*X21165Y14968*X21191Y14918*X21229Y14877*X21280Y14860*X21331Y14877*X21369Y14918*X21395Y14968*X21414Y15035*X21420Y15110*X21414Y15185*X21395Y15252*X21369Y15302*X21331Y15343*X21280Y15360*X21969Y15127D2*X21772D1*X21728Y15110*X21689Y15060*X21677Y15002*X21689Y14943*X21715Y14893*X21759Y14860*X21969*Y15360*X21798*X21753Y15335*X21728Y15302*X21715Y15252*X21728Y15193*X21747Y15152*X21772Y15127*X22207Y14935D2*X22239Y14902D1*X22277Y14877*X22321Y14860*X22366*X22411Y14877*X22455Y14910*X22493Y14960*X22512Y15010*X22525Y15085*X22519Y15160*X22493Y15243*X22462Y15293*X22417Y15335*X22360Y15360*X22309*X22264Y15343*X22226Y15318*X23036Y15068D2*X22884D1*X22826Y15093*X22794Y15143*X22782Y15210*X22794Y15277*X22833Y15335*X22884Y15360*X23036*Y14860*X39325Y14160D2*X39173D1*X39325Y14560D2*X39249Y14660D1*Y14160*X40176Y14660D2*X40335Y14160D1*X40494Y14660*X40853Y14418D2*X41005D1*X40751Y14660D2*X41005D1*Y14160*X40751*X41294D2*X41389Y14402D1*X41548*X41389D2*X41345Y14427D1*X41306Y14468*X41294Y14535*X41306Y14602*X41338Y14635*X41389Y14660*X41548*Y14160*X38036Y15168D2*X38074Y15093D1*X38112Y15052*X38163Y15035*X38208Y15043*X38246Y15077*X38278Y15135*X38290Y15193*X38278Y15260*X38252Y15310*X38214Y15343*X38163Y15360*X38118Y15343*X38080Y15310*X38048Y15243*X38036Y15168*Y15077*X38048Y15002*X38080Y14927*X38125Y14877*X38176Y14860*X38227Y14877*X38271Y14918*X38706Y14860D2*X38751Y14868D1*X38802Y14893*X38833Y14935*X38846Y14993*X38833Y15052*X38795Y15102*X38738Y15127*X38674*X38636Y15143*X38604Y15185*X38591Y15243*X38611Y15302*X38655Y15343*X38706Y15360*X38757Y15343*X38802Y15302*X38821Y15243*X38808Y15185*X38776Y15143*X38738Y15127*X38674*X38617Y15102*X38579Y15052*X38566Y14993*X38579Y14935*X38611Y14893*X38661Y14868*X38706Y14860*X39338Y15318D2*X39281Y15352D1*X39224Y15360*X39166Y15335*X39134Y15293*X39122Y15243*X39134Y15193*X39166Y15152*X39204Y15127*X39262*X39204D2*X39160Y15110D1*X39115Y15068*X39103Y15010*X39109Y14960*X39141Y14910*X39192Y14868*X39243Y14860*X39300Y14868*X39351Y14902*X39389Y14960*X39792Y15360D2*X39741Y15343D1*X39703Y15302*X39677Y15252*X39658Y15185*X39652Y15110*X39658Y15035*X39677Y14968*X39703Y14918*X39741Y14877*X39792Y14860*X39843Y14877*X39881Y14918*X39907Y14968*X39926Y15035*X39932Y15110*X39926Y15185*X39907Y15252*X39881Y15302*X39843Y15343*X39792Y15360*X40481Y15127D2*X40284D1*X40240Y15110*X40201Y15060*X40189Y15002*X40201Y14943*X40227Y14893*X40271Y14860*X40481*Y15360*X40310*X40265Y15335*X40240Y15302*X40227Y15252*X40240Y15193*X40259Y15152*X40284Y15127*X40719Y14935D2*X40751Y14902D1*X40789Y14877*X40833Y14860*X40878*X40923Y14877*X40967Y14910*X41005Y14960*X41024Y15010*X41037Y15085*X41031Y15160*X41005Y15243*X40974Y15293*X40929Y15335*X40872Y15360*X40821*X40776Y15343*X40738Y15318*X41548Y15068D2*X41396D1*X41338Y15093*X41306Y15143*X41294Y15210*X41306Y15277*X41345Y15335*X41396Y15360*X41548*Y14860*X57837Y14160D2*X57685D1*X57837Y14560D2*X57761Y14660D1*Y14160*X58688Y14660D2*X58847Y14160D1*X59006Y14660*X59365Y14418D2*X59517D1*X59263Y14660D2*X59517D1*Y14160*X59263*X59806D2*X59901Y14402D1*X60060*X59901D2*X59857Y14427D1*X59818Y14468*X59806Y14535*X59818Y14602*X59850Y14635*X59901Y14660*X60060*Y14160*X56548Y15168D2*X56586Y15093D1*X56624Y15052*X56675Y15035*X56720Y15043*X56758Y15077*X56790Y15135*X56802Y15193*X56790Y15260*X56764Y15310*X56726Y15343*X56675Y15360*X56630Y15343*X56592Y15310*X56560Y15243*X56548Y15168*Y15077*X56560Y15002*X56592Y14927*X56637Y14877*X56688Y14860*X56739Y14877*X56783Y14918*X57218Y14860D2*X57263Y14868D1*X57314Y14893*X57345Y14935*X57358Y14993*X57345Y15052*X57307Y15102*X57250Y15127*X57186*X57148Y15143*X57116Y15185*X57103Y15243*X57123Y15302*X57167Y15343*X57218Y15360*X57269Y15343*X57314Y15302*X57333Y15243*X57320Y15185*X57288Y15143*X57250Y15127*X57186*X57129Y15102*X57091Y15052*X57078Y14993*X57091Y14935*X57123Y14893*X57173Y14868*X57218Y14860*X57850Y15318D2*X57793Y15352D1*X57736Y15360*X57678Y15335*X57646Y15293*X57634Y15243*X57646Y15193*X57678Y15152*X57716Y15127*X57774*X57716D2*X57672Y15110D1*X57627Y15068*X57615Y15010*X57621Y14960*X57653Y14910*X57704Y14868*X57755Y14860*X57812Y14868*X57863Y14902*X57901Y14960*X58304Y15360D2*X58253Y15343D1*X58215Y15302*X58189Y15252*X58170Y15185*X58164Y15110*X58170Y15035*X58189Y14968*X58215Y14918*X58253Y14877*X58304Y14860*X58355Y14877*X58393Y14918*X58419Y14968*X58438Y15035*X58444Y15110*X58438Y15185*X58419Y15252*X58393Y15302*X58355Y15343*X58304Y15360*X58993Y15127D2*X58796D1*X58752Y15110*X58713Y15060*X58701Y15002*X58713Y14943*X58739Y14893*X58783Y14860*X58993*Y15360*X58822*X58777Y15335*X58752Y15302*X58739Y15252*X58752Y15193*X58771Y15152*X58796Y15127*X59231Y14935D2*X59263Y14902D1*X59301Y14877*X59345Y14860*X59390*X59435Y14877*X59479Y14910*X59517Y14960*X59536Y15010*X59549Y15085*X59543Y15160*X59517Y15243*X59486Y15293*X59441Y15335*X59384Y15360*X59333*X59288Y15343*X59250Y15318*X60060Y15068D2*X59908D1*X59850Y15093*X59818Y15143*X59806Y15210*X59818Y15277*X59857Y15335*X59908Y15360*X60060*Y14860*X57837Y10240D2*X57685D1*X57837Y10640D2*X57761Y10740D1*Y10240*X58688Y10740D2*X58847Y10240D1*X59006Y10740*X59365Y10498D2*X59517D1*X59263Y10740D2*X59517D1*Y10240*X59263*X59806D2*X59901Y10482D1*X60060*X59901D2*X59857Y10507D1*X59818Y10548*X59806Y10615*X59818Y10682*X59850Y10715*X59901Y10740*X60060*Y10240*X56548Y11248D2*X56586Y11173D1*X56624Y11132*X56675Y11115*X56720Y11123*X56758Y11157*X56790Y11215*X56802Y11273*X56790Y11340*X56764Y11390*X56726Y11423*X56675Y11440*X56630Y11423*X56592Y11390*X56560Y11323*X56548Y11248*Y11157*X56560Y11082*X56592Y11007*X56637Y10957*X56688Y10940*X56739Y10957*X56783Y10998*X57218Y10940D2*X57263Y10948D1*X57314Y10973*X57345Y11015*X57358Y11073*X57345Y11132*X57307Y11182*X57250Y11207*X57186*X57148Y11223*X57116Y11265*X57103Y11323*X57123Y11382*X57167Y11423*X57218Y11440*X57269Y11423*X57314Y11382*X57333Y11323*X57320Y11265*X57288Y11223*X57250Y11207*X57186*X57129Y11182*X57091Y11132*X57078Y11073*X57091Y11015*X57123Y10973*X57173Y10948*X57218Y10940*X57850Y11398D2*X57793Y11432D1*X57736Y11440*X57678Y11415*X57646Y11373*X57634Y11323*X57646Y11273*X57678Y11232*X57716Y11207*X57774*X57716D2*X57672Y11190D1*X57627Y11148*X57615Y11090*X57621Y11040*X57653Y10990*X57704Y10948*X57755Y10940*X57812Y10948*X57863Y10982*X57901Y11040*X58304Y11440D2*X58253Y11423D1*X58215Y11382*X58189Y11332*X58170Y11265*X58164Y11190*X58170Y11115*X58189Y11048*X58215Y10998*X58253Y10957*X58304Y10940*X58355Y10957*X58393Y10998*X58419Y11048*X58438Y11115*X58444Y11190*X58438Y11265*X58419Y11332*X58393Y11382*X58355Y11423*X58304Y11440*X58993Y11207D2*X58796D1*X58752Y11190*X58713Y11140*X58701Y11082*X58713Y11023*X58739Y10973*X58783Y10940*X58993*Y11440*X58822*X58777Y11415*X58752Y11382*X58739Y11332*X58752Y11273*X58771Y11232*X58796Y11207*X59231Y11015D2*X59263Y10982D1*X59301Y10957*X59345Y10940*X59390*X59435Y10957*X59479Y10990*X59517Y11040*X59536Y11090*X59549Y11165*X59543Y11240*X59517Y11323*X59486Y11373*X59441Y11415*X59384Y11440*X59333*X59288Y11423*X59250Y11398*X60060Y11148D2*X59908D1*X59850Y11173*X59818Y11223*X59806Y11290*X59818Y11357*X59857Y11415*X59908Y11440*X60060*Y10940*X39325Y10240D2*X39173D1*X39325Y10640D2*X39249Y10740D1*Y10240*X40176Y10740D2*X40335Y10240D1*X40494Y10740*X40853Y10498D2*X41005D1*X40751Y10740D2*X41005D1*Y10240*X40751*X41294D2*X41389Y10482D1*X41548*X41389D2*X41345Y10507D1*X41306Y10548*X41294Y10615*X41306Y10682*X41338Y10715*X41389Y10740*X41548*Y10240*X38036Y11248D2*X38074Y11173D1*X38112Y11132*X38163Y11115*X38208Y11123*X38246Y11157*X38278Y11215*X38290Y11273*X38278Y11340*X38252Y11390*X38214Y11423*X38163Y11440*X38118Y11423*X38080Y11390*X38048Y11323*X38036Y11248*Y11157*X38048Y11082*X38080Y11007*X38125Y10957*X38176Y10940*X38227Y10957*X38271Y10998*X38706Y10940D2*X38751Y10948D1*X38802Y10973*X38833Y11015*X38846Y11073*X38833Y11132*X38795Y11182*X38738Y11207*X38674*X38636Y11223*X38604Y11265*X38591Y11323*X38611Y11382*X38655Y11423*X38706Y11440*X38757Y11423*X38802Y11382*X38821Y11323*X38808Y11265*X38776Y11223*X38738Y11207*X38674*X38617Y11182*X38579Y11132*X38566Y11073*X38579Y11015*X38611Y10973*X38661Y10948*X38706Y10940*X39338Y11398D2*X39281Y11432D1*X39224Y11440*X39166Y11415*X39134Y11373*X39122Y11323*X39134Y11273*X39166Y11232*X39204Y11207*X39262*X39204D2*X39160Y11190D1*X39115Y11148*X39103Y11090*X39109Y11040*X39141Y10990*X39192Y10948*X39243Y10940*X39300Y10948*X39351Y10982*X39389Y11040*X39792Y11440D2*X39741Y11423D1*X39703Y11382*X39677Y11332*X39658Y11265*X39652Y11190*X39658Y11115*X39677Y11048*X39703Y10998*X39741Y10957*X39792Y10940*X39843Y10957*X39881Y10998*X39907Y11048*X39926Y11115*X39932Y11190*X39926Y11265*X39907Y11332*X39881Y11382*X39843Y11423*X39792Y11440*X40481Y11207D2*X40284D1*X40240Y11190*X40201Y11140*X40189Y11082*X40201Y11023*X40227Y10973*X40271Y10940*X40481*Y11440*X40310*X40265Y11415*X40240Y11382*X40227Y11332*X40240Y11273*X40259Y11232*X40284Y11207*X40719Y11015D2*X40751Y10982D1*X40789Y10957*X40833Y10940*X40878*X40923Y10957*X40967Y10990*X41005Y11040*X41024Y11090*X41037Y11165*X41031Y11240*X41005Y11323*X40974Y11373*X40929Y11415*X40872Y11440*X40821*X40776Y11423*X40738Y11398*X41548Y11148D2*X41396D1*X41338Y11173*X41306Y11223*X41294Y11290*X41306Y11357*X41345Y11415*X41396Y11440*X41548*Y10940*X20813Y10240D2*X20661D1*X20813Y10640D2*X20737Y10740D1*Y10240*X21664Y10740D2*X21823Y10240D1*X21982Y10740*X22341Y10498D2*X22493D1*X22239Y10740D2*X22493D1*Y10240*X22239*X22782D2*X22877Y10482D1*X23036*X22877D2*X22833Y10507D1*X22794Y10548*X22782Y10615*X22794Y10682*X22826Y10715*X22877Y10740*X23036*Y10240*X19524Y11248D2*X19562Y11173D1*X19600Y11132*X19651Y11115*X19696Y11123*X19734Y11157*X19766Y11215*X19778Y11273*X19766Y11340*X19740Y11390*X19702Y11423*X19651Y11440*X19606Y11423*X19568Y11390*X19536Y11323*X19524Y11248*Y11157*X19536Y11082*X19568Y11007*X19613Y10957*X19664Y10940*X19715Y10957*X19759Y10998*X20194Y10940D2*X20239Y10948D1*X20290Y10973*X20321Y11015*X20334Y11073*X20321Y11132*X20283Y11182*X20226Y11207*X20162*X20124Y11223*X20092Y11265*X20079Y11323*X20099Y11382*X20143Y11423*X20194Y11440*X20245Y11423*X20290Y11382*X20309Y11323*X20296Y11265*X20264Y11223*X20226Y11207*X20162*X20105Y11182*X20067Y11132*X20054Y11073*X20067Y11015*X20099Y10973*X20149Y10948*X20194Y10940*X20826Y11398D2*X20769Y11432D1*X20712Y11440*X20654Y11415*X20622Y11373*X20610Y11323*X20622Y11273*X20654Y11232*X20692Y11207*X20750*X20692D2*X20648Y11190D1*X20603Y11148*X20591Y11090*X20597Y11040*X20629Y10990*X20680Y10948*X20731Y10940*X20788Y10948*X20839Y10982*X20877Y11040*X21280Y11440D2*X21229Y11423D1*X21191Y11382*X21165Y11332*X21146Y11265*X21140Y11190*X21146Y11115*X21165Y11048*X21191Y10998*X21229Y10957*X21280Y10940*X21331Y10957*X21369Y10998*X21395Y11048*X21414Y11115*X21420Y11190*X21414Y11265*X21395Y11332*X21369Y11382*X21331Y11423*X21280Y11440*X21969Y11207D2*X21772D1*X21728Y11190*X21689Y11140*X21677Y11082*X21689Y11023*X21715Y10973*X21759Y10940*X21969*Y11440*X21798*X21753Y11415*X21728Y11382*X21715Y11332*X21728Y11273*X21747Y11232*X21772Y11207*X22207Y11015D2*X22239Y10982D1*X22277Y10957*X22321Y10940*X22366*X22411Y10957*X22455Y10990*X22493Y11040*X22512Y11090*X22525Y11165*X22519Y11240*X22493Y11323*X22462Y11373*X22417Y11415*X22360Y11440*X22309*X22264Y11423*X22226Y11398*X23036Y11148D2*X22884D1*X22826Y11173*X22794Y11223*X22782Y11290*X22794Y11357*X22833Y11415*X22884Y11440*X23036*Y10940*X20813Y6320D2*X20661D1*X20813Y6720D2*X20737Y6820D1*Y6320*X21664Y6820D2*X21823Y6320D1*X21982Y6820*X22341Y6578D2*X22493D1*X22239Y6820D2*X22493D1*Y6320*X22239*X22782D2*X22877Y6562D1*X23036*X22877D2*X22833Y6587D1*X22794Y6628*X22782Y6695*X22794Y6762*X22826Y6795*X22877Y6820*X23036*Y6320*X19524Y7328D2*X19562Y7253D1*X19600Y7212*X19651Y7195*X19696Y7203*X19734Y7237*X19766Y7295*X19778Y7353*X19766Y7420*X19740Y7470*X19702Y7503*X19651Y7520*X19606Y7503*X19568Y7470*X19536Y7403*X19524Y7328*Y7237*X19536Y7162*X19568Y7087*X19613Y7037*X19664Y7020*X19715Y7037*X19759Y7078*X20194Y7020D2*X20239Y7028D1*X20290Y7053*X20321Y7095*X20334Y7153*X20321Y7212*X20283Y7262*X20226Y7287*X20162*X20124Y7303*X20092Y7345*X20079Y7403*X20099Y7462*X20143Y7503*X20194Y7520*X20245Y7503*X20290Y7462*X20309Y7403*X20296Y7345*X20264Y7303*X20226Y7287*X20162*X20105Y7262*X20067Y7212*X20054Y7153*X20067Y7095*X20099Y7053*X20149Y7028*X20194Y7020*X20826Y7478D2*X20769Y7512D1*X20712Y7520*X20654Y7495*X20622Y7453*X20610Y7403*X20622Y7353*X20654Y7312*X20692Y7287*X20750*X20692D2*X20648Y7270D1*X20603Y7228*X20591Y7170*X20597Y7120*X20629Y7070*X20680Y7028*X20731Y7020*X20788Y7028*X20839Y7062*X20877Y7120*X21280Y7520D2*X21229Y7503D1*X21191Y7462*X21165Y7412*X21146Y7345*X21140Y7270*X21146Y7195*X21165Y7128*X21191Y7078*X21229Y7037*X21280Y7020*X21331Y7037*X21369Y7078*X21395Y7128*X21414Y7195*X21420Y7270*X21414Y7345*X21395Y7412*X21369Y7462*X21331Y7503*X21280Y7520*X21969Y7287D2*X21772D1*X21728Y7270*X21689Y7220*X21677Y7162*X21689Y7103*X21715Y7053*X21759Y7020*X21969*Y7520*X21798*X21753Y7495*X21728Y7462*X21715Y7412*X21728Y7353*X21747Y7312*X21772Y7287*X22207Y7095D2*X22239Y7062D1*X22277Y7037*X22321Y7020*X22366*X22411Y7037*X22455Y7070*X22493Y7120*X22512Y7170*X22525Y7245*X22519Y7320*X22493Y7403*X22462Y7453*X22417Y7495*X22360Y7520*X22309*X22264Y7503*X22226Y7478*X23036Y7228D2*X22884D1*X22826Y7253*X22794Y7303*X22782Y7370*X22794Y7437*X22833Y7495*X22884Y7520*X23036*Y7020*X39325Y6320D2*X39173D1*X39325Y6720D2*X39249Y6820D1*Y6320*X40176Y6820D2*X40335Y6320D1*X40494Y6820*X40853Y6578D2*X41005D1*X40751Y6820D2*X41005D1*Y6320*X40751*X41294D2*X41389Y6562D1*X41548*X41389D2*X41345Y6587D1*X41306Y6628*X41294Y6695*X41306Y6762*X41338Y6795*X41389Y6820*X41548*Y6320*X38036Y7328D2*X38074Y7253D1*X38112Y7212*X38163Y7195*X38208Y7203*X38246Y7237*X38278Y7295*X38290Y7353*X38278Y7420*X38252Y7470*X38214Y7503*X38163Y7520*X38118Y7503*X38080Y7470*X38048Y7403*X38036Y7328*Y7237*X38048Y7162*X38080Y7087*X38125Y7037*X38176Y7020*X38227Y7037*X38271Y7078*X38706Y7020D2*X38751Y7028D1*X38802Y7053*X38833Y7095*X38846Y7153*X38833Y7212*X38795Y7262*X38738Y7287*X38674*X38636Y7303*X38604Y7345*X38591Y7403*X38611Y7462*X38655Y7503*X38706Y7520*X38757Y7503*X38802Y7462*X38821Y7403*X38808Y7345*X38776Y7303*X38738Y7287*X38674*X38617Y7262*X38579Y7212*X38566Y7153*X38579Y7095*X38611Y7053*X38661Y7028*X38706Y7020*X39338Y7478D2*X39281Y7512D1*X39224Y7520*X39166Y7495*X39134Y7453*X39122Y7403*X39134Y7353*X39166Y7312*X39204Y7287*X39262*X39204D2*X39160Y7270D1*X39115Y7228*X39103Y7170*X39109Y7120*X39141Y7070*X39192Y7028*X39243Y7020*X39300Y7028*X39351Y7062*X39389Y7120*X39792Y7520D2*X39741Y7503D1*X39703Y7462*X39677Y7412*X39658Y7345*X39652Y7270*X39658Y7195*X39677Y7128*X39703Y7078*X39741Y7037*X39792Y7020*X39843Y7037*X39881Y7078*X39907Y7128*X39926Y7195*X39932Y7270*X39926Y7345*X39907Y7412*X39881Y7462*X39843Y7503*X39792Y7520*X40481Y7287D2*X40284D1*X40240Y7270*X40201Y7220*X40189Y7162*X40201Y7103*X40227Y7053*X40271Y7020*X40481*Y7520*X40310*X40265Y7495*X40240Y7462*X40227Y7412*X40240Y7353*X40259Y7312*X40284Y7287*X40719Y7095D2*X40751Y7062D1*X40789Y7037*X40833Y7020*X40878*X40923Y7037*X40967Y7070*X41005Y7120*X41024Y7170*X41037Y7245*X41031Y7320*X41005Y7403*X40974Y7453*X40929Y7495*X40872Y7520*X40821*X40776Y7503*X40738Y7478*X41548Y7228D2*X41396D1*X41338Y7253*X41306Y7303*X41294Y7370*X41306Y7437*X41345Y7495*X41396Y7520*X41548*Y7020*X57837Y6320D2*X57685D1*X57837Y6720D2*X57761Y6820D1*Y6320*X58688Y6820D2*X58847Y6320D1*X59006Y6820*X59365Y6578D2*X59517D1*X59263Y6820D2*X59517D1*Y6320*X59263*X59806D2*X59901Y6562D1*X60060*X59901D2*X59857Y6587D1*X59818Y6628*X59806Y6695*X59818Y6762*X59850Y6795*X59901Y6820*X60060*Y6320*X56548Y7328D2*X56586Y7253D1*X56624Y7212*X56675Y7195*X56720Y7203*X56758Y7237*X56790Y7295*X56802Y7353*X56790Y7420*X56764Y7470*X56726Y7503*X56675Y7520*X56630Y7503*X56592Y7470*X56560Y7403*X56548Y7328*Y7237*X56560Y7162*X56592Y7087*X56637Y7037*X56688Y7020*X56739Y7037*X56783Y7078*X57218Y7020D2*X57263Y7028D1*X57314Y7053*X57345Y7095*X57358Y7153*X57345Y7212*X57307Y7262*X57250Y7287*X57186*X57148Y7303*X57116Y7345*X57103Y7403*X57123Y7462*X57167Y7503*X57218Y7520*X57269Y7503*X57314Y7462*X57333Y7403*X57320Y7345*X57288Y7303*X57250Y7287*X57186*X57129Y7262*X57091Y7212*X57078Y7153*X57091Y7095*X57123Y7053*X57173Y7028*X57218Y7020*X57850Y7478D2*X57793Y7512D1*X57736Y7520*X57678Y7495*X57646Y7453*X57634Y7403*X57646Y7353*X57678Y7312*X57716Y7287*X57774*X57716D2*X57672Y7270D1*X57627Y7228*X57615Y7170*X57621Y7120*X57653Y7070*X57704Y7028*X57755Y7020*X57812Y7028*X57863Y7062*X57901Y7120*X58304Y7520D2*X58253Y7503D1*X58215Y7462*X58189Y7412*X58170Y7345*X58164Y7270*X58170Y7195*X58189Y7128*X58215Y7078*X58253Y7037*X58304Y7020*X58355Y7037*X58393Y7078*X58419Y7128*X58438Y7195*X58444Y7270*X58438Y7345*X58419Y7412*X58393Y7462*X58355Y7503*X58304Y7520*X58993Y7287D2*X58796D1*X58752Y7270*X58713Y7220*X58701Y7162*X58713Y7103*X58739Y7053*X58783Y7020*X58993*Y7520*X58822*X58777Y7495*X58752Y7462*X58739Y7412*X58752Y7353*X58771Y7312*X58796Y7287*X59231Y7095D2*X59263Y7062D1*X59301Y7037*X59345Y7020*X59390*X59435Y7037*X59479Y7070*X59517Y7120*X59536Y7170*X59549Y7245*X59543Y7320*X59517Y7403*X59486Y7453*X59441Y7495*X59384Y7520*X59333*X59288Y7503*X59250Y7478*X60060Y7228D2*X59908D1*X59850Y7253*X59818Y7303*X59806Y7370*X59818Y7437*X59857Y7495*X59908Y7520*X60060*Y7020*X57837Y2400D2*X57685D1*X57837Y2800D2*X57761Y2900D1*Y2400*X58688Y2900D2*X58847Y2400D1*X59006Y2900*X59365Y2658D2*X59517D1*X59263Y2900D2*X59517D1*Y2400*X59263*X59806D2*X59901Y2642D1*X60060*X59901D2*X59857Y2667D1*X59818Y2708*X59806Y2775*X59818Y2842*X59850Y2875*X59901Y2900*X60060*Y2400*X56548Y3408D2*X56586Y3333D1*X56624Y3292*X56675Y3275*X56720Y3283*X56758Y3317*X56790Y3375*X56802Y3433*X56790Y3500*X56764Y3550*X56726Y3583*X56675Y3600*X56630Y3583*X56592Y3550*X56560Y3483*X56548Y3408*Y3317*X56560Y3242*X56592Y3167*X56637Y3117*X56688Y3100*X56739Y3117*X56783Y3158*X57218Y3100D2*X57263Y3108D1*X57314Y3133*X57345Y3175*X57358Y3233*X57345Y3292*X57307Y3342*X57250Y3367*X57186*X57148Y3383*X57116Y3425*X57103Y3483*X57123Y3542*X57167Y3583*X57218Y3600*X57269Y3583*X57314Y3542*X57333Y3483*X57320Y3425*X57288Y3383*X57250Y3367*X57186*X57129Y3342*X57091Y3292*X57078Y3233*X57091Y3175*X57123Y3133*X57173Y3108*X57218Y3100*X57850Y3558D2*X57793Y3592D1*X57736Y3600*X57678Y3575*X57646Y3533*X57634Y3483*X57646Y3433*X57678Y3392*X57716Y3367*X57774*X57716D2*X57672Y3350D1*X57627Y3308*X57615Y3250*X57621Y3200*X57653Y3150*X57704Y3108*X57755Y3100*X57812Y3108*X57863Y3142*X57901Y3200*X58304Y3600D2*X58253Y3583D1*X58215Y3542*X58189Y3492*X58170Y3425*X58164Y3350*X58170Y3275*X58189Y3208*X58215Y3158*X58253Y3117*X58304Y3100*X58355Y3117*X58393Y3158*X58419Y3208*X58438Y3275*X58444Y3350*X58438Y3425*X58419Y3492*X58393Y3542*X58355Y3583*X58304Y3600*X58993Y3367D2*X58796D1*X58752Y3350*X58713Y3300*X58701Y3242*X58713Y3183*X58739Y3133*X58783Y3100*X58993*Y3600*X58822*X58777Y3575*X58752Y3542*X58739Y3492*X58752Y3433*X58771Y3392*X58796Y3367*X59231Y3175D2*X59263Y3142D1*X59301Y3117*X59345Y3100*X59390*X59435Y3117*X59479Y3150*X59517Y3200*X59536Y3250*X59549Y3325*X59543Y3400*X59517Y3483*X59486Y3533*X59441Y3575*X59384Y3600*X59333*X59288Y3583*X59250Y3558*X60060Y3308D2*X59908D1*X59850Y3333*X59818Y3383*X59806Y3450*X59818Y3517*X59857Y3575*X59908Y3600*X60060*Y3100*X39325Y2400D2*X39173D1*X39325Y2800D2*X39249Y2900D1*Y2400*X40176Y2900D2*X40335Y2400D1*X40494Y2900*X40853Y2658D2*X41005D1*X40751Y2900D2*X41005D1*Y2400*X40751*X41294D2*X41389Y2642D1*X41548*X41389D2*X41345Y2667D1*X41306Y2708*X41294Y2775*X41306Y2842*X41338Y2875*X41389Y2900*X41548*Y2400*X38036Y3408D2*X38074Y3333D1*X38112Y3292*X38163Y3275*X38208Y3283*X38246Y3317*X38278Y3375*X38290Y3433*X38278Y3500*X38252Y3550*X38214Y3583*X38163Y3600*X38118Y3583*X38080Y3550*X38048Y3483*X38036Y3408*Y3317*X38048Y3242*X38080Y3167*X38125Y3117*X38176Y3100*X38227Y3117*X38271Y3158*X38706Y3100D2*X38751Y3108D1*X38802Y3133*X38833Y3175*X38846Y3233*X38833Y3292*X38795Y3342*X38738Y3367*X38674*X38636Y3383*X38604Y3425*X38591Y3483*X38611Y3542*X38655Y3583*X38706Y3600*X38757Y3583*X38802Y3542*X38821Y3483*X38808Y3425*X38776Y3383*X38738Y3367*X38674*X38617Y3342*X38579Y3292*X38566Y3233*X38579Y3175*X38611Y3133*X38661Y3108*X38706Y3100*X39338Y3558D2*X39281Y3592D1*X39224Y3600*X39166Y3575*X39134Y3533*X39122Y3483*X39134Y3433*X39166Y3392*X39204Y3367*X39262*X39204D2*X39160Y3350D1*X39115Y3308*X39103Y3250*X39109Y3200*X39141Y3150*X39192Y3108*X39243Y3100*X39300Y3108*X39351Y3142*X39389Y3200*X39792Y3600D2*X39741Y3583D1*X39703Y3542*X39677Y3492*X39658Y3425*X39652Y3350*X39658Y3275*X39677Y3208*X39703Y3158*X39741Y3117*X39792Y3100*X39843Y3117*X39881Y3158*X39907Y3208*X39926Y3275*X39932Y3350*X39926Y3425*X39907Y3492*X39881Y3542*X39843Y3583*X39792Y3600*X40481Y3367D2*X40284D1*X40240Y3350*X40201Y3300*X40189Y3242*X40201Y3183*X40227Y3133*X40271Y3100*X40481*Y3600*X40310*X40265Y3575*X40240Y3542*X40227Y3492*X40240Y3433*X40259Y3392*X40284Y3367*X40719Y3175D2*X40751Y3142D1*X40789Y3117*X40833Y3100*X40878*X40923Y3117*X40967Y3150*X41005Y3200*X41024Y3250*X41037Y3325*X41031Y3400*X41005Y3483*X40974Y3533*X40929Y3575*X40872Y3600*X40821*X40776Y3583*X40738Y3558*X41548Y3308D2*X41396D1*X41338Y3333*X41306Y3383*X41294Y3450*X41306Y3517*X41345Y3575*X41396Y3600*X41548*Y3100*X20813Y2400D2*X20661D1*X20813Y2800D2*X20737Y2900D1*Y2400*X21664Y2900D2*X21823Y2400D1*X21982Y2900*X22341Y2658D2*X22493D1*X22239Y2900D2*X22493D1*Y2400*X22239*X22782D2*X22877Y2642D1*X23036*X22877D2*X22833Y2667D1*X22794Y2708*X22782Y2775*X22794Y2842*X22826Y2875*X22877Y2900*X23036*Y2400*X19524Y3408D2*X19562Y3333D1*X19600Y3292*X19651Y3275*X19696Y3283*X19734Y3317*X19766Y3375*X19778Y3433*X19766Y3500*X19740Y3550*X19702Y3583*X19651Y3600*X19606Y3583*X19568Y3550*X19536Y3483*X19524Y3408*Y3317*X19536Y3242*X19568Y3167*X19613Y3117*X19664Y3100*X19715Y3117*X19759Y3158*X20194Y3100D2*X20239Y3108D1*X20290Y3133*X20321Y3175*X20334Y3233*X20321Y3292*X20283Y3342*X20226Y3367*X20162*X20124Y3383*X20092Y3425*X20079Y3483*X20099Y3542*X20143Y3583*X20194Y3600*X20245Y3583*X20290Y3542*X20309Y3483*X20296Y3425*X20264Y3383*X20226Y3367*X20162*X20105Y3342*X20067Y3292*X20054Y3233*X20067Y3175*X20099Y3133*X20149Y3108*X20194Y3100*X20826Y3558D2*X20769Y3592D1*X20712Y3600*X20654Y3575*X20622Y3533*X20610Y3483*X20622Y3433*X20654Y3392*X20692Y3367*X20750*X20692D2*X20648Y3350D1*X20603Y3308*X20591Y3250*X20597Y3200*X20629Y3150*X20680Y3108*X20731Y3100*X20788Y3108*X20839Y3142*X20877Y3200*X21280Y3600D2*X21229Y3583D1*X21191Y3542*X21165Y3492*X21146Y3425*X21140Y3350*X21146Y3275*X21165Y3208*X21191Y3158*X21229Y3117*X21280Y3100*X21331Y3117*X21369Y3158*X21395Y3208*X21414Y3275*X21420Y3350*X21414Y3425*X21395Y3492*X21369Y3542*X21331Y3583*X21280Y3600*X21969Y3367D2*X21772D1*X21728Y3350*X21689Y3300*X21677Y3242*X21689Y3183*X21715Y3133*X21759Y3100*X21969*Y3600*X21798*X21753Y3575*X21728Y3542*X21715Y3492*X21728Y3433*X21747Y3392*X21772Y3367*X22207Y3175D2*X22239Y3142D1*X22277Y3117*X22321Y3100*X22366*X22411Y3117*X22455Y3150*X22493Y3200*X22512Y3250*X22525Y3325*X22519Y3400*X22493Y3483*X22462Y3533*X22417Y3575*X22360Y3600*X22309*X22264Y3583*X22226Y3558*X23036Y3308D2*X22884D1*X22826Y3333*X22794Y3383*X22782Y3450*X22794Y3517*X22833Y3575*X22884Y3600*X23036*Y3100*D120*X580Y-1282D2*Y-2082D1*X120Y-1282*Y-2082*X806Y-1622D2*X1247D1*Y-1282D2*X806D1*Y-2082*X1247*X1487Y-1622D2*X1928D1*Y-1282D2*X1487D1*Y-2082*X1928*X2494D2*X2614Y-1962D1*Y-1408*X2494Y-1282*X2154*Y-2082*X2494*X4000Y-1282D2*Y-1962D1*X3880Y-2082*X3641*X3521Y-1962*Y-1282*X4649Y-2082D2*X4214D1*Y-1282*X6009Y-2082D2*X5575D1*Y-1282*X6236Y-1408D2*Y-1962D1*X6356Y-2082*X6595*X6715Y-1962*Y-1408*X6595Y-1282*X6356*X6236Y-1408*X7143Y-1723D2*X7364D1*Y-2082*X7043*X6923Y-1962*Y-1408*X7043Y-1282*X7364*X7597Y-1408D2*Y-1962D1*X7717Y-2082*X7956*X8076Y-1962*Y-1408*X7956Y-1282*X7717*X7597Y-1408*X8517Y-1975D2*Y-1887D1*X8611*X8391Y-2082*X9978D2*X10098Y-1962D1*Y-1408*X9978Y-1282*X9638*Y-2082*X9978*X10318Y-1723D2*X10778D1*Y-2082D2*Y-1408D1*X10658Y-1282*X10438*X10318Y-1408*Y-2082*X11250D2*Y-1282D1*X11011D2*X11490D1*X11691Y-1622D2*X12132D1*Y-1282D2*X11691D1*Y-2082*X12132*X13506D2*X13146D1*X13027Y-1962*Y-1408*X13146Y-1282*X13506*X13720Y-1408D2*Y-1962D1*X13839Y-2082*X14079*X14198Y-1962*Y-1408*X14079Y-1282*X13839*X13720Y-1408*X14740Y-2082D2*X14860Y-1962D1*Y-1408*X14740Y-1282*X14400*Y-2082*X14740*X15093Y-1622D2*X15534D1*Y-1282D2*X15093D1*Y-2082*X15534*X16441Y-1723D2*X16901D1*Y-2082D2*Y-1408D1*X16781Y-1282*X16561*X16441Y-1408*Y-2082*X17587Y-1282D2*Y-2082D1*X17128Y-1282*Y-2082*X18142D2*X18261Y-1962D1*Y-1408*X18142Y-1282*X17802*Y-2082*X18142*X19509D2*X19269D1*X19389D2*Y-1282D1*X19269Y-1408*X19836Y-2082D2*X20315Y-1282D1*X19956D2*X19836Y-1408D1*Y-1962*X19956Y-2082*X20195*X20315Y-1962*Y-1408*X20195Y-1282*X19956*X20517Y-2082D2*X20995Y-1282D1*X20636D2*X20517Y-1408D1*Y-1962*X20636Y-2082*X20876*X20995Y-1962*Y-1408*X20876Y-1282*X20636*X21417Y-2082D2*X21657D1*Y-1843*X21417*Y-2082*X21178D2*X21657Y-1282D1*X21417*Y-1528*X21178*Y-1282*X21417*X22576Y-1622D2*X23017D1*Y-1282D2*X22576D1*Y-2082*X23017*X23370D2*X23490D1*Y-1962*X23370*Y-2082*X24176D2*Y-1282D1*X23937D2*X24416D1*X24731Y-2082D2*X24850D1*Y-1962*X24731*Y-2082*X25965Y-1723D2*X26425D1*Y-2082D2*Y-1408D1*X26306Y-1282*X26085*X25965Y-1408*Y-2082*X26665D2*X26986D1*X27106Y-1962*Y-1723*X26986Y-1603*X26784*X26665Y-1484*Y-1408*X26784Y-1282*X27106*X28019Y-1622D2*X28359D1*X28479Y-1502*Y-1408*X28359Y-1282*X28019*Y-2082*X28699Y-1622D2*X29140D1*Y-1282D2*X28699D1*Y-2082*X29140*X29827D2*X29587Y-1647D1*X29392D2*X29707D1*X29827Y-1528*Y-1408*X29707Y-1282*X29392*Y-2082*X30740Y-1622D2*X31080D1*X31200Y-1502*Y-1408*X31080Y-1282*X30740*Y-2082*X31868D2*X31628Y-1647D1*X31433D2*X31748D1*X31868Y-1528*Y-1408*X31748Y-1282*X31433*Y-2082*X32088Y-1408D2*Y-1962D1*X32208Y-2082*X32447*X32567Y-1962*Y-1408*X32447Y-1282*X32208*X32088Y-1408*X33247Y-1282D2*X33008Y-2082D1*X32769Y-1282*X33682Y-2082D2*X33443D1*X33562D2*Y-1282D1*X33682D2*X33443D1*X34469Y-2082D2*X34589Y-1962D1*Y-1408*X34469Y-1282*X34129*Y-2082*X34469*X34822Y-1622D2*X35263D1*Y-1282D2*X34822D1*Y-2082*X35263*X35830D2*X35950Y-1962D1*Y-1408*X35830Y-1282*X35490*Y-2082*X35830*X37317Y-1282D2*Y-2082D1*X36857Y-1282*Y-2082*X37543Y-1622D2*X37984D1*Y-1282D2*X37543D1*Y-2082*X37984*X38463D2*Y-1282D1*X38224D2*X38702D1*X39345Y-2082D2*X38910D1*Y-1282*X39805Y-2082D2*X39565D1*X39685D2*Y-1282D1*X39805D2*X39565D1*X40271Y-2082D2*X40592D1*X40712Y-1962*Y-1723*X40592Y-1603*X40391*X40271Y-1484*Y-1408*X40391Y-1282*X40712*X41184Y-2082D2*Y-1282D1*X40945D2*X41424D1*X42079Y-1962D2*X41600Y-1528D1*Y-1962D2*X42079Y-1528D1*Y-1748D2*X41600D1*X41839Y-1528D2*Y-1962D1*X42759D2*X42280Y-1528D1*Y-1962D2*X42759Y-1528D1*Y-1748D2*X42280D1*X42520Y-1528D2*Y-1962D1*X54772Y-2082D2*X54532D1*X54652D2*Y-1282D1*X54772D2*X54532D1*X55672Y-2082D2*Y-1282D1*X55452Y-1723*X55231Y-1282*Y-2082*X56353D2*Y-1282D1*X56132Y-1723*X55912Y-1282*Y-2082*X56592Y-1622D2*X57033D1*Y-1282D2*X56592D1*Y-2082*X57033*X57720D2*X57480Y-1647D1*X57285D2*X57600D1*X57720Y-1528*Y-1408*X57600Y-1282*X57285*Y-2082*X57959D2*X58280D1*X58400Y-1962*Y-1723*X58280Y-1603*X58079*X57959Y-1484*Y-1408*X58079Y-1282*X58400*X58854Y-2082D2*X58614D1*X58734D2*Y-1282D1*X58854D2*X58614D1*X59301Y-1408D2*Y-1962D1*X59420Y-2082*X59660*X59780Y-1962*Y-1408*X59660Y-1282*X59420*X59301Y-1408*X60447Y-1282D2*Y-2082D1*X59987Y-1282*Y-2082*X61569Y-1723D2*X61789D1*Y-2082*X61468*X61348Y-1962*Y-1408*X61468Y-1282*X61789*X62022Y-1408D2*Y-1962D1*X62142Y-2082*X62381*X62501Y-1962*Y-1408*X62381Y-1282*X62142*X62022Y-1408*X63156Y-2082D2*X62721D1*Y-1282*X63723Y-2082D2*X63843Y-1962D1*Y-1408*X63723Y-1282*X63383*Y-2082*X63723*X64529Y-1962D2*X64050Y-1528D1*Y-1962D2*X64529Y-1528D1*Y-1748D2*X64050D1*X64290Y-1528D2*Y-1962D1*X65209D2*X64731Y-1528D1*Y-1962D2*X65209Y-1528D1*Y-1748D2*X64731D1*X64970Y-1528D2*Y-1962D1*X441Y-2643D2*X126D1*Y-3102D2*Y-2302D1*X561*X1254Y-3102D2*X1014Y-2668D1*X819D2*X1134D1*X1254Y-2548*Y-2428*X1134Y-2302*X819*Y-3102*X1946Y-2863D2*X1487D1*X1827Y-2302*Y-3102*X3181D2*X2942D1*X3061D2*Y-2302D1*X2942Y-2428*X3628Y-3102D2*X3868Y-2302D1*X3509*X4189Y-3102D2*X4668Y-2302D1*X4309D2*X4189Y-2428D1*Y-2983*X4309Y-3102*X4548*X4668Y-2983*Y-2428*X4548Y-2302*X4309*X5128Y-3102D2*Y-2302D1*X4888D2*X5367D1*X5783Y-2743D2*X6003D1*Y-3102*X5682*X5562Y-2983*Y-2428*X5682Y-2302*X6003*X7370Y-3102D2*Y-2302D1*X7150Y-2743*X6929Y-2302*Y-3102*X7597Y-2743D2*X8057D1*Y-3102D2*Y-2428D1*X7937Y-2302*X7717*X7597Y-2428*Y-3102*X8529D2*Y-2302D1*X8290D2*X8769D1*X8970Y-2643D2*X9411D1*Y-2302D2*X8970D1*Y-3102*X9411*X10098D2*X9858Y-2668D1*X9663D2*X9978D1*X10098Y-2548*Y-2428*X9978Y-2302*X9663*Y-3102*X10551D2*X10312D1*X10431D2*Y-2302D1*X10551D2*X10312D1*X10998Y-2743D2*X11458D1*Y-3102D2*Y-2428D1*X11339Y-2302*X11118*X10998Y-2428*Y-3102*X12132D2*X11698D1*Y-2302*X12825Y-2983D2*X12346Y-2548D1*Y-2983D2*X12825Y-2548D1*Y-2769D2*X12346D1*X12586Y-2548D2*Y-2983D1*X13506D2*X13027Y-2548D1*Y-2983D2*X13506Y-2548D1*Y-2769D2*X13027D1*X13266Y-2548D2*Y-2983D1*X19156Y-3102D2*X19635Y-2302D1*X19276D2*X19156Y-2428D1*Y-2983*X19276Y-3102*X19515*X19635Y-2983*Y-2428*X19515Y-2302*X19276*X19969Y-3102D2*X20088D1*Y-2983*X19969*Y-3102*X20517D2*X20995Y-2302D1*X20636D2*X20517Y-2428D1*Y-2983*X20636Y-3102*X20876*X20995Y-2983*Y-2428*X20876Y-2302*X20636*X21178Y-2983D2*X21298Y-3102D1*X21543*X21663Y-2983*Y-2788*X21543Y-2668*X21663Y-2548*Y-2428*X21543Y-2302*X21298*X21178Y-2428*X22343Y-3102D2*X21883D1*X22343Y-2668*Y-2428*X22224Y-2302*X22003*X21883Y-2428*X22917Y-2504D2*Y-2302D1*X22677Y-2504D2*Y-2302D1*X24176Y-3102D2*Y-2302D1*X23937D2*X24416D1*X24605Y-2643D2*X25065D1*Y-2302D2*Y-3102D1*X24605D2*Y-2302D1*X25518Y-3102D2*X25279D1*X25398D2*Y-2302D1*X25518D2*X25279D1*X26431Y-3102D2*X26072D1*X25953Y-2983*Y-2428*X26072Y-2302*X26431*X26665Y-3102D2*Y-2302D1*X27106Y-3102D2*X26665Y-2643D1*X27106Y-2302*X27792Y-2983D2*X27313Y-2548D1*Y-2983D2*X27792Y-2548D1*Y-2769D2*X27313D1*X27553Y-2548D2*Y-2983D1*X28472D2*X27994Y-2548D1*Y-2983D2*X28472Y-2548D1*Y-2769D2*X27994D1*X28233Y-2548D2*Y-2983D1*X54738Y-262D2*X54499Y-1062D1*X54259Y-262*X55393Y-728D2*X54952D1*X55639Y-1062D2*X55960D1*X56080Y-942*Y-703*X55960Y-583*X55759*X55639Y-464*Y-388*X55759Y-262*X56080*X56766Y-1062D2*X56407D1*X56288Y-942*Y-388*X56407Y-262*X56766*X56981Y-388D2*Y-942D1*X57100Y-1062*X57340*X57459Y-942*Y-388*X57340Y-262*X57100*X56981Y-388*X58121Y-1062D2*X57881Y-627D1*X57686D2*X58001D1*X58121Y-508*Y-388*X58001Y-262*X57686*Y-1062*X58574D2*X58335D1*X58455D2*Y-262D1*X58574D2*X58335D1*X59488D2*Y-1062D1*X59028Y-262*Y-1062*X59929Y-703D2*X60149D1*Y-1062*X59828*X59708Y-942*Y-388*X59828Y-262*X60149*X60848Y-942D2*X60370Y-508D1*Y-942D2*X60848Y-508D1*Y-728D2*X60370D1*X60609Y-508D2*Y-942D1*X61529D2*X61050Y-508D1*Y-942D2*X61529Y-508D1*Y-728D2*X61050D1*X61289Y-508D2*Y-942D1*X6255Y-1062D2*X6577D1*X6696Y-942*Y-703*X6577Y-583*X6375*X6255Y-464*Y-388*X6375Y-262*X6696*X6917Y-388D2*Y-942D1*X7036Y-1062*X7276*X7395Y-942*Y-388*X7276Y-262*X7036*X6917Y-388*X8051Y-1062D2*X7616D1*Y-262*X8617Y-1062D2*X8737Y-942D1*Y-388*X8617Y-262*X8277*Y-1062*X8617*X8970Y-602D2*X9411D1*Y-262D2*X8970D1*Y-1062*X9411*X10098D2*X9858Y-627D1*X9663D2*X9978D1*X10098Y-508*Y-388*X9978Y-262*X9663*Y-1062*X11017D2*X11339D1*X11458Y-942*Y-703*X11339Y-583*X11137*X11017Y-464*Y-388*X11137Y-262*X11458*X11912Y-1062D2*X11673D1*X11792D2*Y-262D1*X11912D2*X11673D1*X12699Y-1062D2*X12819Y-942D1*Y-388*X12699Y-262*X12359*Y-1062*X12699*X13052Y-602D2*X13493D1*Y-262D2*X13052D1*Y-1062*X13493*D17*X62036Y30000D3*D19*X-1040Y79440D3*X66576D3*X-1040Y-1040D3*D100*X6460Y75300D3*X5670Y75680D3*X24972Y75300D3*X24182Y75680D3*X43484Y75300D3*X42694Y75680D3*X43484Y71380D3*X42694Y71760D3*X24972Y71380D3*X24182Y71760D3*X6460Y71380D3*X5670Y71760D3*X6460Y67460D3*X5670Y67840D3*X24972Y67460D3*X24182Y67840D3*X43484Y67460D3*X42694Y67840D3*X43484Y63540D3*X42694Y63920D3*X24972Y63540D3*X24182Y63920D3*X6460Y63540D3*X5670Y63920D3*X6460Y59620D3*X5670Y60000D3*X24972Y59620D3*X24182Y60000D3*X43484Y59620D3*X42694Y60000D3*X43484Y55700D3*X42694Y56080D3*X24972Y55700D3*X24182Y56080D3*X6460Y55700D3*X5670Y56080D3*X6460Y51780D3*X5670Y52160D3*X24972Y51780D3*X24182Y52160D3*X43484Y51780D3*X42694Y52160D3*X43484Y47860D3*X42694Y48240D3*X24972Y47860D3*X24182Y48240D3*X6460Y47860D3*X5670Y48240D3*X6460Y43940D3*X5670Y44320D3*X24972Y43940D3*X24182Y44320D3*X43484Y43940D3*X42694Y44320D3*X43484Y40020D3*X42694Y40400D3*X24972Y40020D3*X24182Y40400D3*X6460Y40020D3*X5670Y40400D3*X6460Y36100D3*X5670Y36480D3*X24972Y36100D3*X24182Y36480D3*X43484Y36100D3*X42694Y36480D3*X43484Y32180D3*X42694Y32560D3*X24972Y32180D3*X24182Y32560D3*X6460Y32180D3*X5670Y32560D3*X6460Y28260D3*X5670Y28640D3*X24972Y28260D3*X24182Y28640D3*X43484Y28260D3*X42694Y28640D3*X43484Y24340D3*X42694Y24720D3*X24972Y24340D3*X24182Y24720D3*X6460Y24340D3*X5670Y24720D3*X6460Y20420D3*X5670Y20800D3*X24972Y20420D3*X24182Y20800D3*X43484Y20420D3*X42694Y20800D3*X43484Y16500D3*X42694Y16880D3*X24972Y16500D3*X24182Y16880D3*X6460Y16500D3*X5670Y16880D3*X6460Y12580D3*X5670Y12960D3*X24972Y12580D3*X24182Y12960D3*X43484Y12580D3*X42694Y12960D3*X43484Y8660D3*X42694Y9040D3*X24972Y8660D3*X24182Y9040D3*X6460Y8660D3*X5670Y9040D3*X6460Y4740D3*X5670Y5120D3*X24972Y4740D3*X24182Y5120D3*X43484Y4740D3*X42694Y5120D3*X43484Y820D3*X42694Y1200D3*X24972Y820D3*X24182Y1200D3*X6460Y820D3*X5670Y1200D3*D101*X19360Y75480D3*X19060Y74880D3*X15460Y75480D3*X15060Y74880D3*X11660Y75480D3*X11260Y74880D3*X7760Y75480D3*X7460Y74880D3*X5670Y75240D3*X6100Y75774D3*X37872Y75480D3*X37572Y74880D3*X33972Y75480D3*X33572Y74880D3*X30172Y75480D3*X29772Y74880D3*X26272Y75480D3*X25972Y74880D3*X24182Y75240D3*X24612Y75774D3*X56384Y75480D3*X56084Y74880D3*X52484Y75480D3*X52084Y74880D3*X48684Y75480D3*X48284Y74880D3*X44784Y75480D3*X44484Y74880D3*X42694Y75240D3*X43124Y75774D3*X56384Y71560D3*X56084Y70960D3*X52484Y71560D3*X52084Y70960D3*X48684Y71560D3*X48284Y70960D3*X44784Y71560D3*X44484Y70960D3*X42694Y71320D3*X43124Y71854D3*X37872Y71560D3*X37572Y70960D3*X33972Y71560D3*X33572Y70960D3*X30172Y71560D3*X29772Y70960D3*X26272Y71560D3*X25972Y70960D3*X24182Y71320D3*X24612Y71854D3*X19360Y71560D3*X19060Y70960D3*X15460Y71560D3*X15060Y70960D3*X11660Y71560D3*X11260Y70960D3*X7760Y71560D3*X7460Y70960D3*X5670Y71320D3*X6100Y71854D3*X19360Y67640D3*X19060Y67040D3*X15460Y67640D3*X15060Y67040D3*X11660Y67640D3*X11260Y67040D3*X7760Y67640D3*X7460Y67040D3*X5670Y67400D3*X6100Y67934D3*X37872Y67640D3*X37572Y67040D3*X33972Y67640D3*X33572Y67040D3*X30172Y67640D3*X29772Y67040D3*X26272Y67640D3*X25972Y67040D3*X24182Y67400D3*X24612Y67934D3*X56384Y67640D3*X56084Y67040D3*X52484Y67640D3*X52084Y67040D3*X48684Y67640D3*X48284Y67040D3*X44784Y67640D3*X44484Y67040D3*X42694Y67400D3*X43124Y67934D3*X56384Y63720D3*X56084Y63120D3*X52484Y63720D3*X52084Y63120D3*X48684Y63720D3*X48284Y63120D3*X44784Y63720D3*X44484Y63120D3*X42694Y63480D3*X43124Y64014D3*X37872Y63720D3*X37572Y63120D3*X33972Y63720D3*X33572Y63120D3*X30172Y63720D3*X29772Y63120D3*X26272Y63720D3*X25972Y63120D3*X24182Y63480D3*X24612Y64014D3*X19360Y63720D3*X19060Y63120D3*X15460Y63720D3*X15060Y63120D3*X11660Y63720D3*X11260Y63120D3*X7760Y63720D3*X7460Y63120D3*X5670Y63480D3*X6100Y64014D3*X19360Y59800D3*X19060Y59200D3*X15460Y59800D3*X15060Y59200D3*X11660Y59800D3*X11260Y59200D3*X7760Y59800D3*X7460Y59200D3*X5670Y59560D3*X6100Y60094D3*X37872Y59800D3*X37572Y59200D3*X33972Y59800D3*X33572Y59200D3*X30172Y59800D3*X29772Y59200D3*X26272Y59800D3*X25972Y59200D3*X24182Y59560D3*X24612Y60094D3*X56384Y59800D3*X56084Y59200D3*X52484Y59800D3*X52084Y59200D3*X48684Y59800D3*X48284Y59200D3*X44784Y59800D3*X44484Y59200D3*X42694Y59560D3*X43124Y60094D3*X56384Y55880D3*X56084Y55280D3*X52484Y55880D3*X52084Y55280D3*X48684Y55880D3*X48284Y55280D3*X44784Y55880D3*X44484Y55280D3*X42694Y55640D3*X43124Y56174D3*X37872Y55880D3*X37572Y55280D3*X33972Y55880D3*X33572Y55280D3*X30172Y55880D3*X29772Y55280D3*X26272Y55880D3*X25972Y55280D3*X24182Y55640D3*X24612Y56174D3*X19360Y55880D3*X19060Y55280D3*X15460Y55880D3*X15060Y55280D3*X11660Y55880D3*X11260Y55280D3*X7760Y55880D3*X7460Y55280D3*X5670Y55640D3*X6100Y56174D3*X19360Y51960D3*X19060Y51360D3*X15460Y51960D3*X15060Y51360D3*X11660Y51960D3*X11260Y51360D3*X7760Y51960D3*X7460Y51360D3*X5670Y51720D3*X6100Y52254D3*X37872Y51960D3*X37572Y51360D3*X33972Y51960D3*X33572Y51360D3*X30172Y51960D3*X29772Y51360D3*X26272Y51960D3*X25972Y51360D3*X24182Y51720D3*X24612Y52254D3*X56384Y51960D3*X56084Y51360D3*X52484Y51960D3*X52084Y51360D3*X48684Y51960D3*X48284Y51360D3*X44784Y51960D3*X44484Y51360D3*X42694Y51720D3*X43124Y52254D3*X56384Y48040D3*X56084Y47440D3*X52484Y48040D3*X52084Y47440D3*X48684Y48040D3*X48284Y47440D3*X44784Y48040D3*X44484Y47440D3*X42694Y47800D3*X43124Y48334D3*X37872Y48040D3*X37572Y47440D3*X33972Y48040D3*X33572Y47440D3*X30172Y48040D3*X29772Y47440D3*X26272Y48040D3*X25972Y47440D3*X24182Y47800D3*X24612Y48334D3*X19360Y48040D3*X19060Y47440D3*X15460Y48040D3*X15060Y47440D3*X11660Y48040D3*X11260Y47440D3*X7760Y48040D3*X7460Y47440D3*X5670Y47800D3*X6100Y48334D3*X19360Y44120D3*X19060Y43520D3*X15460Y44120D3*X15060Y43520D3*X11660Y44120D3*X11260Y43520D3*X7760Y44120D3*X7460Y43520D3*X5670Y43880D3*X6100Y44414D3*X37872Y44120D3*X37572Y43520D3*X33972Y44120D3*X33572Y43520D3*X30172Y44120D3*X29772Y43520D3*X26272Y44120D3*X25972Y43520D3*X24182Y43880D3*X24612Y44414D3*X56384Y44120D3*X56084Y43520D3*X52484Y44120D3*X52084Y43520D3*X48684Y44120D3*X48284Y43520D3*X44784Y44120D3*X44484Y43520D3*X42694Y43880D3*X43124Y44414D3*X56384Y40200D3*X56084Y39600D3*X52484Y40200D3*X52084Y39600D3*X48684Y40200D3*X48284Y39600D3*X44784Y40200D3*X44484Y39600D3*X42694Y39960D3*X43124Y40494D3*X37872Y40200D3*X37572Y39600D3*X33972Y40200D3*X33572Y39600D3*X30172Y40200D3*X29772Y39600D3*X26272Y40200D3*X25972Y39600D3*X24182Y39960D3*X24612Y40494D3*X19360Y40200D3*X19060Y39600D3*X15460Y40200D3*X15060Y39600D3*X11660Y40200D3*X11260Y39600D3*X7760Y40200D3*X7460Y39600D3*X5670Y39960D3*X6100Y40494D3*X19360Y36280D3*X19060Y35680D3*X15460Y36280D3*X15060Y35680D3*X11660Y36280D3*X11260Y35680D3*X7760Y36280D3*X7460Y35680D3*X5670Y36040D3*X6100Y36574D3*X37872Y36280D3*X37572Y35680D3*X33972Y36280D3*X33572Y35680D3*X30172Y36280D3*X29772Y35680D3*X26272Y36280D3*X25972Y35680D3*X24182Y36040D3*X24612Y36574D3*X56384Y36280D3*X56084Y35680D3*X52484Y36280D3*X52084Y35680D3*X48684Y36280D3*X48284Y35680D3*X44784Y36280D3*X44484Y35680D3*X42694Y36040D3*X43124Y36574D3*X56384Y32360D3*X56084Y31760D3*X52484Y32360D3*X52084Y31760D3*X48684Y32360D3*X48284Y31760D3*X44784Y32360D3*X44484Y31760D3*X42694Y32120D3*X43124Y32654D3*X37872Y32360D3*X37572Y31760D3*X33972Y32360D3*X33572Y31760D3*X30172Y32360D3*X29772Y31760D3*X26272Y32360D3*X25972Y31760D3*X24182Y32120D3*X24612Y32654D3*X19360Y32360D3*X19060Y31760D3*X15460Y32360D3*X15060Y31760D3*X11660Y32360D3*X11260Y31760D3*X7760Y32360D3*X7460Y31760D3*X5670Y32120D3*X6100Y32654D3*X19360Y28440D3*X19060Y27840D3*X15460Y28440D3*X15060Y27840D3*X11660Y28440D3*X11260Y27840D3*X7760Y28440D3*X7460Y27840D3*X5670Y28200D3*X6100Y28734D3*X37872Y28440D3*X37572Y27840D3*X33972Y28440D3*X33572Y27840D3*X30172Y28440D3*X29772Y27840D3*X26272Y28440D3*X25972Y27840D3*X24182Y28200D3*X24612Y28734D3*X56384Y28440D3*X56084Y27840D3*X52484Y28440D3*X52084Y27840D3*X48684Y28440D3*X48284Y27840D3*X44784Y28440D3*X44484Y27840D3*X42694Y28200D3*X43124Y28734D3*X56384Y24520D3*X56084Y23920D3*X52484Y24520D3*X52084Y23920D3*X48684Y24520D3*X48284Y23920D3*X44784Y24520D3*X44484Y23920D3*X42694Y24280D3*X43124Y24814D3*X37872Y24520D3*X37572Y23920D3*X33972Y24520D3*X33572Y23920D3*X30172Y24520D3*X29772Y23920D3*X26272Y24520D3*X25972Y23920D3*X24182Y24280D3*X24612Y24814D3*X19360Y24520D3*X19060Y23920D3*X15460Y24520D3*X15060Y23920D3*X11660Y24520D3*X11260Y23920D3*X7760Y24520D3*X7460Y23920D3*X5670Y24280D3*X6100Y24814D3*X19360Y20600D3*X19060Y20000D3*X15460Y20600D3*X15060Y20000D3*X11660Y20600D3*X11260Y20000D3*X7760Y20600D3*X7460Y20000D3*X5670Y20360D3*X6100Y20894D3*X37872Y20600D3*X37572Y20000D3*X33972Y20600D3*X33572Y20000D3*X30172Y20600D3*X29772Y20000D3*X26272Y20600D3*X25972Y20000D3*X24182Y20360D3*X24612Y20894D3*X56384Y20600D3*X56084Y20000D3*X52484Y20600D3*X52084Y20000D3*X48684Y20600D3*X48284Y20000D3*X44784Y20600D3*X44484Y20000D3*X42694Y20360D3*X43124Y20894D3*X56384Y16680D3*X56084Y16080D3*X52484Y16680D3*X52084Y16080D3*X48684Y16680D3*X48284Y16080D3*X44784Y16680D3*X44484Y16080D3*X42694Y16440D3*X43124Y16974D3*X37872Y16680D3*X37572Y16080D3*X33972Y16680D3*X33572Y16080D3*X30172Y16680D3*X29772Y16080D3*X26272Y16680D3*X25972Y16080D3*X24182Y16440D3*X24612Y16974D3*X19360Y16680D3*X19060Y16080D3*X15460Y16680D3*X15060Y16080D3*X11660Y16680D3*X11260Y16080D3*X7760Y16680D3*X7460Y16080D3*X5670Y16440D3*X6100Y16974D3*X19360Y12760D3*X19060Y12160D3*X15460Y12760D3*X15060Y12160D3*X11660Y12760D3*X11260Y12160D3*X7760Y12760D3*X7460Y12160D3*X5670Y12520D3*X6100Y13054D3*X37872Y12760D3*X37572Y12160D3*X33972Y12760D3*X33572Y12160D3*X30172Y12760D3*X29772Y12160D3*X26272Y12760D3*X25972Y12160D3*X24182Y12520D3*X24612Y13054D3*X56384Y12760D3*X56084Y12160D3*X52484Y12760D3*X52084Y12160D3*X48684Y12760D3*X48284Y12160D3*X44784Y12760D3*X44484Y12160D3*X42694Y12520D3*X43124Y13054D3*X56384Y8840D3*X56084Y8240D3*X52484Y8840D3*X52084Y8240D3*X48684Y8840D3*X48284Y8240D3*X44784Y8840D3*X44484Y8240D3*X42694Y8600D3*X43124Y9134D3*X37872Y8840D3*X37572Y8240D3*X33972Y8840D3*X33572Y8240D3*X30172Y8840D3*X29772Y8240D3*X26272Y8840D3*X25972Y8240D3*X24182Y8600D3*X24612Y9134D3*X19360Y8840D3*X19060Y8240D3*X15460Y8840D3*X15060Y8240D3*X11660Y8840D3*X11260Y8240D3*X7760Y8840D3*X7460Y8240D3*X5670Y8600D3*X6100Y9134D3*X19360Y4920D3*X19060Y4320D3*X15460Y4920D3*X15060Y4320D3*X11660Y4920D3*X11260Y4320D3*X7760Y4920D3*X7460Y4320D3*X5670Y4680D3*X6100Y5214D3*X37872Y4920D3*X37572Y4320D3*X33972Y4920D3*X33572Y4320D3*X30172Y4920D3*X29772Y4320D3*X26272Y4920D3*X25972Y4320D3*X24182Y4680D3*X24612Y5214D3*X56384Y4920D3*X56084Y4320D3*X52484Y4920D3*X52084Y4320D3*X48684Y4920D3*X48284Y4320D3*X44784Y4920D3*X44484Y4320D3*X42694Y4680D3*X43124Y5214D3*X56384Y1000D3*X56084Y400D3*X52484Y1000D3*X52084Y400D3*X48684Y1000D3*X48284Y400D3*X44784Y1000D3*X44484Y400D3*X42694Y760D3*X43124Y1294D3*X37872Y1000D3*X37572Y400D3*X33972Y1000D3*X33572Y400D3*X30172Y1000D3*X29772Y400D3*X26272Y1000D3*X25972Y400D3*X24182Y760D3*X24612Y1294D3*X19360Y1000D3*X19060Y400D3*X15460Y1000D3*X15060Y400D3*X11660Y1000D3*X11260Y400D3*X7760Y1000D3*X7460Y400D3*X5670Y760D3*X6100Y1294D3*D102*X6146Y74977D3*X6264Y76063D3*X5556D3*X5674Y74977D3*X5792Y76063D3*X5910Y74977D3*X6028Y76063D3*X24658Y74977D3*X24776Y76063D3*X24068D3*X24186Y74977D3*X24304Y76063D3*X24422Y74977D3*X24540Y76063D3*X43170Y74977D3*X43288Y76063D3*X42580D3*X42698Y74977D3*X42816Y76063D3*X42934Y74977D3*X43052Y76063D3*X43170Y71057D3*X43288Y72143D3*X42580D3*X42698Y71057D3*X42816Y72143D3*X42934Y71057D3*X43052Y72143D3*X24658Y71057D3*X24776Y72143D3*X24068D3*X24186Y71057D3*X24304Y72143D3*X24422Y71057D3*X24540Y72143D3*X6146Y71057D3*X6264Y72143D3*X5556D3*X5674Y71057D3*X5792Y72143D3*X5910Y71057D3*X6028Y72143D3*X6146Y67137D3*X6264Y68223D3*X5556D3*X5674Y67137D3*X5792Y68223D3*X5910Y67137D3*X6028Y68223D3*X24658Y67137D3*X24776Y68223D3*X24068D3*X24186Y67137D3*X24304Y68223D3*X24422Y67137D3*X24540Y68223D3*X43170Y67137D3*X43288Y68223D3*X42580D3*X42698Y67137D3*X42816Y68223D3*X42934Y67137D3*X43052Y68223D3*X43170Y63217D3*X43288Y64303D3*X42580D3*X42698Y63217D3*X42816Y64303D3*X42934Y63217D3*X43052Y64303D3*X24658Y63217D3*X24776Y64303D3*X24068D3*X24186Y63217D3*X24304Y64303D3*X24422Y63217D3*X24540Y64303D3*X6146Y63217D3*X6264Y64303D3*X5556D3*X5674Y63217D3*X5792Y64303D3*X5910Y63217D3*X6028Y64303D3*X6146Y59297D3*X6264Y60383D3*X5556D3*X5674Y59297D3*X5792Y60383D3*X5910Y59297D3*X6028Y60383D3*X24658Y59297D3*X24776Y60383D3*X24068D3*X24186Y59297D3*X24304Y60383D3*X24422Y59297D3*X24540Y60383D3*X43170Y59297D3*X43288Y60383D3*X42580D3*X42698Y59297D3*X42816Y60383D3*X42934Y59297D3*X43052Y60383D3*X43170Y55377D3*X43288Y56463D3*X42580D3*X42698Y55377D3*X42816Y56463D3*X42934Y55377D3*X43052Y56463D3*X24658Y55377D3*X24776Y56463D3*X24068D3*X24186Y55377D3*X24304Y56463D3*X24422Y55377D3*X24540Y56463D3*X6146Y55377D3*X6264Y56463D3*X5556D3*X5674Y55377D3*X5792Y56463D3*X5910Y55377D3*X6028Y56463D3*X6146Y51457D3*X6264Y52543D3*X5556D3*X5674Y51457D3*X5792Y52543D3*X5910Y51457D3*X6028Y52543D3*X24658Y51457D3*X24776Y52543D3*X24068D3*X24186Y51457D3*X24304Y52543D3*X24422Y51457D3*X24540Y52543D3*X43170Y51457D3*X43288Y52543D3*X42580D3*X42698Y51457D3*X42816Y52543D3*X42934Y51457D3*X43052Y52543D3*X43170Y47537D3*X43288Y48623D3*X42580D3*X42698Y47537D3*X42816Y48623D3*X42934Y47537D3*X43052Y48623D3*X24658Y47537D3*X24776Y48623D3*X24068D3*X24186Y47537D3*X24304Y48623D3*X24422Y47537D3*X24540Y48623D3*X6146Y47537D3*X6264Y48623D3*X5556D3*X5674Y47537D3*X5792Y48623D3*X5910Y47537D3*X6028Y48623D3*X6146Y43617D3*X6264Y44703D3*X5556D3*X5674Y43617D3*X5792Y44703D3*X5910Y43617D3*X6028Y44703D3*X24658Y43617D3*X24776Y44703D3*X24068D3*X24186Y43617D3*X24304Y44703D3*X24422Y43617D3*X24540Y44703D3*X43170Y43617D3*X43288Y44703D3*X42580D3*X42698Y43617D3*X42816Y44703D3*X42934Y43617D3*X43052Y44703D3*X43170Y39697D3*X43288Y40783D3*X42580D3*X42698Y39697D3*X42816Y40783D3*X42934Y39697D3*X43052Y40783D3*X24658Y39697D3*X24776Y40783D3*X24068D3*X24186Y39697D3*X24304Y40783D3*X24422Y39697D3*X24540Y40783D3*X6146Y39697D3*X6264Y40783D3*X5556D3*X5674Y39697D3*X5792Y40783D3*X5910Y39697D3*X6028Y40783D3*X6146Y35777D3*X6264Y36863D3*X5556D3*X5674Y35777D3*X5792Y36863D3*X5910Y35777D3*X6028Y36863D3*X24658Y35777D3*X24776Y36863D3*X24068D3*X24186Y35777D3*X24304Y36863D3*X24422Y35777D3*X24540Y36863D3*X43170Y35777D3*X43288Y36863D3*X42580D3*X42698Y35777D3*X42816Y36863D3*X42934Y35777D3*X43052Y36863D3*X43170Y31857D3*X43288Y32943D3*X42580D3*X42698Y31857D3*X42816Y32943D3*X42934Y31857D3*X43052Y32943D3*X24658Y31857D3*X24776Y32943D3*X24068D3*X24186Y31857D3*X24304Y32943D3*X24422Y31857D3*X24540Y32943D3*X6146Y31857D3*X6264Y32943D3*X5556D3*X5674Y31857D3*X5792Y32943D3*X5910Y31857D3*X6028Y32943D3*X6146Y27937D3*X6264Y29023D3*X5556D3*X5674Y27937D3*X5792Y29023D3*X5910Y27937D3*X6028Y29023D3*X24658Y27937D3*X24776Y29023D3*X24068D3*X24186Y27937D3*X24304Y29023D3*X24422Y27937D3*X24540Y29023D3*X43170Y27937D3*X43288Y29023D3*X42580D3*X42698Y27937D3*X42816Y29023D3*X42934Y27937D3*X43052Y29023D3*X43170Y24017D3*X43288Y25103D3*X42580D3*X42698Y24017D3*X42816Y25103D3*X42934Y24017D3*X43052Y25103D3*X24658Y24017D3*X24776Y25103D3*X24068D3*X24186Y24017D3*X24304Y25103D3*X24422Y24017D3*X24540Y25103D3*X6146Y24017D3*X6264Y25103D3*X5556D3*X5674Y24017D3*X5792Y25103D3*X5910Y24017D3*X6028Y25103D3*X6146Y20097D3*X6264Y21183D3*X5556D3*X5674Y20097D3*X5792Y21183D3*X5910Y20097D3*X6028Y21183D3*X24658Y20097D3*X24776Y21183D3*X24068D3*X24186Y20097D3*X24304Y21183D3*X24422Y20097D3*X24540Y21183D3*X43170Y20097D3*X43288Y21183D3*X42580D3*X42698Y20097D3*X42816Y21183D3*X42934Y20097D3*X43052Y21183D3*X43170Y16177D3*X43288Y17263D3*X42580D3*X42698Y16177D3*X42816Y17263D3*X42934Y16177D3*X43052Y17263D3*X24658Y16177D3*X24776Y17263D3*X24068D3*X24186Y16177D3*X24304Y17263D3*X24422Y16177D3*X24540Y17263D3*X6146Y16177D3*X6264Y17263D3*X5556D3*X5674Y16177D3*X5792Y17263D3*X5910Y16177D3*X6028Y17263D3*X6146Y12257D3*X6264Y13343D3*X5556D3*X5674Y12257D3*X5792Y13343D3*X5910Y12257D3*X6028Y13343D3*X24658Y12257D3*X24776Y13343D3*X24068D3*X24186Y12257D3*X24304Y13343D3*X24422Y12257D3*X24540Y13343D3*X43170Y12257D3*X43288Y13343D3*X42580D3*X42698Y12257D3*X42816Y13343D3*X42934Y12257D3*X43052Y13343D3*X43170Y8337D3*X43288Y9423D3*X42580D3*X42698Y8337D3*X42816Y9423D3*X42934Y8337D3*X43052Y9423D3*X24658Y8337D3*X24776Y9423D3*X24068D3*X24186Y8337D3*X24304Y9423D3*X24422Y8337D3*X24540Y9423D3*X6146Y8337D3*X6264Y9423D3*X5556D3*X5674Y8337D3*X5792Y9423D3*X5910Y8337D3*X6028Y9423D3*X6146Y4417D3*X6264Y5503D3*X5556D3*X5674Y4417D3*X5792Y5503D3*X5910Y4417D3*X6028Y5503D3*X24658Y4417D3*X24776Y5503D3*X24068D3*X24186Y4417D3*X24304Y5503D3*X24422Y4417D3*X24540Y5503D3*X43170Y4417D3*X43288Y5503D3*X42580D3*X42698Y4417D3*X42816Y5503D3*X42934Y4417D3*X43052Y5503D3*X43170Y497D3*X43288Y1583D3*X42580D3*X42698Y497D3*X42816Y1583D3*X42934Y497D3*X43052Y1583D3*X24658Y497D3*X24776Y1583D3*X24068D3*X24186Y497D3*X24304Y1583D3*X24422Y497D3*X24540Y1583D3*X6146Y497D3*X6264Y1583D3*X5556D3*X5674Y497D3*X5792Y1583D3*X5910Y497D3*X6028Y1583D3*D103*X19360Y74880D3*Y75280D3*X15460Y74880D3*Y75280D3*X11660Y74880D3*Y75280D3*X7760Y74880D3*Y75280D3*X37872Y74880D3*Y75280D3*X33972Y74880D3*Y75280D3*X30172Y74880D3*Y75280D3*X26272Y74880D3*Y75280D3*X56384Y74880D3*Y75280D3*X52484Y74880D3*Y75280D3*X48684Y74880D3*Y75280D3*X44784Y74880D3*Y75280D3*X56384Y70960D3*Y71360D3*X52484Y70960D3*Y71360D3*X48684Y70960D3*Y71360D3*X44784Y70960D3*Y71360D3*X37872Y70960D3*Y71360D3*X33972Y70960D3*Y71360D3*X30172Y70960D3*Y71360D3*X26272Y70960D3*Y71360D3*X19360Y70960D3*Y71360D3*X15460Y70960D3*Y71360D3*X11660Y70960D3*Y71360D3*X7760Y70960D3*Y71360D3*X19360Y67040D3*Y67440D3*X15460Y67040D3*Y67440D3*X11660Y67040D3*Y67440D3*X7760Y67040D3*Y67440D3*X37872Y67040D3*Y67440D3*X33972Y67040D3*Y67440D3*X30172Y67040D3*Y67440D3*X26272Y67040D3*Y67440D3*X56384Y67040D3*Y67440D3*X52484Y67040D3*Y67440D3*X48684Y67040D3*Y67440D3*X44784Y67040D3*Y67440D3*X56384Y63120D3*Y63520D3*X52484Y63120D3*Y63520D3*X48684Y63120D3*Y63520D3*X44784Y63120D3*Y63520D3*X37872Y63120D3*Y63520D3*X33972Y63120D3*Y63520D3*X30172Y63120D3*Y63520D3*X26272Y63120D3*Y63520D3*X19360Y63120D3*Y63520D3*X15460Y63120D3*Y63520D3*X11660Y63120D3*Y63520D3*X7760Y63120D3*Y63520D3*X19360Y59200D3*Y59600D3*X15460Y59200D3*Y59600D3*X11660Y59200D3*Y59600D3*X7760Y59200D3*Y59600D3*X37872Y59200D3*Y59600D3*X33972Y59200D3*Y59600D3*X30172Y59200D3*Y59600D3*X26272Y59200D3*Y59600D3*X56384Y59200D3*Y59600D3*X52484Y59200D3*Y59600D3*X48684Y59200D3*Y59600D3*X44784Y59200D3*Y59600D3*X56384Y55280D3*Y55680D3*X52484Y55280D3*Y55680D3*X48684Y55280D3*Y55680D3*X44784Y55280D3*Y55680D3*X37872Y55280D3*Y55680D3*X33972Y55280D3*Y55680D3*X30172Y55280D3*Y55680D3*X26272Y55280D3*Y55680D3*X19360Y55280D3*Y55680D3*X15460Y55280D3*Y55680D3*X11660Y55280D3*Y55680D3*X7760Y55280D3*Y55680D3*X19360Y51360D3*Y51760D3*X15460Y51360D3*Y51760D3*X11660Y51360D3*Y51760D3*X7760Y51360D3*Y51760D3*X37872Y51360D3*Y51760D3*X33972Y51360D3*Y51760D3*X30172Y51360D3*Y51760D3*X26272Y51360D3*Y51760D3*X56384Y51360D3*Y51760D3*X52484Y51360D3*Y51760D3*X48684Y51360D3*Y51760D3*X44784Y51360D3*Y51760D3*X56384Y47440D3*Y47840D3*X52484Y47440D3*Y47840D3*X48684Y47440D3*Y47840D3*X44784Y47440D3*Y47840D3*X37872Y47440D3*Y47840D3*X33972Y47440D3*Y47840D3*X30172Y47440D3*Y47840D3*X26272Y47440D3*Y47840D3*X19360Y47440D3*Y47840D3*X15460Y47440D3*Y47840D3*X11660Y47440D3*Y47840D3*X7760Y47440D3*Y47840D3*X19360Y43520D3*Y43920D3*X15460Y43520D3*Y43920D3*X11660Y43520D3*Y43920D3*X7760Y43520D3*Y43920D3*X37872Y43520D3*Y43920D3*X33972Y43520D3*Y43920D3*X30172Y43520D3*Y43920D3*X26272Y43520D3*Y43920D3*X56384Y43520D3*Y43920D3*X52484Y43520D3*Y43920D3*X48684Y43520D3*Y43920D3*X44784Y43520D3*Y43920D3*X56384Y39600D3*Y40000D3*X52484Y39600D3*Y40000D3*X48684Y39600D3*Y40000D3*X44784Y39600D3*Y40000D3*X37872Y39600D3*Y40000D3*X33972Y39600D3*Y40000D3*X30172Y39600D3*Y40000D3*X26272Y39600D3*Y40000D3*X19360Y39600D3*Y40000D3*X15460Y39600D3*Y40000D3*X11660Y39600D3*Y40000D3*X7760Y39600D3*Y40000D3*X19360Y35680D3*Y36080D3*X15460Y35680D3*Y36080D3*X11660Y35680D3*Y36080D3*X7760Y35680D3*Y36080D3*X37872Y35680D3*Y36080D3*X33972Y35680D3*Y36080D3*X30172Y35680D3*Y36080D3*X26272Y35680D3*Y36080D3*X56384Y35680D3*Y36080D3*X52484Y35680D3*Y36080D3*X48684Y35680D3*Y36080D3*X44784Y35680D3*Y36080D3*X56384Y31760D3*Y32160D3*X52484Y31760D3*Y32160D3*X48684Y31760D3*Y32160D3*X44784Y31760D3*Y32160D3*X37872Y31760D3*Y32160D3*X33972Y31760D3*Y32160D3*X30172Y31760D3*Y32160D3*X26272Y31760D3*Y32160D3*X19360Y31760D3*Y32160D3*X15460Y31760D3*Y32160D3*X11660Y31760D3*Y32160D3*X7760Y31760D3*Y32160D3*X19360Y27840D3*Y28240D3*X15460Y27840D3*Y28240D3*X11660Y27840D3*Y28240D3*X7760Y27840D3*Y28240D3*X37872Y27840D3*Y28240D3*X33972Y27840D3*Y28240D3*X30172Y27840D3*Y28240D3*X26272Y27840D3*Y28240D3*X56384Y27840D3*Y28240D3*X52484Y27840D3*Y28240D3*X48684Y27840D3*Y28240D3*X44784Y27840D3*Y28240D3*X56384Y23920D3*Y24320D3*X52484Y23920D3*Y24320D3*X48684Y23920D3*Y24320D3*X44784Y23920D3*Y24320D3*X37872Y23920D3*Y24320D3*X33972Y23920D3*Y24320D3*X30172Y23920D3*Y24320D3*X26272Y23920D3*Y24320D3*X19360Y23920D3*Y24320D3*X15460Y23920D3*Y24320D3*X11660Y23920D3*Y24320D3*X7760Y23920D3*Y24320D3*X19360Y20000D3*Y20400D3*X15460Y20000D3*Y20400D3*X11660Y20000D3*Y20400D3*X7760Y20000D3*Y20400D3*X37872Y20000D3*Y20400D3*X33972Y20000D3*Y20400D3*X30172Y20000D3*Y20400D3*X26272Y20000D3*Y20400D3*X56384Y20000D3*Y20400D3*X52484Y20000D3*Y20400D3*X48684Y20000D3*Y20400D3*X44784Y20000D3*Y20400D3*X56384Y16080D3*Y16480D3*X52484Y16080D3*Y16480D3*X48684Y16080D3*Y16480D3*X44784Y16080D3*Y16480D3*X37872Y16080D3*Y16480D3*X33972Y16080D3*Y16480D3*X30172Y16080D3*Y16480D3*X26272Y16080D3*Y16480D3*X19360Y16080D3*Y16480D3*X15460Y16080D3*Y16480D3*X11660Y16080D3*Y16480D3*X7760Y16080D3*Y16480D3*X19360Y12160D3*Y12560D3*X15460Y12160D3*Y12560D3*X11660Y12160D3*Y12560D3*X7760Y12160D3*Y12560D3*X37872Y12160D3*Y12560D3*X33972Y12160D3*Y12560D3*X30172Y12160D3*Y12560D3*X26272Y12160D3*Y12560D3*X56384Y12160D3*Y12560D3*X52484Y12160D3*Y12560D3*X48684Y12160D3*Y12560D3*X44784Y12160D3*Y12560D3*X56384Y8240D3*Y8640D3*X52484Y8240D3*Y8640D3*X48684Y8240D3*Y8640D3*X44784Y8240D3*Y8640D3*X37872Y8240D3*Y8640D3*X33972Y8240D3*Y8640D3*X30172Y8240D3*Y8640D3*X26272Y8240D3*Y8640D3*X19360Y8240D3*Y8640D3*X15460Y8240D3*Y8640D3*X11660Y8240D3*Y8640D3*X7760Y8240D3*Y8640D3*X19360Y4320D3*Y4720D3*X15460Y4320D3*Y4720D3*X11660Y4320D3*Y4720D3*X7760Y4320D3*Y4720D3*X37872Y4320D3*Y4720D3*X33972Y4320D3*Y4720D3*X30172Y4320D3*Y4720D3*X26272Y4320D3*Y4720D3*X56384Y4320D3*Y4720D3*X52484Y4320D3*Y4720D3*X48684Y4320D3*Y4720D3*X44784Y4320D3*Y4720D3*X56384Y400D3*Y800D3*X52484Y400D3*Y800D3*X48684Y400D3*Y800D3*X44784Y400D3*Y800D3*X37872Y400D3*Y800D3*X33972Y400D3*Y800D3*X30172Y400D3*Y800D3*X26272Y400D3*Y800D3*X19360Y400D3*Y800D3*X15460Y400D3*Y800D3*X11660Y400D3*Y800D3*X7760Y400D3*Y800D3*D119*X62036Y73400D3*X3500D3*Y5000D3*X0Y0D2*M02*