*%FSLAX24Y24*%
%MOIN*%
%IPPOS*%
%ADD10C,0.03*%
%ADD11C,0.024*%
%ADD12R,0.065X0.032*%
%ADD13C,0.0276*%
%ADD14C,0.01*%
%ADD15C,0.015*%
%ADD16C,0.125*%
%ADD17R,0.075X0.075*%
%ADD18R,0.08X0.08*%
%AMD19*
1,1,0.1,0.0,0.0*
1,0,0.0875,0.0,0.0*
1,1,0.05,0.0,0.0*
1,0,0.0375,0.0,0.0*
20,1,0.0062,0.0,-0.0969,0.0,0.0969,0.0*
20,1,0.0062,-0.0969,0.0,0.0969,0.0,0.0*%
%ADD19D19*%
G04:---LTIenv:A019:6,0.2,6 *
%ADD100C,0.03*%
%ADD101C,0.024*%
%ADD102R,0.012X0.024*%
%ADD103R,0.03X0.02*%
%ADD104C,0.007*%
%ADD105R,0.062X0.028*%
%ADD106R,0.0085X0.02*%
%ADD107R,0.026X0.018*%
%ADD108C,0.035*%
%ADD109R,0.07X0.037*%
%ADD110C,0.035*%
%ADD111R,0.017X0.029*%
%ADD112R,0.035X0.025*%
%ADD113C,0.005*%
%AMD117*
1,1,0.001,0.01,0.0*
20,1,0.001,0.01,0.0,-0.01,0.0,0.0*
1,1,0.001,-0.01,0.0*
1,1,0.001,0.0,0.01*
20,1,0.001,0.0,0.01,0.0,-0.01,0.0*
1,1,0.001,0.0,-0.01*%
%ADD117D117*%
%AMD118*
1,1,0.001,0.025,0.0*
20,1,0.001,0.025,0.0,0.0246,-0.0043,0.0*
1,1,0.001,0.0246,-0.0043*
20,1,0.001,0.0246,-0.0043,0.0235,-0.0086,0.0*
1,1,0.001,0.0235,-0.0086*
20,1,0.001,0.0235,-0.0086,0.0217,-0.0125,0.0*
1,1,0.001,0.0217,-0.0125*
20,1,0.001,0.0217,-0.0125,0.0192,-0.0161,0.0*
1,1,0.001,0.0192,-0.0161*
20,1,0.001,0.0192,-0.0161,0.0161,-0.0192,0.0*
1,1,0.001,0.0161,-0.0192*
20,1,0.001,0.0161,-0.0192,0.0125,-0.0217,0.0*
1,1,0.001,0.0125,-0.0217*
20,1,0.001,0.0125,-0.0217,0.0086,-0.0235,0.0*
1,1,0.001,0.0086,-0.0235*
20,1,0.001,0.0086,-0.0235,0.0043,-0.0246,0.0*
1,1,0.001,0.0043,-0.0246*
20,1,0.001,0.0043,-0.0246,0.0,-0.025,0.0*
1,1,0.001,0.0,-0.025*
20,1,0.001,0.0,-0.025,-0.0043,-0.0246,0.0*
1,1,0.001,-0.0043,-0.0246*
20,1,0.001,-0.0043,-0.0246,-0.0086,-0.0235,0.0*
1,1,0.001,-0.0086,-0.0235*
20,1,0.001,-0.0086,-0.0235,-0.0125,-0.0217,0.0*
1,1,0.001,-0.0125,-0.0217*
20,1,0.001,-0.0125,-0.0217,-0.0161,-0.0192,0.0*
1,1,0.001,-0.0161,-0.0192*
20,1,0.001,-0.0161,-0.0192,-0.0192,-0.0161,0.0*
1,1,0.001,-0.0192,-0.0161*
20,1,0.001,-0.0192,-0.0161,-0.0217,-0.0125,0.0*
1,1,0.001,-0.0217,-0.0125*
20,1,0.001,-0.0217,-0.0125,-0.0235,-0.0086,0.0*
1,1,0.001,-0.0235,-0.0086*
20,1,0.001,-0.0235,-0.0086,-0.0246,-0.0043,0.0*
1,1,0.001,-0.0246,-0.0043*
20,1,0.001,-0.0246,-0.0043,-0.025,0.0,0.0*
1,1,0.001,-0.025,0.0*
20,1,0.001,-0.025,0.0,-0.0246,0.0043,0.0*
1,1,0.001,-0.0246,0.0043*
20,1,0.001,-0.0246,0.0043,-0.0235,0.0086,0.0*
1,1,0.001,-0.0235,0.0086*
20,1,0.001,-0.0235,0.0086,-0.0217,0.0125,0.0*
1,1,0.001,-0.0217,0.0125*
20,1,0.001,-0.0217,0.0125,-0.0192,0.0161,0.0*
1,1,0.001,-0.0192,0.0161*
20,1,0.001,-0.0192,0.0161,-0.0161,0.0192,0.0*
1,1,0.001,-0.0161,0.0192*
20,1,0.001,-0.0161,0.0192,-0.0125,0.0217,0.0*
1,1,0.001,-0.0125,0.0217*
20,1,0.001,-0.0125,0.0217,-0.0086,0.0235,0.0*
1,1,0.001,-0.0086,0.0235*
20,1,0.001,-0.0086,0.0235,-0.0043,0.0246,0.0*
1,1,0.001,-0.0043,0.0246*
20,1,0.001,-0.0043,0.0246,0.0,0.025,0.0*
1,1,0.001,0.0,0.025*
20,1,0.001,0.0,0.025,0.0043,0.0246,0.0*
1,1,0.001,0.0043,0.0246*
20,1,0.001,0.0043,0.0246,0.0086,0.0235,0.0*
1,1,0.001,0.0086,0.0235*
20,1,0.001,0.0086,0.0235,0.0125,0.0217,0.0*
1,1,0.001,0.0125,0.0217*
20,1,0.001,0.0125,0.0217,0.0161,0.0192,0.0*
1,1,0.001,0.0161,0.0192*
20,1,0.001,0.0161,0.0192,0.0192,0.0161,0.0*
1,1,0.001,0.0192,0.0161*
20,1,0.001,0.0192,0.0161,0.0217,0.0125,0.0*
1,1,0.001,0.0217,0.0125*
20,1,0.001,0.0217,0.0125,0.0235,0.0086,0.0*
1,1,0.001,0.0235,0.0086*
20,1,0.001,0.0235,0.0086,0.0246,0.0043,0.0*
1,1,0.001,0.0246,0.0043*
20,1,0.001,0.0246,0.0043,0.025,0.0,0.0*
1,1,0.001,0.025,0.0*
1,1,0.001,0.0125,0.0*
20,1,0.001,0.0125,0.0,-0.0125,0.0,0.0*
1,1,0.001,-0.0125,0.0*
1,1,0.001,0.0,0.0125*
20,1,0.001,0.0,0.0125,0.0,-0.0125,0.0*
1,1,0.001,0.0,-0.0125*%
%ADD118D118*%
%ADD119C,0.08*%
%ADD120C,0.008*%
%ADD200C,0.002*%
%ADD901C,0.0118*%
G04:---LTIenv:A901:15,0.0118,1 *
%ADD902C,0.02*%
G04:---LTIenv:A902:15,0.02,2 *

%LPD*%
D120*X580Y-1282D2*Y-2082D1*X120Y-1282*Y-2082*X806Y-1622D2*X1247D1*Y-1282D2*X806D1*Y-2082*X1247*X1487Y-1622D2*X1928D1*Y-1282D2*X1487D1*Y-2082*X1928*X2494D2*X2614Y-1962D1*Y-1408*X2494Y-1282*X2154*Y-2082*X2494*X4000Y-1282D2*Y-1962D1*X3880Y-2082*X3641*X3521Y-1962*Y-1282*X4649Y-2082D2*X4214D1*Y-1282*X6009Y-2082D2*X5575D1*Y-1282*X6236Y-1408D2*Y-1962D1*X6356Y-2082*X6595*X6715Y-1962*Y-1408*X6595Y-1282*X6356*X6236Y-1408*X7143Y-1723D2*X7364D1*Y-2082*X7043*X6923Y-1962*Y-1408*X7043Y-1282*X7364*X7597Y-1408D2*Y-1962D1*X7717Y-2082*X7956*X8076Y-1962*Y-1408*X7956Y-1282*X7717*X7597Y-1408*X8517Y-1975D2*Y-1887D1*X8611*X8391Y-2082*X9978D2*X10098Y-1962D1*Y-1408*X9978Y-1282*X9638*Y-2082*X9978*X10318Y-1723D2*X10778D1*Y-2082D2*Y-1408D1*X10658Y-1282*X10438*X10318Y-1408*Y-2082*X11250D2*Y-1282D1*X11011D2*X11490D1*X11691Y-1622D2*X12132D1*Y-1282D2*X11691D1*Y-2082*X12132*X13506D2*X13146D1*X13027Y-1962*Y-1408*X13146Y-1282*X13506*X13720Y-1408D2*Y-1962D1*X13839Y-2082*X14079*X14198Y-1962*Y-1408*X14079Y-1282*X13839*X13720Y-1408*X14740Y-2082D2*X14860Y-1962D1*Y-1408*X14740Y-1282*X14400*Y-2082*X14740*X15093Y-1622D2*X15534D1*Y-1282D2*X15093D1*Y-2082*X15534*X16441Y-1723D2*X16901D1*Y-2082D2*Y-1408D1*X16781Y-1282*X16561*X16441Y-1408*Y-2082*X17587Y-1282D2*Y-2082D1*X17128Y-1282*Y-2082*X18142D2*X18261Y-1962D1*Y-1408*X18142Y-1282*X17802*Y-2082*X18142*X19509D2*X19269D1*X19389D2*Y-1282D1*X19269Y-1408*X19836Y-2082D2*X20315Y-1282D1*X19956D2*X19836Y-1408D1*Y-1962*X19956Y-2082*X20195*X20315Y-1962*Y-1408*X20195Y-1282*X19956*X20517Y-2082D2*X20995Y-1282D1*X20636D2*X20517Y-1408D1*Y-1962*X20636Y-2082*X20876*X20995Y-1962*Y-1408*X20876Y-1282*X20636*X21417Y-2082D2*X21657D1*Y-1843*X21417*Y-2082*X21178D2*X21657Y-1282D1*X21417*Y-1528*X21178*Y-1282*X21417*X22576Y-1622D2*X23017D1*Y-1282D2*X22576D1*Y-2082*X23017*X23370D2*X23490D1*Y-1962*X23370*Y-2082*X24176D2*Y-1282D1*X23937D2*X24416D1*X24731Y-2082D2*X24850D1*Y-1962*X24731*Y-2082*X25965Y-1723D2*X26425D1*Y-2082D2*Y-1408D1*X26306Y-1282*X26085*X25965Y-1408*Y-2082*X26665D2*X26986D1*X27106Y-1962*Y-1723*X26986Y-1603*X26784*X26665Y-1484*Y-1408*X26784Y-1282*X27106*X28019Y-1622D2*X28359D1*X28479Y-1502*Y-1408*X28359Y-1282*X28019*Y-2082*X28699Y-1622D2*X29140D1*Y-1282D2*X28699D1*Y-2082*X29140*X29827D2*X29587Y-1647D1*X29392D2*X29707D1*X29827Y-1528*Y-1408*X29707Y-1282*X29392*Y-2082*X30740Y-1622D2*X31080D1*X31200Y-1502*Y-1408*X31080Y-1282*X30740*Y-2082*X31868D2*X31628Y-1647D1*X31433D2*X31748D1*X31868Y-1528*Y-1408*X31748Y-1282*X31433*Y-2082*X32088Y-1408D2*Y-1962D1*X32208Y-2082*X32447*X32567Y-1962*Y-1408*X32447Y-1282*X32208*X32088Y-1408*X33247Y-1282D2*X33008Y-2082D1*X32769Y-1282*X33682Y-2082D2*X33443D1*X33562D2*Y-1282D1*X33682D2*X33443D1*X34469Y-2082D2*X34589Y-1962D1*Y-1408*X34469Y-1282*X34129*Y-2082*X34469*X34822Y-1622D2*X35263D1*Y-1282D2*X34822D1*Y-2082*X35263*X35830D2*X35950Y-1962D1*Y-1408*X35830Y-1282*X35490*Y-2082*X35830*X37317Y-1282D2*Y-2082D1*X36857Y-1282*Y-2082*X37543Y-1622D2*X37984D1*Y-1282D2*X37543D1*Y-2082*X37984*X38463D2*Y-1282D1*X38224D2*X38702D1*X39345Y-2082D2*X38910D1*Y-1282*X39805Y-2082D2*X39565D1*X39685D2*Y-1282D1*X39805D2*X39565D1*X40271Y-2082D2*X40592D1*X40712Y-1962*Y-1723*X40592Y-1603*X40391*X40271Y-1484*Y-1408*X40391Y-1282*X40712*X41184Y-2082D2*Y-1282D1*X40945D2*X41424D1*X42079Y-1962D2*X41600Y-1528D1*Y-1962D2*X42079Y-1528D1*Y-1748D2*X41600D1*X41839Y-1528D2*Y-1962D1*X42759D2*X42280Y-1528D1*Y-1962D2*X42759Y-1528D1*Y-1748D2*X42280D1*X42520Y-1528D2*Y-1962D1*X54772Y-2082D2*X54532D1*X54652D2*Y-1282D1*X54772D2*X54532D1*X55672Y-2082D2*Y-1282D1*X55452Y-1723*X55231Y-1282*Y-2082*X56353D2*Y-1282D1*X56132Y-1723*X55912Y-1282*Y-2082*X56592Y-1622D2*X57033D1*Y-1282D2*X56592D1*Y-2082*X57033*X57720D2*X57480Y-1647D1*X57285D2*X57600D1*X57720Y-1528*Y-1408*X57600Y-1282*X57285*Y-2082*X57959D2*X58280D1*X58400Y-1962*Y-1723*X58280Y-1603*X58079*X57959Y-1484*Y-1408*X58079Y-1282*X58400*X58854Y-2082D2*X58614D1*X58734D2*Y-1282D1*X58854D2*X58614D1*X59301Y-1408D2*Y-1962D1*X59420Y-2082*X59660*X59780Y-1962*Y-1408*X59660Y-1282*X59420*X59301Y-1408*X60447Y-1282D2*Y-2082D1*X59987Y-1282*Y-2082*X61569Y-1723D2*X61789D1*Y-2082*X61468*X61348Y-1962*Y-1408*X61468Y-1282*X61789*X62022Y-1408D2*Y-1962D1*X62142Y-2082*X62381*X62501Y-1962*Y-1408*X62381Y-1282*X62142*X62022Y-1408*X63156Y-2082D2*X62721D1*Y-1282*X63723Y-2082D2*X63843Y-1962D1*Y-1408*X63723Y-1282*X63383*Y-2082*X63723*X64529Y-1962D2*X64050Y-1528D1*Y-1962D2*X64529Y-1528D1*Y-1748D2*X64050D1*X64290Y-1528D2*Y-1962D1*X65209D2*X64731Y-1528D1*Y-1962D2*X65209Y-1528D1*Y-1748D2*X64731D1*X64970Y-1528D2*Y-1962D1*X441Y-2643D2*X126D1*Y-3102D2*Y-2302D1*X561*X1254Y-3102D2*X1014Y-2668D1*X819D2*X1134D1*X1254Y-2548*Y-2428*X1134Y-2302*X819*Y-3102*X1946Y-2863D2*X1487D1*X1827Y-2302*Y-3102*X3181D2*X2942D1*X3061D2*Y-2302D1*X2942Y-2428*X3628Y-3102D2*X3868Y-2302D1*X3509*X4189Y-3102D2*X4668Y-2302D1*X4309D2*X4189Y-2428D1*Y-2983*X4309Y-3102*X4548*X4668Y-2983*Y-2428*X4548Y-2302*X4309*X5128Y-3102D2*Y-2302D1*X4888D2*X5367D1*X5783Y-2743D2*X6003D1*Y-3102*X5682*X5562Y-2983*Y-2428*X5682Y-2302*X6003*X7370Y-3102D2*Y-2302D1*X7150Y-2743*X6929Y-2302*Y-3102*X7597Y-2743D2*X8057D1*Y-3102D2*Y-2428D1*X7937Y-2302*X7717*X7597Y-2428*Y-3102*X8529D2*Y-2302D1*X8290D2*X8769D1*X8970Y-2643D2*X9411D1*Y-2302D2*X8970D1*Y-3102*X9411*X10098D2*X9858Y-2668D1*X9663D2*X9978D1*X10098Y-2548*Y-2428*X9978Y-2302*X9663*Y-3102*X10551D2*X10312D1*X10431D2*Y-2302D1*X10551D2*X10312D1*X10998Y-2743D2*X11458D1*Y-3102D2*Y-2428D1*X11339Y-2302*X11118*X10998Y-2428*Y-3102*X12132D2*X11698D1*Y-2302*X12825Y-2983D2*X12346Y-2548D1*Y-2983D2*X12825Y-2548D1*Y-2769D2*X12346D1*X12586Y-2548D2*Y-2983D1*X13506D2*X13027Y-2548D1*Y-2983D2*X13506Y-2548D1*Y-2769D2*X13027D1*X13266Y-2548D2*Y-2983D1*X19156Y-3102D2*X19635Y-2302D1*X19276D2*X19156Y-2428D1*Y-2983*X19276Y-3102*X19515*X19635Y-2983*Y-2428*X19515Y-2302*X19276*X19969Y-3102D2*X20088D1*Y-2983*X19969*Y-3102*X20517D2*X20995Y-2302D1*X20636D2*X20517Y-2428D1*Y-2983*X20636Y-3102*X20876*X20995Y-2983*Y-2428*X20876Y-2302*X20636*X21178Y-2983D2*X21298Y-3102D1*X21543*X21663Y-2983*Y-2788*X21543Y-2668*X21663Y-2548*Y-2428*X21543Y-2302*X21298*X21178Y-2428*X22343Y-3102D2*X21883D1*X22343Y-2668*Y-2428*X22224Y-2302*X22003*X21883Y-2428*X22917Y-2504D2*Y-2302D1*X22677Y-2504D2*Y-2302D1*X24176Y-3102D2*Y-2302D1*X23937D2*X24416D1*X24605Y-2643D2*X25065D1*Y-2302D2*Y-3102D1*X24605D2*Y-2302D1*X25518Y-3102D2*X25279D1*X25398D2*Y-2302D1*X25518D2*X25279D1*X26431Y-3102D2*X26072D1*X25953Y-2983*Y-2428*X26072Y-2302*X26431*X26665Y-3102D2*Y-2302D1*X27106Y-3102D2*X26665Y-2643D1*X27106Y-2302*X27792Y-2983D2*X27313Y-2548D1*Y-2983D2*X27792Y-2548D1*Y-2769D2*X27313D1*X27553Y-2548D2*Y-2983D1*X28472D2*X27994Y-2548D1*Y-2983D2*X28472Y-2548D1*Y-2769D2*X27994D1*X28233Y-2548D2*Y-2983D1*X54738Y-262D2*X54499Y-1062D1*X54259Y-262*X55393Y-728D2*X54952D1*X55639Y-1062D2*X55960D1*X56080Y-942*Y-703*X55960Y-583*X55759*X55639Y-464*Y-388*X55759Y-262*X56080*X56766Y-1062D2*X56407D1*X56288Y-942*Y-388*X56407Y-262*X56766*X56981Y-388D2*Y-942D1*X57100Y-1062*X57340*X57459Y-942*Y-388*X57340Y-262*X57100*X56981Y-388*X58121Y-1062D2*X57881Y-627D1*X57686D2*X58001D1*X58121Y-508*Y-388*X58001Y-262*X57686*Y-1062*X58574D2*X58335D1*X58455D2*Y-262D1*X58574D2*X58335D1*X59488D2*Y-1062D1*X59028Y-262*Y-1062*X59929Y-703D2*X60149D1*Y-1062*X59828*X59708Y-942*Y-388*X59828Y-262*X60149*X60848Y-942D2*X60370Y-508D1*Y-942D2*X60848Y-508D1*Y-728D2*X60370D1*X60609Y-508D2*Y-942D1*X61529D2*X61050Y-508D1*Y-942D2*X61529Y-508D1*Y-728D2*X61050D1*X61289Y-508D2*Y-942D1*D19*X-1040Y79440D3*X66576D3*X-1040Y-1040D3*D106*X6146Y74977D3*X6264Y76063D3*X5556D3*X5674Y74977D3*X5792Y76063D3*X5910Y74977D3*X6028Y76063D3*X24658Y74977D3*X24776Y76063D3*X24068D3*X24186Y74977D3*X24304Y76063D3*X24422Y74977D3*X24540Y76063D3*X43170Y74977D3*X43288Y76063D3*X42580D3*X42698Y74977D3*X42816Y76063D3*X42934Y74977D3*X43052Y76063D3*X43170Y71057D3*X43288Y72143D3*X42580D3*X42698Y71057D3*X42816Y72143D3*X42934Y71057D3*X43052Y72143D3*X24658Y71057D3*X24776Y72143D3*X24068D3*X24186Y71057D3*X24304Y72143D3*X24422Y71057D3*X24540Y72143D3*X6146Y71057D3*X6264Y72143D3*X5556D3*X5674Y71057D3*X5792Y72143D3*X5910Y71057D3*X6028Y72143D3*X6146Y67137D3*X6264Y68223D3*X5556D3*X5674Y67137D3*X5792Y68223D3*X5910Y67137D3*X6028Y68223D3*X24658Y67137D3*X24776Y68223D3*X24068D3*X24186Y67137D3*X24304Y68223D3*X24422Y67137D3*X24540Y68223D3*X43170Y67137D3*X43288Y68223D3*X42580D3*X42698Y67137D3*X42816Y68223D3*X42934Y67137D3*X43052Y68223D3*X43170Y63217D3*X43288Y64303D3*X42580D3*X42698Y63217D3*X42816Y64303D3*X42934Y63217D3*X43052Y64303D3*X24658Y63217D3*X24776Y64303D3*X24068D3*X24186Y63217D3*X24304Y64303D3*X24422Y63217D3*X24540Y64303D3*X6146Y63217D3*X6264Y64303D3*X5556D3*X5674Y63217D3*X5792Y64303D3*X5910Y63217D3*X6028Y64303D3*X6146Y59297D3*X6264Y60383D3*X5556D3*X5674Y59297D3*X5792Y60383D3*X5910Y59297D3*X6028Y60383D3*X24658Y59297D3*X24776Y60383D3*X24068D3*X24186Y59297D3*X24304Y60383D3*X24422Y59297D3*X24540Y60383D3*X43170Y59297D3*X43288Y60383D3*X42580D3*X42698Y59297D3*X42816Y60383D3*X42934Y59297D3*X43052Y60383D3*X43170Y55377D3*X43288Y56463D3*X42580D3*X42698Y55377D3*X42816Y56463D3*X42934Y55377D3*X43052Y56463D3*X24658Y55377D3*X24776Y56463D3*X24068D3*X24186Y55377D3*X24304Y56463D3*X24422Y55377D3*X24540Y56463D3*X6146Y55377D3*X6264Y56463D3*X5556D3*X5674Y55377D3*X5792Y56463D3*X5910Y55377D3*X6028Y56463D3*X6146Y51457D3*X6264Y52543D3*X5556D3*X5674Y51457D3*X5792Y52543D3*X5910Y51457D3*X6028Y52543D3*X24658Y51457D3*X24776Y52543D3*X24068D3*X24186Y51457D3*X24304Y52543D3*X24422Y51457D3*X24540Y52543D3*X43170Y51457D3*X43288Y52543D3*X42580D3*X42698Y51457D3*X42816Y52543D3*X42934Y51457D3*X43052Y52543D3*X43170Y47537D3*X43288Y48623D3*X42580D3*X42698Y47537D3*X42816Y48623D3*X42934Y47537D3*X43052Y48623D3*X24658Y47537D3*X24776Y48623D3*X24068D3*X24186Y47537D3*X24304Y48623D3*X24422Y47537D3*X24540Y48623D3*X6146Y47537D3*X6264Y48623D3*X5556D3*X5674Y47537D3*X5792Y48623D3*X5910Y47537D3*X6028Y48623D3*X6146Y43617D3*X6264Y44703D3*X5556D3*X5674Y43617D3*X5792Y44703D3*X5910Y43617D3*X6028Y44703D3*X24658Y43617D3*X24776Y44703D3*X24068D3*X24186Y43617D3*X24304Y44703D3*X24422Y43617D3*X24540Y44703D3*X43170Y43617D3*X43288Y44703D3*X42580D3*X42698Y43617D3*X42816Y44703D3*X42934Y43617D3*X43052Y44703D3*X43170Y39697D3*X43288Y40783D3*X42580D3*X42698Y39697D3*X42816Y40783D3*X42934Y39697D3*X43052Y40783D3*X24658Y39697D3*X24776Y40783D3*X24068D3*X24186Y39697D3*X24304Y40783D3*X24422Y39697D3*X24540Y40783D3*X6146Y39697D3*X6264Y40783D3*X5556D3*X5674Y39697D3*X5792Y40783D3*X5910Y39697D3*X6028Y40783D3*X6146Y35777D3*X6264Y36863D3*X5556D3*X5674Y35777D3*X5792Y36863D3*X5910Y35777D3*X6028Y36863D3*X24658Y35777D3*X24776Y36863D3*X24068D3*X24186Y35777D3*X24304Y36863D3*X24422Y35777D3*X24540Y36863D3*X43170Y35777D3*X43288Y36863D3*X42580D3*X42698Y35777D3*X42816Y36863D3*X42934Y35777D3*X43052Y36863D3*X43170Y31857D3*X43288Y32943D3*X42580D3*X42698Y31857D3*X42816Y32943D3*X42934Y31857D3*X43052Y32943D3*X24658Y31857D3*X24776Y32943D3*X24068D3*X24186Y31857D3*X24304Y32943D3*X24422Y31857D3*X24540Y32943D3*X6146Y31857D3*X6264Y32943D3*X5556D3*X5674Y31857D3*X5792Y32943D3*X5910Y31857D3*X6028Y32943D3*X6146Y27937D3*X6264Y29023D3*X5556D3*X5674Y27937D3*X5792Y29023D3*X5910Y27937D3*X6028Y29023D3*X24658Y27937D3*X24776Y29023D3*X24068D3*X24186Y27937D3*X24304Y29023D3*X24422Y27937D3*X24540Y29023D3*X43170Y27937D3*X43288Y29023D3*X42580D3*X42698Y27937D3*X42816Y29023D3*X42934Y27937D3*X43052Y29023D3*X43170Y24017D3*X43288Y25103D3*X42580D3*X42698Y24017D3*X42816Y25103D3*X42934Y24017D3*X43052Y25103D3*X24658Y24017D3*X24776Y25103D3*X24068D3*X24186Y24017D3*X24304Y25103D3*X24422Y24017D3*X24540Y25103D3*X6146Y24017D3*X6264Y25103D3*X5556D3*X5674Y24017D3*X5792Y25103D3*X5910Y24017D3*X6028Y25103D3*X6146Y20097D3*X6264Y21183D3*X5556D3*X5674Y20097D3*X5792Y21183D3*X5910Y20097D3*X6028Y21183D3*X24658Y20097D3*X24776Y21183D3*X24068D3*X24186Y20097D3*X24304Y21183D3*X24422Y20097D3*X24540Y21183D3*X43170Y20097D3*X43288Y21183D3*X42580D3*X42698Y20097D3*X42816Y21183D3*X42934Y20097D3*X43052Y21183D3*X43170Y16177D3*X43288Y17263D3*X42580D3*X42698Y16177D3*X42816Y17263D3*X42934Y16177D3*X43052Y17263D3*X24658Y16177D3*X24776Y17263D3*X24068D3*X24186Y16177D3*X24304Y17263D3*X24422Y16177D3*X24540Y17263D3*X6146Y16177D3*X6264Y17263D3*X5556D3*X5674Y16177D3*X5792Y17263D3*X5910Y16177D3*X6028Y17263D3*X6146Y12257D3*X6264Y13343D3*X5556D3*X5674Y12257D3*X5792Y13343D3*X5910Y12257D3*X6028Y13343D3*X24658Y12257D3*X24776Y13343D3*X24068D3*X24186Y12257D3*X24304Y13343D3*X24422Y12257D3*X24540Y13343D3*X43170Y12257D3*X43288Y13343D3*X42580D3*X42698Y12257D3*X42816Y13343D3*X42934Y12257D3*X43052Y13343D3*X43170Y8337D3*X43288Y9423D3*X42580D3*X42698Y8337D3*X42816Y9423D3*X42934Y8337D3*X43052Y9423D3*X24658Y8337D3*X24776Y9423D3*X24068D3*X24186Y8337D3*X24304Y9423D3*X24422Y8337D3*X24540Y9423D3*X6146Y8337D3*X6264Y9423D3*X5556D3*X5674Y8337D3*X5792Y9423D3*X5910Y8337D3*X6028Y9423D3*X6146Y4417D3*X6264Y5503D3*X5556D3*X5674Y4417D3*X5792Y5503D3*X5910Y4417D3*X6028Y5503D3*X24658Y4417D3*X24776Y5503D3*X24068D3*X24186Y4417D3*X24304Y5503D3*X24422Y4417D3*X24540Y5503D3*X43170Y4417D3*X43288Y5503D3*X42580D3*X42698Y4417D3*X42816Y5503D3*X42934Y4417D3*X43052Y5503D3*X43170Y497D3*X43288Y1583D3*X42580D3*X42698Y497D3*X42816Y1583D3*X42934Y497D3*X43052Y1583D3*X24658Y497D3*X24776Y1583D3*X24068D3*X24186Y497D3*X24304Y1583D3*X24422Y497D3*X24540Y1583D3*X6146Y497D3*X6264Y1583D3*X5556D3*X5674Y497D3*X5792Y1583D3*X5910Y497D3*X6028Y1583D3*D107*X19360Y74880D3*Y75280D3*X15460Y74880D3*Y75280D3*X11660Y74880D3*Y75280D3*X7760Y74880D3*Y75280D3*X37872Y74880D3*Y75280D3*X33972Y74880D3*Y75280D3*X30172Y74880D3*Y75280D3*X26272Y74880D3*Y75280D3*X56384Y74880D3*Y75280D3*X52484Y74880D3*Y75280D3*X48684Y74880D3*Y75280D3*X44784Y74880D3*Y75280D3*X56384Y70960D3*Y71360D3*X52484Y70960D3*Y71360D3*X48684Y70960D3*Y71360D3*X44784Y70960D3*Y71360D3*X37872Y70960D3*Y71360D3*X33972Y70960D3*Y71360D3*X30172Y70960D3*Y71360D3*X26272Y70960D3*Y71360D3*X19360Y70960D3*Y71360D3*X15460Y70960D3*Y71360D3*X11660Y70960D3*Y71360D3*X7760Y70960D3*Y71360D3*X19360Y67040D3*Y67440D3*X15460Y67040D3*Y67440D3*X11660Y67040D3*Y67440D3*X7760Y67040D3*Y67440D3*X37872Y67040D3*Y67440D3*X33972Y67040D3*Y67440D3*X30172Y67040D3*Y67440D3*X26272Y67040D3*Y67440D3*X56384Y67040D3*Y67440D3*X52484Y67040D3*Y67440D3*X48684Y67040D3*Y67440D3*X44784Y67040D3*Y67440D3*X56384Y63120D3*Y63520D3*X52484Y63120D3*Y63520D3*X48684Y63120D3*Y63520D3*X44784Y63120D3*Y63520D3*X37872Y63120D3*Y63520D3*X33972Y63120D3*Y63520D3*X30172Y63120D3*Y63520D3*X26272Y63120D3*Y63520D3*X19360Y63120D3*Y63520D3*X15460Y63120D3*Y63520D3*X11660Y63120D3*Y63520D3*X7760Y63120D3*Y63520D3*X19360Y59200D3*Y59600D3*X15460Y59200D3*Y59600D3*X11660Y59200D3*Y59600D3*X7760Y59200D3*Y59600D3*X37872Y59200D3*Y59600D3*X33972Y59200D3*Y59600D3*X30172Y59200D3*Y59600D3*X26272Y59200D3*Y59600D3*X56384Y59200D3*Y59600D3*X52484Y59200D3*Y59600D3*X48684Y59200D3*Y59600D3*X44784Y59200D3*Y59600D3*X56384Y55280D3*Y55680D3*X52484Y55280D3*Y55680D3*X48684Y55280D3*Y55680D3*X44784Y55280D3*Y55680D3*X37872Y55280D3*Y55680D3*X33972Y55280D3*Y55680D3*X30172Y55280D3*Y55680D3*X26272Y55280D3*Y55680D3*X19360Y55280D3*Y55680D3*X15460Y55280D3*Y55680D3*X11660Y55280D3*Y55680D3*X7760Y55280D3*Y55680D3*X19360Y51360D3*Y51760D3*X15460Y51360D3*Y51760D3*X11660Y51360D3*Y51760D3*X7760Y51360D3*Y51760D3*X37872Y51360D3*Y51760D3*X33972Y51360D3*Y51760D3*X30172Y51360D3*Y51760D3*X26272Y51360D3*Y51760D3*X56384Y51360D3*Y51760D3*X52484Y51360D3*Y51760D3*X48684Y51360D3*Y51760D3*X44784Y51360D3*Y51760D3*X56384Y47440D3*Y47840D3*X52484Y47440D3*Y47840D3*X48684Y47440D3*Y47840D3*X44784Y47440D3*Y47840D3*X37872Y47440D3*Y47840D3*X33972Y47440D3*Y47840D3*X30172Y47440D3*Y47840D3*X26272Y47440D3*Y47840D3*X19360Y47440D3*Y47840D3*X15460Y47440D3*Y47840D3*X11660Y47440D3*Y47840D3*X7760Y47440D3*Y47840D3*X19360Y43520D3*Y43920D3*X15460Y43520D3*Y43920D3*X11660Y43520D3*Y43920D3*X7760Y43520D3*Y43920D3*X37872Y43520D3*Y43920D3*X33972Y43520D3*Y43920D3*X30172Y43520D3*Y43920D3*X26272Y43520D3*Y43920D3*X56384Y43520D3*Y43920D3*X52484Y43520D3*Y43920D3*X48684Y43520D3*Y43920D3*X44784Y43520D3*Y43920D3*X56384Y39600D3*Y40000D3*X52484Y39600D3*Y40000D3*X48684Y39600D3*Y40000D3*X44784Y39600D3*Y40000D3*X37872Y39600D3*Y40000D3*X33972Y39600D3*Y40000D3*X30172Y39600D3*Y40000D3*X26272Y39600D3*Y40000D3*X19360Y39600D3*Y40000D3*X15460Y39600D3*Y40000D3*X11660Y39600D3*Y40000D3*X7760Y39600D3*Y40000D3*X19360Y35680D3*Y36080D3*X15460Y35680D3*Y36080D3*X11660Y35680D3*Y36080D3*X7760Y35680D3*Y36080D3*X37872Y35680D3*Y36080D3*X33972Y35680D3*Y36080D3*X30172Y35680D3*Y36080D3*X26272Y35680D3*Y36080D3*X56384Y35680D3*Y36080D3*X52484Y35680D3*Y36080D3*X48684Y35680D3*Y36080D3*X44784Y35680D3*Y36080D3*X56384Y31760D3*Y32160D3*X52484Y31760D3*Y32160D3*X48684Y31760D3*Y32160D3*X44784Y31760D3*Y32160D3*X37872Y31760D3*Y32160D3*X33972Y31760D3*Y32160D3*X30172Y31760D3*Y32160D3*X26272Y31760D3*Y32160D3*X19360Y31760D3*Y32160D3*X15460Y31760D3*Y32160D3*X11660Y31760D3*Y32160D3*X7760Y31760D3*Y32160D3*X19360Y27840D3*Y28240D3*X15460Y27840D3*Y28240D3*X11660Y27840D3*Y28240D3*X7760Y27840D3*Y28240D3*X37872Y27840D3*Y28240D3*X33972Y27840D3*Y28240D3*X30172Y27840D3*Y28240D3*X26272Y27840D3*Y28240D3*X56384Y27840D3*Y28240D3*X52484Y27840D3*Y28240D3*X48684Y27840D3*Y28240D3*X44784Y27840D3*Y28240D3*X56384Y23920D3*Y24320D3*X52484Y23920D3*Y24320D3*X48684Y23920D3*Y24320D3*X44784Y23920D3*Y24320D3*X37872Y23920D3*Y24320D3*X33972Y23920D3*Y24320D3*X30172Y23920D3*Y24320D3*X26272Y23920D3*Y24320D3*X19360Y23920D3*Y24320D3*X15460Y23920D3*Y24320D3*X11660Y23920D3*Y24320D3*X7760Y23920D3*Y24320D3*X19360Y20000D3*Y20400D3*X15460Y20000D3*Y20400D3*X11660Y20000D3*Y20400D3*X7760Y20000D3*Y20400D3*X37872Y20000D3*Y20400D3*X33972Y20000D3*Y20400D3*X30172Y20000D3*Y20400D3*X26272Y20000D3*Y20400D3*X56384Y20000D3*Y20400D3*X52484Y20000D3*Y20400D3*X48684Y20000D3*Y20400D3*X44784Y20000D3*Y20400D3*X56384Y16080D3*Y16480D3*X52484Y16080D3*Y16480D3*X48684Y16080D3*Y16480D3*X44784Y16080D3*Y16480D3*X37872Y16080D3*Y16480D3*X33972Y16080D3*Y16480D3*X30172Y16080D3*Y16480D3*X26272Y16080D3*Y16480D3*X19360Y16080D3*Y16480D3*X15460Y16080D3*Y16480D3*X11660Y16080D3*Y16480D3*X7760Y16080D3*Y16480D3*X19360Y12160D3*Y12560D3*X15460Y12160D3*Y12560D3*X11660Y12160D3*Y12560D3*X7760Y12160D3*Y12560D3*X37872Y12160D3*Y12560D3*X33972Y12160D3*Y12560D3*X30172Y12160D3*Y12560D3*X26272Y12160D3*Y12560D3*X56384Y12160D3*Y12560D3*X52484Y12160D3*Y12560D3*X48684Y12160D3*Y12560D3*X44784Y12160D3*Y12560D3*X56384Y8240D3*Y8640D3*X52484Y8240D3*Y8640D3*X48684Y8240D3*Y8640D3*X44784Y8240D3*Y8640D3*X37872Y8240D3*Y8640D3*X33972Y8240D3*Y8640D3*X30172Y8240D3*Y8640D3*X26272Y8240D3*Y8640D3*X19360Y8240D3*Y8640D3*X15460Y8240D3*Y8640D3*X11660Y8240D3*Y8640D3*X7760Y8240D3*Y8640D3*X19360Y4320D3*Y4720D3*X15460Y4320D3*Y4720D3*X11660Y4320D3*Y4720D3*X7760Y4320D3*Y4720D3*X37872Y4320D3*Y4720D3*X33972Y4320D3*Y4720D3*X30172Y4320D3*Y4720D3*X26272Y4320D3*Y4720D3*X56384Y4320D3*Y4720D3*X52484Y4320D3*Y4720D3*X48684Y4320D3*Y4720D3*X44784Y4320D3*Y4720D3*X56384Y400D3*Y800D3*X52484Y400D3*Y800D3*X48684Y400D3*Y800D3*X44784Y400D3*Y800D3*X37872Y400D3*Y800D3*X33972Y400D3*Y800D3*X30172Y400D3*Y800D3*X26272Y400D3*Y800D3*X19360Y400D3*Y800D3*X15460Y400D3*Y800D3*X11660Y400D3*Y800D3*X7760Y400D3*Y800D3*X0Y0D2*M02*