*%FSLAX24Y24*%
%MOIN*%
%IPPOS*%
%ADD10C,0.03*%
%ADD11C,0.024*%
%ADD12R,0.065X0.032*%
%ADD13C,0.0276*%
%ADD14C,0.01*%
%ADD15C,0.015*%
%ADD16C,0.125*%
%ADD17R,0.075X0.075*%
%ADD18R,0.08X0.08*%
%AMD19*
1,1,0.1,0.0,0.0*
1,0,0.0875,0.0,0.0*
1,1,0.05,0.0,0.0*
1,0,0.0375,0.0,0.0*
20,1,0.0062,0.0,-0.0969,0.0,0.0969,0.0*
20,1,0.0062,-0.0969,0.0,0.0969,0.0,0.0*%
%ADD19D19*%
G04:---LTIenv:A019:6,0.2,6 *
%ADD100C,0.03*%
%ADD101C,0.024*%
%ADD102R,0.012X0.024*%
%ADD103R,0.03X0.02*%
%ADD104C,0.007*%
%ADD105R,0.062X0.028*%
%ADD106R,0.0085X0.02*%
%ADD107R,0.026X0.018*%
%ADD108C,0.035*%
%ADD109R,0.07X0.037*%
%ADD110C,0.035*%
%ADD111R,0.017X0.029*%
%ADD112R,0.035X0.025*%
%ADD113C,0.005*%
%AMD117*
1,1,0.001,0.01,0.0*
20,1,0.001,0.01,0.0,-0.01,0.0,0.0*
1,1,0.001,-0.01,0.0*
1,1,0.001,0.0,0.01*
20,1,0.001,0.0,0.01,0.0,-0.01,0.0*
1,1,0.001,0.0,-0.01*%
%ADD117D117*%
%AMD118*
1,1,0.001,0.025,0.0*
20,1,0.001,0.025,0.0,0.0246,-0.0043,0.0*
1,1,0.001,0.0246,-0.0043*
20,1,0.001,0.0246,-0.0043,0.0235,-0.0086,0.0*
1,1,0.001,0.0235,-0.0086*
20,1,0.001,0.0235,-0.0086,0.0217,-0.0125,0.0*
1,1,0.001,0.0217,-0.0125*
20,1,0.001,0.0217,-0.0125,0.0192,-0.0161,0.0*
1,1,0.001,0.0192,-0.0161*
20,1,0.001,0.0192,-0.0161,0.0161,-0.0192,0.0*
1,1,0.001,0.0161,-0.0192*
20,1,0.001,0.0161,-0.0192,0.0125,-0.0217,0.0*
1,1,0.001,0.0125,-0.0217*
20,1,0.001,0.0125,-0.0217,0.0086,-0.0235,0.0*
1,1,0.001,0.0086,-0.0235*
20,1,0.001,0.0086,-0.0235,0.0043,-0.0246,0.0*
1,1,0.001,0.0043,-0.0246*
20,1,0.001,0.0043,-0.0246,0.0,-0.025,0.0*
1,1,0.001,0.0,-0.025*
20,1,0.001,0.0,-0.025,-0.0043,-0.0246,0.0*
1,1,0.001,-0.0043,-0.0246*
20,1,0.001,-0.0043,-0.0246,-0.0086,-0.0235,0.0*
1,1,0.001,-0.0086,-0.0235*
20,1,0.001,-0.0086,-0.0235,-0.0125,-0.0217,0.0*
1,1,0.001,-0.0125,-0.0217*
20,1,0.001,-0.0125,-0.0217,-0.0161,-0.0192,0.0*
1,1,0.001,-0.0161,-0.0192*
20,1,0.001,-0.0161,-0.0192,-0.0192,-0.0161,0.0*
1,1,0.001,-0.0192,-0.0161*
20,1,0.001,-0.0192,-0.0161,-0.0217,-0.0125,0.0*
1,1,0.001,-0.0217,-0.0125*
20,1,0.001,-0.0217,-0.0125,-0.0235,-0.0086,0.0*
1,1,0.001,-0.0235,-0.0086*
20,1,0.001,-0.0235,-0.0086,-0.0246,-0.0043,0.0*
1,1,0.001,-0.0246,-0.0043*
20,1,0.001,-0.0246,-0.0043,-0.025,0.0,0.0*
1,1,0.001,-0.025,0.0*
20,1,0.001,-0.025,0.0,-0.0246,0.0043,0.0*
1,1,0.001,-0.0246,0.0043*
20,1,0.001,-0.0246,0.0043,-0.0235,0.0086,0.0*
1,1,0.001,-0.0235,0.0086*
20,1,0.001,-0.0235,0.0086,-0.0217,0.0125,0.0*
1,1,0.001,-0.0217,0.0125*
20,1,0.001,-0.0217,0.0125,-0.0192,0.0161,0.0*
1,1,0.001,-0.0192,0.0161*
20,1,0.001,-0.0192,0.0161,-0.0161,0.0192,0.0*
1,1,0.001,-0.0161,0.0192*
20,1,0.001,-0.0161,0.0192,-0.0125,0.0217,0.0*
1,1,0.001,-0.0125,0.0217*
20,1,0.001,-0.0125,0.0217,-0.0086,0.0235,0.0*
1,1,0.001,-0.0086,0.0235*
20,1,0.001,-0.0086,0.0235,-0.0043,0.0246,0.0*
1,1,0.001,-0.0043,0.0246*
20,1,0.001,-0.0043,0.0246,0.0,0.025,0.0*
1,1,0.001,0.0,0.025*
20,1,0.001,0.0,0.025,0.0043,0.0246,0.0*
1,1,0.001,0.0043,0.0246*
20,1,0.001,0.0043,0.0246,0.0086,0.0235,0.0*
1,1,0.001,0.0086,0.0235*
20,1,0.001,0.0086,0.0235,0.0125,0.0217,0.0*
1,1,0.001,0.0125,0.0217*
20,1,0.001,0.0125,0.0217,0.0161,0.0192,0.0*
1,1,0.001,0.0161,0.0192*
20,1,0.001,0.0161,0.0192,0.0192,0.0161,0.0*
1,1,0.001,0.0192,0.0161*
20,1,0.001,0.0192,0.0161,0.0217,0.0125,0.0*
1,1,0.001,0.0217,0.0125*
20,1,0.001,0.0217,0.0125,0.0235,0.0086,0.0*
1,1,0.001,0.0235,0.0086*
20,1,0.001,0.0235,0.0086,0.0246,0.0043,0.0*
1,1,0.001,0.0246,0.0043*
20,1,0.001,0.0246,0.0043,0.025,0.0,0.0*
1,1,0.001,0.025,0.0*
1,1,0.001,0.0125,0.0*
20,1,0.001,0.0125,0.0,-0.0125,0.0,0.0*
1,1,0.001,-0.0125,0.0*
1,1,0.001,0.0,0.0125*
20,1,0.001,0.0,0.0125,0.0,-0.0125,0.0*
1,1,0.001,0.0,-0.0125*%
%ADD118D118*%
%ADD119C,0.08*%
%ADD120C,0.008*%
%ADD200C,0.002*%
%ADD901C,0.0118*%
G04:---LTIenv:A901:15,0.0118,1 *
%ADD902C,0.02*%
G04:---LTIenv:A902:15,0.02,2 *

%LPD*%
D113*X20432Y75740D2*X19734D1*X20274Y75317D2*X20082D1*X20224Y75539*Y75229*X19784D2*X19861D1*X19891Y75245*X19914Y75265*X19933Y75296*X19949Y75332*X19953Y75384*X19949Y75436*X19933Y75472*X19914Y75503*X19891Y75524*X19861Y75539*X19784*Y75229*X19035Y75937D2*Y76212D1*X19123*Y76134*X19271*Y76222*X19537*X19655Y76104*X20521*X20629Y76212*X20915*Y76134*X21043*Y76212*X21141*Y75927*X15159Y75937D2*Y76212D1*X15247*Y76134*X15395*Y76222*X15661*X15779Y76104*X16645*X16753Y76212*X17039*Y76134*X17167*Y76212*X17265*Y75927*X16556Y75740D2*X15858D1*X16249Y75513D2*X16283Y75534D1*X16318Y75539*X16352Y75524*X16371Y75498*X16379Y75467*X16371Y75436*X16352Y75410*X16329Y75394*X16295*X16329D2*X16356Y75384D1*X16383Y75358*X16390Y75322*X16387Y75291*X16367Y75260*X16337Y75234*X16306Y75229*X16272Y75234*X16241Y75255*X16218Y75291*X15908Y75229D2*X15985D1*X16015Y75245*X16038Y75265*X16057Y75296*X16073Y75332*X16077Y75384*X16073Y75436*X16057Y75472*X16038Y75503*X16015Y75524*X15985Y75539*X15908*Y75229*X11283Y75937D2*Y76212D1*X11371*Y76134*X11519*Y76222*X11785*X11903Y76104*X12769*X12877Y76212*X13163*Y76134*X13291*Y76212*X13389*Y75927*X12680Y75740D2*X11982D1*X12507Y75229D2*X12346D1*X12354Y75276*X12376Y75327*X12411Y75363*X12488Y75415*X12503Y75441*X12507Y75472*X12499Y75503*X12472Y75529*X12434Y75539*X12403Y75534*X12376Y75518*X12354Y75487*X12032Y75229D2*X12109D1*X12139Y75245*X12162Y75265*X12182Y75296*X12197Y75332*X12201Y75384*X12197Y75436*X12182Y75472*X12162Y75503*X12139Y75524*X12109Y75539*X12032*Y75229*X7256Y75480D2*X7094D1*X7102Y75526*X7125Y75578*X7160Y75614*X7236Y75666*X7252Y75692*X7256Y75723*X7248Y75754*X7221Y75780*X7183Y75790*X7152Y75785*X7125Y75769*X7102Y75738*X6788Y75609D2*X6880D1*X6915Y75625*X6934Y75656*X6942Y75697*X6934Y75738*X6911Y75774*X6880Y75790*X6788*Y75480*X6467Y75790D2*X6643D1*X6555D2*Y75480D1*X7407Y75937D2*Y76212D1*X7495*Y76134*X7643*Y76222*X7909*X8027Y76104*X8893*X9001Y76212*X9287*Y76134*X9415*Y76212*X9513*Y75927*X8804Y75740D2*X8106D1*X8504Y75229D2*X8596D1*X8504Y75477D2*X8550Y75539D1*Y75229*X8156D2*X8233D1*X8263Y75245*X8286Y75265*X8306Y75296*X8321Y75332*X8325Y75384*X8321Y75436*X8306Y75472*X8286Y75503*X8263Y75524*X8233Y75539*X8156*Y75229*X5889Y75880D2*X5981D1*X5889Y76128D2*X5935Y76190D1*Y75880*X5548Y76009D2*X5640D1*X5675Y76025*X5694Y76056*X5702Y76097*X5694Y76138*X5671Y76174*X5640Y76190*X5548*Y75880*X5227Y76190D2*X5403D1*X5315D2*Y75880D1*X38944Y75740D2*X38246D1*X38786Y75317D2*X38594D1*X38736Y75539*Y75229*X38296D2*X38373D1*X38403Y75245*X38426Y75265*X38445Y75296*X38461Y75332*X38465Y75384*X38461Y75436*X38445Y75472*X38426Y75503*X38403Y75524*X38373Y75539*X38296*Y75229*X37547Y75937D2*Y76212D1*X37635*Y76134*X37783*Y76222*X38049*X38167Y76104*X39033*X39141Y76212*X39427*Y76134*X39555*Y76212*X39653*Y75927*X33671Y75937D2*Y76212D1*X33759*Y76134*X33907*Y76222*X34173*X34291Y76104*X35157*X35265Y76212*X35551*Y76134*X35679*Y76212*X35777*Y75927*X35068Y75740D2*X34370D1*X34761Y75513D2*X34795Y75534D1*X34830Y75539*X34864Y75524*X34883Y75498*X34891Y75467*X34883Y75436*X34864Y75410*X34841Y75394*X34807*X34841D2*X34868Y75384D1*X34895Y75358*X34902Y75322*X34899Y75291*X34879Y75260*X34849Y75234*X34818Y75229*X34784Y75234*X34753Y75255*X34730Y75291*X34420Y75229D2*X34497D1*X34527Y75245*X34550Y75265*X34569Y75296*X34585Y75332*X34589Y75384*X34585Y75436*X34569Y75472*X34550Y75503*X34527Y75524*X34497Y75539*X34420*Y75229*X29795Y75937D2*Y76212D1*X29883*Y76134*X30031*Y76222*X30297*X30415Y76104*X31281*X31389Y76212*X31675*Y76134*X31803*Y76212*X31901*Y75927*X31192Y75740D2*X30494D1*X31019Y75229D2*X30858D1*X30866Y75276*X30888Y75327*X30923Y75363*X31000Y75415*X31015Y75441*X31019Y75472*X31011Y75503*X30984Y75529*X30946Y75539*X30915Y75534*X30888Y75518*X30866Y75487*X30544Y75229D2*X30621D1*X30651Y75245*X30674Y75265*X30694Y75296*X30709Y75332*X30713Y75384*X30709Y75436*X30694Y75472*X30674Y75503*X30651Y75524*X30621Y75539*X30544*Y75229*X25768Y75480D2*X25606D1*X25614Y75526*X25637Y75578*X25672Y75614*X25748Y75666*X25764Y75692*X25768Y75723*X25760Y75754*X25733Y75780*X25695Y75790*X25664Y75785*X25637Y75769*X25614Y75738*X25300Y75609D2*X25392D1*X25427Y75625*X25446Y75656*X25454Y75697*X25446Y75738*X25423Y75774*X25392Y75790*X25300*Y75480*X24979Y75790D2*X25155D1*X25067D2*Y75480D1*X25919Y75937D2*Y76212D1*X26007*Y76134*X26155*Y76222*X26421*X26539Y76104*X27405*X27513Y76212*X27799*Y76134*X27927*Y76212*X28025*Y75927*X27316Y75740D2*X26618D1*X27016Y75229D2*X27108D1*X27016Y75477D2*X27062Y75539D1*Y75229*X26668D2*X26745D1*X26775Y75245*X26798Y75265*X26818Y75296*X26833Y75332*X26837Y75384*X26833Y75436*X26818Y75472*X26798Y75503*X26775Y75524*X26745Y75539*X26668*Y75229*X24401Y75880D2*X24493D1*X24401Y76128D2*X24447Y76190D1*Y75880*X24060Y76009D2*X24152D1*X24187Y76025*X24206Y76056*X24214Y76097*X24206Y76138*X24183Y76174*X24152Y76190*X24060*Y75880*X23739Y76190D2*X23915D1*X23827D2*Y75880D1*X57456Y75740D2*X56758D1*X57298Y75317D2*X57106D1*X57248Y75539*Y75229*X56808D2*X56885D1*X56915Y75245*X56938Y75265*X56957Y75296*X56973Y75332*X56977Y75384*X56973Y75436*X56957Y75472*X56938Y75503*X56915Y75524*X56885Y75539*X56808*Y75229*X56059Y75937D2*Y76212D1*X56147*Y76134*X56295*Y76222*X56561*X56679Y76104*X57545*X57653Y76212*X57939*Y76134*X58067*Y76212*X58165*Y75927*X52183Y75937D2*Y76212D1*X52271*Y76134*X52419*Y76222*X52685*X52803Y76104*X53669*X53777Y76212*X54063*Y76134*X54191*Y76212*X54289*Y75927*X53580Y75740D2*X52882D1*X53273Y75513D2*X53307Y75534D1*X53342Y75539*X53376Y75524*X53395Y75498*X53403Y75467*X53395Y75436*X53376Y75410*X53353Y75394*X53319*X53353D2*X53380Y75384D1*X53407Y75358*X53414Y75322*X53411Y75291*X53391Y75260*X53361Y75234*X53330Y75229*X53296Y75234*X53265Y75255*X53242Y75291*X52932Y75229D2*X53009D1*X53039Y75245*X53062Y75265*X53081Y75296*X53097Y75332*X53101Y75384*X53097Y75436*X53081Y75472*X53062Y75503*X53039Y75524*X53009Y75539*X52932*Y75229*X48307Y75937D2*Y76212D1*X48395*Y76134*X48543*Y76222*X48809*X48927Y76104*X49793*X49901Y76212*X50187*Y76134*X50315*Y76212*X50413*Y75927*X49704Y75740D2*X49006D1*X49531Y75229D2*X49370D1*X49378Y75276*X49400Y75327*X49435Y75363*X49512Y75415*X49527Y75441*X49531Y75472*X49523Y75503*X49496Y75529*X49458Y75539*X49427Y75534*X49400Y75518*X49378Y75487*X49056Y75229D2*X49133D1*X49163Y75245*X49186Y75265*X49206Y75296*X49221Y75332*X49225Y75384*X49221Y75436*X49206Y75472*X49186Y75503*X49163Y75524*X49133Y75539*X49056*Y75229*X44280Y75480D2*X44118D1*X44126Y75526*X44149Y75578*X44184Y75614*X44260Y75666*X44276Y75692*X44280Y75723*X44272Y75754*X44245Y75780*X44207Y75790*X44176Y75785*X44149Y75769*X44126Y75738*X43812Y75609D2*X43904D1*X43939Y75625*X43958Y75656*X43966Y75697*X43958Y75738*X43935Y75774*X43904Y75790*X43812*Y75480*X43491Y75790D2*X43667D1*X43579D2*Y75480D1*X44431Y75937D2*Y76212D1*X44519*Y76134*X44667*Y76222*X44933*X45051Y76104*X45917*X46025Y76212*X46311*Y76134*X46439*Y76212*X46537*Y75927*X45828Y75740D2*X45130D1*X45528Y75229D2*X45620D1*X45528Y75477D2*X45574Y75539D1*Y75229*X45180D2*X45257D1*X45287Y75245*X45310Y75265*X45330Y75296*X45345Y75332*X45349Y75384*X45345Y75436*X45330Y75472*X45310Y75503*X45287Y75524*X45257Y75539*X45180*Y75229*X42913Y75880D2*X43005D1*X42913Y76128D2*X42959Y76190D1*Y75880*X42572Y76009D2*X42664D1*X42699Y76025*X42718Y76056*X42726Y76097*X42718Y76138*X42695Y76174*X42664Y76190*X42572*Y75880*X42251Y76190D2*X42427D1*X42339D2*Y75880D1*X57456Y71820D2*X56758D1*X57298Y71397D2*X57106D1*X57248Y71619*Y71309*X56808D2*X56885D1*X56915Y71325*X56938Y71345*X56957Y71376*X56973Y71412*X56977Y71464*X56973Y71516*X56957Y71552*X56938Y71583*X56915Y71604*X56885Y71619*X56808*Y71309*X56059Y72017D2*Y72292D1*X56147*Y72214*X56295*Y72302*X56561*X56679Y72184*X57545*X57653Y72292*X57939*Y72214*X58067*Y72292*X58165*Y72007*X52183Y72017D2*Y72292D1*X52271*Y72214*X52419*Y72302*X52685*X52803Y72184*X53669*X53777Y72292*X54063*Y72214*X54191*Y72292*X54289*Y72007*X53580Y71820D2*X52882D1*X53273Y71593D2*X53307Y71614D1*X53342Y71619*X53376Y71604*X53395Y71578*X53403Y71547*X53395Y71516*X53376Y71490*X53353Y71474*X53319*X53353D2*X53380Y71464D1*X53407Y71438*X53414Y71402*X53411Y71371*X53391Y71340*X53361Y71314*X53330Y71309*X53296Y71314*X53265Y71335*X53242Y71371*X52932Y71309D2*X53009D1*X53039Y71325*X53062Y71345*X53081Y71376*X53097Y71412*X53101Y71464*X53097Y71516*X53081Y71552*X53062Y71583*X53039Y71604*X53009Y71619*X52932*Y71309*X48307Y72017D2*Y72292D1*X48395*Y72214*X48543*Y72302*X48809*X48927Y72184*X49793*X49901Y72292*X50187*Y72214*X50315*Y72292*X50413*Y72007*X49704Y71820D2*X49006D1*X49531Y71309D2*X49370D1*X49378Y71356*X49400Y71407*X49435Y71443*X49512Y71495*X49527Y71521*X49531Y71552*X49523Y71583*X49496Y71609*X49458Y71619*X49427Y71614*X49400Y71598*X49378Y71567*X49056Y71309D2*X49133D1*X49163Y71325*X49186Y71345*X49206Y71376*X49221Y71412*X49225Y71464*X49221Y71516*X49206Y71552*X49186Y71583*X49163Y71604*X49133Y71619*X49056*Y71309*X44280Y71560D2*X44118D1*X44126Y71606*X44149Y71658*X44184Y71694*X44260Y71746*X44276Y71772*X44280Y71803*X44272Y71834*X44245Y71860*X44207Y71870*X44176Y71865*X44149Y71849*X44126Y71818*X43812Y71689D2*X43904D1*X43939Y71705*X43958Y71736*X43966Y71777*X43958Y71818*X43935Y71854*X43904Y71870*X43812*Y71560*X43491Y71870D2*X43667D1*X43579D2*Y71560D1*X44431Y72017D2*Y72292D1*X44519*Y72214*X44667*Y72302*X44933*X45051Y72184*X45917*X46025Y72292*X46311*Y72214*X46439*Y72292*X46537*Y72007*X45828Y71820D2*X45130D1*X45528Y71309D2*X45620D1*X45528Y71557D2*X45574Y71619D1*Y71309*X45180D2*X45257D1*X45287Y71325*X45310Y71345*X45330Y71376*X45345Y71412*X45349Y71464*X45345Y71516*X45330Y71552*X45310Y71583*X45287Y71604*X45257Y71619*X45180*Y71309*X42913Y71960D2*X43005D1*X42913Y72208D2*X42959Y72270D1*Y71960*X42572Y72089D2*X42664D1*X42699Y72105*X42718Y72136*X42726Y72177*X42718Y72218*X42695Y72254*X42664Y72270*X42572*Y71960*X42251Y72270D2*X42427D1*X42339D2*Y71960D1*X38944Y71820D2*X38246D1*X38786Y71397D2*X38594D1*X38736Y71619*Y71309*X38296D2*X38373D1*X38403Y71325*X38426Y71345*X38445Y71376*X38461Y71412*X38465Y71464*X38461Y71516*X38445Y71552*X38426Y71583*X38403Y71604*X38373Y71619*X38296*Y71309*X37547Y72017D2*Y72292D1*X37635*Y72214*X37783*Y72302*X38049*X38167Y72184*X39033*X39141Y72292*X39427*Y72214*X39555*Y72292*X39653*Y72007*X33671Y72017D2*Y72292D1*X33759*Y72214*X33907*Y72302*X34173*X34291Y72184*X35157*X35265Y72292*X35551*Y72214*X35679*Y72292*X35777*Y72007*X35068Y71820D2*X34370D1*X34761Y71593D2*X34795Y71614D1*X34830Y71619*X34864Y71604*X34883Y71578*X34891Y71547*X34883Y71516*X34864Y71490*X34841Y71474*X34807*X34841D2*X34868Y71464D1*X34895Y71438*X34902Y71402*X34899Y71371*X34879Y71340*X34849Y71314*X34818Y71309*X34784Y71314*X34753Y71335*X34730Y71371*X34420Y71309D2*X34497D1*X34527Y71325*X34550Y71345*X34569Y71376*X34585Y71412*X34589Y71464*X34585Y71516*X34569Y71552*X34550Y71583*X34527Y71604*X34497Y71619*X34420*Y71309*X29795Y72017D2*Y72292D1*X29883*Y72214*X30031*Y72302*X30297*X30415Y72184*X31281*X31389Y72292*X31675*Y72214*X31803*Y72292*X31901*Y72007*X31192Y71820D2*X30494D1*X31019Y71309D2*X30858D1*X30866Y71356*X30888Y71407*X30923Y71443*X31000Y71495*X31015Y71521*X31019Y71552*X31011Y71583*X30984Y71609*X30946Y71619*X30915Y71614*X30888Y71598*X30866Y71567*X30544Y71309D2*X30621D1*X30651Y71325*X30674Y71345*X30694Y71376*X30709Y71412*X30713Y71464*X30709Y71516*X30694Y71552*X30674Y71583*X30651Y71604*X30621Y71619*X30544*Y71309*X25768Y71560D2*X25606D1*X25614Y71606*X25637Y71658*X25672Y71694*X25748Y71746*X25764Y71772*X25768Y71803*X25760Y71834*X25733Y71860*X25695Y71870*X25664Y71865*X25637Y71849*X25614Y71818*X25300Y71689D2*X25392D1*X25427Y71705*X25446Y71736*X25454Y71777*X25446Y71818*X25423Y71854*X25392Y71870*X25300*Y71560*X24979Y71870D2*X25155D1*X25067D2*Y71560D1*X25919Y72017D2*Y72292D1*X26007*Y72214*X26155*Y72302*X26421*X26539Y72184*X27405*X27513Y72292*X27799*Y72214*X27927*Y72292*X28025*Y72007*X27316Y71820D2*X26618D1*X27016Y71309D2*X27108D1*X27016Y71557D2*X27062Y71619D1*Y71309*X26668D2*X26745D1*X26775Y71325*X26798Y71345*X26818Y71376*X26833Y71412*X26837Y71464*X26833Y71516*X26818Y71552*X26798Y71583*X26775Y71604*X26745Y71619*X26668*Y71309*X24401Y71960D2*X24493D1*X24401Y72208D2*X24447Y72270D1*Y71960*X24060Y72089D2*X24152D1*X24187Y72105*X24206Y72136*X24214Y72177*X24206Y72218*X24183Y72254*X24152Y72270*X24060*Y71960*X23739Y72270D2*X23915D1*X23827D2*Y71960D1*X20432Y71820D2*X19734D1*X20274Y71397D2*X20082D1*X20224Y71619*Y71309*X19784D2*X19861D1*X19891Y71325*X19914Y71345*X19933Y71376*X19949Y71412*X19953Y71464*X19949Y71516*X19933Y71552*X19914Y71583*X19891Y71604*X19861Y71619*X19784*Y71309*X19035Y72017D2*Y72292D1*X19123*Y72214*X19271*Y72302*X19537*X19655Y72184*X20521*X20629Y72292*X20915*Y72214*X21043*Y72292*X21141*Y72007*X15159Y72017D2*Y72292D1*X15247*Y72214*X15395*Y72302*X15661*X15779Y72184*X16645*X16753Y72292*X17039*Y72214*X17167*Y72292*X17265*Y72007*X16556Y71820D2*X15858D1*X16249Y71593D2*X16283Y71614D1*X16318Y71619*X16352Y71604*X16371Y71578*X16379Y71547*X16371Y71516*X16352Y71490*X16329Y71474*X16295*X16329D2*X16356Y71464D1*X16383Y71438*X16390Y71402*X16387Y71371*X16367Y71340*X16337Y71314*X16306Y71309*X16272Y71314*X16241Y71335*X16218Y71371*X15908Y71309D2*X15985D1*X16015Y71325*X16038Y71345*X16057Y71376*X16073Y71412*X16077Y71464*X16073Y71516*X16057Y71552*X16038Y71583*X16015Y71604*X15985Y71619*X15908*Y71309*X11283Y72017D2*Y72292D1*X11371*Y72214*X11519*Y72302*X11785*X11903Y72184*X12769*X12877Y72292*X13163*Y72214*X13291*Y72292*X13389*Y72007*X12680Y71820D2*X11982D1*X12507Y71309D2*X12346D1*X12354Y71356*X12376Y71407*X12411Y71443*X12488Y71495*X12503Y71521*X12507Y71552*X12499Y71583*X12472Y71609*X12434Y71619*X12403Y71614*X12376Y71598*X12354Y71567*X12032Y71309D2*X12109D1*X12139Y71325*X12162Y71345*X12182Y71376*X12197Y71412*X12201Y71464*X12197Y71516*X12182Y71552*X12162Y71583*X12139Y71604*X12109Y71619*X12032*Y71309*X7256Y71560D2*X7094D1*X7102Y71606*X7125Y71658*X7160Y71694*X7236Y71746*X7252Y71772*X7256Y71803*X7248Y71834*X7221Y71860*X7183Y71870*X7152Y71865*X7125Y71849*X7102Y71818*X6788Y71689D2*X6880D1*X6915Y71705*X6934Y71736*X6942Y71777*X6934Y71818*X6911Y71854*X6880Y71870*X6788*Y71560*X6467Y71870D2*X6643D1*X6555D2*Y71560D1*X7407Y72017D2*Y72292D1*X7495*Y72214*X7643*Y72302*X7909*X8027Y72184*X8893*X9001Y72292*X9287*Y72214*X9415*Y72292*X9513*Y72007*X8804Y71820D2*X8106D1*X8504Y71309D2*X8596D1*X8504Y71557D2*X8550Y71619D1*Y71309*X8156D2*X8233D1*X8263Y71325*X8286Y71345*X8306Y71376*X8321Y71412*X8325Y71464*X8321Y71516*X8306Y71552*X8286Y71583*X8263Y71604*X8233Y71619*X8156*Y71309*X5889Y71960D2*X5981D1*X5889Y72208D2*X5935Y72270D1*Y71960*X5548Y72089D2*X5640D1*X5675Y72105*X5694Y72136*X5702Y72177*X5694Y72218*X5671Y72254*X5640Y72270*X5548*Y71960*X5227Y72270D2*X5403D1*X5315D2*Y71960D1*X20432Y67900D2*X19734D1*X20274Y67477D2*X20082D1*X20224Y67699*Y67389*X19784D2*X19861D1*X19891Y67405*X19914Y67425*X19933Y67456*X19949Y67492*X19953Y67544*X19949Y67596*X19933Y67632*X19914Y67663*X19891Y67684*X19861Y67699*X19784*Y67389*X19035Y68097D2*Y68372D1*X19123*Y68294*X19271*Y68382*X19537*X19655Y68264*X20521*X20629Y68372*X20915*Y68294*X21043*Y68372*X21141*Y68087*X15159Y68097D2*Y68372D1*X15247*Y68294*X15395*Y68382*X15661*X15779Y68264*X16645*X16753Y68372*X17039*Y68294*X17167*Y68372*X17265*Y68087*X16556Y67900D2*X15858D1*X16249Y67673D2*X16283Y67694D1*X16318Y67699*X16352Y67684*X16371Y67658*X16379Y67627*X16371Y67596*X16352Y67570*X16329Y67554*X16295*X16329D2*X16356Y67544D1*X16383Y67518*X16390Y67482*X16387Y67451*X16367Y67420*X16337Y67394*X16306Y67389*X16272Y67394*X16241Y67415*X16218Y67451*X15908Y67389D2*X15985D1*X16015Y67405*X16038Y67425*X16057Y67456*X16073Y67492*X16077Y67544*X16073Y67596*X16057Y67632*X16038Y67663*X16015Y67684*X15985Y67699*X15908*Y67389*X11283Y68097D2*Y68372D1*X11371*Y68294*X11519*Y68382*X11785*X11903Y68264*X12769*X12877Y68372*X13163*Y68294*X13291*Y68372*X13389*Y68087*X12680Y67900D2*X11982D1*X12507Y67389D2*X12346D1*X12354Y67436*X12376Y67487*X12411Y67523*X12488Y67575*X12503Y67601*X12507Y67632*X12499Y67663*X12472Y67689*X12434Y67699*X12403Y67694*X12376Y67678*X12354Y67647*X12032Y67389D2*X12109D1*X12139Y67405*X12162Y67425*X12182Y67456*X12197Y67492*X12201Y67544*X12197Y67596*X12182Y67632*X12162Y67663*X12139Y67684*X12109Y67699*X12032*Y67389*X7256Y67640D2*X7094D1*X7102Y67686*X7125Y67738*X7160Y67774*X7236Y67826*X7252Y67852*X7256Y67883*X7248Y67914*X7221Y67940*X7183Y67950*X7152Y67945*X7125Y67929*X7102Y67898*X6788Y67769D2*X6880D1*X6915Y67785*X6934Y67816*X6942Y67857*X6934Y67898*X6911Y67934*X6880Y67950*X6788*Y67640*X6467Y67950D2*X6643D1*X6555D2*Y67640D1*X7407Y68097D2*Y68372D1*X7495*Y68294*X7643*Y68382*X7909*X8027Y68264*X8893*X9001Y68372*X9287*Y68294*X9415*Y68372*X9513*Y68087*X8804Y67900D2*X8106D1*X8504Y67389D2*X8596D1*X8504Y67637D2*X8550Y67699D1*Y67389*X8156D2*X8233D1*X8263Y67405*X8286Y67425*X8306Y67456*X8321Y67492*X8325Y67544*X8321Y67596*X8306Y67632*X8286Y67663*X8263Y67684*X8233Y67699*X8156*Y67389*X5889Y68040D2*X5981D1*X5889Y68288D2*X5935Y68350D1*Y68040*X5548Y68169D2*X5640D1*X5675Y68185*X5694Y68216*X5702Y68257*X5694Y68298*X5671Y68334*X5640Y68350*X5548*Y68040*X5227Y68350D2*X5403D1*X5315D2*Y68040D1*X38944Y67900D2*X38246D1*X38786Y67477D2*X38594D1*X38736Y67699*Y67389*X38296D2*X38373D1*X38403Y67405*X38426Y67425*X38445Y67456*X38461Y67492*X38465Y67544*X38461Y67596*X38445Y67632*X38426Y67663*X38403Y67684*X38373Y67699*X38296*Y67389*X37547Y68097D2*Y68372D1*X37635*Y68294*X37783*Y68382*X38049*X38167Y68264*X39033*X39141Y68372*X39427*Y68294*X39555*Y68372*X39653*Y68087*X33671Y68097D2*Y68372D1*X33759*Y68294*X33907*Y68382*X34173*X34291Y68264*X35157*X35265Y68372*X35551*Y68294*X35679*Y68372*X35777*Y68087*X35068Y67900D2*X34370D1*X34761Y67673D2*X34795Y67694D1*X34830Y67699*X34864Y67684*X34883Y67658*X34891Y67627*X34883Y67596*X34864Y67570*X34841Y67554*X34807*X34841D2*X34868Y67544D1*X34895Y67518*X34902Y67482*X34899Y67451*X34879Y67420*X34849Y67394*X34818Y67389*X34784Y67394*X34753Y67415*X34730Y67451*X34420Y67389D2*X34497D1*X34527Y67405*X34550Y67425*X34569Y67456*X34585Y67492*X34589Y67544*X34585Y67596*X34569Y67632*X34550Y67663*X34527Y67684*X34497Y67699*X34420*Y67389*X29795Y68097D2*Y68372D1*X29883*Y68294*X30031*Y68382*X30297*X30415Y68264*X31281*X31389Y68372*X31675*Y68294*X31803*Y68372*X31901*Y68087*X31192Y67900D2*X30494D1*X31019Y67389D2*X30858D1*X30866Y67436*X30888Y67487*X30923Y67523*X31000Y67575*X31015Y67601*X31019Y67632*X31011Y67663*X30984Y67689*X30946Y67699*X30915Y67694*X30888Y67678*X30866Y67647*X30544Y67389D2*X30621D1*X30651Y67405*X30674Y67425*X30694Y67456*X30709Y67492*X30713Y67544*X30709Y67596*X30694Y67632*X30674Y67663*X30651Y67684*X30621Y67699*X30544*Y67389*X25768Y67640D2*X25606D1*X25614Y67686*X25637Y67738*X25672Y67774*X25748Y67826*X25764Y67852*X25768Y67883*X25760Y67914*X25733Y67940*X25695Y67950*X25664Y67945*X25637Y67929*X25614Y67898*X25300Y67769D2*X25392D1*X25427Y67785*X25446Y67816*X25454Y67857*X25446Y67898*X25423Y67934*X25392Y67950*X25300*Y67640*X24979Y67950D2*X25155D1*X25067D2*Y67640D1*X25919Y68097D2*Y68372D1*X26007*Y68294*X26155*Y68382*X26421*X26539Y68264*X27405*X27513Y68372*X27799*Y68294*X27927*Y68372*X28025*Y68087*X27316Y67900D2*X26618D1*X27016Y67389D2*X27108D1*X27016Y67637D2*X27062Y67699D1*Y67389*X26668D2*X26745D1*X26775Y67405*X26798Y67425*X26818Y67456*X26833Y67492*X26837Y67544*X26833Y67596*X26818Y67632*X26798Y67663*X26775Y67684*X26745Y67699*X26668*Y67389*X24401Y68040D2*X24493D1*X24401Y68288D2*X24447Y68350D1*Y68040*X24060Y68169D2*X24152D1*X24187Y68185*X24206Y68216*X24214Y68257*X24206Y68298*X24183Y68334*X24152Y68350*X24060*Y68040*X23739Y68350D2*X23915D1*X23827D2*Y68040D1*X57456Y67900D2*X56758D1*X57298Y67477D2*X57106D1*X57248Y67699*Y67389*X56808D2*X56885D1*X56915Y67405*X56938Y67425*X56957Y67456*X56973Y67492*X56977Y67544*X56973Y67596*X56957Y67632*X56938Y67663*X56915Y67684*X56885Y67699*X56808*Y67389*X56059Y68097D2*Y68372D1*X56147*Y68294*X56295*Y68382*X56561*X56679Y68264*X57545*X57653Y68372*X57939*Y68294*X58067*Y68372*X58165*Y68087*X52183Y68097D2*Y68372D1*X52271*Y68294*X52419*Y68382*X52685*X52803Y68264*X53669*X53777Y68372*X54063*Y68294*X54191*Y68372*X54289*Y68087*X53580Y67900D2*X52882D1*X53273Y67673D2*X53307Y67694D1*X53342Y67699*X53376Y67684*X53395Y67658*X53403Y67627*X53395Y67596*X53376Y67570*X53353Y67554*X53319*X53353D2*X53380Y67544D1*X53407Y67518*X53414Y67482*X53411Y67451*X53391Y67420*X53361Y67394*X53330Y67389*X53296Y67394*X53265Y67415*X53242Y67451*X52932Y67389D2*X53009D1*X53039Y67405*X53062Y67425*X53081Y67456*X53097Y67492*X53101Y67544*X53097Y67596*X53081Y67632*X53062Y67663*X53039Y67684*X53009Y67699*X52932*Y67389*X48307Y68097D2*Y68372D1*X48395*Y68294*X48543*Y68382*X48809*X48927Y68264*X49793*X49901Y68372*X50187*Y68294*X50315*Y68372*X50413*Y68087*X49704Y67900D2*X49006D1*X49531Y67389D2*X49370D1*X49378Y67436*X49400Y67487*X49435Y67523*X49512Y67575*X49527Y67601*X49531Y67632*X49523Y67663*X49496Y67689*X49458Y67699*X49427Y67694*X49400Y67678*X49378Y67647*X49056Y67389D2*X49133D1*X49163Y67405*X49186Y67425*X49206Y67456*X49221Y67492*X49225Y67544*X49221Y67596*X49206Y67632*X49186Y67663*X49163Y67684*X49133Y67699*X49056*Y67389*X44280Y67640D2*X44118D1*X44126Y67686*X44149Y67738*X44184Y67774*X44260Y67826*X44276Y67852*X44280Y67883*X44272Y67914*X44245Y67940*X44207Y67950*X44176Y67945*X44149Y67929*X44126Y67898*X43812Y67769D2*X43904D1*X43939Y67785*X43958Y67816*X43966Y67857*X43958Y67898*X43935Y67934*X43904Y67950*X43812*Y67640*X43491Y67950D2*X43667D1*X43579D2*Y67640D1*X44431Y68097D2*Y68372D1*X44519*Y68294*X44667*Y68382*X44933*X45051Y68264*X45917*X46025Y68372*X46311*Y68294*X46439*Y68372*X46537*Y68087*X45828Y67900D2*X45130D1*X45528Y67389D2*X45620D1*X45528Y67637D2*X45574Y67699D1*Y67389*X45180D2*X45257D1*X45287Y67405*X45310Y67425*X45330Y67456*X45345Y67492*X45349Y67544*X45345Y67596*X45330Y67632*X45310Y67663*X45287Y67684*X45257Y67699*X45180*Y67389*X42913Y68040D2*X43005D1*X42913Y68288D2*X42959Y68350D1*Y68040*X42572Y68169D2*X42664D1*X42699Y68185*X42718Y68216*X42726Y68257*X42718Y68298*X42695Y68334*X42664Y68350*X42572*Y68040*X42251Y68350D2*X42427D1*X42339D2*Y68040D1*X57456Y63980D2*X56758D1*X57298Y63557D2*X57106D1*X57248Y63779*Y63469*X56808D2*X56885D1*X56915Y63485*X56938Y63505*X56957Y63536*X56973Y63572*X56977Y63624*X56973Y63676*X56957Y63712*X56938Y63743*X56915Y63764*X56885Y63779*X56808*Y63469*X56059Y64177D2*Y64452D1*X56147*Y64374*X56295*Y64462*X56561*X56679Y64344*X57545*X57653Y64452*X57939*Y64374*X58067*Y64452*X58165*Y64167*X52183Y64177D2*Y64452D1*X52271*Y64374*X52419*Y64462*X52685*X52803Y64344*X53669*X53777Y64452*X54063*Y64374*X54191*Y64452*X54289*Y64167*X53580Y63980D2*X52882D1*X53273Y63753D2*X53307Y63774D1*X53342Y63779*X53376Y63764*X53395Y63738*X53403Y63707*X53395Y63676*X53376Y63650*X53353Y63634*X53319*X53353D2*X53380Y63624D1*X53407Y63598*X53414Y63562*X53411Y63531*X53391Y63500*X53361Y63474*X53330Y63469*X53296Y63474*X53265Y63495*X53242Y63531*X52932Y63469D2*X53009D1*X53039Y63485*X53062Y63505*X53081Y63536*X53097Y63572*X53101Y63624*X53097Y63676*X53081Y63712*X53062Y63743*X53039Y63764*X53009Y63779*X52932*Y63469*X48307Y64177D2*Y64452D1*X48395*Y64374*X48543*Y64462*X48809*X48927Y64344*X49793*X49901Y64452*X50187*Y64374*X50315*Y64452*X50413*Y64167*X49704Y63980D2*X49006D1*X49531Y63469D2*X49370D1*X49378Y63516*X49400Y63567*X49435Y63603*X49512Y63655*X49527Y63681*X49531Y63712*X49523Y63743*X49496Y63769*X49458Y63779*X49427Y63774*X49400Y63758*X49378Y63727*X49056Y63469D2*X49133D1*X49163Y63485*X49186Y63505*X49206Y63536*X49221Y63572*X49225Y63624*X49221Y63676*X49206Y63712*X49186Y63743*X49163Y63764*X49133Y63779*X49056*Y63469*X44280Y63720D2*X44118D1*X44126Y63766*X44149Y63818*X44184Y63854*X44260Y63906*X44276Y63932*X44280Y63963*X44272Y63994*X44245Y64020*X44207Y64030*X44176Y64025*X44149Y64009*X44126Y63978*X43812Y63849D2*X43904D1*X43939Y63865*X43958Y63896*X43966Y63937*X43958Y63978*X43935Y64014*X43904Y64030*X43812*Y63720*X43491Y64030D2*X43667D1*X43579D2*Y63720D1*X44431Y64177D2*Y64452D1*X44519*Y64374*X44667*Y64462*X44933*X45051Y64344*X45917*X46025Y64452*X46311*Y64374*X46439*Y64452*X46537*Y64167*X45828Y63980D2*X45130D1*X45528Y63469D2*X45620D1*X45528Y63717D2*X45574Y63779D1*Y63469*X45180D2*X45257D1*X45287Y63485*X45310Y63505*X45330Y63536*X45345Y63572*X45349Y63624*X45345Y63676*X45330Y63712*X45310Y63743*X45287Y63764*X45257Y63779*X45180*Y63469*X42913Y64120D2*X43005D1*X42913Y64368D2*X42959Y64430D1*Y64120*X42572Y64249D2*X42664D1*X42699Y64265*X42718Y64296*X42726Y64337*X42718Y64378*X42695Y64414*X42664Y64430*X42572*Y64120*X42251Y64430D2*X42427D1*X42339D2*Y64120D1*X38944Y63980D2*X38246D1*X38786Y63557D2*X38594D1*X38736Y63779*Y63469*X38296D2*X38373D1*X38403Y63485*X38426Y63505*X38445Y63536*X38461Y63572*X38465Y63624*X38461Y63676*X38445Y63712*X38426Y63743*X38403Y63764*X38373Y63779*X38296*Y63469*X37547Y64177D2*Y64452D1*X37635*Y64374*X37783*Y64462*X38049*X38167Y64344*X39033*X39141Y64452*X39427*Y64374*X39555*Y64452*X39653*Y64167*X33671Y64177D2*Y64452D1*X33759*Y64374*X33907*Y64462*X34173*X34291Y64344*X35157*X35265Y64452*X35551*Y64374*X35679*Y64452*X35777*Y64167*X35068Y63980D2*X34370D1*X34761Y63753D2*X34795Y63774D1*X34830Y63779*X34864Y63764*X34883Y63738*X34891Y63707*X34883Y63676*X34864Y63650*X34841Y63634*X34807*X34841D2*X34868Y63624D1*X34895Y63598*X34902Y63562*X34899Y63531*X34879Y63500*X34849Y63474*X34818Y63469*X34784Y63474*X34753Y63495*X34730Y63531*X34420Y63469D2*X34497D1*X34527Y63485*X34550Y63505*X34569Y63536*X34585Y63572*X34589Y63624*X34585Y63676*X34569Y63712*X34550Y63743*X34527Y63764*X34497Y63779*X34420*Y63469*X29795Y64177D2*Y64452D1*X29883*Y64374*X30031*Y64462*X30297*X30415Y64344*X31281*X31389Y64452*X31675*Y64374*X31803*Y64452*X31901*Y64167*X31192Y63980D2*X30494D1*X31019Y63469D2*X30858D1*X30866Y63516*X30888Y63567*X30923Y63603*X31000Y63655*X31015Y63681*X31019Y63712*X31011Y63743*X30984Y63769*X30946Y63779*X30915Y63774*X30888Y63758*X30866Y63727*X30544Y63469D2*X30621D1*X30651Y63485*X30674Y63505*X30694Y63536*X30709Y63572*X30713Y63624*X30709Y63676*X30694Y63712*X30674Y63743*X30651Y63764*X30621Y63779*X30544*Y63469*X25768Y63720D2*X25606D1*X25614Y63766*X25637Y63818*X25672Y63854*X25748Y63906*X25764Y63932*X25768Y63963*X25760Y63994*X25733Y64020*X25695Y64030*X25664Y64025*X25637Y64009*X25614Y63978*X25300Y63849D2*X25392D1*X25427Y63865*X25446Y63896*X25454Y63937*X25446Y63978*X25423Y64014*X25392Y64030*X25300*Y63720*X24979Y64030D2*X25155D1*X25067D2*Y63720D1*X25919Y64177D2*Y64452D1*X26007*Y64374*X26155*Y64462*X26421*X26539Y64344*X27405*X27513Y64452*X27799*Y64374*X27927*Y64452*X28025*Y64167*X27316Y63980D2*X26618D1*X27016Y63469D2*X27108D1*X27016Y63717D2*X27062Y63779D1*Y63469*X26668D2*X26745D1*X26775Y63485*X26798Y63505*X26818Y63536*X26833Y63572*X26837Y63624*X26833Y63676*X26818Y63712*X26798Y63743*X26775Y63764*X26745Y63779*X26668*Y63469*X24401Y64120D2*X24493D1*X24401Y64368D2*X24447Y64430D1*Y64120*X24060Y64249D2*X24152D1*X24187Y64265*X24206Y64296*X24214Y64337*X24206Y64378*X24183Y64414*X24152Y64430*X24060*Y64120*X23739Y64430D2*X23915D1*X23827D2*Y64120D1*X20432Y63980D2*X19734D1*X20274Y63557D2*X20082D1*X20224Y63779*Y63469*X19784D2*X19861D1*X19891Y63485*X19914Y63505*X19933Y63536*X19949Y63572*X19953Y63624*X19949Y63676*X19933Y63712*X19914Y63743*X19891Y63764*X19861Y63779*X19784*Y63469*X19035Y64177D2*Y64452D1*X19123*Y64374*X19271*Y64462*X19537*X19655Y64344*X20521*X20629Y64452*X20915*Y64374*X21043*Y64452*X21141*Y64167*X15159Y64177D2*Y64452D1*X15247*Y64374*X15395*Y64462*X15661*X15779Y64344*X16645*X16753Y64452*X17039*Y64374*X17167*Y64452*X17265*Y64167*X16556Y63980D2*X15858D1*X16249Y63753D2*X16283Y63774D1*X16318Y63779*X16352Y63764*X16371Y63738*X16379Y63707*X16371Y63676*X16352Y63650*X16329Y63634*X16295*X16329D2*X16356Y63624D1*X16383Y63598*X16390Y63562*X16387Y63531*X16367Y63500*X16337Y63474*X16306Y63469*X16272Y63474*X16241Y63495*X16218Y63531*X15908Y63469D2*X15985D1*X16015Y63485*X16038Y63505*X16057Y63536*X16073Y63572*X16077Y63624*X16073Y63676*X16057Y63712*X16038Y63743*X16015Y63764*X15985Y63779*X15908*Y63469*X11283Y64177D2*Y64452D1*X11371*Y64374*X11519*Y64462*X11785*X11903Y64344*X12769*X12877Y64452*X13163*Y64374*X13291*Y64452*X13389*Y64167*X12680Y63980D2*X11982D1*X12507Y63469D2*X12346D1*X12354Y63516*X12376Y63567*X12411Y63603*X12488Y63655*X12503Y63681*X12507Y63712*X12499Y63743*X12472Y63769*X12434Y63779*X12403Y63774*X12376Y63758*X12354Y63727*X12032Y63469D2*X12109D1*X12139Y63485*X12162Y63505*X12182Y63536*X12197Y63572*X12201Y63624*X12197Y63676*X12182Y63712*X12162Y63743*X12139Y63764*X12109Y63779*X12032*Y63469*X7256Y63720D2*X7094D1*X7102Y63766*X7125Y63818*X7160Y63854*X7236Y63906*X7252Y63932*X7256Y63963*X7248Y63994*X7221Y64020*X7183Y64030*X7152Y64025*X7125Y64009*X7102Y63978*X6788Y63849D2*X6880D1*X6915Y63865*X6934Y63896*X6942Y63937*X6934Y63978*X6911Y64014*X6880Y64030*X6788*Y63720*X6467Y64030D2*X6643D1*X6555D2*Y63720D1*X7407Y64177D2*Y64452D1*X7495*Y64374*X7643*Y64462*X7909*X8027Y64344*X8893*X9001Y64452*X9287*Y64374*X9415*Y64452*X9513*Y64167*X8804Y63980D2*X8106D1*X8504Y63469D2*X8596D1*X8504Y63717D2*X8550Y63779D1*Y63469*X8156D2*X8233D1*X8263Y63485*X8286Y63505*X8306Y63536*X8321Y63572*X8325Y63624*X8321Y63676*X8306Y63712*X8286Y63743*X8263Y63764*X8233Y63779*X8156*Y63469*X5889Y64120D2*X5981D1*X5889Y64368D2*X5935Y64430D1*Y64120*X5548Y64249D2*X5640D1*X5675Y64265*X5694Y64296*X5702Y64337*X5694Y64378*X5671Y64414*X5640Y64430*X5548*Y64120*X5227Y64430D2*X5403D1*X5315D2*Y64120D1*X20432Y60060D2*X19734D1*X20274Y59637D2*X20082D1*X20224Y59859*Y59549*X19784D2*X19861D1*X19891Y59565*X19914Y59585*X19933Y59616*X19949Y59652*X19953Y59704*X19949Y59756*X19933Y59792*X19914Y59823*X19891Y59844*X19861Y59859*X19784*Y59549*X19035Y60257D2*Y60532D1*X19123*Y60454*X19271*Y60542*X19537*X19655Y60424*X20521*X20629Y60532*X20915*Y60454*X21043*Y60532*X21141*Y60247*X15159Y60257D2*Y60532D1*X15247*Y60454*X15395*Y60542*X15661*X15779Y60424*X16645*X16753Y60532*X17039*Y60454*X17167*Y60532*X17265*Y60247*X16556Y60060D2*X15858D1*X16249Y59833D2*X16283Y59854D1*X16318Y59859*X16352Y59844*X16371Y59818*X16379Y59787*X16371Y59756*X16352Y59730*X16329Y59714*X16295*X16329D2*X16356Y59704D1*X16383Y59678*X16390Y59642*X16387Y59611*X16367Y59580*X16337Y59554*X16306Y59549*X16272Y59554*X16241Y59575*X16218Y59611*X15908Y59549D2*X15985D1*X16015Y59565*X16038Y59585*X16057Y59616*X16073Y59652*X16077Y59704*X16073Y59756*X16057Y59792*X16038Y59823*X16015Y59844*X15985Y59859*X15908*Y59549*X11283Y60257D2*Y60532D1*X11371*Y60454*X11519*Y60542*X11785*X11903Y60424*X12769*X12877Y60532*X13163*Y60454*X13291*Y60532*X13389*Y60247*X12680Y60060D2*X11982D1*X12507Y59549D2*X12346D1*X12354Y59596*X12376Y59647*X12411Y59683*X12488Y59735*X12503Y59761*X12507Y59792*X12499Y59823*X12472Y59849*X12434Y59859*X12403Y59854*X12376Y59838*X12354Y59807*X12032Y59549D2*X12109D1*X12139Y59565*X12162Y59585*X12182Y59616*X12197Y59652*X12201Y59704*X12197Y59756*X12182Y59792*X12162Y59823*X12139Y59844*X12109Y59859*X12032*Y59549*X7256Y59800D2*X7094D1*X7102Y59846*X7125Y59898*X7160Y59934*X7236Y59986*X7252Y60012*X7256Y60043*X7248Y60074*X7221Y60100*X7183Y60110*X7152Y60105*X7125Y60089*X7102Y60058*X6788Y59929D2*X6880D1*X6915Y59945*X6934Y59976*X6942Y60017*X6934Y60058*X6911Y60094*X6880Y60110*X6788*Y59800*X6467Y60110D2*X6643D1*X6555D2*Y59800D1*X7407Y60257D2*Y60532D1*X7495*Y60454*X7643*Y60542*X7909*X8027Y60424*X8893*X9001Y60532*X9287*Y60454*X9415*Y60532*X9513*Y60247*X8804Y60060D2*X8106D1*X8504Y59549D2*X8596D1*X8504Y59797D2*X8550Y59859D1*Y59549*X8156D2*X8233D1*X8263Y59565*X8286Y59585*X8306Y59616*X8321Y59652*X8325Y59704*X8321Y59756*X8306Y59792*X8286Y59823*X8263Y59844*X8233Y59859*X8156*Y59549*X5889Y60200D2*X5981D1*X5889Y60448D2*X5935Y60510D1*Y60200*X5548Y60329D2*X5640D1*X5675Y60345*X5694Y60376*X5702Y60417*X5694Y60458*X5671Y60494*X5640Y60510*X5548*Y60200*X5227Y60510D2*X5403D1*X5315D2*Y60200D1*X38944Y60060D2*X38246D1*X38786Y59637D2*X38594D1*X38736Y59859*Y59549*X38296D2*X38373D1*X38403Y59565*X38426Y59585*X38445Y59616*X38461Y59652*X38465Y59704*X38461Y59756*X38445Y59792*X38426Y59823*X38403Y59844*X38373Y59859*X38296*Y59549*X37547Y60257D2*Y60532D1*X37635*Y60454*X37783*Y60542*X38049*X38167Y60424*X39033*X39141Y60532*X39427*Y60454*X39555*Y60532*X39653*Y60247*X33671Y60257D2*Y60532D1*X33759*Y60454*X33907*Y60542*X34173*X34291Y60424*X35157*X35265Y60532*X35551*Y60454*X35679*Y60532*X35777*Y60247*X35068Y60060D2*X34370D1*X34761Y59833D2*X34795Y59854D1*X34830Y59859*X34864Y59844*X34883Y59818*X34891Y59787*X34883Y59756*X34864Y59730*X34841Y59714*X34807*X34841D2*X34868Y59704D1*X34895Y59678*X34902Y59642*X34899Y59611*X34879Y59580*X34849Y59554*X34818Y59549*X34784Y59554*X34753Y59575*X34730Y59611*X34420Y59549D2*X34497D1*X34527Y59565*X34550Y59585*X34569Y59616*X34585Y59652*X34589Y59704*X34585Y59756*X34569Y59792*X34550Y59823*X34527Y59844*X34497Y59859*X34420*Y59549*X29795Y60257D2*Y60532D1*X29883*Y60454*X30031*Y60542*X30297*X30415Y60424*X31281*X31389Y60532*X31675*Y60454*X31803*Y60532*X31901*Y60247*X31192Y60060D2*X30494D1*X31019Y59549D2*X30858D1*X30866Y59596*X30888Y59647*X30923Y59683*X31000Y59735*X31015Y59761*X31019Y59792*X31011Y59823*X30984Y59849*X30946Y59859*X30915Y59854*X30888Y59838*X30866Y59807*X30544Y59549D2*X30621D1*X30651Y59565*X30674Y59585*X30694Y59616*X30709Y59652*X30713Y59704*X30709Y59756*X30694Y59792*X30674Y59823*X30651Y59844*X30621Y59859*X30544*Y59549*X25768Y59800D2*X25606D1*X25614Y59846*X25637Y59898*X25672Y59934*X25748Y59986*X25764Y60012*X25768Y60043*X25760Y60074*X25733Y60100*X25695Y60110*X25664Y60105*X25637Y60089*X25614Y60058*X25300Y59929D2*X25392D1*X25427Y59945*X25446Y59976*X25454Y60017*X25446Y60058*X25423Y60094*X25392Y60110*X25300*Y59800*X24979Y60110D2*X25155D1*X25067D2*Y59800D1*X25919Y60257D2*Y60532D1*X26007*Y60454*X26155*Y60542*X26421*X26539Y60424*X27405*X27513Y60532*X27799*Y60454*X27927*Y60532*X28025*Y60247*X27316Y60060D2*X26618D1*X27016Y59549D2*X27108D1*X27016Y59797D2*X27062Y59859D1*Y59549*X26668D2*X26745D1*X26775Y59565*X26798Y59585*X26818Y59616*X26833Y59652*X26837Y59704*X26833Y59756*X26818Y59792*X26798Y59823*X26775Y59844*X26745Y59859*X26668*Y59549*X24401Y60200D2*X24493D1*X24401Y60448D2*X24447Y60510D1*Y60200*X24060Y60329D2*X24152D1*X24187Y60345*X24206Y60376*X24214Y60417*X24206Y60458*X24183Y60494*X24152Y60510*X24060*Y60200*X23739Y60510D2*X23915D1*X23827D2*Y60200D1*X57456Y60060D2*X56758D1*X57298Y59637D2*X57106D1*X57248Y59859*Y59549*X56808D2*X56885D1*X56915Y59565*X56938Y59585*X56957Y59616*X56973Y59652*X56977Y59704*X56973Y59756*X56957Y59792*X56938Y59823*X56915Y59844*X56885Y59859*X56808*Y59549*X56059Y60257D2*Y60532D1*X56147*Y60454*X56295*Y60542*X56561*X56679Y60424*X57545*X57653Y60532*X57939*Y60454*X58067*Y60532*X58165*Y60247*X52183Y60257D2*Y60532D1*X52271*Y60454*X52419*Y60542*X52685*X52803Y60424*X53669*X53777Y60532*X54063*Y60454*X54191*Y60532*X54289*Y60247*X53580Y60060D2*X52882D1*X53273Y59833D2*X53307Y59854D1*X53342Y59859*X53376Y59844*X53395Y59818*X53403Y59787*X53395Y59756*X53376Y59730*X53353Y59714*X53319*X53353D2*X53380Y59704D1*X53407Y59678*X53414Y59642*X53411Y59611*X53391Y59580*X53361Y59554*X53330Y59549*X53296Y59554*X53265Y59575*X53242Y59611*X52932Y59549D2*X53009D1*X53039Y59565*X53062Y59585*X53081Y59616*X53097Y59652*X53101Y59704*X53097Y59756*X53081Y59792*X53062Y59823*X53039Y59844*X53009Y59859*X52932*Y59549*X48307Y60257D2*Y60532D1*X48395*Y60454*X48543*Y60542*X48809*X48927Y60424*X49793*X49901Y60532*X50187*Y60454*X50315*Y60532*X50413*Y60247*X49704Y60060D2*X49006D1*X49531Y59549D2*X49370D1*X49378Y59596*X49400Y59647*X49435Y59683*X49512Y59735*X49527Y59761*X49531Y59792*X49523Y59823*X49496Y59849*X49458Y59859*X49427Y59854*X49400Y59838*X49378Y59807*X49056Y59549D2*X49133D1*X49163Y59565*X49186Y59585*X49206Y59616*X49221Y59652*X49225Y59704*X49221Y59756*X49206Y59792*X49186Y59823*X49163Y59844*X49133Y59859*X49056*Y59549*X44280Y59800D2*X44118D1*X44126Y59846*X44149Y59898*X44184Y59934*X44260Y59986*X44276Y60012*X44280Y60043*X44272Y60074*X44245Y60100*X44207Y60110*X44176Y60105*X44149Y60089*X44126Y60058*X43812Y59929D2*X43904D1*X43939Y59945*X43958Y59976*X43966Y60017*X43958Y60058*X43935Y60094*X43904Y60110*X43812*Y59800*X43491Y60110D2*X43667D1*X43579D2*Y59800D1*X44431Y60257D2*Y60532D1*X44519*Y60454*X44667*Y60542*X44933*X45051Y60424*X45917*X46025Y60532*X46311*Y60454*X46439*Y60532*X46537*Y60247*X45828Y60060D2*X45130D1*X45528Y59549D2*X45620D1*X45528Y59797D2*X45574Y59859D1*Y59549*X45180D2*X45257D1*X45287Y59565*X45310Y59585*X45330Y59616*X45345Y59652*X45349Y59704*X45345Y59756*X45330Y59792*X45310Y59823*X45287Y59844*X45257Y59859*X45180*Y59549*X42913Y60200D2*X43005D1*X42913Y60448D2*X42959Y60510D1*Y60200*X42572Y60329D2*X42664D1*X42699Y60345*X42718Y60376*X42726Y60417*X42718Y60458*X42695Y60494*X42664Y60510*X42572*Y60200*X42251Y60510D2*X42427D1*X42339D2*Y60200D1*X57456Y56140D2*X56758D1*X57298Y55717D2*X57106D1*X57248Y55939*Y55629*X56808D2*X56885D1*X56915Y55645*X56938Y55665*X56957Y55696*X56973Y55732*X56977Y55784*X56973Y55836*X56957Y55872*X56938Y55903*X56915Y55924*X56885Y55939*X56808*Y55629*X56059Y56337D2*Y56612D1*X56147*Y56534*X56295*Y56622*X56561*X56679Y56504*X57545*X57653Y56612*X57939*Y56534*X58067*Y56612*X58165*Y56327*X52183Y56337D2*Y56612D1*X52271*Y56534*X52419*Y56622*X52685*X52803Y56504*X53669*X53777Y56612*X54063*Y56534*X54191*Y56612*X54289*Y56327*X53580Y56140D2*X52882D1*X53273Y55913D2*X53307Y55934D1*X53342Y55939*X53376Y55924*X53395Y55898*X53403Y55867*X53395Y55836*X53376Y55810*X53353Y55794*X53319*X53353D2*X53380Y55784D1*X53407Y55758*X53414Y55722*X53411Y55691*X53391Y55660*X53361Y55634*X53330Y55629*X53296Y55634*X53265Y55655*X53242Y55691*X52932Y55629D2*X53009D1*X53039Y55645*X53062Y55665*X53081Y55696*X53097Y55732*X53101Y55784*X53097Y55836*X53081Y55872*X53062Y55903*X53039Y55924*X53009Y55939*X52932*Y55629*X48307Y56337D2*Y56612D1*X48395*Y56534*X48543*Y56622*X48809*X48927Y56504*X49793*X49901Y56612*X50187*Y56534*X50315*Y56612*X50413*Y56327*X49704Y56140D2*X49006D1*X49531Y55629D2*X49370D1*X49378Y55676*X49400Y55727*X49435Y55763*X49512Y55815*X49527Y55841*X49531Y55872*X49523Y55903*X49496Y55929*X49458Y55939*X49427Y55934*X49400Y55918*X49378Y55887*X49056Y55629D2*X49133D1*X49163Y55645*X49186Y55665*X49206Y55696*X49221Y55732*X49225Y55784*X49221Y55836*X49206Y55872*X49186Y55903*X49163Y55924*X49133Y55939*X49056*Y55629*X44280Y55880D2*X44118D1*X44126Y55926*X44149Y55978*X44184Y56014*X44260Y56066*X44276Y56092*X44280Y56123*X44272Y56154*X44245Y56180*X44207Y56190*X44176Y56185*X44149Y56169*X44126Y56138*X43812Y56009D2*X43904D1*X43939Y56025*X43958Y56056*X43966Y56097*X43958Y56138*X43935Y56174*X43904Y56190*X43812*Y55880*X43491Y56190D2*X43667D1*X43579D2*Y55880D1*X44431Y56337D2*Y56612D1*X44519*Y56534*X44667*Y56622*X44933*X45051Y56504*X45917*X46025Y56612*X46311*Y56534*X46439*Y56612*X46537*Y56327*X45828Y56140D2*X45130D1*X45528Y55629D2*X45620D1*X45528Y55877D2*X45574Y55939D1*Y55629*X45180D2*X45257D1*X45287Y55645*X45310Y55665*X45330Y55696*X45345Y55732*X45349Y55784*X45345Y55836*X45330Y55872*X45310Y55903*X45287Y55924*X45257Y55939*X45180*Y55629*X42913Y56280D2*X43005D1*X42913Y56528D2*X42959Y56590D1*Y56280*X42572Y56409D2*X42664D1*X42699Y56425*X42718Y56456*X42726Y56497*X42718Y56538*X42695Y56574*X42664Y56590*X42572*Y56280*X42251Y56590D2*X42427D1*X42339D2*Y56280D1*X38944Y56140D2*X38246D1*X38786Y55717D2*X38594D1*X38736Y55939*Y55629*X38296D2*X38373D1*X38403Y55645*X38426Y55665*X38445Y55696*X38461Y55732*X38465Y55784*X38461Y55836*X38445Y55872*X38426Y55903*X38403Y55924*X38373Y55939*X38296*Y55629*X37547Y56337D2*Y56612D1*X37635*Y56534*X37783*Y56622*X38049*X38167Y56504*X39033*X39141Y56612*X39427*Y56534*X39555*Y56612*X39653*Y56327*X33671Y56337D2*Y56612D1*X33759*Y56534*X33907*Y56622*X34173*X34291Y56504*X35157*X35265Y56612*X35551*Y56534*X35679*Y56612*X35777*Y56327*X35068Y56140D2*X34370D1*X34761Y55913D2*X34795Y55934D1*X34830Y55939*X34864Y55924*X34883Y55898*X34891Y55867*X34883Y55836*X34864Y55810*X34841Y55794*X34807*X34841D2*X34868Y55784D1*X34895Y55758*X34902Y55722*X34899Y55691*X34879Y55660*X34849Y55634*X34818Y55629*X34784Y55634*X34753Y55655*X34730Y55691*X34420Y55629D2*X34497D1*X34527Y55645*X34550Y55665*X34569Y55696*X34585Y55732*X34589Y55784*X34585Y55836*X34569Y55872*X34550Y55903*X34527Y55924*X34497Y55939*X34420*Y55629*X29795Y56337D2*Y56612D1*X29883*Y56534*X30031*Y56622*X30297*X30415Y56504*X31281*X31389Y56612*X31675*Y56534*X31803*Y56612*X31901*Y56327*X31192Y56140D2*X30494D1*X31019Y55629D2*X30858D1*X30866Y55676*X30888Y55727*X30923Y55763*X31000Y55815*X31015Y55841*X31019Y55872*X31011Y55903*X30984Y55929*X30946Y55939*X30915Y55934*X30888Y55918*X30866Y55887*X30544Y55629D2*X30621D1*X30651Y55645*X30674Y55665*X30694Y55696*X30709Y55732*X30713Y55784*X30709Y55836*X30694Y55872*X30674Y55903*X30651Y55924*X30621Y55939*X30544*Y55629*X25768Y55880D2*X25606D1*X25614Y55926*X25637Y55978*X25672Y56014*X25748Y56066*X25764Y56092*X25768Y56123*X25760Y56154*X25733Y56180*X25695Y56190*X25664Y56185*X25637Y56169*X25614Y56138*X25300Y56009D2*X25392D1*X25427Y56025*X25446Y56056*X25454Y56097*X25446Y56138*X25423Y56174*X25392Y56190*X25300*Y55880*X24979Y56190D2*X25155D1*X25067D2*Y55880D1*X25919Y56337D2*Y56612D1*X26007*Y56534*X26155*Y56622*X26421*X26539Y56504*X27405*X27513Y56612*X27799*Y56534*X27927*Y56612*X28025*Y56327*X27316Y56140D2*X26618D1*X27016Y55629D2*X27108D1*X27016Y55877D2*X27062Y55939D1*Y55629*X26668D2*X26745D1*X26775Y55645*X26798Y55665*X26818Y55696*X26833Y55732*X26837Y55784*X26833Y55836*X26818Y55872*X26798Y55903*X26775Y55924*X26745Y55939*X26668*Y55629*X24401Y56280D2*X24493D1*X24401Y56528D2*X24447Y56590D1*Y56280*X24060Y56409D2*X24152D1*X24187Y56425*X24206Y56456*X24214Y56497*X24206Y56538*X24183Y56574*X24152Y56590*X24060*Y56280*X23739Y56590D2*X23915D1*X23827D2*Y56280D1*X20432Y56140D2*X19734D1*X20274Y55717D2*X20082D1*X20224Y55939*Y55629*X19784D2*X19861D1*X19891Y55645*X19914Y55665*X19933Y55696*X19949Y55732*X19953Y55784*X19949Y55836*X19933Y55872*X19914Y55903*X19891Y55924*X19861Y55939*X19784*Y55629*X19035Y56337D2*Y56612D1*X19123*Y56534*X19271*Y56622*X19537*X19655Y56504*X20521*X20629Y56612*X20915*Y56534*X21043*Y56612*X21141*Y56327*X15159Y56337D2*Y56612D1*X15247*Y56534*X15395*Y56622*X15661*X15779Y56504*X16645*X16753Y56612*X17039*Y56534*X17167*Y56612*X17265*Y56327*X16556Y56140D2*X15858D1*X16249Y55913D2*X16283Y55934D1*X16318Y55939*X16352Y55924*X16371Y55898*X16379Y55867*X16371Y55836*X16352Y55810*X16329Y55794*X16295*X16329D2*X16356Y55784D1*X16383Y55758*X16390Y55722*X16387Y55691*X16367Y55660*X16337Y55634*X16306Y55629*X16272Y55634*X16241Y55655*X16218Y55691*X15908Y55629D2*X15985D1*X16015Y55645*X16038Y55665*X16057Y55696*X16073Y55732*X16077Y55784*X16073Y55836*X16057Y55872*X16038Y55903*X16015Y55924*X15985Y55939*X15908*Y55629*X11283Y56337D2*Y56612D1*X11371*Y56534*X11519*Y56622*X11785*X11903Y56504*X12769*X12877Y56612*X13163*Y56534*X13291*Y56612*X13389*Y56327*X12680Y56140D2*X11982D1*X12507Y55629D2*X12346D1*X12354Y55676*X12376Y55727*X12411Y55763*X12488Y55815*X12503Y55841*X12507Y55872*X12499Y55903*X12472Y55929*X12434Y55939*X12403Y55934*X12376Y55918*X12354Y55887*X12032Y55629D2*X12109D1*X12139Y55645*X12162Y55665*X12182Y55696*X12197Y55732*X12201Y55784*X12197Y55836*X12182Y55872*X12162Y55903*X12139Y55924*X12109Y55939*X12032*Y55629*X7256Y55880D2*X7094D1*X7102Y55926*X7125Y55978*X7160Y56014*X7236Y56066*X7252Y56092*X7256Y56123*X7248Y56154*X7221Y56180*X7183Y56190*X7152Y56185*X7125Y56169*X7102Y56138*X6788Y56009D2*X6880D1*X6915Y56025*X6934Y56056*X6942Y56097*X6934Y56138*X6911Y56174*X6880Y56190*X6788*Y55880*X6467Y56190D2*X6643D1*X6555D2*Y55880D1*X7407Y56337D2*Y56612D1*X7495*Y56534*X7643*Y56622*X7909*X8027Y56504*X8893*X9001Y56612*X9287*Y56534*X9415*Y56612*X9513*Y56327*X8804Y56140D2*X8106D1*X8504Y55629D2*X8596D1*X8504Y55877D2*X8550Y55939D1*Y55629*X8156D2*X8233D1*X8263Y55645*X8286Y55665*X8306Y55696*X8321Y55732*X8325Y55784*X8321Y55836*X8306Y55872*X8286Y55903*X8263Y55924*X8233Y55939*X8156*Y55629*X5889Y56280D2*X5981D1*X5889Y56528D2*X5935Y56590D1*Y56280*X5548Y56409D2*X5640D1*X5675Y56425*X5694Y56456*X5702Y56497*X5694Y56538*X5671Y56574*X5640Y56590*X5548*Y56280*X5227Y56590D2*X5403D1*X5315D2*Y56280D1*X20432Y52220D2*X19734D1*X20274Y51797D2*X20082D1*X20224Y52019*Y51709*X19784D2*X19861D1*X19891Y51725*X19914Y51745*X19933Y51776*X19949Y51812*X19953Y51864*X19949Y51916*X19933Y51952*X19914Y51983*X19891Y52004*X19861Y52019*X19784*Y51709*X19035Y52417D2*Y52692D1*X19123*Y52614*X19271*Y52702*X19537*X19655Y52584*X20521*X20629Y52692*X20915*Y52614*X21043*Y52692*X21141*Y52407*X15159Y52417D2*Y52692D1*X15247*Y52614*X15395*Y52702*X15661*X15779Y52584*X16645*X16753Y52692*X17039*Y52614*X17167*Y52692*X17265*Y52407*X16556Y52220D2*X15858D1*X16249Y51993D2*X16283Y52014D1*X16318Y52019*X16352Y52004*X16371Y51978*X16379Y51947*X16371Y51916*X16352Y51890*X16329Y51874*X16295*X16329D2*X16356Y51864D1*X16383Y51838*X16390Y51802*X16387Y51771*X16367Y51740*X16337Y51714*X16306Y51709*X16272Y51714*X16241Y51735*X16218Y51771*X15908Y51709D2*X15985D1*X16015Y51725*X16038Y51745*X16057Y51776*X16073Y51812*X16077Y51864*X16073Y51916*X16057Y51952*X16038Y51983*X16015Y52004*X15985Y52019*X15908*Y51709*X11283Y52417D2*Y52692D1*X11371*Y52614*X11519*Y52702*X11785*X11903Y52584*X12769*X12877Y52692*X13163*Y52614*X13291*Y52692*X13389*Y52407*X12680Y52220D2*X11982D1*X12507Y51709D2*X12346D1*X12354Y51756*X12376Y51807*X12411Y51843*X12488Y51895*X12503Y51921*X12507Y51952*X12499Y51983*X12472Y52009*X12434Y52019*X12403Y52014*X12376Y51998*X12354Y51967*X12032Y51709D2*X12109D1*X12139Y51725*X12162Y51745*X12182Y51776*X12197Y51812*X12201Y51864*X12197Y51916*X12182Y51952*X12162Y51983*X12139Y52004*X12109Y52019*X12032*Y51709*X7256Y51960D2*X7094D1*X7102Y52006*X7125Y52058*X7160Y52094*X7236Y52146*X7252Y52172*X7256Y52203*X7248Y52234*X7221Y52260*X7183Y52270*X7152Y52265*X7125Y52249*X7102Y52218*X6788Y52089D2*X6880D1*X6915Y52105*X6934Y52136*X6942Y52177*X6934Y52218*X6911Y52254*X6880Y52270*X6788*Y51960*X6467Y52270D2*X6643D1*X6555D2*Y51960D1*X7407Y52417D2*Y52692D1*X7495*Y52614*X7643*Y52702*X7909*X8027Y52584*X8893*X9001Y52692*X9287*Y52614*X9415*Y52692*X9513*Y52407*X8804Y52220D2*X8106D1*X8504Y51709D2*X8596D1*X8504Y51957D2*X8550Y52019D1*Y51709*X8156D2*X8233D1*X8263Y51725*X8286Y51745*X8306Y51776*X8321Y51812*X8325Y51864*X8321Y51916*X8306Y51952*X8286Y51983*X8263Y52004*X8233Y52019*X8156*Y51709*X5889Y52360D2*X5981D1*X5889Y52608D2*X5935Y52670D1*Y52360*X5548Y52489D2*X5640D1*X5675Y52505*X5694Y52536*X5702Y52577*X5694Y52618*X5671Y52654*X5640Y52670*X5548*Y52360*X5227Y52670D2*X5403D1*X5315D2*Y52360D1*X38944Y52220D2*X38246D1*X38786Y51797D2*X38594D1*X38736Y52019*Y51709*X38296D2*X38373D1*X38403Y51725*X38426Y51745*X38445Y51776*X38461Y51812*X38465Y51864*X38461Y51916*X38445Y51952*X38426Y51983*X38403Y52004*X38373Y52019*X38296*Y51709*X37547Y52417D2*Y52692D1*X37635*Y52614*X37783*Y52702*X38049*X38167Y52584*X39033*X39141Y52692*X39427*Y52614*X39555*Y52692*X39653*Y52407*X33671Y52417D2*Y52692D1*X33759*Y52614*X33907*Y52702*X34173*X34291Y52584*X35157*X35265Y52692*X35551*Y52614*X35679*Y52692*X35777*Y52407*X35068Y52220D2*X34370D1*X34761Y51993D2*X34795Y52014D1*X34830Y52019*X34864Y52004*X34883Y51978*X34891Y51947*X34883Y51916*X34864Y51890*X34841Y51874*X34807*X34841D2*X34868Y51864D1*X34895Y51838*X34902Y51802*X34899Y51771*X34879Y51740*X34849Y51714*X34818Y51709*X34784Y51714*X34753Y51735*X34730Y51771*X34420Y51709D2*X34497D1*X34527Y51725*X34550Y51745*X34569Y51776*X34585Y51812*X34589Y51864*X34585Y51916*X34569Y51952*X34550Y51983*X34527Y52004*X34497Y52019*X34420*Y51709*X29795Y52417D2*Y52692D1*X29883*Y52614*X30031*Y52702*X30297*X30415Y52584*X31281*X31389Y52692*X31675*Y52614*X31803*Y52692*X31901*Y52407*X31192Y52220D2*X30494D1*X31019Y51709D2*X30858D1*X30866Y51756*X30888Y51807*X30923Y51843*X31000Y51895*X31015Y51921*X31019Y51952*X31011Y51983*X30984Y52009*X30946Y52019*X30915Y52014*X30888Y51998*X30866Y51967*X30544Y51709D2*X30621D1*X30651Y51725*X30674Y51745*X30694Y51776*X30709Y51812*X30713Y51864*X30709Y51916*X30694Y51952*X30674Y51983*X30651Y52004*X30621Y52019*X30544*Y51709*X25768Y51960D2*X25606D1*X25614Y52006*X25637Y52058*X25672Y52094*X25748Y52146*X25764Y52172*X25768Y52203*X25760Y52234*X25733Y52260*X25695Y52270*X25664Y52265*X25637Y52249*X25614Y52218*X25300Y52089D2*X25392D1*X25427Y52105*X25446Y52136*X25454Y52177*X25446Y52218*X25423Y52254*X25392Y52270*X25300*Y51960*X24979Y52270D2*X25155D1*X25067D2*Y51960D1*X25919Y52417D2*Y52692D1*X26007*Y52614*X26155*Y52702*X26421*X26539Y52584*X27405*X27513Y52692*X27799*Y52614*X27927*Y52692*X28025*Y52407*X27316Y52220D2*X26618D1*X27016Y51709D2*X27108D1*X27016Y51957D2*X27062Y52019D1*Y51709*X26668D2*X26745D1*X26775Y51725*X26798Y51745*X26818Y51776*X26833Y51812*X26837Y51864*X26833Y51916*X26818Y51952*X26798Y51983*X26775Y52004*X26745Y52019*X26668*Y51709*X24401Y52360D2*X24493D1*X24401Y52608D2*X24447Y52670D1*Y52360*X24060Y52489D2*X24152D1*X24187Y52505*X24206Y52536*X24214Y52577*X24206Y52618*X24183Y52654*X24152Y52670*X24060*Y52360*X23739Y52670D2*X23915D1*X23827D2*Y52360D1*X57456Y52220D2*X56758D1*X57298Y51797D2*X57106D1*X57248Y52019*Y51709*X56808D2*X56885D1*X56915Y51725*X56938Y51745*X56957Y51776*X56973Y51812*X56977Y51864*X56973Y51916*X56957Y51952*X56938Y51983*X56915Y52004*X56885Y52019*X56808*Y51709*X56059Y52417D2*Y52692D1*X56147*Y52614*X56295*Y52702*X56561*X56679Y52584*X57545*X57653Y52692*X57939*Y52614*X58067*Y52692*X58165*Y52407*X52183Y52417D2*Y52692D1*X52271*Y52614*X52419*Y52702*X52685*X52803Y52584*X53669*X53777Y52692*X54063*Y52614*X54191*Y52692*X54289*Y52407*X53580Y52220D2*X52882D1*X53273Y51993D2*X53307Y52014D1*X53342Y52019*X53376Y52004*X53395Y51978*X53403Y51947*X53395Y51916*X53376Y51890*X53353Y51874*X53319*X53353D2*X53380Y51864D1*X53407Y51838*X53414Y51802*X53411Y51771*X53391Y51740*X53361Y51714*X53330Y51709*X53296Y51714*X53265Y51735*X53242Y51771*X52932Y51709D2*X53009D1*X53039Y51725*X53062Y51745*X53081Y51776*X53097Y51812*X53101Y51864*X53097Y51916*X53081Y51952*X53062Y51983*X53039Y52004*X53009Y52019*X52932*Y51709*X48307Y52417D2*Y52692D1*X48395*Y52614*X48543*Y52702*X48809*X48927Y52584*X49793*X49901Y52692*X50187*Y52614*X50315*Y52692*X50413*Y52407*X49704Y52220D2*X49006D1*X49531Y51709D2*X49370D1*X49378Y51756*X49400Y51807*X49435Y51843*X49512Y51895*X49527Y51921*X49531Y51952*X49523Y51983*X49496Y52009*X49458Y52019*X49427Y52014*X49400Y51998*X49378Y51967*X49056Y51709D2*X49133D1*X49163Y51725*X49186Y51745*X49206Y51776*X49221Y51812*X49225Y51864*X49221Y51916*X49206Y51952*X49186Y51983*X49163Y52004*X49133Y52019*X49056*Y51709*X44280Y51960D2*X44118D1*X44126Y52006*X44149Y52058*X44184Y52094*X44260Y52146*X44276Y52172*X44280Y52203*X44272Y52234*X44245Y52260*X44207Y52270*X44176Y52265*X44149Y52249*X44126Y52218*X43812Y52089D2*X43904D1*X43939Y52105*X43958Y52136*X43966Y52177*X43958Y52218*X43935Y52254*X43904Y52270*X43812*Y51960*X43491Y52270D2*X43667D1*X43579D2*Y51960D1*X44431Y52417D2*Y52692D1*X44519*Y52614*X44667*Y52702*X44933*X45051Y52584*X45917*X46025Y52692*X46311*Y52614*X46439*Y52692*X46537*Y52407*X45828Y52220D2*X45130D1*X45528Y51709D2*X45620D1*X45528Y51957D2*X45574Y52019D1*Y51709*X45180D2*X45257D1*X45287Y51725*X45310Y51745*X45330Y51776*X45345Y51812*X45349Y51864*X45345Y51916*X45330Y51952*X45310Y51983*X45287Y52004*X45257Y52019*X45180*Y51709*X42913Y52360D2*X43005D1*X42913Y52608D2*X42959Y52670D1*Y52360*X42572Y52489D2*X42664D1*X42699Y52505*X42718Y52536*X42726Y52577*X42718Y52618*X42695Y52654*X42664Y52670*X42572*Y52360*X42251Y52670D2*X42427D1*X42339D2*Y52360D1*X57456Y48300D2*X56758D1*X57298Y47877D2*X57106D1*X57248Y48099*Y47789*X56808D2*X56885D1*X56915Y47805*X56938Y47825*X56957Y47856*X56973Y47892*X56977Y47944*X56973Y47996*X56957Y48032*X56938Y48063*X56915Y48084*X56885Y48099*X56808*Y47789*X56059Y48497D2*Y48772D1*X56147*Y48694*X56295*Y48782*X56561*X56679Y48664*X57545*X57653Y48772*X57939*Y48694*X58067*Y48772*X58165*Y48487*X52183Y48497D2*Y48772D1*X52271*Y48694*X52419*Y48782*X52685*X52803Y48664*X53669*X53777Y48772*X54063*Y48694*X54191*Y48772*X54289*Y48487*X53580Y48300D2*X52882D1*X53273Y48073D2*X53307Y48094D1*X53342Y48099*X53376Y48084*X53395Y48058*X53403Y48027*X53395Y47996*X53376Y47970*X53353Y47954*X53319*X53353D2*X53380Y47944D1*X53407Y47918*X53414Y47882*X53411Y47851*X53391Y47820*X53361Y47794*X53330Y47789*X53296Y47794*X53265Y47815*X53242Y47851*X52932Y47789D2*X53009D1*X53039Y47805*X53062Y47825*X53081Y47856*X53097Y47892*X53101Y47944*X53097Y47996*X53081Y48032*X53062Y48063*X53039Y48084*X53009Y48099*X52932*Y47789*X48307Y48497D2*Y48772D1*X48395*Y48694*X48543*Y48782*X48809*X48927Y48664*X49793*X49901Y48772*X50187*Y48694*X50315*Y48772*X50413*Y48487*X49704Y48300D2*X49006D1*X49531Y47789D2*X49370D1*X49378Y47836*X49400Y47887*X49435Y47923*X49512Y47975*X49527Y48001*X49531Y48032*X49523Y48063*X49496Y48089*X49458Y48099*X49427Y48094*X49400Y48078*X49378Y48047*X49056Y47789D2*X49133D1*X49163Y47805*X49186Y47825*X49206Y47856*X49221Y47892*X49225Y47944*X49221Y47996*X49206Y48032*X49186Y48063*X49163Y48084*X49133Y48099*X49056*Y47789*X44280Y48040D2*X44118D1*X44126Y48086*X44149Y48138*X44184Y48174*X44260Y48226*X44276Y48252*X44280Y48283*X44272Y48314*X44245Y48340*X44207Y48350*X44176Y48345*X44149Y48329*X44126Y48298*X43812Y48169D2*X43904D1*X43939Y48185*X43958Y48216*X43966Y48257*X43958Y48298*X43935Y48334*X43904Y48350*X43812*Y48040*X43491Y48350D2*X43667D1*X43579D2*Y48040D1*X44431Y48497D2*Y48772D1*X44519*Y48694*X44667*Y48782*X44933*X45051Y48664*X45917*X46025Y48772*X46311*Y48694*X46439*Y48772*X46537*Y48487*X45828Y48300D2*X45130D1*X45528Y47789D2*X45620D1*X45528Y48037D2*X45574Y48099D1*Y47789*X45180D2*X45257D1*X45287Y47805*X45310Y47825*X45330Y47856*X45345Y47892*X45349Y47944*X45345Y47996*X45330Y48032*X45310Y48063*X45287Y48084*X45257Y48099*X45180*Y47789*X42913Y48440D2*X43005D1*X42913Y48688D2*X42959Y48750D1*Y48440*X42572Y48569D2*X42664D1*X42699Y48585*X42718Y48616*X42726Y48657*X42718Y48698*X42695Y48734*X42664Y48750*X42572*Y48440*X42251Y48750D2*X42427D1*X42339D2*Y48440D1*X38944Y48300D2*X38246D1*X38786Y47877D2*X38594D1*X38736Y48099*Y47789*X38296D2*X38373D1*X38403Y47805*X38426Y47825*X38445Y47856*X38461Y47892*X38465Y47944*X38461Y47996*X38445Y48032*X38426Y48063*X38403Y48084*X38373Y48099*X38296*Y47789*X37547Y48497D2*Y48772D1*X37635*Y48694*X37783*Y48782*X38049*X38167Y48664*X39033*X39141Y48772*X39427*Y48694*X39555*Y48772*X39653*Y48487*X33671Y48497D2*Y48772D1*X33759*Y48694*X33907*Y48782*X34173*X34291Y48664*X35157*X35265Y48772*X35551*Y48694*X35679*Y48772*X35777*Y48487*X35068Y48300D2*X34370D1*X34761Y48073D2*X34795Y48094D1*X34830Y48099*X34864Y48084*X34883Y48058*X34891Y48027*X34883Y47996*X34864Y47970*X34841Y47954*X34807*X34841D2*X34868Y47944D1*X34895Y47918*X34902Y47882*X34899Y47851*X34879Y47820*X34849Y47794*X34818Y47789*X34784Y47794*X34753Y47815*X34730Y47851*X34420Y47789D2*X34497D1*X34527Y47805*X34550Y47825*X34569Y47856*X34585Y47892*X34589Y47944*X34585Y47996*X34569Y48032*X34550Y48063*X34527Y48084*X34497Y48099*X34420*Y47789*X29795Y48497D2*Y48772D1*X29883*Y48694*X30031*Y48782*X30297*X30415Y48664*X31281*X31389Y48772*X31675*Y48694*X31803*Y48772*X31901*Y48487*X31192Y48300D2*X30494D1*X31019Y47789D2*X30858D1*X30866Y47836*X30888Y47887*X30923Y47923*X31000Y47975*X31015Y48001*X31019Y48032*X31011Y48063*X30984Y48089*X30946Y48099*X30915Y48094*X30888Y48078*X30866Y48047*X30544Y47789D2*X30621D1*X30651Y47805*X30674Y47825*X30694Y47856*X30709Y47892*X30713Y47944*X30709Y47996*X30694Y48032*X30674Y48063*X30651Y48084*X30621Y48099*X30544*Y47789*X25768Y48040D2*X25606D1*X25614Y48086*X25637Y48138*X25672Y48174*X25748Y48226*X25764Y48252*X25768Y48283*X25760Y48314*X25733Y48340*X25695Y48350*X25664Y48345*X25637Y48329*X25614Y48298*X25300Y48169D2*X25392D1*X25427Y48185*X25446Y48216*X25454Y48257*X25446Y48298*X25423Y48334*X25392Y48350*X25300*Y48040*X24979Y48350D2*X25155D1*X25067D2*Y48040D1*X25919Y48497D2*Y48772D1*X26007*Y48694*X26155*Y48782*X26421*X26539Y48664*X27405*X27513Y48772*X27799*Y48694*X27927*Y48772*X28025*Y48487*X27316Y48300D2*X26618D1*X27016Y47789D2*X27108D1*X27016Y48037D2*X27062Y48099D1*Y47789*X26668D2*X26745D1*X26775Y47805*X26798Y47825*X26818Y47856*X26833Y47892*X26837Y47944*X26833Y47996*X26818Y48032*X26798Y48063*X26775Y48084*X26745Y48099*X26668*Y47789*X24401Y48440D2*X24493D1*X24401Y48688D2*X24447Y48750D1*Y48440*X24060Y48569D2*X24152D1*X24187Y48585*X24206Y48616*X24214Y48657*X24206Y48698*X24183Y48734*X24152Y48750*X24060*Y48440*X23739Y48750D2*X23915D1*X23827D2*Y48440D1*X20432Y48300D2*X19734D1*X20274Y47877D2*X20082D1*X20224Y48099*Y47789*X19784D2*X19861D1*X19891Y47805*X19914Y47825*X19933Y47856*X19949Y47892*X19953Y47944*X19949Y47996*X19933Y48032*X19914Y48063*X19891Y48084*X19861Y48099*X19784*Y47789*X19035Y48497D2*Y48772D1*X19123*Y48694*X19271*Y48782*X19537*X19655Y48664*X20521*X20629Y48772*X20915*Y48694*X21043*Y48772*X21141*Y48487*X15159Y48497D2*Y48772D1*X15247*Y48694*X15395*Y48782*X15661*X15779Y48664*X16645*X16753Y48772*X17039*Y48694*X17167*Y48772*X17265*Y48487*X16556Y48300D2*X15858D1*X16249Y48073D2*X16283Y48094D1*X16318Y48099*X16352Y48084*X16371Y48058*X16379Y48027*X16371Y47996*X16352Y47970*X16329Y47954*X16295*X16329D2*X16356Y47944D1*X16383Y47918*X16390Y47882*X16387Y47851*X16367Y47820*X16337Y47794*X16306Y47789*X16272Y47794*X16241Y47815*X16218Y47851*X15908Y47789D2*X15985D1*X16015Y47805*X16038Y47825*X16057Y47856*X16073Y47892*X16077Y47944*X16073Y47996*X16057Y48032*X16038Y48063*X16015Y48084*X15985Y48099*X15908*Y47789*X11283Y48497D2*Y48772D1*X11371*Y48694*X11519*Y48782*X11785*X11903Y48664*X12769*X12877Y48772*X13163*Y48694*X13291*Y48772*X13389*Y48487*X12680Y48300D2*X11982D1*X12507Y47789D2*X12346D1*X12354Y47836*X12376Y47887*X12411Y47923*X12488Y47975*X12503Y48001*X12507Y48032*X12499Y48063*X12472Y48089*X12434Y48099*X12403Y48094*X12376Y48078*X12354Y48047*X12032Y47789D2*X12109D1*X12139Y47805*X12162Y47825*X12182Y47856*X12197Y47892*X12201Y47944*X12197Y47996*X12182Y48032*X12162Y48063*X12139Y48084*X12109Y48099*X12032*Y47789*X7256Y48040D2*X7094D1*X7102Y48086*X7125Y48138*X7160Y48174*X7236Y48226*X7252Y48252*X7256Y48283*X7248Y48314*X7221Y48340*X7183Y48350*X7152Y48345*X7125Y48329*X7102Y48298*X6788Y48169D2*X6880D1*X6915Y48185*X6934Y48216*X6942Y48257*X6934Y48298*X6911Y48334*X6880Y48350*X6788*Y48040*X6467Y48350D2*X6643D1*X6555D2*Y48040D1*X7407Y48497D2*Y48772D1*X7495*Y48694*X7643*Y48782*X7909*X8027Y48664*X8893*X9001Y48772*X9287*Y48694*X9415*Y48772*X9513*Y48487*X8804Y48300D2*X8106D1*X8504Y47789D2*X8596D1*X8504Y48037D2*X8550Y48099D1*Y47789*X8156D2*X8233D1*X8263Y47805*X8286Y47825*X8306Y47856*X8321Y47892*X8325Y47944*X8321Y47996*X8306Y48032*X8286Y48063*X8263Y48084*X8233Y48099*X8156*Y47789*X5889Y48440D2*X5981D1*X5889Y48688D2*X5935Y48750D1*Y48440*X5548Y48569D2*X5640D1*X5675Y48585*X5694Y48616*X5702Y48657*X5694Y48698*X5671Y48734*X5640Y48750*X5548*Y48440*X5227Y48750D2*X5403D1*X5315D2*Y48440D1*X20432Y44380D2*X19734D1*X20274Y43957D2*X20082D1*X20224Y44179*Y43869*X19784D2*X19861D1*X19891Y43885*X19914Y43905*X19933Y43936*X19949Y43972*X19953Y44024*X19949Y44076*X19933Y44112*X19914Y44143*X19891Y44164*X19861Y44179*X19784*Y43869*X19035Y44577D2*Y44852D1*X19123*Y44774*X19271*Y44862*X19537*X19655Y44744*X20521*X20629Y44852*X20915*Y44774*X21043*Y44852*X21141*Y44567*X15159Y44577D2*Y44852D1*X15247*Y44774*X15395*Y44862*X15661*X15779Y44744*X16645*X16753Y44852*X17039*Y44774*X17167*Y44852*X17265*Y44567*X16556Y44380D2*X15858D1*X16249Y44153D2*X16283Y44174D1*X16318Y44179*X16352Y44164*X16371Y44138*X16379Y44107*X16371Y44076*X16352Y44050*X16329Y44034*X16295*X16329D2*X16356Y44024D1*X16383Y43998*X16390Y43962*X16387Y43931*X16367Y43900*X16337Y43874*X16306Y43869*X16272Y43874*X16241Y43895*X16218Y43931*X15908Y43869D2*X15985D1*X16015Y43885*X16038Y43905*X16057Y43936*X16073Y43972*X16077Y44024*X16073Y44076*X16057Y44112*X16038Y44143*X16015Y44164*X15985Y44179*X15908*Y43869*X11283Y44577D2*Y44852D1*X11371*Y44774*X11519*Y44862*X11785*X11903Y44744*X12769*X12877Y44852*X13163*Y44774*X13291*Y44852*X13389*Y44567*X12680Y44380D2*X11982D1*X12507Y43869D2*X12346D1*X12354Y43916*X12376Y43967*X12411Y44003*X12488Y44055*X12503Y44081*X12507Y44112*X12499Y44143*X12472Y44169*X12434Y44179*X12403Y44174*X12376Y44158*X12354Y44127*X12032Y43869D2*X12109D1*X12139Y43885*X12162Y43905*X12182Y43936*X12197Y43972*X12201Y44024*X12197Y44076*X12182Y44112*X12162Y44143*X12139Y44164*X12109Y44179*X12032*Y43869*X7256Y44120D2*X7094D1*X7102Y44166*X7125Y44218*X7160Y44254*X7236Y44306*X7252Y44332*X7256Y44363*X7248Y44394*X7221Y44420*X7183Y44430*X7152Y44425*X7125Y44409*X7102Y44378*X6788Y44249D2*X6880D1*X6915Y44265*X6934Y44296*X6942Y44337*X6934Y44378*X6911Y44414*X6880Y44430*X6788*Y44120*X6467Y44430D2*X6643D1*X6555D2*Y44120D1*X7407Y44577D2*Y44852D1*X7495*Y44774*X7643*Y44862*X7909*X8027Y44744*X8893*X9001Y44852*X9287*Y44774*X9415*Y44852*X9513*Y44567*X8804Y44380D2*X8106D1*X8504Y43869D2*X8596D1*X8504Y44117D2*X8550Y44179D1*Y43869*X8156D2*X8233D1*X8263Y43885*X8286Y43905*X8306Y43936*X8321Y43972*X8325Y44024*X8321Y44076*X8306Y44112*X8286Y44143*X8263Y44164*X8233Y44179*X8156*Y43869*X5889Y44520D2*X5981D1*X5889Y44768D2*X5935Y44830D1*Y44520*X5548Y44649D2*X5640D1*X5675Y44665*X5694Y44696*X5702Y44737*X5694Y44778*X5671Y44814*X5640Y44830*X5548*Y44520*X5227Y44830D2*X5403D1*X5315D2*Y44520D1*X38944Y44380D2*X38246D1*X38786Y43957D2*X38594D1*X38736Y44179*Y43869*X38296D2*X38373D1*X38403Y43885*X38426Y43905*X38445Y43936*X38461Y43972*X38465Y44024*X38461Y44076*X38445Y44112*X38426Y44143*X38403Y44164*X38373Y44179*X38296*Y43869*X37547Y44577D2*Y44852D1*X37635*Y44774*X37783*Y44862*X38049*X38167Y44744*X39033*X39141Y44852*X39427*Y44774*X39555*Y44852*X39653*Y44567*X33671Y44577D2*Y44852D1*X33759*Y44774*X33907*Y44862*X34173*X34291Y44744*X35157*X35265Y44852*X35551*Y44774*X35679*Y44852*X35777*Y44567*X35068Y44380D2*X34370D1*X34761Y44153D2*X34795Y44174D1*X34830Y44179*X34864Y44164*X34883Y44138*X34891Y44107*X34883Y44076*X34864Y44050*X34841Y44034*X34807*X34841D2*X34868Y44024D1*X34895Y43998*X34902Y43962*X34899Y43931*X34879Y43900*X34849Y43874*X34818Y43869*X34784Y43874*X34753Y43895*X34730Y43931*X34420Y43869D2*X34497D1*X34527Y43885*X34550Y43905*X34569Y43936*X34585Y43972*X34589Y44024*X34585Y44076*X34569Y44112*X34550Y44143*X34527Y44164*X34497Y44179*X34420*Y43869*X29795Y44577D2*Y44852D1*X29883*Y44774*X30031*Y44862*X30297*X30415Y44744*X31281*X31389Y44852*X31675*Y44774*X31803*Y44852*X31901*Y44567*X31192Y44380D2*X30494D1*X31019Y43869D2*X30858D1*X30866Y43916*X30888Y43967*X30923Y44003*X31000Y44055*X31015Y44081*X31019Y44112*X31011Y44143*X30984Y44169*X30946Y44179*X30915Y44174*X30888Y44158*X30866Y44127*X30544Y43869D2*X30621D1*X30651Y43885*X30674Y43905*X30694Y43936*X30709Y43972*X30713Y44024*X30709Y44076*X30694Y44112*X30674Y44143*X30651Y44164*X30621Y44179*X30544*Y43869*X25768Y44120D2*X25606D1*X25614Y44166*X25637Y44218*X25672Y44254*X25748Y44306*X25764Y44332*X25768Y44363*X25760Y44394*X25733Y44420*X25695Y44430*X25664Y44425*X25637Y44409*X25614Y44378*X25300Y44249D2*X25392D1*X25427Y44265*X25446Y44296*X25454Y44337*X25446Y44378*X25423Y44414*X25392Y44430*X25300*Y44120*X24979Y44430D2*X25155D1*X25067D2*Y44120D1*X25919Y44577D2*Y44852D1*X26007*Y44774*X26155*Y44862*X26421*X26539Y44744*X27405*X27513Y44852*X27799*Y44774*X27927*Y44852*X28025*Y44567*X27316Y44380D2*X26618D1*X27016Y43869D2*X27108D1*X27016Y44117D2*X27062Y44179D1*Y43869*X26668D2*X26745D1*X26775Y43885*X26798Y43905*X26818Y43936*X26833Y43972*X26837Y44024*X26833Y44076*X26818Y44112*X26798Y44143*X26775Y44164*X26745Y44179*X26668*Y43869*X24401Y44520D2*X24493D1*X24401Y44768D2*X24447Y44830D1*Y44520*X24060Y44649D2*X24152D1*X24187Y44665*X24206Y44696*X24214Y44737*X24206Y44778*X24183Y44814*X24152Y44830*X24060*Y44520*X23739Y44830D2*X23915D1*X23827D2*Y44520D1*X57456Y44380D2*X56758D1*X57298Y43957D2*X57106D1*X57248Y44179*Y43869*X56808D2*X56885D1*X56915Y43885*X56938Y43905*X56957Y43936*X56973Y43972*X56977Y44024*X56973Y44076*X56957Y44112*X56938Y44143*X56915Y44164*X56885Y44179*X56808*Y43869*X56059Y44577D2*Y44852D1*X56147*Y44774*X56295*Y44862*X56561*X56679Y44744*X57545*X57653Y44852*X57939*Y44774*X58067*Y44852*X58165*Y44567*X52183Y44577D2*Y44852D1*X52271*Y44774*X52419*Y44862*X52685*X52803Y44744*X53669*X53777Y44852*X54063*Y44774*X54191*Y44852*X54289*Y44567*X53580Y44380D2*X52882D1*X53273Y44153D2*X53307Y44174D1*X53342Y44179*X53376Y44164*X53395Y44138*X53403Y44107*X53395Y44076*X53376Y44050*X53353Y44034*X53319*X53353D2*X53380Y44024D1*X53407Y43998*X53414Y43962*X53411Y43931*X53391Y43900*X53361Y43874*X53330Y43869*X53296Y43874*X53265Y43895*X53242Y43931*X52932Y43869D2*X53009D1*X53039Y43885*X53062Y43905*X53081Y43936*X53097Y43972*X53101Y44024*X53097Y44076*X53081Y44112*X53062Y44143*X53039Y44164*X53009Y44179*X52932*Y43869*X48307Y44577D2*Y44852D1*X48395*Y44774*X48543*Y44862*X48809*X48927Y44744*X49793*X49901Y44852*X50187*Y44774*X50315*Y44852*X50413*Y44567*X49704Y44380D2*X49006D1*X49531Y43869D2*X49370D1*X49378Y43916*X49400Y43967*X49435Y44003*X49512Y44055*X49527Y44081*X49531Y44112*X49523Y44143*X49496Y44169*X49458Y44179*X49427Y44174*X49400Y44158*X49378Y44127*X49056Y43869D2*X49133D1*X49163Y43885*X49186Y43905*X49206Y43936*X49221Y43972*X49225Y44024*X49221Y44076*X49206Y44112*X49186Y44143*X49163Y44164*X49133Y44179*X49056*Y43869*X44280Y44120D2*X44118D1*X44126Y44166*X44149Y44218*X44184Y44254*X44260Y44306*X44276Y44332*X44280Y44363*X44272Y44394*X44245Y44420*X44207Y44430*X44176Y44425*X44149Y44409*X44126Y44378*X43812Y44249D2*X43904D1*X43939Y44265*X43958Y44296*X43966Y44337*X43958Y44378*X43935Y44414*X43904Y44430*X43812*Y44120*X43491Y44430D2*X43667D1*X43579D2*Y44120D1*X44431Y44577D2*Y44852D1*X44519*Y44774*X44667*Y44862*X44933*X45051Y44744*X45917*X46025Y44852*X46311*Y44774*X46439*Y44852*X46537*Y44567*X45828Y44380D2*X45130D1*X45528Y43869D2*X45620D1*X45528Y44117D2*X45574Y44179D1*Y43869*X45180D2*X45257D1*X45287Y43885*X45310Y43905*X45330Y43936*X45345Y43972*X45349Y44024*X45345Y44076*X45330Y44112*X45310Y44143*X45287Y44164*X45257Y44179*X45180*Y43869*X42913Y44520D2*X43005D1*X42913Y44768D2*X42959Y44830D1*Y44520*X42572Y44649D2*X42664D1*X42699Y44665*X42718Y44696*X42726Y44737*X42718Y44778*X42695Y44814*X42664Y44830*X42572*Y44520*X42251Y44830D2*X42427D1*X42339D2*Y44520D1*X57456Y40460D2*X56758D1*X57298Y40037D2*X57106D1*X57248Y40259*Y39949*X56808D2*X56885D1*X56915Y39965*X56938Y39985*X56957Y40016*X56973Y40052*X56977Y40104*X56973Y40156*X56957Y40192*X56938Y40223*X56915Y40244*X56885Y40259*X56808*Y39949*X56059Y40657D2*Y40932D1*X56147*Y40854*X56295*Y40942*X56561*X56679Y40824*X57545*X57653Y40932*X57939*Y40854*X58067*Y40932*X58165*Y40647*X52183Y40657D2*Y40932D1*X52271*Y40854*X52419*Y40942*X52685*X52803Y40824*X53669*X53777Y40932*X54063*Y40854*X54191*Y40932*X54289*Y40647*X53580Y40460D2*X52882D1*X53273Y40233D2*X53307Y40254D1*X53342Y40259*X53376Y40244*X53395Y40218*X53403Y40187*X53395Y40156*X53376Y40130*X53353Y40114*X53319*X53353D2*X53380Y40104D1*X53407Y40078*X53414Y40042*X53411Y40011*X53391Y39980*X53361Y39954*X53330Y39949*X53296Y39954*X53265Y39975*X53242Y40011*X52932Y39949D2*X53009D1*X53039Y39965*X53062Y39985*X53081Y40016*X53097Y40052*X53101Y40104*X53097Y40156*X53081Y40192*X53062Y40223*X53039Y40244*X53009Y40259*X52932*Y39949*X48307Y40657D2*Y40932D1*X48395*Y40854*X48543*Y40942*X48809*X48927Y40824*X49793*X49901Y40932*X50187*Y40854*X50315*Y40932*X50413*Y40647*X49704Y40460D2*X49006D1*X49531Y39949D2*X49370D1*X49378Y39996*X49400Y40047*X49435Y40083*X49512Y40135*X49527Y40161*X49531Y40192*X49523Y40223*X49496Y40249*X49458Y40259*X49427Y40254*X49400Y40238*X49378Y40207*X49056Y39949D2*X49133D1*X49163Y39965*X49186Y39985*X49206Y40016*X49221Y40052*X49225Y40104*X49221Y40156*X49206Y40192*X49186Y40223*X49163Y40244*X49133Y40259*X49056*Y39949*X44280Y40200D2*X44118D1*X44126Y40246*X44149Y40298*X44184Y40334*X44260Y40386*X44276Y40412*X44280Y40443*X44272Y40474*X44245Y40500*X44207Y40510*X44176Y40505*X44149Y40489*X44126Y40458*X43812Y40329D2*X43904D1*X43939Y40345*X43958Y40376*X43966Y40417*X43958Y40458*X43935Y40494*X43904Y40510*X43812*Y40200*X43491Y40510D2*X43667D1*X43579D2*Y40200D1*X44431Y40657D2*Y40932D1*X44519*Y40854*X44667*Y40942*X44933*X45051Y40824*X45917*X46025Y40932*X46311*Y40854*X46439*Y40932*X46537*Y40647*X45828Y40460D2*X45130D1*X45528Y39949D2*X45620D1*X45528Y40197D2*X45574Y40259D1*Y39949*X45180D2*X45257D1*X45287Y39965*X45310Y39985*X45330Y40016*X45345Y40052*X45349Y40104*X45345Y40156*X45330Y40192*X45310Y40223*X45287Y40244*X45257Y40259*X45180*Y39949*X42913Y40600D2*X43005D1*X42913Y40848D2*X42959Y40910D1*Y40600*X42572Y40729D2*X42664D1*X42699Y40745*X42718Y40776*X42726Y40817*X42718Y40858*X42695Y40894*X42664Y40910*X42572*Y40600*X42251Y40910D2*X42427D1*X42339D2*Y40600D1*X38944Y40460D2*X38246D1*X38786Y40037D2*X38594D1*X38736Y40259*Y39949*X38296D2*X38373D1*X38403Y39965*X38426Y39985*X38445Y40016*X38461Y40052*X38465Y40104*X38461Y40156*X38445Y40192*X38426Y40223*X38403Y40244*X38373Y40259*X38296*Y39949*X37547Y40657D2*Y40932D1*X37635*Y40854*X37783*Y40942*X38049*X38167Y40824*X39033*X39141Y40932*X39427*Y40854*X39555*Y40932*X39653*Y40647*X33671Y40657D2*Y40932D1*X33759*Y40854*X33907*Y40942*X34173*X34291Y40824*X35157*X35265Y40932*X35551*Y40854*X35679*Y40932*X35777*Y40647*X35068Y40460D2*X34370D1*X34761Y40233D2*X34795Y40254D1*X34830Y40259*X34864Y40244*X34883Y40218*X34891Y40187*X34883Y40156*X34864Y40130*X34841Y40114*X34807*X34841D2*X34868Y40104D1*X34895Y40078*X34902Y40042*X34899Y40011*X34879Y39980*X34849Y39954*X34818Y39949*X34784Y39954*X34753Y39975*X34730Y40011*X34420Y39949D2*X34497D1*X34527Y39965*X34550Y39985*X34569Y40016*X34585Y40052*X34589Y40104*X34585Y40156*X34569Y40192*X34550Y40223*X34527Y40244*X34497Y40259*X34420*Y39949*X29795Y40657D2*Y40932D1*X29883*Y40854*X30031*Y40942*X30297*X30415Y40824*X31281*X31389Y40932*X31675*Y40854*X31803*Y40932*X31901*Y40647*X31192Y40460D2*X30494D1*X31019Y39949D2*X30858D1*X30866Y39996*X30888Y40047*X30923Y40083*X31000Y40135*X31015Y40161*X31019Y40192*X31011Y40223*X30984Y40249*X30946Y40259*X30915Y40254*X30888Y40238*X30866Y40207*X30544Y39949D2*X30621D1*X30651Y39965*X30674Y39985*X30694Y40016*X30709Y40052*X30713Y40104*X30709Y40156*X30694Y40192*X30674Y40223*X30651Y40244*X30621Y40259*X30544*Y39949*X25768Y40200D2*X25606D1*X25614Y40246*X25637Y40298*X25672Y40334*X25748Y40386*X25764Y40412*X25768Y40443*X25760Y40474*X25733Y40500*X25695Y40510*X25664Y40505*X25637Y40489*X25614Y40458*X25300Y40329D2*X25392D1*X25427Y40345*X25446Y40376*X25454Y40417*X25446Y40458*X25423Y40494*X25392Y40510*X25300*Y40200*X24979Y40510D2*X25155D1*X25067D2*Y40200D1*X25919Y40657D2*Y40932D1*X26007*Y40854*X26155*Y40942*X26421*X26539Y40824*X27405*X27513Y40932*X27799*Y40854*X27927*Y40932*X28025*Y40647*X27316Y40460D2*X26618D1*X27016Y39949D2*X27108D1*X27016Y40197D2*X27062Y40259D1*Y39949*X26668D2*X26745D1*X26775Y39965*X26798Y39985*X26818Y40016*X26833Y40052*X26837Y40104*X26833Y40156*X26818Y40192*X26798Y40223*X26775Y40244*X26745Y40259*X26668*Y39949*X24401Y40600D2*X24493D1*X24401Y40848D2*X24447Y40910D1*Y40600*X24060Y40729D2*X24152D1*X24187Y40745*X24206Y40776*X24214Y40817*X24206Y40858*X24183Y40894*X24152Y40910*X24060*Y40600*X23739Y40910D2*X23915D1*X23827D2*Y40600D1*X20432Y40460D2*X19734D1*X20274Y40037D2*X20082D1*X20224Y40259*Y39949*X19784D2*X19861D1*X19891Y39965*X19914Y39985*X19933Y40016*X19949Y40052*X19953Y40104*X19949Y40156*X19933Y40192*X19914Y40223*X19891Y40244*X19861Y40259*X19784*Y39949*X19035Y40657D2*Y40932D1*X19123*Y40854*X19271*Y40942*X19537*X19655Y40824*X20521*X20629Y40932*X20915*Y40854*X21043*Y40932*X21141*Y40647*X15159Y40657D2*Y40932D1*X15247*Y40854*X15395*Y40942*X15661*X15779Y40824*X16645*X16753Y40932*X17039*Y40854*X17167*Y40932*X17265*Y40647*X16556Y40460D2*X15858D1*X16249Y40233D2*X16283Y40254D1*X16318Y40259*X16352Y40244*X16371Y40218*X16379Y40187*X16371Y40156*X16352Y40130*X16329Y40114*X16295*X16329D2*X16356Y40104D1*X16383Y40078*X16390Y40042*X16387Y40011*X16367Y39980*X16337Y39954*X16306Y39949*X16272Y39954*X16241Y39975*X16218Y40011*X15908Y39949D2*X15985D1*X16015Y39965*X16038Y39985*X16057Y40016*X16073Y40052*X16077Y40104*X16073Y40156*X16057Y40192*X16038Y40223*X16015Y40244*X15985Y40259*X15908*Y39949*X11283Y40657D2*Y40932D1*X11371*Y40854*X11519*Y40942*X11785*X11903Y40824*X12769*X12877Y40932*X13163*Y40854*X13291*Y40932*X13389*Y40647*X12680Y40460D2*X11982D1*X12507Y39949D2*X12346D1*X12354Y39996*X12376Y40047*X12411Y40083*X12488Y40135*X12503Y40161*X12507Y40192*X12499Y40223*X12472Y40249*X12434Y40259*X12403Y40254*X12376Y40238*X12354Y40207*X12032Y39949D2*X12109D1*X12139Y39965*X12162Y39985*X12182Y40016*X12197Y40052*X12201Y40104*X12197Y40156*X12182Y40192*X12162Y40223*X12139Y40244*X12109Y40259*X12032*Y39949*X7256Y40200D2*X7094D1*X7102Y40246*X7125Y40298*X7160Y40334*X7236Y40386*X7252Y40412*X7256Y40443*X7248Y40474*X7221Y40500*X7183Y40510*X7152Y40505*X7125Y40489*X7102Y40458*X6788Y40329D2*X6880D1*X6915Y40345*X6934Y40376*X6942Y40417*X6934Y40458*X6911Y40494*X6880Y40510*X6788*Y40200*X6467Y40510D2*X6643D1*X6555D2*Y40200D1*X7407Y40657D2*Y40932D1*X7495*Y40854*X7643*Y40942*X7909*X8027Y40824*X8893*X9001Y40932*X9287*Y40854*X9415*Y40932*X9513*Y40647*X8804Y40460D2*X8106D1*X8504Y39949D2*X8596D1*X8504Y40197D2*X8550Y40259D1*Y39949*X8156D2*X8233D1*X8263Y39965*X8286Y39985*X8306Y40016*X8321Y40052*X8325Y40104*X8321Y40156*X8306Y40192*X8286Y40223*X8263Y40244*X8233Y40259*X8156*Y39949*X5889Y40600D2*X5981D1*X5889Y40848D2*X5935Y40910D1*Y40600*X5548Y40729D2*X5640D1*X5675Y40745*X5694Y40776*X5702Y40817*X5694Y40858*X5671Y40894*X5640Y40910*X5548*Y40600*X5227Y40910D2*X5403D1*X5315D2*Y40600D1*X20432Y36540D2*X19734D1*X20274Y36117D2*X20082D1*X20224Y36339*Y36029*X19784D2*X19861D1*X19891Y36045*X19914Y36065*X19933Y36096*X19949Y36132*X19953Y36184*X19949Y36236*X19933Y36272*X19914Y36303*X19891Y36324*X19861Y36339*X19784*Y36029*X19035Y36737D2*Y37012D1*X19123*Y36934*X19271*Y37022*X19537*X19655Y36904*X20521*X20629Y37012*X20915*Y36934*X21043*Y37012*X21141*Y36727*X15159Y36737D2*Y37012D1*X15247*Y36934*X15395*Y37022*X15661*X15779Y36904*X16645*X16753Y37012*X17039*Y36934*X17167*Y37012*X17265*Y36727*X16556Y36540D2*X15858D1*X16249Y36313D2*X16283Y36334D1*X16318Y36339*X16352Y36324*X16371Y36298*X16379Y36267*X16371Y36236*X16352Y36210*X16329Y36194*X16295*X16329D2*X16356Y36184D1*X16383Y36158*X16390Y36122*X16387Y36091*X16367Y36060*X16337Y36034*X16306Y36029*X16272Y36034*X16241Y36055*X16218Y36091*X15908Y36029D2*X15985D1*X16015Y36045*X16038Y36065*X16057Y36096*X16073Y36132*X16077Y36184*X16073Y36236*X16057Y36272*X16038Y36303*X16015Y36324*X15985Y36339*X15908*Y36029*X11283Y36737D2*Y37012D1*X11371*Y36934*X11519*Y37022*X11785*X11903Y36904*X12769*X12877Y37012*X13163*Y36934*X13291*Y37012*X13389*Y36727*X12680Y36540D2*X11982D1*X12507Y36029D2*X12346D1*X12354Y36076*X12376Y36127*X12411Y36163*X12488Y36215*X12503Y36241*X12507Y36272*X12499Y36303*X12472Y36329*X12434Y36339*X12403Y36334*X12376Y36318*X12354Y36287*X12032Y36029D2*X12109D1*X12139Y36045*X12162Y36065*X12182Y36096*X12197Y36132*X12201Y36184*X12197Y36236*X12182Y36272*X12162Y36303*X12139Y36324*X12109Y36339*X12032*Y36029*X7256Y36280D2*X7094D1*X7102Y36326*X7125Y36378*X7160Y36414*X7236Y36466*X7252Y36492*X7256Y36523*X7248Y36554*X7221Y36580*X7183Y36590*X7152Y36585*X7125Y36569*X7102Y36538*X6788Y36409D2*X6880D1*X6915Y36425*X6934Y36456*X6942Y36497*X6934Y36538*X6911Y36574*X6880Y36590*X6788*Y36280*X6467Y36590D2*X6643D1*X6555D2*Y36280D1*X7407Y36737D2*Y37012D1*X7495*Y36934*X7643*Y37022*X7909*X8027Y36904*X8893*X9001Y37012*X9287*Y36934*X9415*Y37012*X9513*Y36727*X8804Y36540D2*X8106D1*X8504Y36029D2*X8596D1*X8504Y36277D2*X8550Y36339D1*Y36029*X8156D2*X8233D1*X8263Y36045*X8286Y36065*X8306Y36096*X8321Y36132*X8325Y36184*X8321Y36236*X8306Y36272*X8286Y36303*X8263Y36324*X8233Y36339*X8156*Y36029*X5889Y36680D2*X5981D1*X5889Y36928D2*X5935Y36990D1*Y36680*X5548Y36809D2*X5640D1*X5675Y36825*X5694Y36856*X5702Y36897*X5694Y36938*X5671Y36974*X5640Y36990*X5548*Y36680*X5227Y36990D2*X5403D1*X5315D2*Y36680D1*X38944Y36540D2*X38246D1*X38786Y36117D2*X38594D1*X38736Y36339*Y36029*X38296D2*X38373D1*X38403Y36045*X38426Y36065*X38445Y36096*X38461Y36132*X38465Y36184*X38461Y36236*X38445Y36272*X38426Y36303*X38403Y36324*X38373Y36339*X38296*Y36029*X37547Y36737D2*Y37012D1*X37635*Y36934*X37783*Y37022*X38049*X38167Y36904*X39033*X39141Y37012*X39427*Y36934*X39555*Y37012*X39653*Y36727*X33671Y36737D2*Y37012D1*X33759*Y36934*X33907*Y37022*X34173*X34291Y36904*X35157*X35265Y37012*X35551*Y36934*X35679*Y37012*X35777*Y36727*X35068Y36540D2*X34370D1*X34761Y36313D2*X34795Y36334D1*X34830Y36339*X34864Y36324*X34883Y36298*X34891Y36267*X34883Y36236*X34864Y36210*X34841Y36194*X34807*X34841D2*X34868Y36184D1*X34895Y36158*X34902Y36122*X34899Y36091*X34879Y36060*X34849Y36034*X34818Y36029*X34784Y36034*X34753Y36055*X34730Y36091*X34420Y36029D2*X34497D1*X34527Y36045*X34550Y36065*X34569Y36096*X34585Y36132*X34589Y36184*X34585Y36236*X34569Y36272*X34550Y36303*X34527Y36324*X34497Y36339*X34420*Y36029*X29795Y36737D2*Y37012D1*X29883*Y36934*X30031*Y37022*X30297*X30415Y36904*X31281*X31389Y37012*X31675*Y36934*X31803*Y37012*X31901*Y36727*X31192Y36540D2*X30494D1*X31019Y36029D2*X30858D1*X30866Y36076*X30888Y36127*X30923Y36163*X31000Y36215*X31015Y36241*X31019Y36272*X31011Y36303*X30984Y36329*X30946Y36339*X30915Y36334*X30888Y36318*X30866Y36287*X30544Y36029D2*X30621D1*X30651Y36045*X30674Y36065*X30694Y36096*X30709Y36132*X30713Y36184*X30709Y36236*X30694Y36272*X30674Y36303*X30651Y36324*X30621Y36339*X30544*Y36029*X25768Y36280D2*X25606D1*X25614Y36326*X25637Y36378*X25672Y36414*X25748Y36466*X25764Y36492*X25768Y36523*X25760Y36554*X25733Y36580*X25695Y36590*X25664Y36585*X25637Y36569*X25614Y36538*X25300Y36409D2*X25392D1*X25427Y36425*X25446Y36456*X25454Y36497*X25446Y36538*X25423Y36574*X25392Y36590*X25300*Y36280*X24979Y36590D2*X25155D1*X25067D2*Y36280D1*X25919Y36737D2*Y37012D1*X26007*Y36934*X26155*Y37022*X26421*X26539Y36904*X27405*X27513Y37012*X27799*Y36934*X27927*Y37012*X28025*Y36727*X27316Y36540D2*X26618D1*X27016Y36029D2*X27108D1*X27016Y36277D2*X27062Y36339D1*Y36029*X26668D2*X26745D1*X26775Y36045*X26798Y36065*X26818Y36096*X26833Y36132*X26837Y36184*X26833Y36236*X26818Y36272*X26798Y36303*X26775Y36324*X26745Y36339*X26668*Y36029*X24401Y36680D2*X24493D1*X24401Y36928D2*X24447Y36990D1*Y36680*X24060Y36809D2*X24152D1*X24187Y36825*X24206Y36856*X24214Y36897*X24206Y36938*X24183Y36974*X24152Y36990*X24060*Y36680*X23739Y36990D2*X23915D1*X23827D2*Y36680D1*X57456Y36540D2*X56758D1*X57298Y36117D2*X57106D1*X57248Y36339*Y36029*X56808D2*X56885D1*X56915Y36045*X56938Y36065*X56957Y36096*X56973Y36132*X56977Y36184*X56973Y36236*X56957Y36272*X56938Y36303*X56915Y36324*X56885Y36339*X56808*Y36029*X56059Y36737D2*Y37012D1*X56147*Y36934*X56295*Y37022*X56561*X56679Y36904*X57545*X57653Y37012*X57939*Y36934*X58067*Y37012*X58165*Y36727*X52183Y36737D2*Y37012D1*X52271*Y36934*X52419*Y37022*X52685*X52803Y36904*X53669*X53777Y37012*X54063*Y36934*X54191*Y37012*X54289*Y36727*X53580Y36540D2*X52882D1*X53273Y36313D2*X53307Y36334D1*X53342Y36339*X53376Y36324*X53395Y36298*X53403Y36267*X53395Y36236*X53376Y36210*X53353Y36194*X53319*X53353D2*X53380Y36184D1*X53407Y36158*X53414Y36122*X53411Y36091*X53391Y36060*X53361Y36034*X53330Y36029*X53296Y36034*X53265Y36055*X53242Y36091*X52932Y36029D2*X53009D1*X53039Y36045*X53062Y36065*X53081Y36096*X53097Y36132*X53101Y36184*X53097Y36236*X53081Y36272*X53062Y36303*X53039Y36324*X53009Y36339*X52932*Y36029*X48307Y36737D2*Y37012D1*X48395*Y36934*X48543*Y37022*X48809*X48927Y36904*X49793*X49901Y37012*X50187*Y36934*X50315*Y37012*X50413*Y36727*X49704Y36540D2*X49006D1*X49531Y36029D2*X49370D1*X49378Y36076*X49400Y36127*X49435Y36163*X49512Y36215*X49527Y36241*X49531Y36272*X49523Y36303*X49496Y36329*X49458Y36339*X49427Y36334*X49400Y36318*X49378Y36287*X49056Y36029D2*X49133D1*X49163Y36045*X49186Y36065*X49206Y36096*X49221Y36132*X49225Y36184*X49221Y36236*X49206Y36272*X49186Y36303*X49163Y36324*X49133Y36339*X49056*Y36029*X44280Y36280D2*X44118D1*X44126Y36326*X44149Y36378*X44184Y36414*X44260Y36466*X44276Y36492*X44280Y36523*X44272Y36554*X44245Y36580*X44207Y36590*X44176Y36585*X44149Y36569*X44126Y36538*X43812Y36409D2*X43904D1*X43939Y36425*X43958Y36456*X43966Y36497*X43958Y36538*X43935Y36574*X43904Y36590*X43812*Y36280*X43491Y36590D2*X43667D1*X43579D2*Y36280D1*X44431Y36737D2*Y37012D1*X44519*Y36934*X44667*Y37022*X44933*X45051Y36904*X45917*X46025Y37012*X46311*Y36934*X46439*Y37012*X46537*Y36727*X45828Y36540D2*X45130D1*X45528Y36029D2*X45620D1*X45528Y36277D2*X45574Y36339D1*Y36029*X45180D2*X45257D1*X45287Y36045*X45310Y36065*X45330Y36096*X45345Y36132*X45349Y36184*X45345Y36236*X45330Y36272*X45310Y36303*X45287Y36324*X45257Y36339*X45180*Y36029*X42913Y36680D2*X43005D1*X42913Y36928D2*X42959Y36990D1*Y36680*X42572Y36809D2*X42664D1*X42699Y36825*X42718Y36856*X42726Y36897*X42718Y36938*X42695Y36974*X42664Y36990*X42572*Y36680*X42251Y36990D2*X42427D1*X42339D2*Y36680D1*X57456Y32620D2*X56758D1*X57298Y32197D2*X57106D1*X57248Y32419*Y32109*X56808D2*X56885D1*X56915Y32125*X56938Y32145*X56957Y32176*X56973Y32212*X56977Y32264*X56973Y32316*X56957Y32352*X56938Y32383*X56915Y32404*X56885Y32419*X56808*Y32109*X56059Y32817D2*Y33092D1*X56147*Y33014*X56295*Y33102*X56561*X56679Y32984*X57545*X57653Y33092*X57939*Y33014*X58067*Y33092*X58165*Y32807*X52183Y32817D2*Y33092D1*X52271*Y33014*X52419*Y33102*X52685*X52803Y32984*X53669*X53777Y33092*X54063*Y33014*X54191*Y33092*X54289*Y32807*X53580Y32620D2*X52882D1*X53273Y32393D2*X53307Y32414D1*X53342Y32419*X53376Y32404*X53395Y32378*X53403Y32347*X53395Y32316*X53376Y32290*X53353Y32274*X53319*X53353D2*X53380Y32264D1*X53407Y32238*X53414Y32202*X53411Y32171*X53391Y32140*X53361Y32114*X53330Y32109*X53296Y32114*X53265Y32135*X53242Y32171*X52932Y32109D2*X53009D1*X53039Y32125*X53062Y32145*X53081Y32176*X53097Y32212*X53101Y32264*X53097Y32316*X53081Y32352*X53062Y32383*X53039Y32404*X53009Y32419*X52932*Y32109*X48307Y32817D2*Y33092D1*X48395*Y33014*X48543*Y33102*X48809*X48927Y32984*X49793*X49901Y33092*X50187*Y33014*X50315*Y33092*X50413*Y32807*X49704Y32620D2*X49006D1*X49531Y32109D2*X49370D1*X49378Y32156*X49400Y32207*X49435Y32243*X49512Y32295*X49527Y32321*X49531Y32352*X49523Y32383*X49496Y32409*X49458Y32419*X49427Y32414*X49400Y32398*X49378Y32367*X49056Y32109D2*X49133D1*X49163Y32125*X49186Y32145*X49206Y32176*X49221Y32212*X49225Y32264*X49221Y32316*X49206Y32352*X49186Y32383*X49163Y32404*X49133Y32419*X49056*Y32109*X44280Y32360D2*X44118D1*X44126Y32406*X44149Y32458*X44184Y32494*X44260Y32546*X44276Y32572*X44280Y32603*X44272Y32634*X44245Y32660*X44207Y32670*X44176Y32665*X44149Y32649*X44126Y32618*X43812Y32489D2*X43904D1*X43939Y32505*X43958Y32536*X43966Y32577*X43958Y32618*X43935Y32654*X43904Y32670*X43812*Y32360*X43491Y32670D2*X43667D1*X43579D2*Y32360D1*X44431Y32817D2*Y33092D1*X44519*Y33014*X44667*Y33102*X44933*X45051Y32984*X45917*X46025Y33092*X46311*Y33014*X46439*Y33092*X46537*Y32807*X45828Y32620D2*X45130D1*X45528Y32109D2*X45620D1*X45528Y32357D2*X45574Y32419D1*Y32109*X45180D2*X45257D1*X45287Y32125*X45310Y32145*X45330Y32176*X45345Y32212*X45349Y32264*X45345Y32316*X45330Y32352*X45310Y32383*X45287Y32404*X45257Y32419*X45180*Y32109*X42913Y32760D2*X43005D1*X42913Y33008D2*X42959Y33070D1*Y32760*X42572Y32889D2*X42664D1*X42699Y32905*X42718Y32936*X42726Y32977*X42718Y33018*X42695Y33054*X42664Y33070*X42572*Y32760*X42251Y33070D2*X42427D1*X42339D2*Y32760D1*X38944Y32620D2*X38246D1*X38786Y32197D2*X38594D1*X38736Y32419*Y32109*X38296D2*X38373D1*X38403Y32125*X38426Y32145*X38445Y32176*X38461Y32212*X38465Y32264*X38461Y32316*X38445Y32352*X38426Y32383*X38403Y32404*X38373Y32419*X38296*Y32109*X37547Y32817D2*Y33092D1*X37635*Y33014*X37783*Y33102*X38049*X38167Y32984*X39033*X39141Y33092*X39427*Y33014*X39555*Y33092*X39653*Y32807*X33671Y32817D2*Y33092D1*X33759*Y33014*X33907*Y33102*X34173*X34291Y32984*X35157*X35265Y33092*X35551*Y33014*X35679*Y33092*X35777*Y32807*X35068Y32620D2*X34370D1*X34761Y32393D2*X34795Y32414D1*X34830Y32419*X34864Y32404*X34883Y32378*X34891Y32347*X34883Y32316*X34864Y32290*X34841Y32274*X34807*X34841D2*X34868Y32264D1*X34895Y32238*X34902Y32202*X34899Y32171*X34879Y32140*X34849Y32114*X34818Y32109*X34784Y32114*X34753Y32135*X34730Y32171*X34420Y32109D2*X34497D1*X34527Y32125*X34550Y32145*X34569Y32176*X34585Y32212*X34589Y32264*X34585Y32316*X34569Y32352*X34550Y32383*X34527Y32404*X34497Y32419*X34420*Y32109*X29795Y32817D2*Y33092D1*X29883*Y33014*X30031*Y33102*X30297*X30415Y32984*X31281*X31389Y33092*X31675*Y33014*X31803*Y33092*X31901*Y32807*X31192Y32620D2*X30494D1*X31019Y32109D2*X30858D1*X30866Y32156*X30888Y32207*X30923Y32243*X31000Y32295*X31015Y32321*X31019Y32352*X31011Y32383*X30984Y32409*X30946Y32419*X30915Y32414*X30888Y32398*X30866Y32367*X30544Y32109D2*X30621D1*X30651Y32125*X30674Y32145*X30694Y32176*X30709Y32212*X30713Y32264*X30709Y32316*X30694Y32352*X30674Y32383*X30651Y32404*X30621Y32419*X30544*Y32109*X25768Y32360D2*X25606D1*X25614Y32406*X25637Y32458*X25672Y32494*X25748Y32546*X25764Y32572*X25768Y32603*X25760Y32634*X25733Y32660*X25695Y32670*X25664Y32665*X25637Y32649*X25614Y32618*X25300Y32489D2*X25392D1*X25427Y32505*X25446Y32536*X25454Y32577*X25446Y32618*X25423Y32654*X25392Y32670*X25300*Y32360*X24979Y32670D2*X25155D1*X25067D2*Y32360D1*X25919Y32817D2*Y33092D1*X26007*Y33014*X26155*Y33102*X26421*X26539Y32984*X27405*X27513Y33092*X27799*Y33014*X27927*Y33092*X28025*Y32807*X27316Y32620D2*X26618D1*X27016Y32109D2*X27108D1*X27016Y32357D2*X27062Y32419D1*Y32109*X26668D2*X26745D1*X26775Y32125*X26798Y32145*X26818Y32176*X26833Y32212*X26837Y32264*X26833Y32316*X26818Y32352*X26798Y32383*X26775Y32404*X26745Y32419*X26668*Y32109*X24401Y32760D2*X24493D1*X24401Y33008D2*X24447Y33070D1*Y32760*X24060Y32889D2*X24152D1*X24187Y32905*X24206Y32936*X24214Y32977*X24206Y33018*X24183Y33054*X24152Y33070*X24060*Y32760*X23739Y33070D2*X23915D1*X23827D2*Y32760D1*X20432Y32620D2*X19734D1*X20274Y32197D2*X20082D1*X20224Y32419*Y32109*X19784D2*X19861D1*X19891Y32125*X19914Y32145*X19933Y32176*X19949Y32212*X19953Y32264*X19949Y32316*X19933Y32352*X19914Y32383*X19891Y32404*X19861Y32419*X19784*Y32109*X19035Y32817D2*Y33092D1*X19123*Y33014*X19271*Y33102*X19537*X19655Y32984*X20521*X20629Y33092*X20915*Y33014*X21043*Y33092*X21141*Y32807*X15159Y32817D2*Y33092D1*X15247*Y33014*X15395*Y33102*X15661*X15779Y32984*X16645*X16753Y33092*X17039*Y33014*X17167*Y33092*X17265*Y32807*X16556Y32620D2*X15858D1*X16249Y32393D2*X16283Y32414D1*X16318Y32419*X16352Y32404*X16371Y32378*X16379Y32347*X16371Y32316*X16352Y32290*X16329Y32274*X16295*X16329D2*X16356Y32264D1*X16383Y32238*X16390Y32202*X16387Y32171*X16367Y32140*X16337Y32114*X16306Y32109*X16272Y32114*X16241Y32135*X16218Y32171*X15908Y32109D2*X15985D1*X16015Y32125*X16038Y32145*X16057Y32176*X16073Y32212*X16077Y32264*X16073Y32316*X16057Y32352*X16038Y32383*X16015Y32404*X15985Y32419*X15908*Y32109*X11283Y32817D2*Y33092D1*X11371*Y33014*X11519*Y33102*X11785*X11903Y32984*X12769*X12877Y33092*X13163*Y33014*X13291*Y33092*X13389*Y32807*X12680Y32620D2*X11982D1*X12507Y32109D2*X12346D1*X12354Y32156*X12376Y32207*X12411Y32243*X12488Y32295*X12503Y32321*X12507Y32352*X12499Y32383*X12472Y32409*X12434Y32419*X12403Y32414*X12376Y32398*X12354Y32367*X12032Y32109D2*X12109D1*X12139Y32125*X12162Y32145*X12182Y32176*X12197Y32212*X12201Y32264*X12197Y32316*X12182Y32352*X12162Y32383*X12139Y32404*X12109Y32419*X12032*Y32109*X7256Y32360D2*X7094D1*X7102Y32406*X7125Y32458*X7160Y32494*X7236Y32546*X7252Y32572*X7256Y32603*X7248Y32634*X7221Y32660*X7183Y32670*X7152Y32665*X7125Y32649*X7102Y32618*X6788Y32489D2*X6880D1*X6915Y32505*X6934Y32536*X6942Y32577*X6934Y32618*X6911Y32654*X6880Y32670*X6788*Y32360*X6467Y32670D2*X6643D1*X6555D2*Y32360D1*X7407Y32817D2*Y33092D1*X7495*Y33014*X7643*Y33102*X7909*X8027Y32984*X8893*X9001Y33092*X9287*Y33014*X9415*Y33092*X9513*Y32807*X8804Y32620D2*X8106D1*X8504Y32109D2*X8596D1*X8504Y32357D2*X8550Y32419D1*Y32109*X8156D2*X8233D1*X8263Y32125*X8286Y32145*X8306Y32176*X8321Y32212*X8325Y32264*X8321Y32316*X8306Y32352*X8286Y32383*X8263Y32404*X8233Y32419*X8156*Y32109*X5889Y32760D2*X5981D1*X5889Y33008D2*X5935Y33070D1*Y32760*X5548Y32889D2*X5640D1*X5675Y32905*X5694Y32936*X5702Y32977*X5694Y33018*X5671Y33054*X5640Y33070*X5548*Y32760*X5227Y33070D2*X5403D1*X5315D2*Y32760D1*X20432Y28700D2*X19734D1*X20274Y28277D2*X20082D1*X20224Y28499*Y28189*X19784D2*X19861D1*X19891Y28205*X19914Y28225*X19933Y28256*X19949Y28292*X19953Y28344*X19949Y28396*X19933Y28432*X19914Y28463*X19891Y28484*X19861Y28499*X19784*Y28189*X19035Y28897D2*Y29172D1*X19123*Y29094*X19271*Y29182*X19537*X19655Y29064*X20521*X20629Y29172*X20915*Y29094*X21043*Y29172*X21141*Y28887*X15159Y28897D2*Y29172D1*X15247*Y29094*X15395*Y29182*X15661*X15779Y29064*X16645*X16753Y29172*X17039*Y29094*X17167*Y29172*X17265*Y28887*X16556Y28700D2*X15858D1*X16249Y28473D2*X16283Y28494D1*X16318Y28499*X16352Y28484*X16371Y28458*X16379Y28427*X16371Y28396*X16352Y28370*X16329Y28354*X16295*X16329D2*X16356Y28344D1*X16383Y28318*X16390Y28282*X16387Y28251*X16367Y28220*X16337Y28194*X16306Y28189*X16272Y28194*X16241Y28215*X16218Y28251*X15908Y28189D2*X15985D1*X16015Y28205*X16038Y28225*X16057Y28256*X16073Y28292*X16077Y28344*X16073Y28396*X16057Y28432*X16038Y28463*X16015Y28484*X15985Y28499*X15908*Y28189*X11283Y28897D2*Y29172D1*X11371*Y29094*X11519*Y29182*X11785*X11903Y29064*X12769*X12877Y29172*X13163*Y29094*X13291*Y29172*X13389*Y28887*X12680Y28700D2*X11982D1*X12507Y28189D2*X12346D1*X12354Y28236*X12376Y28287*X12411Y28323*X12488Y28375*X12503Y28401*X12507Y28432*X12499Y28463*X12472Y28489*X12434Y28499*X12403Y28494*X12376Y28478*X12354Y28447*X12032Y28189D2*X12109D1*X12139Y28205*X12162Y28225*X12182Y28256*X12197Y28292*X12201Y28344*X12197Y28396*X12182Y28432*X12162Y28463*X12139Y28484*X12109Y28499*X12032*Y28189*X7256Y28440D2*X7094D1*X7102Y28486*X7125Y28538*X7160Y28574*X7236Y28626*X7252Y28652*X7256Y28683*X7248Y28714*X7221Y28740*X7183Y28750*X7152Y28745*X7125Y28729*X7102Y28698*X6788Y28569D2*X6880D1*X6915Y28585*X6934Y28616*X6942Y28657*X6934Y28698*X6911Y28734*X6880Y28750*X6788*Y28440*X6467Y28750D2*X6643D1*X6555D2*Y28440D1*X7407Y28897D2*Y29172D1*X7495*Y29094*X7643*Y29182*X7909*X8027Y29064*X8893*X9001Y29172*X9287*Y29094*X9415*Y29172*X9513*Y28887*X8804Y28700D2*X8106D1*X8504Y28189D2*X8596D1*X8504Y28437D2*X8550Y28499D1*Y28189*X8156D2*X8233D1*X8263Y28205*X8286Y28225*X8306Y28256*X8321Y28292*X8325Y28344*X8321Y28396*X8306Y28432*X8286Y28463*X8263Y28484*X8233Y28499*X8156*Y28189*X5889Y28840D2*X5981D1*X5889Y29088D2*X5935Y29150D1*Y28840*X5548Y28969D2*X5640D1*X5675Y28985*X5694Y29016*X5702Y29057*X5694Y29098*X5671Y29134*X5640Y29150*X5548*Y28840*X5227Y29150D2*X5403D1*X5315D2*Y28840D1*X38944Y28700D2*X38246D1*X38786Y28277D2*X38594D1*X38736Y28499*Y28189*X38296D2*X38373D1*X38403Y28205*X38426Y28225*X38445Y28256*X38461Y28292*X38465Y28344*X38461Y28396*X38445Y28432*X38426Y28463*X38403Y28484*X38373Y28499*X38296*Y28189*X37547Y28897D2*Y29172D1*X37635*Y29094*X37783*Y29182*X38049*X38167Y29064*X39033*X39141Y29172*X39427*Y29094*X39555*Y29172*X39653*Y28887*X33671Y28897D2*Y29172D1*X33759*Y29094*X33907*Y29182*X34173*X34291Y29064*X35157*X35265Y29172*X35551*Y29094*X35679*Y29172*X35777*Y28887*X35068Y28700D2*X34370D1*X34761Y28473D2*X34795Y28494D1*X34830Y28499*X34864Y28484*X34883Y28458*X34891Y28427*X34883Y28396*X34864Y28370*X34841Y28354*X34807*X34841D2*X34868Y28344D1*X34895Y28318*X34902Y28282*X34899Y28251*X34879Y28220*X34849Y28194*X34818Y28189*X34784Y28194*X34753Y28215*X34730Y28251*X34420Y28189D2*X34497D1*X34527Y28205*X34550Y28225*X34569Y28256*X34585Y28292*X34589Y28344*X34585Y28396*X34569Y28432*X34550Y28463*X34527Y28484*X34497Y28499*X34420*Y28189*X29795Y28897D2*Y29172D1*X29883*Y29094*X30031*Y29182*X30297*X30415Y29064*X31281*X31389Y29172*X31675*Y29094*X31803*Y29172*X31901*Y28887*X31192Y28700D2*X30494D1*X31019Y28189D2*X30858D1*X30866Y28236*X30888Y28287*X30923Y28323*X31000Y28375*X31015Y28401*X31019Y28432*X31011Y28463*X30984Y28489*X30946Y28499*X30915Y28494*X30888Y28478*X30866Y28447*X30544Y28189D2*X30621D1*X30651Y28205*X30674Y28225*X30694Y28256*X30709Y28292*X30713Y28344*X30709Y28396*X30694Y28432*X30674Y28463*X30651Y28484*X30621Y28499*X30544*Y28189*X25768Y28440D2*X25606D1*X25614Y28486*X25637Y28538*X25672Y28574*X25748Y28626*X25764Y28652*X25768Y28683*X25760Y28714*X25733Y28740*X25695Y28750*X25664Y28745*X25637Y28729*X25614Y28698*X25300Y28569D2*X25392D1*X25427Y28585*X25446Y28616*X25454Y28657*X25446Y28698*X25423Y28734*X25392Y28750*X25300*Y28440*X24979Y28750D2*X25155D1*X25067D2*Y28440D1*X25919Y28897D2*Y29172D1*X26007*Y29094*X26155*Y29182*X26421*X26539Y29064*X27405*X27513Y29172*X27799*Y29094*X27927*Y29172*X28025*Y28887*X27316Y28700D2*X26618D1*X27016Y28189D2*X27108D1*X27016Y28437D2*X27062Y28499D1*Y28189*X26668D2*X26745D1*X26775Y28205*X26798Y28225*X26818Y28256*X26833Y28292*X26837Y28344*X26833Y28396*X26818Y28432*X26798Y28463*X26775Y28484*X26745Y28499*X26668*Y28189*X24401Y28840D2*X24493D1*X24401Y29088D2*X24447Y29150D1*Y28840*X24060Y28969D2*X24152D1*X24187Y28985*X24206Y29016*X24214Y29057*X24206Y29098*X24183Y29134*X24152Y29150*X24060*Y28840*X23739Y29150D2*X23915D1*X23827D2*Y28840D1*X57456Y28700D2*X56758D1*X57298Y28277D2*X57106D1*X57248Y28499*Y28189*X56808D2*X56885D1*X56915Y28205*X56938Y28225*X56957Y28256*X56973Y28292*X56977Y28344*X56973Y28396*X56957Y28432*X56938Y28463*X56915Y28484*X56885Y28499*X56808*Y28189*X56059Y28897D2*Y29172D1*X56147*Y29094*X56295*Y29182*X56561*X56679Y29064*X57545*X57653Y29172*X57939*Y29094*X58067*Y29172*X58165*Y28887*X52183Y28897D2*Y29172D1*X52271*Y29094*X52419*Y29182*X52685*X52803Y29064*X53669*X53777Y29172*X54063*Y29094*X54191*Y29172*X54289*Y28887*X53580Y28700D2*X52882D1*X53273Y28473D2*X53307Y28494D1*X53342Y28499*X53376Y28484*X53395Y28458*X53403Y28427*X53395Y28396*X53376Y28370*X53353Y28354*X53319*X53353D2*X53380Y28344D1*X53407Y28318*X53414Y28282*X53411Y28251*X53391Y28220*X53361Y28194*X53330Y28189*X53296Y28194*X53265Y28215*X53242Y28251*X52932Y28189D2*X53009D1*X53039Y28205*X53062Y28225*X53081Y28256*X53097Y28292*X53101Y28344*X53097Y28396*X53081Y28432*X53062Y28463*X53039Y28484*X53009Y28499*X52932*Y28189*X48307Y28897D2*Y29172D1*X48395*Y29094*X48543*Y29182*X48809*X48927Y29064*X49793*X49901Y29172*X50187*Y29094*X50315*Y29172*X50413*Y28887*X49704Y28700D2*X49006D1*X49531Y28189D2*X49370D1*X49378Y28236*X49400Y28287*X49435Y28323*X49512Y28375*X49527Y28401*X49531Y28432*X49523Y28463*X49496Y28489*X49458Y28499*X49427Y28494*X49400Y28478*X49378Y28447*X49056Y28189D2*X49133D1*X49163Y28205*X49186Y28225*X49206Y28256*X49221Y28292*X49225Y28344*X49221Y28396*X49206Y28432*X49186Y28463*X49163Y28484*X49133Y28499*X49056*Y28189*X44280Y28440D2*X44118D1*X44126Y28486*X44149Y28538*X44184Y28574*X44260Y28626*X44276Y28652*X44280Y28683*X44272Y28714*X44245Y28740*X44207Y28750*X44176Y28745*X44149Y28729*X44126Y28698*X43812Y28569D2*X43904D1*X43939Y28585*X43958Y28616*X43966Y28657*X43958Y28698*X43935Y28734*X43904Y28750*X43812*Y28440*X43491Y28750D2*X43667D1*X43579D2*Y28440D1*X44431Y28897D2*Y29172D1*X44519*Y29094*X44667*Y29182*X44933*X45051Y29064*X45917*X46025Y29172*X46311*Y29094*X46439*Y29172*X46537*Y28887*X45828Y28700D2*X45130D1*X45528Y28189D2*X45620D1*X45528Y28437D2*X45574Y28499D1*Y28189*X45180D2*X45257D1*X45287Y28205*X45310Y28225*X45330Y28256*X45345Y28292*X45349Y28344*X45345Y28396*X45330Y28432*X45310Y28463*X45287Y28484*X45257Y28499*X45180*Y28189*X42913Y28840D2*X43005D1*X42913Y29088D2*X42959Y29150D1*Y28840*X42572Y28969D2*X42664D1*X42699Y28985*X42718Y29016*X42726Y29057*X42718Y29098*X42695Y29134*X42664Y29150*X42572*Y28840*X42251Y29150D2*X42427D1*X42339D2*Y28840D1*X57456Y24780D2*X56758D1*X57298Y24357D2*X57106D1*X57248Y24579*Y24269*X56808D2*X56885D1*X56915Y24285*X56938Y24305*X56957Y24336*X56973Y24372*X56977Y24424*X56973Y24476*X56957Y24512*X56938Y24543*X56915Y24564*X56885Y24579*X56808*Y24269*X56059Y24977D2*Y25252D1*X56147*Y25174*X56295*Y25262*X56561*X56679Y25144*X57545*X57653Y25252*X57939*Y25174*X58067*Y25252*X58165*Y24967*X52183Y24977D2*Y25252D1*X52271*Y25174*X52419*Y25262*X52685*X52803Y25144*X53669*X53777Y25252*X54063*Y25174*X54191*Y25252*X54289*Y24967*X53580Y24780D2*X52882D1*X53273Y24553D2*X53307Y24574D1*X53342Y24579*X53376Y24564*X53395Y24538*X53403Y24507*X53395Y24476*X53376Y24450*X53353Y24434*X53319*X53353D2*X53380Y24424D1*X53407Y24398*X53414Y24362*X53411Y24331*X53391Y24300*X53361Y24274*X53330Y24269*X53296Y24274*X53265Y24295*X53242Y24331*X52932Y24269D2*X53009D1*X53039Y24285*X53062Y24305*X53081Y24336*X53097Y24372*X53101Y24424*X53097Y24476*X53081Y24512*X53062Y24543*X53039Y24564*X53009Y24579*X52932*Y24269*X48307Y24977D2*Y25252D1*X48395*Y25174*X48543*Y25262*X48809*X48927Y25144*X49793*X49901Y25252*X50187*Y25174*X50315*Y25252*X50413*Y24967*X49704Y24780D2*X49006D1*X49531Y24269D2*X49370D1*X49378Y24316*X49400Y24367*X49435Y24403*X49512Y24455*X49527Y24481*X49531Y24512*X49523Y24543*X49496Y24569*X49458Y24579*X49427Y24574*X49400Y24558*X49378Y24527*X49056Y24269D2*X49133D1*X49163Y24285*X49186Y24305*X49206Y24336*X49221Y24372*X49225Y24424*X49221Y24476*X49206Y24512*X49186Y24543*X49163Y24564*X49133Y24579*X49056*Y24269*X44280Y24520D2*X44118D1*X44126Y24566*X44149Y24618*X44184Y24654*X44260Y24706*X44276Y24732*X44280Y24763*X44272Y24794*X44245Y24820*X44207Y24830*X44176Y24825*X44149Y24809*X44126Y24778*X43812Y24649D2*X43904D1*X43939Y24665*X43958Y24696*X43966Y24737*X43958Y24778*X43935Y24814*X43904Y24830*X43812*Y24520*X43491Y24830D2*X43667D1*X43579D2*Y24520D1*X44431Y24977D2*Y25252D1*X44519*Y25174*X44667*Y25262*X44933*X45051Y25144*X45917*X46025Y25252*X46311*Y25174*X46439*Y25252*X46537*Y24967*X45828Y24780D2*X45130D1*X45528Y24269D2*X45620D1*X45528Y24517D2*X45574Y24579D1*Y24269*X45180D2*X45257D1*X45287Y24285*X45310Y24305*X45330Y24336*X45345Y24372*X45349Y24424*X45345Y24476*X45330Y24512*X45310Y24543*X45287Y24564*X45257Y24579*X45180*Y24269*X42913Y24920D2*X43005D1*X42913Y25168D2*X42959Y25230D1*Y24920*X42572Y25049D2*X42664D1*X42699Y25065*X42718Y25096*X42726Y25137*X42718Y25178*X42695Y25214*X42664Y25230*X42572*Y24920*X42251Y25230D2*X42427D1*X42339D2*Y24920D1*X38944Y24780D2*X38246D1*X38786Y24357D2*X38594D1*X38736Y24579*Y24269*X38296D2*X38373D1*X38403Y24285*X38426Y24305*X38445Y24336*X38461Y24372*X38465Y24424*X38461Y24476*X38445Y24512*X38426Y24543*X38403Y24564*X38373Y24579*X38296*Y24269*X37547Y24977D2*Y25252D1*X37635*Y25174*X37783*Y25262*X38049*X38167Y25144*X39033*X39141Y25252*X39427*Y25174*X39555*Y25252*X39653*Y24967*X33671Y24977D2*Y25252D1*X33759*Y25174*X33907*Y25262*X34173*X34291Y25144*X35157*X35265Y25252*X35551*Y25174*X35679*Y25252*X35777*Y24967*X35068Y24780D2*X34370D1*X34761Y24553D2*X34795Y24574D1*X34830Y24579*X34864Y24564*X34883Y24538*X34891Y24507*X34883Y24476*X34864Y24450*X34841Y24434*X34807*X34841D2*X34868Y24424D1*X34895Y24398*X34902Y24362*X34899Y24331*X34879Y24300*X34849Y24274*X34818Y24269*X34784Y24274*X34753Y24295*X34730Y24331*X34420Y24269D2*X34497D1*X34527Y24285*X34550Y24305*X34569Y24336*X34585Y24372*X34589Y24424*X34585Y24476*X34569Y24512*X34550Y24543*X34527Y24564*X34497Y24579*X34420*Y24269*X29795Y24977D2*Y25252D1*X29883*Y25174*X30031*Y25262*X30297*X30415Y25144*X31281*X31389Y25252*X31675*Y25174*X31803*Y25252*X31901*Y24967*X31192Y24780D2*X30494D1*X31019Y24269D2*X30858D1*X30866Y24316*X30888Y24367*X30923Y24403*X31000Y24455*X31015Y24481*X31019Y24512*X31011Y24543*X30984Y24569*X30946Y24579*X30915Y24574*X30888Y24558*X30866Y24527*X30544Y24269D2*X30621D1*X30651Y24285*X30674Y24305*X30694Y24336*X30709Y24372*X30713Y24424*X30709Y24476*X30694Y24512*X30674Y24543*X30651Y24564*X30621Y24579*X30544*Y24269*X25768Y24520D2*X25606D1*X25614Y24566*X25637Y24618*X25672Y24654*X25748Y24706*X25764Y24732*X25768Y24763*X25760Y24794*X25733Y24820*X25695Y24830*X25664Y24825*X25637Y24809*X25614Y24778*X25300Y24649D2*X25392D1*X25427Y24665*X25446Y24696*X25454Y24737*X25446Y24778*X25423Y24814*X25392Y24830*X25300*Y24520*X24979Y24830D2*X25155D1*X25067D2*Y24520D1*X25919Y24977D2*Y25252D1*X26007*Y25174*X26155*Y25262*X26421*X26539Y25144*X27405*X27513Y25252*X27799*Y25174*X27927*Y25252*X28025*Y24967*X27316Y24780D2*X26618D1*X27016Y24269D2*X27108D1*X27016Y24517D2*X27062Y24579D1*Y24269*X26668D2*X26745D1*X26775Y24285*X26798Y24305*X26818Y24336*X26833Y24372*X26837Y24424*X26833Y24476*X26818Y24512*X26798Y24543*X26775Y24564*X26745Y24579*X26668*Y24269*X24401Y24920D2*X24493D1*X24401Y25168D2*X24447Y25230D1*Y24920*X24060Y25049D2*X24152D1*X24187Y25065*X24206Y25096*X24214Y25137*X24206Y25178*X24183Y25214*X24152Y25230*X24060*Y24920*X23739Y25230D2*X23915D1*X23827D2*Y24920D1*X20432Y24780D2*X19734D1*X20274Y24357D2*X20082D1*X20224Y24579*Y24269*X19784D2*X19861D1*X19891Y24285*X19914Y24305*X19933Y24336*X19949Y24372*X19953Y24424*X19949Y24476*X19933Y24512*X19914Y24543*X19891Y24564*X19861Y24579*X19784*Y24269*X19035Y24977D2*Y25252D1*X19123*Y25174*X19271*Y25262*X19537*X19655Y25144*X20521*X20629Y25252*X20915*Y25174*X21043*Y25252*X21141*Y24967*X15159Y24977D2*Y25252D1*X15247*Y25174*X15395*Y25262*X15661*X15779Y25144*X16645*X16753Y25252*X17039*Y25174*X17167*Y25252*X17265*Y24967*X16556Y24780D2*X15858D1*X16249Y24553D2*X16283Y24574D1*X16318Y24579*X16352Y24564*X16371Y24538*X16379Y24507*X16371Y24476*X16352Y24450*X16329Y24434*X16295*X16329D2*X16356Y24424D1*X16383Y24398*X16390Y24362*X16387Y24331*X16367Y24300*X16337Y24274*X16306Y24269*X16272Y24274*X16241Y24295*X16218Y24331*X15908Y24269D2*X15985D1*X16015Y24285*X16038Y24305*X16057Y24336*X16073Y24372*X16077Y24424*X16073Y24476*X16057Y24512*X16038Y24543*X16015Y24564*X15985Y24579*X15908*Y24269*X11283Y24977D2*Y25252D1*X11371*Y25174*X11519*Y25262*X11785*X11903Y25144*X12769*X12877Y25252*X13163*Y25174*X13291*Y25252*X13389*Y24967*X12680Y24780D2*X11982D1*X12507Y24269D2*X12346D1*X12354Y24316*X12376Y24367*X12411Y24403*X12488Y24455*X12503Y24481*X12507Y24512*X12499Y24543*X12472Y24569*X12434Y24579*X12403Y24574*X12376Y24558*X12354Y24527*X12032Y24269D2*X12109D1*X12139Y24285*X12162Y24305*X12182Y24336*X12197Y24372*X12201Y24424*X12197Y24476*X12182Y24512*X12162Y24543*X12139Y24564*X12109Y24579*X12032*Y24269*X7256Y24520D2*X7094D1*X7102Y24566*X7125Y24618*X7160Y24654*X7236Y24706*X7252Y24732*X7256Y24763*X7248Y24794*X7221Y24820*X7183Y24830*X7152Y24825*X7125Y24809*X7102Y24778*X6788Y24649D2*X6880D1*X6915Y24665*X6934Y24696*X6942Y24737*X6934Y24778*X6911Y24814*X6880Y24830*X6788*Y24520*X6467Y24830D2*X6643D1*X6555D2*Y24520D1*X7407Y24977D2*Y25252D1*X7495*Y25174*X7643*Y25262*X7909*X8027Y25144*X8893*X9001Y25252*X9287*Y25174*X9415*Y25252*X9513*Y24967*X8804Y24780D2*X8106D1*X8504Y24269D2*X8596D1*X8504Y24517D2*X8550Y24579D1*Y24269*X8156D2*X8233D1*X8263Y24285*X8286Y24305*X8306Y24336*X8321Y24372*X8325Y24424*X8321Y24476*X8306Y24512*X8286Y24543*X8263Y24564*X8233Y24579*X8156*Y24269*X5889Y24920D2*X5981D1*X5889Y25168D2*X5935Y25230D1*Y24920*X5548Y25049D2*X5640D1*X5675Y25065*X5694Y25096*X5702Y25137*X5694Y25178*X5671Y25214*X5640Y25230*X5548*Y24920*X5227Y25230D2*X5403D1*X5315D2*Y24920D1*X20432Y20860D2*X19734D1*X20274Y20437D2*X20082D1*X20224Y20659*Y20349*X19784D2*X19861D1*X19891Y20365*X19914Y20385*X19933Y20416*X19949Y20452*X19953Y20504*X19949Y20556*X19933Y20592*X19914Y20623*X19891Y20644*X19861Y20659*X19784*Y20349*X19035Y21057D2*Y21332D1*X19123*Y21254*X19271*Y21342*X19537*X19655Y21224*X20521*X20629Y21332*X20915*Y21254*X21043*Y21332*X21141*Y21047*X15159Y21057D2*Y21332D1*X15247*Y21254*X15395*Y21342*X15661*X15779Y21224*X16645*X16753Y21332*X17039*Y21254*X17167*Y21332*X17265*Y21047*X16556Y20860D2*X15858D1*X16249Y20633D2*X16283Y20654D1*X16318Y20659*X16352Y20644*X16371Y20618*X16379Y20587*X16371Y20556*X16352Y20530*X16329Y20514*X16295*X16329D2*X16356Y20504D1*X16383Y20478*X16390Y20442*X16387Y20411*X16367Y20380*X16337Y20354*X16306Y20349*X16272Y20354*X16241Y20375*X16218Y20411*X15908Y20349D2*X15985D1*X16015Y20365*X16038Y20385*X16057Y20416*X16073Y20452*X16077Y20504*X16073Y20556*X16057Y20592*X16038Y20623*X16015Y20644*X15985Y20659*X15908*Y20349*X11283Y21057D2*Y21332D1*X11371*Y21254*X11519*Y21342*X11785*X11903Y21224*X12769*X12877Y21332*X13163*Y21254*X13291*Y21332*X13389*Y21047*X12680Y20860D2*X11982D1*X12507Y20349D2*X12346D1*X12354Y20396*X12376Y20447*X12411Y20483*X12488Y20535*X12503Y20561*X12507Y20592*X12499Y20623*X12472Y20649*X12434Y20659*X12403Y20654*X12376Y20638*X12354Y20607*X12032Y20349D2*X12109D1*X12139Y20365*X12162Y20385*X12182Y20416*X12197Y20452*X12201Y20504*X12197Y20556*X12182Y20592*X12162Y20623*X12139Y20644*X12109Y20659*X12032*Y20349*X7256Y20600D2*X7094D1*X7102Y20646*X7125Y20698*X7160Y20734*X7236Y20786*X7252Y20812*X7256Y20843*X7248Y20874*X7221Y20900*X7183Y20910*X7152Y20905*X7125Y20889*X7102Y20858*X6788Y20729D2*X6880D1*X6915Y20745*X6934Y20776*X6942Y20817*X6934Y20858*X6911Y20894*X6880Y20910*X6788*Y20600*X6467Y20910D2*X6643D1*X6555D2*Y20600D1*X7407Y21057D2*Y21332D1*X7495*Y21254*X7643*Y21342*X7909*X8027Y21224*X8893*X9001Y21332*X9287*Y21254*X9415*Y21332*X9513*Y21047*X8804Y20860D2*X8106D1*X8504Y20349D2*X8596D1*X8504Y20597D2*X8550Y20659D1*Y20349*X8156D2*X8233D1*X8263Y20365*X8286Y20385*X8306Y20416*X8321Y20452*X8325Y20504*X8321Y20556*X8306Y20592*X8286Y20623*X8263Y20644*X8233Y20659*X8156*Y20349*X5889Y21000D2*X5981D1*X5889Y21248D2*X5935Y21310D1*Y21000*X5548Y21129D2*X5640D1*X5675Y21145*X5694Y21176*X5702Y21217*X5694Y21258*X5671Y21294*X5640Y21310*X5548*Y21000*X5227Y21310D2*X5403D1*X5315D2*Y21000D1*X38944Y20860D2*X38246D1*X38786Y20437D2*X38594D1*X38736Y20659*Y20349*X38296D2*X38373D1*X38403Y20365*X38426Y20385*X38445Y20416*X38461Y20452*X38465Y20504*X38461Y20556*X38445Y20592*X38426Y20623*X38403Y20644*X38373Y20659*X38296*Y20349*X37547Y21057D2*Y21332D1*X37635*Y21254*X37783*Y21342*X38049*X38167Y21224*X39033*X39141Y21332*X39427*Y21254*X39555*Y21332*X39653*Y21047*X33671Y21057D2*Y21332D1*X33759*Y21254*X33907*Y21342*X34173*X34291Y21224*X35157*X35265Y21332*X35551*Y21254*X35679*Y21332*X35777*Y21047*X35068Y20860D2*X34370D1*X34761Y20633D2*X34795Y20654D1*X34830Y20659*X34864Y20644*X34883Y20618*X34891Y20587*X34883Y20556*X34864Y20530*X34841Y20514*X34807*X34841D2*X34868Y20504D1*X34895Y20478*X34902Y20442*X34899Y20411*X34879Y20380*X34849Y20354*X34818Y20349*X34784Y20354*X34753Y20375*X34730Y20411*X34420Y20349D2*X34497D1*X34527Y20365*X34550Y20385*X34569Y20416*X34585Y20452*X34589Y20504*X34585Y20556*X34569Y20592*X34550Y20623*X34527Y20644*X34497Y20659*X34420*Y20349*X29795Y21057D2*Y21332D1*X29883*Y21254*X30031*Y21342*X30297*X30415Y21224*X31281*X31389Y21332*X31675*Y21254*X31803*Y21332*X31901*Y21047*X31192Y20860D2*X30494D1*X31019Y20349D2*X30858D1*X30866Y20396*X30888Y20447*X30923Y20483*X31000Y20535*X31015Y20561*X31019Y20592*X31011Y20623*X30984Y20649*X30946Y20659*X30915Y20654*X30888Y20638*X30866Y20607*X30544Y20349D2*X30621D1*X30651Y20365*X30674Y20385*X30694Y20416*X30709Y20452*X30713Y20504*X30709Y20556*X30694Y20592*X30674Y20623*X30651Y20644*X30621Y20659*X30544*Y20349*X25768Y20600D2*X25606D1*X25614Y20646*X25637Y20698*X25672Y20734*X25748Y20786*X25764Y20812*X25768Y20843*X25760Y20874*X25733Y20900*X25695Y20910*X25664Y20905*X25637Y20889*X25614Y20858*X25300Y20729D2*X25392D1*X25427Y20745*X25446Y20776*X25454Y20817*X25446Y20858*X25423Y20894*X25392Y20910*X25300*Y20600*X24979Y20910D2*X25155D1*X25067D2*Y20600D1*X25919Y21057D2*Y21332D1*X26007*Y21254*X26155*Y21342*X26421*X26539Y21224*X27405*X27513Y21332*X27799*Y21254*X27927*Y21332*X28025*Y21047*X27316Y20860D2*X26618D1*X27016Y20349D2*X27108D1*X27016Y20597D2*X27062Y20659D1*Y20349*X26668D2*X26745D1*X26775Y20365*X26798Y20385*X26818Y20416*X26833Y20452*X26837Y20504*X26833Y20556*X26818Y20592*X26798Y20623*X26775Y20644*X26745Y20659*X26668*Y20349*X24401Y21000D2*X24493D1*X24401Y21248D2*X24447Y21310D1*Y21000*X24060Y21129D2*X24152D1*X24187Y21145*X24206Y21176*X24214Y21217*X24206Y21258*X24183Y21294*X24152Y21310*X24060*Y21000*X23739Y21310D2*X23915D1*X23827D2*Y21000D1*X57456Y20860D2*X56758D1*X57298Y20437D2*X57106D1*X57248Y20659*Y20349*X56808D2*X56885D1*X56915Y20365*X56938Y20385*X56957Y20416*X56973Y20452*X56977Y20504*X56973Y20556*X56957Y20592*X56938Y20623*X56915Y20644*X56885Y20659*X56808*Y20349*X56059Y21057D2*Y21332D1*X56147*Y21254*X56295*Y21342*X56561*X56679Y21224*X57545*X57653Y21332*X57939*Y21254*X58067*Y21332*X58165*Y21047*X52183Y21057D2*Y21332D1*X52271*Y21254*X52419*Y21342*X52685*X52803Y21224*X53669*X53777Y21332*X54063*Y21254*X54191*Y21332*X54289*Y21047*X53580Y20860D2*X52882D1*X53273Y20633D2*X53307Y20654D1*X53342Y20659*X53376Y20644*X53395Y20618*X53403Y20587*X53395Y20556*X53376Y20530*X53353Y20514*X53319*X53353D2*X53380Y20504D1*X53407Y20478*X53414Y20442*X53411Y20411*X53391Y20380*X53361Y20354*X53330Y20349*X53296Y20354*X53265Y20375*X53242Y20411*X52932Y20349D2*X53009D1*X53039Y20365*X53062Y20385*X53081Y20416*X53097Y20452*X53101Y20504*X53097Y20556*X53081Y20592*X53062Y20623*X53039Y20644*X53009Y20659*X52932*Y20349*X48307Y21057D2*Y21332D1*X48395*Y21254*X48543*Y21342*X48809*X48927Y21224*X49793*X49901Y21332*X50187*Y21254*X50315*Y21332*X50413*Y21047*X49704Y20860D2*X49006D1*X49531Y20349D2*X49370D1*X49378Y20396*X49400Y20447*X49435Y20483*X49512Y20535*X49527Y20561*X49531Y20592*X49523Y20623*X49496Y20649*X49458Y20659*X49427Y20654*X49400Y20638*X49378Y20607*X49056Y20349D2*X49133D1*X49163Y20365*X49186Y20385*X49206Y20416*X49221Y20452*X49225Y20504*X49221Y20556*X49206Y20592*X49186Y20623*X49163Y20644*X49133Y20659*X49056*Y20349*X44280Y20600D2*X44118D1*X44126Y20646*X44149Y20698*X44184Y20734*X44260Y20786*X44276Y20812*X44280Y20843*X44272Y20874*X44245Y20900*X44207Y20910*X44176Y20905*X44149Y20889*X44126Y20858*X43812Y20729D2*X43904D1*X43939Y20745*X43958Y20776*X43966Y20817*X43958Y20858*X43935Y20894*X43904Y20910*X43812*Y20600*X43491Y20910D2*X43667D1*X43579D2*Y20600D1*X44431Y21057D2*Y21332D1*X44519*Y21254*X44667*Y21342*X44933*X45051Y21224*X45917*X46025Y21332*X46311*Y21254*X46439*Y21332*X46537*Y21047*X45828Y20860D2*X45130D1*X45528Y20349D2*X45620D1*X45528Y20597D2*X45574Y20659D1*Y20349*X45180D2*X45257D1*X45287Y20365*X45310Y20385*X45330Y20416*X45345Y20452*X45349Y20504*X45345Y20556*X45330Y20592*X45310Y20623*X45287Y20644*X45257Y20659*X45180*Y20349*X42913Y21000D2*X43005D1*X42913Y21248D2*X42959Y21310D1*Y21000*X42572Y21129D2*X42664D1*X42699Y21145*X42718Y21176*X42726Y21217*X42718Y21258*X42695Y21294*X42664Y21310*X42572*Y21000*X42251Y21310D2*X42427D1*X42339D2*Y21000D1*X57456Y16940D2*X56758D1*X57298Y16517D2*X57106D1*X57248Y16739*Y16429*X56808D2*X56885D1*X56915Y16445*X56938Y16465*X56957Y16496*X56973Y16532*X56977Y16584*X56973Y16636*X56957Y16672*X56938Y16703*X56915Y16724*X56885Y16739*X56808*Y16429*X56059Y17137D2*Y17412D1*X56147*Y17334*X56295*Y17422*X56561*X56679Y17304*X57545*X57653Y17412*X57939*Y17334*X58067*Y17412*X58165*Y17127*X52183Y17137D2*Y17412D1*X52271*Y17334*X52419*Y17422*X52685*X52803Y17304*X53669*X53777Y17412*X54063*Y17334*X54191*Y17412*X54289*Y17127*X53580Y16940D2*X52882D1*X53273Y16713D2*X53307Y16734D1*X53342Y16739*X53376Y16724*X53395Y16698*X53403Y16667*X53395Y16636*X53376Y16610*X53353Y16594*X53319*X53353D2*X53380Y16584D1*X53407Y16558*X53414Y16522*X53411Y16491*X53391Y16460*X53361Y16434*X53330Y16429*X53296Y16434*X53265Y16455*X53242Y16491*X52932Y16429D2*X53009D1*X53039Y16445*X53062Y16465*X53081Y16496*X53097Y16532*X53101Y16584*X53097Y16636*X53081Y16672*X53062Y16703*X53039Y16724*X53009Y16739*X52932*Y16429*X48307Y17137D2*Y17412D1*X48395*Y17334*X48543*Y17422*X48809*X48927Y17304*X49793*X49901Y17412*X50187*Y17334*X50315*Y17412*X50413*Y17127*X49704Y16940D2*X49006D1*X49531Y16429D2*X49370D1*X49378Y16476*X49400Y16527*X49435Y16563*X49512Y16615*X49527Y16641*X49531Y16672*X49523Y16703*X49496Y16729*X49458Y16739*X49427Y16734*X49400Y16718*X49378Y16687*X49056Y16429D2*X49133D1*X49163Y16445*X49186Y16465*X49206Y16496*X49221Y16532*X49225Y16584*X49221Y16636*X49206Y16672*X49186Y16703*X49163Y16724*X49133Y16739*X49056*Y16429*X44280Y16680D2*X44118D1*X44126Y16726*X44149Y16778*X44184Y16814*X44260Y16866*X44276Y16892*X44280Y16923*X44272Y16954*X44245Y16980*X44207Y16990*X44176Y16985*X44149Y16969*X44126Y16938*X43812Y16809D2*X43904D1*X43939Y16825*X43958Y16856*X43966Y16897*X43958Y16938*X43935Y16974*X43904Y16990*X43812*Y16680*X43491Y16990D2*X43667D1*X43579D2*Y16680D1*X44431Y17137D2*Y17412D1*X44519*Y17334*X44667*Y17422*X44933*X45051Y17304*X45917*X46025Y17412*X46311*Y17334*X46439*Y17412*X46537*Y17127*X45828Y16940D2*X45130D1*X45528Y16429D2*X45620D1*X45528Y16677D2*X45574Y16739D1*Y16429*X45180D2*X45257D1*X45287Y16445*X45310Y16465*X45330Y16496*X45345Y16532*X45349Y16584*X45345Y16636*X45330Y16672*X45310Y16703*X45287Y16724*X45257Y16739*X45180*Y16429*X42913Y17080D2*X43005D1*X42913Y17328D2*X42959Y17390D1*Y17080*X42572Y17209D2*X42664D1*X42699Y17225*X42718Y17256*X42726Y17297*X42718Y17338*X42695Y17374*X42664Y17390*X42572*Y17080*X42251Y17390D2*X42427D1*X42339D2*Y17080D1*X38944Y16940D2*X38246D1*X38786Y16517D2*X38594D1*X38736Y16739*Y16429*X38296D2*X38373D1*X38403Y16445*X38426Y16465*X38445Y16496*X38461Y16532*X38465Y16584*X38461Y16636*X38445Y16672*X38426Y16703*X38403Y16724*X38373Y16739*X38296*Y16429*X37547Y17137D2*Y17412D1*X37635*Y17334*X37783*Y17422*X38049*X38167Y17304*X39033*X39141Y17412*X39427*Y17334*X39555*Y17412*X39653*Y17127*X33671Y17137D2*Y17412D1*X33759*Y17334*X33907*Y17422*X34173*X34291Y17304*X35157*X35265Y17412*X35551*Y17334*X35679*Y17412*X35777*Y17127*X35068Y16940D2*X34370D1*X34761Y16713D2*X34795Y16734D1*X34830Y16739*X34864Y16724*X34883Y16698*X34891Y16667*X34883Y16636*X34864Y16610*X34841Y16594*X34807*X34841D2*X34868Y16584D1*X34895Y16558*X34902Y16522*X34899Y16491*X34879Y16460*X34849Y16434*X34818Y16429*X34784Y16434*X34753Y16455*X34730Y16491*X34420Y16429D2*X34497D1*X34527Y16445*X34550Y16465*X34569Y16496*X34585Y16532*X34589Y16584*X34585Y16636*X34569Y16672*X34550Y16703*X34527Y16724*X34497Y16739*X34420*Y16429*X29795Y17137D2*Y17412D1*X29883*Y17334*X30031*Y17422*X30297*X30415Y17304*X31281*X31389Y17412*X31675*Y17334*X31803*Y17412*X31901*Y17127*X31192Y16940D2*X30494D1*X31019Y16429D2*X30858D1*X30866Y16476*X30888Y16527*X30923Y16563*X31000Y16615*X31015Y16641*X31019Y16672*X31011Y16703*X30984Y16729*X30946Y16739*X30915Y16734*X30888Y16718*X30866Y16687*X30544Y16429D2*X30621D1*X30651Y16445*X30674Y16465*X30694Y16496*X30709Y16532*X30713Y16584*X30709Y16636*X30694Y16672*X30674Y16703*X30651Y16724*X30621Y16739*X30544*Y16429*X25768Y16680D2*X25606D1*X25614Y16726*X25637Y16778*X25672Y16814*X25748Y16866*X25764Y16892*X25768Y16923*X25760Y16954*X25733Y16980*X25695Y16990*X25664Y16985*X25637Y16969*X25614Y16938*X25300Y16809D2*X25392D1*X25427Y16825*X25446Y16856*X25454Y16897*X25446Y16938*X25423Y16974*X25392Y16990*X25300*Y16680*X24979Y16990D2*X25155D1*X25067D2*Y16680D1*X25919Y17137D2*Y17412D1*X26007*Y17334*X26155*Y17422*X26421*X26539Y17304*X27405*X27513Y17412*X27799*Y17334*X27927*Y17412*X28025*Y17127*X27316Y16940D2*X26618D1*X27016Y16429D2*X27108D1*X27016Y16677D2*X27062Y16739D1*Y16429*X26668D2*X26745D1*X26775Y16445*X26798Y16465*X26818Y16496*X26833Y16532*X26837Y16584*X26833Y16636*X26818Y16672*X26798Y16703*X26775Y16724*X26745Y16739*X26668*Y16429*X24401Y17080D2*X24493D1*X24401Y17328D2*X24447Y17390D1*Y17080*X24060Y17209D2*X24152D1*X24187Y17225*X24206Y17256*X24214Y17297*X24206Y17338*X24183Y17374*X24152Y17390*X24060*Y17080*X23739Y17390D2*X23915D1*X23827D2*Y17080D1*X20432Y16940D2*X19734D1*X20274Y16517D2*X20082D1*X20224Y16739*Y16429*X19784D2*X19861D1*X19891Y16445*X19914Y16465*X19933Y16496*X19949Y16532*X19953Y16584*X19949Y16636*X19933Y16672*X19914Y16703*X19891Y16724*X19861Y16739*X19784*Y16429*X19035Y17137D2*Y17412D1*X19123*Y17334*X19271*Y17422*X19537*X19655Y17304*X20521*X20629Y17412*X20915*Y17334*X21043*Y17412*X21141*Y17127*X15159Y17137D2*Y17412D1*X15247*Y17334*X15395*Y17422*X15661*X15779Y17304*X16645*X16753Y17412*X17039*Y17334*X17167*Y17412*X17265*Y17127*X16556Y16940D2*X15858D1*X16249Y16713D2*X16283Y16734D1*X16318Y16739*X16352Y16724*X16371Y16698*X16379Y16667*X16371Y16636*X16352Y16610*X16329Y16594*X16295*X16329D2*X16356Y16584D1*X16383Y16558*X16390Y16522*X16387Y16491*X16367Y16460*X16337Y16434*X16306Y16429*X16272Y16434*X16241Y16455*X16218Y16491*X15908Y16429D2*X15985D1*X16015Y16445*X16038Y16465*X16057Y16496*X16073Y16532*X16077Y16584*X16073Y16636*X16057Y16672*X16038Y16703*X16015Y16724*X15985Y16739*X15908*Y16429*X11283Y17137D2*Y17412D1*X11371*Y17334*X11519*Y17422*X11785*X11903Y17304*X12769*X12877Y17412*X13163*Y17334*X13291*Y17412*X13389*Y17127*X12680Y16940D2*X11982D1*X12507Y16429D2*X12346D1*X12354Y16476*X12376Y16527*X12411Y16563*X12488Y16615*X12503Y16641*X12507Y16672*X12499Y16703*X12472Y16729*X12434Y16739*X12403Y16734*X12376Y16718*X12354Y16687*X12032Y16429D2*X12109D1*X12139Y16445*X12162Y16465*X12182Y16496*X12197Y16532*X12201Y16584*X12197Y16636*X12182Y16672*X12162Y16703*X12139Y16724*X12109Y16739*X12032*Y16429*X7256Y16680D2*X7094D1*X7102Y16726*X7125Y16778*X7160Y16814*X7236Y16866*X7252Y16892*X7256Y16923*X7248Y16954*X7221Y16980*X7183Y16990*X7152Y16985*X7125Y16969*X7102Y16938*X6788Y16809D2*X6880D1*X6915Y16825*X6934Y16856*X6942Y16897*X6934Y16938*X6911Y16974*X6880Y16990*X6788*Y16680*X6467Y16990D2*X6643D1*X6555D2*Y16680D1*X7407Y17137D2*Y17412D1*X7495*Y17334*X7643*Y17422*X7909*X8027Y17304*X8893*X9001Y17412*X9287*Y17334*X9415*Y17412*X9513*Y17127*X8804Y16940D2*X8106D1*X8504Y16429D2*X8596D1*X8504Y16677D2*X8550Y16739D1*Y16429*X8156D2*X8233D1*X8263Y16445*X8286Y16465*X8306Y16496*X8321Y16532*X8325Y16584*X8321Y16636*X8306Y16672*X8286Y16703*X8263Y16724*X8233Y16739*X8156*Y16429*X5889Y17080D2*X5981D1*X5889Y17328D2*X5935Y17390D1*Y17080*X5548Y17209D2*X5640D1*X5675Y17225*X5694Y17256*X5702Y17297*X5694Y17338*X5671Y17374*X5640Y17390*X5548*Y17080*X5227Y17390D2*X5403D1*X5315D2*Y17080D1*X20432Y13020D2*X19734D1*X20274Y12597D2*X20082D1*X20224Y12819*Y12509*X19784D2*X19861D1*X19891Y12525*X19914Y12545*X19933Y12576*X19949Y12612*X19953Y12664*X19949Y12716*X19933Y12752*X19914Y12783*X19891Y12804*X19861Y12819*X19784*Y12509*X19035Y13217D2*Y13492D1*X19123*Y13414*X19271*Y13502*X19537*X19655Y13384*X20521*X20629Y13492*X20915*Y13414*X21043*Y13492*X21141*Y13207*X15159Y13217D2*Y13492D1*X15247*Y13414*X15395*Y13502*X15661*X15779Y13384*X16645*X16753Y13492*X17039*Y13414*X17167*Y13492*X17265*Y13207*X16556Y13020D2*X15858D1*X16249Y12793D2*X16283Y12814D1*X16318Y12819*X16352Y12804*X16371Y12778*X16379Y12747*X16371Y12716*X16352Y12690*X16329Y12674*X16295*X16329D2*X16356Y12664D1*X16383Y12638*X16390Y12602*X16387Y12571*X16367Y12540*X16337Y12514*X16306Y12509*X16272Y12514*X16241Y12535*X16218Y12571*X15908Y12509D2*X15985D1*X16015Y12525*X16038Y12545*X16057Y12576*X16073Y12612*X16077Y12664*X16073Y12716*X16057Y12752*X16038Y12783*X16015Y12804*X15985Y12819*X15908*Y12509*X11283Y13217D2*Y13492D1*X11371*Y13414*X11519*Y13502*X11785*X11903Y13384*X12769*X12877Y13492*X13163*Y13414*X13291*Y13492*X13389*Y13207*X12680Y13020D2*X11982D1*X12507Y12509D2*X12346D1*X12354Y12556*X12376Y12607*X12411Y12643*X12488Y12695*X12503Y12721*X12507Y12752*X12499Y12783*X12472Y12809*X12434Y12819*X12403Y12814*X12376Y12798*X12354Y12767*X12032Y12509D2*X12109D1*X12139Y12525*X12162Y12545*X12182Y12576*X12197Y12612*X12201Y12664*X12197Y12716*X12182Y12752*X12162Y12783*X12139Y12804*X12109Y12819*X12032*Y12509*X7256Y12760D2*X7094D1*X7102Y12806*X7125Y12858*X7160Y12894*X7236Y12946*X7252Y12972*X7256Y13003*X7248Y13034*X7221Y13060*X7183Y13070*X7152Y13065*X7125Y13049*X7102Y13018*X6788Y12889D2*X6880D1*X6915Y12905*X6934Y12936*X6942Y12977*X6934Y13018*X6911Y13054*X6880Y13070*X6788*Y12760*X6467Y13070D2*X6643D1*X6555D2*Y12760D1*X7407Y13217D2*Y13492D1*X7495*Y13414*X7643*Y13502*X7909*X8027Y13384*X8893*X9001Y13492*X9287*Y13414*X9415*Y13492*X9513*Y13207*X8804Y13020D2*X8106D1*X8504Y12509D2*X8596D1*X8504Y12757D2*X8550Y12819D1*Y12509*X8156D2*X8233D1*X8263Y12525*X8286Y12545*X8306Y12576*X8321Y12612*X8325Y12664*X8321Y12716*X8306Y12752*X8286Y12783*X8263Y12804*X8233Y12819*X8156*Y12509*X5889Y13160D2*X5981D1*X5889Y13408D2*X5935Y13470D1*Y13160*X5548Y13289D2*X5640D1*X5675Y13305*X5694Y13336*X5702Y13377*X5694Y13418*X5671Y13454*X5640Y13470*X5548*Y13160*X5227Y13470D2*X5403D1*X5315D2*Y13160D1*X38944Y13020D2*X38246D1*X38786Y12597D2*X38594D1*X38736Y12819*Y12509*X38296D2*X38373D1*X38403Y12525*X38426Y12545*X38445Y12576*X38461Y12612*X38465Y12664*X38461Y12716*X38445Y12752*X38426Y12783*X38403Y12804*X38373Y12819*X38296*Y12509*X37547Y13217D2*Y13492D1*X37635*Y13414*X37783*Y13502*X38049*X38167Y13384*X39033*X39141Y13492*X39427*Y13414*X39555*Y13492*X39653*Y13207*X33671Y13217D2*Y13492D1*X33759*Y13414*X33907*Y13502*X34173*X34291Y13384*X35157*X35265Y13492*X35551*Y13414*X35679*Y13492*X35777*Y13207*X35068Y13020D2*X34370D1*X34761Y12793D2*X34795Y12814D1*X34830Y12819*X34864Y12804*X34883Y12778*X34891Y12747*X34883Y12716*X34864Y12690*X34841Y12674*X34807*X34841D2*X34868Y12664D1*X34895Y12638*X34902Y12602*X34899Y12571*X34879Y12540*X34849Y12514*X34818Y12509*X34784Y12514*X34753Y12535*X34730Y12571*X34420Y12509D2*X34497D1*X34527Y12525*X34550Y12545*X34569Y12576*X34585Y12612*X34589Y12664*X34585Y12716*X34569Y12752*X34550Y12783*X34527Y12804*X34497Y12819*X34420*Y12509*X29795Y13217D2*Y13492D1*X29883*Y13414*X30031*Y13502*X30297*X30415Y13384*X31281*X31389Y13492*X31675*Y13414*X31803*Y13492*X31901*Y13207*X31192Y13020D2*X30494D1*X31019Y12509D2*X30858D1*X30866Y12556*X30888Y12607*X30923Y12643*X31000Y12695*X31015Y12721*X31019Y12752*X31011Y12783*X30984Y12809*X30946Y12819*X30915Y12814*X30888Y12798*X30866Y12767*X30544Y12509D2*X30621D1*X30651Y12525*X30674Y12545*X30694Y12576*X30709Y12612*X30713Y12664*X30709Y12716*X30694Y12752*X30674Y12783*X30651Y12804*X30621Y12819*X30544*Y12509*X25768Y12760D2*X25606D1*X25614Y12806*X25637Y12858*X25672Y12894*X25748Y12946*X25764Y12972*X25768Y13003*X25760Y13034*X25733Y13060*X25695Y13070*X25664Y13065*X25637Y13049*X25614Y13018*X25300Y12889D2*X25392D1*X25427Y12905*X25446Y12936*X25454Y12977*X25446Y13018*X25423Y13054*X25392Y13070*X25300*Y12760*X24979Y13070D2*X25155D1*X25067D2*Y12760D1*X25919Y13217D2*Y13492D1*X26007*Y13414*X26155*Y13502*X26421*X26539Y13384*X27405*X27513Y13492*X27799*Y13414*X27927*Y13492*X28025*Y13207*X27316Y13020D2*X26618D1*X27016Y12509D2*X27108D1*X27016Y12757D2*X27062Y12819D1*Y12509*X26668D2*X26745D1*X26775Y12525*X26798Y12545*X26818Y12576*X26833Y12612*X26837Y12664*X26833Y12716*X26818Y12752*X26798Y12783*X26775Y12804*X26745Y12819*X26668*Y12509*X24401Y13160D2*X24493D1*X24401Y13408D2*X24447Y13470D1*Y13160*X24060Y13289D2*X24152D1*X24187Y13305*X24206Y13336*X24214Y13377*X24206Y13418*X24183Y13454*X24152Y13470*X24060*Y13160*X23739Y13470D2*X23915D1*X23827D2*Y13160D1*X57456Y13020D2*X56758D1*X57298Y12597D2*X57106D1*X57248Y12819*Y12509*X56808D2*X56885D1*X56915Y12525*X56938Y12545*X56957Y12576*X56973Y12612*X56977Y12664*X56973Y12716*X56957Y12752*X56938Y12783*X56915Y12804*X56885Y12819*X56808*Y12509*X56059Y13217D2*Y13492D1*X56147*Y13414*X56295*Y13502*X56561*X56679Y13384*X57545*X57653Y13492*X57939*Y13414*X58067*Y13492*X58165*Y13207*X52183Y13217D2*Y13492D1*X52271*Y13414*X52419*Y13502*X52685*X52803Y13384*X53669*X53777Y13492*X54063*Y13414*X54191*Y13492*X54289*Y13207*X53580Y13020D2*X52882D1*X53273Y12793D2*X53307Y12814D1*X53342Y12819*X53376Y12804*X53395Y12778*X53403Y12747*X53395Y12716*X53376Y12690*X53353Y12674*X53319*X53353D2*X53380Y12664D1*X53407Y12638*X53414Y12602*X53411Y12571*X53391Y12540*X53361Y12514*X53330Y12509*X53296Y12514*X53265Y12535*X53242Y12571*X52932Y12509D2*X53009D1*X53039Y12525*X53062Y12545*X53081Y12576*X53097Y12612*X53101Y12664*X53097Y12716*X53081Y12752*X53062Y12783*X53039Y12804*X53009Y12819*X52932*Y12509*X48307Y13217D2*Y13492D1*X48395*Y13414*X48543*Y13502*X48809*X48927Y13384*X49793*X49901Y13492*X50187*Y13414*X50315*Y13492*X50413*Y13207*X49704Y13020D2*X49006D1*X49531Y12509D2*X49370D1*X49378Y12556*X49400Y12607*X49435Y12643*X49512Y12695*X49527Y12721*X49531Y12752*X49523Y12783*X49496Y12809*X49458Y12819*X49427Y12814*X49400Y12798*X49378Y12767*X49056Y12509D2*X49133D1*X49163Y12525*X49186Y12545*X49206Y12576*X49221Y12612*X49225Y12664*X49221Y12716*X49206Y12752*X49186Y12783*X49163Y12804*X49133Y12819*X49056*Y12509*X44280Y12760D2*X44118D1*X44126Y12806*X44149Y12858*X44184Y12894*X44260Y12946*X44276Y12972*X44280Y13003*X44272Y13034*X44245Y13060*X44207Y13070*X44176Y13065*X44149Y13049*X44126Y13018*X43812Y12889D2*X43904D1*X43939Y12905*X43958Y12936*X43966Y12977*X43958Y13018*X43935Y13054*X43904Y13070*X43812*Y12760*X43491Y13070D2*X43667D1*X43579D2*Y12760D1*X44431Y13217D2*Y13492D1*X44519*Y13414*X44667*Y13502*X44933*X45051Y13384*X45917*X46025Y13492*X46311*Y13414*X46439*Y13492*X46537*Y13207*X45828Y13020D2*X45130D1*X45528Y12509D2*X45620D1*X45528Y12757D2*X45574Y12819D1*Y12509*X45180D2*X45257D1*X45287Y12525*X45310Y12545*X45330Y12576*X45345Y12612*X45349Y12664*X45345Y12716*X45330Y12752*X45310Y12783*X45287Y12804*X45257Y12819*X45180*Y12509*X42913Y13160D2*X43005D1*X42913Y13408D2*X42959Y13470D1*Y13160*X42572Y13289D2*X42664D1*X42699Y13305*X42718Y13336*X42726Y13377*X42718Y13418*X42695Y13454*X42664Y13470*X42572*Y13160*X42251Y13470D2*X42427D1*X42339D2*Y13160D1*X57456Y9100D2*X56758D1*X57298Y8677D2*X57106D1*X57248Y8899*Y8589*X56808D2*X56885D1*X56915Y8605*X56938Y8625*X56957Y8656*X56973Y8692*X56977Y8744*X56973Y8796*X56957Y8832*X56938Y8863*X56915Y8884*X56885Y8899*X56808*Y8589*X56059Y9297D2*Y9572D1*X56147*Y9494*X56295*Y9582*X56561*X56679Y9464*X57545*X57653Y9572*X57939*Y9494*X58067*Y9572*X58165*Y9287*X52183Y9297D2*Y9572D1*X52271*Y9494*X52419*Y9582*X52685*X52803Y9464*X53669*X53777Y9572*X54063*Y9494*X54191*Y9572*X54289*Y9287*X53580Y9100D2*X52882D1*X53273Y8873D2*X53307Y8894D1*X53342Y8899*X53376Y8884*X53395Y8858*X53403Y8827*X53395Y8796*X53376Y8770*X53353Y8754*X53319*X53353D2*X53380Y8744D1*X53407Y8718*X53414Y8682*X53411Y8651*X53391Y8620*X53361Y8594*X53330Y8589*X53296Y8594*X53265Y8615*X53242Y8651*X52932Y8589D2*X53009D1*X53039Y8605*X53062Y8625*X53081Y8656*X53097Y8692*X53101Y8744*X53097Y8796*X53081Y8832*X53062Y8863*X53039Y8884*X53009Y8899*X52932*Y8589*X48307Y9297D2*Y9572D1*X48395*Y9494*X48543*Y9582*X48809*X48927Y9464*X49793*X49901Y9572*X50187*Y9494*X50315*Y9572*X50413*Y9287*X49704Y9100D2*X49006D1*X49531Y8589D2*X49370D1*X49378Y8636*X49400Y8687*X49435Y8723*X49512Y8775*X49527Y8801*X49531Y8832*X49523Y8863*X49496Y8889*X49458Y8899*X49427Y8894*X49400Y8878*X49378Y8847*X49056Y8589D2*X49133D1*X49163Y8605*X49186Y8625*X49206Y8656*X49221Y8692*X49225Y8744*X49221Y8796*X49206Y8832*X49186Y8863*X49163Y8884*X49133Y8899*X49056*Y8589*X44280Y8840D2*X44118D1*X44126Y8886*X44149Y8938*X44184Y8974*X44260Y9026*X44276Y9052*X44280Y9083*X44272Y9114*X44245Y9140*X44207Y9150*X44176Y9145*X44149Y9129*X44126Y9098*X43812Y8969D2*X43904D1*X43939Y8985*X43958Y9016*X43966Y9057*X43958Y9098*X43935Y9134*X43904Y9150*X43812*Y8840*X43491Y9150D2*X43667D1*X43579D2*Y8840D1*X44431Y9297D2*Y9572D1*X44519*Y9494*X44667*Y9582*X44933*X45051Y9464*X45917*X46025Y9572*X46311*Y9494*X46439*Y9572*X46537*Y9287*X45828Y9100D2*X45130D1*X45528Y8589D2*X45620D1*X45528Y8837D2*X45574Y8899D1*Y8589*X45180D2*X45257D1*X45287Y8605*X45310Y8625*X45330Y8656*X45345Y8692*X45349Y8744*X45345Y8796*X45330Y8832*X45310Y8863*X45287Y8884*X45257Y8899*X45180*Y8589*X42913Y9240D2*X43005D1*X42913Y9488D2*X42959Y9550D1*Y9240*X42572Y9369D2*X42664D1*X42699Y9385*X42718Y9416*X42726Y9457*X42718Y9498*X42695Y9534*X42664Y9550*X42572*Y9240*X42251Y9550D2*X42427D1*X42339D2*Y9240D1*X38944Y9100D2*X38246D1*X38786Y8677D2*X38594D1*X38736Y8899*Y8589*X38296D2*X38373D1*X38403Y8605*X38426Y8625*X38445Y8656*X38461Y8692*X38465Y8744*X38461Y8796*X38445Y8832*X38426Y8863*X38403Y8884*X38373Y8899*X38296*Y8589*X37547Y9297D2*Y9572D1*X37635*Y9494*X37783*Y9582*X38049*X38167Y9464*X39033*X39141Y9572*X39427*Y9494*X39555*Y9572*X39653*Y9287*X33671Y9297D2*Y9572D1*X33759*Y9494*X33907*Y9582*X34173*X34291Y9464*X35157*X35265Y9572*X35551*Y9494*X35679*Y9572*X35777*Y9287*X35068Y9100D2*X34370D1*X34761Y8873D2*X34795Y8894D1*X34830Y8899*X34864Y8884*X34883Y8858*X34891Y8827*X34883Y8796*X34864Y8770*X34841Y8754*X34807*X34841D2*X34868Y8744D1*X34895Y8718*X34902Y8682*X34899Y8651*X34879Y8620*X34849Y8594*X34818Y8589*X34784Y8594*X34753Y8615*X34730Y8651*X34420Y8589D2*X34497D1*X34527Y8605*X34550Y8625*X34569Y8656*X34585Y8692*X34589Y8744*X34585Y8796*X34569Y8832*X34550Y8863*X34527Y8884*X34497Y8899*X34420*Y8589*X29795Y9297D2*Y9572D1*X29883*Y9494*X30031*Y9582*X30297*X30415Y9464*X31281*X31389Y9572*X31675*Y9494*X31803*Y9572*X31901*Y9287*X31192Y9100D2*X30494D1*X31019Y8589D2*X30858D1*X30866Y8636*X30888Y8687*X30923Y8723*X31000Y8775*X31015Y8801*X31019Y8832*X31011Y8863*X30984Y8889*X30946Y8899*X30915Y8894*X30888Y8878*X30866Y8847*X30544Y8589D2*X30621D1*X30651Y8605*X30674Y8625*X30694Y8656*X30709Y8692*X30713Y8744*X30709Y8796*X30694Y8832*X30674Y8863*X30651Y8884*X30621Y8899*X30544*Y8589*X25768Y8840D2*X25606D1*X25614Y8886*X25637Y8938*X25672Y8974*X25748Y9026*X25764Y9052*X25768Y9083*X25760Y9114*X25733Y9140*X25695Y9150*X25664Y9145*X25637Y9129*X25614Y9098*X25300Y8969D2*X25392D1*X25427Y8985*X25446Y9016*X25454Y9057*X25446Y9098*X25423Y9134*X25392Y9150*X25300*Y8840*X24979Y9150D2*X25155D1*X25067D2*Y8840D1*X25919Y9297D2*Y9572D1*X26007*Y9494*X26155*Y9582*X26421*X26539Y9464*X27405*X27513Y9572*X27799*Y9494*X27927*Y9572*X28025*Y9287*X27316Y9100D2*X26618D1*X27016Y8589D2*X27108D1*X27016Y8837D2*X27062Y8899D1*Y8589*X26668D2*X26745D1*X26775Y8605*X26798Y8625*X26818Y8656*X26833Y8692*X26837Y8744*X26833Y8796*X26818Y8832*X26798Y8863*X26775Y8884*X26745Y8899*X26668*Y8589*X24401Y9240D2*X24493D1*X24401Y9488D2*X24447Y9550D1*Y9240*X24060Y9369D2*X24152D1*X24187Y9385*X24206Y9416*X24214Y9457*X24206Y9498*X24183Y9534*X24152Y9550*X24060*Y9240*X23739Y9550D2*X23915D1*X23827D2*Y9240D1*X20432Y9100D2*X19734D1*X20274Y8677D2*X20082D1*X20224Y8899*Y8589*X19784D2*X19861D1*X19891Y8605*X19914Y8625*X19933Y8656*X19949Y8692*X19953Y8744*X19949Y8796*X19933Y8832*X19914Y8863*X19891Y8884*X19861Y8899*X19784*Y8589*X19035Y9297D2*Y9572D1*X19123*Y9494*X19271*Y9582*X19537*X19655Y9464*X20521*X20629Y9572*X20915*Y9494*X21043*Y9572*X21141*Y9287*X15159Y9297D2*Y9572D1*X15247*Y9494*X15395*Y9582*X15661*X15779Y9464*X16645*X16753Y9572*X17039*Y9494*X17167*Y9572*X17265*Y9287*X16556Y9100D2*X15858D1*X16249Y8873D2*X16283Y8894D1*X16318Y8899*X16352Y8884*X16371Y8858*X16379Y8827*X16371Y8796*X16352Y8770*X16329Y8754*X16295*X16329D2*X16356Y8744D1*X16383Y8718*X16390Y8682*X16387Y8651*X16367Y8620*X16337Y8594*X16306Y8589*X16272Y8594*X16241Y8615*X16218Y8651*X15908Y8589D2*X15985D1*X16015Y8605*X16038Y8625*X16057Y8656*X16073Y8692*X16077Y8744*X16073Y8796*X16057Y8832*X16038Y8863*X16015Y8884*X15985Y8899*X15908*Y8589*X11283Y9297D2*Y9572D1*X11371*Y9494*X11519*Y9582*X11785*X11903Y9464*X12769*X12877Y9572*X13163*Y9494*X13291*Y9572*X13389*Y9287*X12680Y9100D2*X11982D1*X12507Y8589D2*X12346D1*X12354Y8636*X12376Y8687*X12411Y8723*X12488Y8775*X12503Y8801*X12507Y8832*X12499Y8863*X12472Y8889*X12434Y8899*X12403Y8894*X12376Y8878*X12354Y8847*X12032Y8589D2*X12109D1*X12139Y8605*X12162Y8625*X12182Y8656*X12197Y8692*X12201Y8744*X12197Y8796*X12182Y8832*X12162Y8863*X12139Y8884*X12109Y8899*X12032*Y8589*X7256Y8840D2*X7094D1*X7102Y8886*X7125Y8938*X7160Y8974*X7236Y9026*X7252Y9052*X7256Y9083*X7248Y9114*X7221Y9140*X7183Y9150*X7152Y9145*X7125Y9129*X7102Y9098*X6788Y8969D2*X6880D1*X6915Y8985*X6934Y9016*X6942Y9057*X6934Y9098*X6911Y9134*X6880Y9150*X6788*Y8840*X6467Y9150D2*X6643D1*X6555D2*Y8840D1*X7407Y9297D2*Y9572D1*X7495*Y9494*X7643*Y9582*X7909*X8027Y9464*X8893*X9001Y9572*X9287*Y9494*X9415*Y9572*X9513*Y9287*X8804Y9100D2*X8106D1*X8504Y8589D2*X8596D1*X8504Y8837D2*X8550Y8899D1*Y8589*X8156D2*X8233D1*X8263Y8605*X8286Y8625*X8306Y8656*X8321Y8692*X8325Y8744*X8321Y8796*X8306Y8832*X8286Y8863*X8263Y8884*X8233Y8899*X8156*Y8589*X5889Y9240D2*X5981D1*X5889Y9488D2*X5935Y9550D1*Y9240*X5548Y9369D2*X5640D1*X5675Y9385*X5694Y9416*X5702Y9457*X5694Y9498*X5671Y9534*X5640Y9550*X5548*Y9240*X5227Y9550D2*X5403D1*X5315D2*Y9240D1*X20432Y5180D2*X19734D1*X20274Y4757D2*X20082D1*X20224Y4979*Y4669*X19784D2*X19861D1*X19891Y4685*X19914Y4705*X19933Y4736*X19949Y4772*X19953Y4824*X19949Y4876*X19933Y4912*X19914Y4943*X19891Y4964*X19861Y4979*X19784*Y4669*X19035Y5377D2*Y5652D1*X19123*Y5574*X19271*Y5662*X19537*X19655Y5544*X20521*X20629Y5652*X20915*Y5574*X21043*Y5652*X21141*Y5367*X15159Y5377D2*Y5652D1*X15247*Y5574*X15395*Y5662*X15661*X15779Y5544*X16645*X16753Y5652*X17039*Y5574*X17167*Y5652*X17265*Y5367*X16556Y5180D2*X15858D1*X16249Y4953D2*X16283Y4974D1*X16318Y4979*X16352Y4964*X16371Y4938*X16379Y4907*X16371Y4876*X16352Y4850*X16329Y4834*X16295*X16329D2*X16356Y4824D1*X16383Y4798*X16390Y4762*X16387Y4731*X16367Y4700*X16337Y4674*X16306Y4669*X16272Y4674*X16241Y4695*X16218Y4731*X15908Y4669D2*X15985D1*X16015Y4685*X16038Y4705*X16057Y4736*X16073Y4772*X16077Y4824*X16073Y4876*X16057Y4912*X16038Y4943*X16015Y4964*X15985Y4979*X15908*Y4669*X11283Y5377D2*Y5652D1*X11371*Y5574*X11519*Y5662*X11785*X11903Y5544*X12769*X12877Y5652*X13163*Y5574*X13291*Y5652*X13389*Y5367*X12680Y5180D2*X11982D1*X12507Y4669D2*X12346D1*X12354Y4716*X12376Y4767*X12411Y4803*X12488Y4855*X12503Y4881*X12507Y4912*X12499Y4943*X12472Y4969*X12434Y4979*X12403Y4974*X12376Y4958*X12354Y4927*X12032Y4669D2*X12109D1*X12139Y4685*X12162Y4705*X12182Y4736*X12197Y4772*X12201Y4824*X12197Y4876*X12182Y4912*X12162Y4943*X12139Y4964*X12109Y4979*X12032*Y4669*X7256Y4920D2*X7094D1*X7102Y4966*X7125Y5018*X7160Y5054*X7236Y5106*X7252Y5132*X7256Y5163*X7248Y5194*X7221Y5220*X7183Y5230*X7152Y5225*X7125Y5209*X7102Y5178*X6788Y5049D2*X6880D1*X6915Y5065*X6934Y5096*X6942Y5137*X6934Y5178*X6911Y5214*X6880Y5230*X6788*Y4920*X6467Y5230D2*X6643D1*X6555D2*Y4920D1*X7407Y5377D2*Y5652D1*X7495*Y5574*X7643*Y5662*X7909*X8027Y5544*X8893*X9001Y5652*X9287*Y5574*X9415*Y5652*X9513*Y5367*X8804Y5180D2*X8106D1*X8504Y4669D2*X8596D1*X8504Y4917D2*X8550Y4979D1*Y4669*X8156D2*X8233D1*X8263Y4685*X8286Y4705*X8306Y4736*X8321Y4772*X8325Y4824*X8321Y4876*X8306Y4912*X8286Y4943*X8263Y4964*X8233Y4979*X8156*Y4669*X5889Y5320D2*X5981D1*X5889Y5568D2*X5935Y5630D1*Y5320*X5548Y5449D2*X5640D1*X5675Y5465*X5694Y5496*X5702Y5537*X5694Y5578*X5671Y5614*X5640Y5630*X5548*Y5320*X5227Y5630D2*X5403D1*X5315D2*Y5320D1*X38944Y5180D2*X38246D1*X38786Y4757D2*X38594D1*X38736Y4979*Y4669*X38296D2*X38373D1*X38403Y4685*X38426Y4705*X38445Y4736*X38461Y4772*X38465Y4824*X38461Y4876*X38445Y4912*X38426Y4943*X38403Y4964*X38373Y4979*X38296*Y4669*X37547Y5377D2*Y5652D1*X37635*Y5574*X37783*Y5662*X38049*X38167Y5544*X39033*X39141Y5652*X39427*Y5574*X39555*Y5652*X39653*Y5367*X33671Y5377D2*Y5652D1*X33759*Y5574*X33907*Y5662*X34173*X34291Y5544*X35157*X35265Y5652*X35551*Y5574*X35679*Y5652*X35777*Y5367*X35068Y5180D2*X34370D1*X34761Y4953D2*X34795Y4974D1*X34830Y4979*X34864Y4964*X34883Y4938*X34891Y4907*X34883Y4876*X34864Y4850*X34841Y4834*X34807*X34841D2*X34868Y4824D1*X34895Y4798*X34902Y4762*X34899Y4731*X34879Y4700*X34849Y4674*X34818Y4669*X34784Y4674*X34753Y4695*X34730Y4731*X34420Y4669D2*X34497D1*X34527Y4685*X34550Y4705*X34569Y4736*X34585Y4772*X34589Y4824*X34585Y4876*X34569Y4912*X34550Y4943*X34527Y4964*X34497Y4979*X34420*Y4669*X29795Y5377D2*Y5652D1*X29883*Y5574*X30031*Y5662*X30297*X30415Y5544*X31281*X31389Y5652*X31675*Y5574*X31803*Y5652*X31901*Y5367*X31192Y5180D2*X30494D1*X31019Y4669D2*X30858D1*X30866Y4716*X30888Y4767*X30923Y4803*X31000Y4855*X31015Y4881*X31019Y4912*X31011Y4943*X30984Y4969*X30946Y4979*X30915Y4974*X30888Y4958*X30866Y4927*X30544Y4669D2*X30621D1*X30651Y4685*X30674Y4705*X30694Y4736*X30709Y4772*X30713Y4824*X30709Y4876*X30694Y4912*X30674Y4943*X30651Y4964*X30621Y4979*X30544*Y4669*X25768Y4920D2*X25606D1*X25614Y4966*X25637Y5018*X25672Y5054*X25748Y5106*X25764Y5132*X25768Y5163*X25760Y5194*X25733Y5220*X25695Y5230*X25664Y5225*X25637Y5209*X25614Y5178*X25300Y5049D2*X25392D1*X25427Y5065*X25446Y5096*X25454Y5137*X25446Y5178*X25423Y5214*X25392Y5230*X25300*Y4920*X24979Y5230D2*X25155D1*X25067D2*Y4920D1*X25919Y5377D2*Y5652D1*X26007*Y5574*X26155*Y5662*X26421*X26539Y5544*X27405*X27513Y5652*X27799*Y5574*X27927*Y5652*X28025*Y5367*X27316Y5180D2*X26618D1*X27016Y4669D2*X27108D1*X27016Y4917D2*X27062Y4979D1*Y4669*X26668D2*X26745D1*X26775Y4685*X26798Y4705*X26818Y4736*X26833Y4772*X26837Y4824*X26833Y4876*X26818Y4912*X26798Y4943*X26775Y4964*X26745Y4979*X26668*Y4669*X24401Y5320D2*X24493D1*X24401Y5568D2*X24447Y5630D1*Y5320*X24060Y5449D2*X24152D1*X24187Y5465*X24206Y5496*X24214Y5537*X24206Y5578*X24183Y5614*X24152Y5630*X24060*Y5320*X23739Y5630D2*X23915D1*X23827D2*Y5320D1*X57456Y5180D2*X56758D1*X57298Y4757D2*X57106D1*X57248Y4979*Y4669*X56808D2*X56885D1*X56915Y4685*X56938Y4705*X56957Y4736*X56973Y4772*X56977Y4824*X56973Y4876*X56957Y4912*X56938Y4943*X56915Y4964*X56885Y4979*X56808*Y4669*X56059Y5377D2*Y5652D1*X56147*Y5574*X56295*Y5662*X56561*X56679Y5544*X57545*X57653Y5652*X57939*Y5574*X58067*Y5652*X58165*Y5367*X52183Y5377D2*Y5652D1*X52271*Y5574*X52419*Y5662*X52685*X52803Y5544*X53669*X53777Y5652*X54063*Y5574*X54191*Y5652*X54289*Y5367*X53580Y5180D2*X52882D1*X53273Y4953D2*X53307Y4974D1*X53342Y4979*X53376Y4964*X53395Y4938*X53403Y4907*X53395Y4876*X53376Y4850*X53353Y4834*X53319*X53353D2*X53380Y4824D1*X53407Y4798*X53414Y4762*X53411Y4731*X53391Y4700*X53361Y4674*X53330Y4669*X53296Y4674*X53265Y4695*X53242Y4731*X52932Y4669D2*X53009D1*X53039Y4685*X53062Y4705*X53081Y4736*X53097Y4772*X53101Y4824*X53097Y4876*X53081Y4912*X53062Y4943*X53039Y4964*X53009Y4979*X52932*Y4669*X48307Y5377D2*Y5652D1*X48395*Y5574*X48543*Y5662*X48809*X48927Y5544*X49793*X49901Y5652*X50187*Y5574*X50315*Y5652*X50413*Y5367*X49704Y5180D2*X49006D1*X49531Y4669D2*X49370D1*X49378Y4716*X49400Y4767*X49435Y4803*X49512Y4855*X49527Y4881*X49531Y4912*X49523Y4943*X49496Y4969*X49458Y4979*X49427Y4974*X49400Y4958*X49378Y4927*X49056Y4669D2*X49133D1*X49163Y4685*X49186Y4705*X49206Y4736*X49221Y4772*X49225Y4824*X49221Y4876*X49206Y4912*X49186Y4943*X49163Y4964*X49133Y4979*X49056*Y4669*X44280Y4920D2*X44118D1*X44126Y4966*X44149Y5018*X44184Y5054*X44260Y5106*X44276Y5132*X44280Y5163*X44272Y5194*X44245Y5220*X44207Y5230*X44176Y5225*X44149Y5209*X44126Y5178*X43812Y5049D2*X43904D1*X43939Y5065*X43958Y5096*X43966Y5137*X43958Y5178*X43935Y5214*X43904Y5230*X43812*Y4920*X43491Y5230D2*X43667D1*X43579D2*Y4920D1*X44431Y5377D2*Y5652D1*X44519*Y5574*X44667*Y5662*X44933*X45051Y5544*X45917*X46025Y5652*X46311*Y5574*X46439*Y5652*X46537*Y5367*X45828Y5180D2*X45130D1*X45528Y4669D2*X45620D1*X45528Y4917D2*X45574Y4979D1*Y4669*X45180D2*X45257D1*X45287Y4685*X45310Y4705*X45330Y4736*X45345Y4772*X45349Y4824*X45345Y4876*X45330Y4912*X45310Y4943*X45287Y4964*X45257Y4979*X45180*Y4669*X42913Y5320D2*X43005D1*X42913Y5568D2*X42959Y5630D1*Y5320*X42572Y5449D2*X42664D1*X42699Y5465*X42718Y5496*X42726Y5537*X42718Y5578*X42695Y5614*X42664Y5630*X42572*Y5320*X42251Y5630D2*X42427D1*X42339D2*Y5320D1*X57456Y1260D2*X56758D1*X57298Y837D2*X57106D1*X57248Y1059*Y749*X56808D2*X56885D1*X56915Y765*X56938Y785*X56957Y816*X56973Y852*X56977Y904*X56973Y956*X56957Y992*X56938Y1023*X56915Y1044*X56885Y1059*X56808*Y749*X56059Y1457D2*Y1732D1*X56147*Y1654*X56295*Y1742*X56561*X56679Y1624*X57545*X57653Y1732*X57939*Y1654*X58067*Y1732*X58165*Y1447*X52183Y1457D2*Y1732D1*X52271*Y1654*X52419*Y1742*X52685*X52803Y1624*X53669*X53777Y1732*X54063*Y1654*X54191*Y1732*X54289*Y1447*X53580Y1260D2*X52882D1*X53273Y1033D2*X53307Y1054D1*X53342Y1059*X53376Y1044*X53395Y1018*X53403Y987*X53395Y956*X53376Y930*X53353Y914*X53319*X53353D2*X53380Y904D1*X53407Y878*X53414Y842*X53411Y811*X53391Y780*X53361Y754*X53330Y749*X53296Y754*X53265Y775*X53242Y811*X52932Y749D2*X53009D1*X53039Y765*X53062Y785*X53081Y816*X53097Y852*X53101Y904*X53097Y956*X53081Y992*X53062Y1023*X53039Y1044*X53009Y1059*X52932*Y749*X48307Y1457D2*Y1732D1*X48395*Y1654*X48543*Y1742*X48809*X48927Y1624*X49793*X49901Y1732*X50187*Y1654*X50315*Y1732*X50413*Y1447*X49704Y1260D2*X49006D1*X49531Y749D2*X49370D1*X49378Y796*X49400Y847*X49435Y883*X49512Y935*X49527Y961*X49531Y992*X49523Y1023*X49496Y1049*X49458Y1059*X49427Y1054*X49400Y1038*X49378Y1007*X49056Y749D2*X49133D1*X49163Y765*X49186Y785*X49206Y816*X49221Y852*X49225Y904*X49221Y956*X49206Y992*X49186Y1023*X49163Y1044*X49133Y1059*X49056*Y749*X44280Y1000D2*X44118D1*X44126Y1046*X44149Y1098*X44184Y1134*X44260Y1186*X44276Y1212*X44280Y1243*X44272Y1274*X44245Y1300*X44207Y1310*X44176Y1305*X44149Y1289*X44126Y1258*X43812Y1129D2*X43904D1*X43939Y1145*X43958Y1176*X43966Y1217*X43958Y1258*X43935Y1294*X43904Y1310*X43812*Y1000*X43491Y1310D2*X43667D1*X43579D2*Y1000D1*X44431Y1457D2*Y1732D1*X44519*Y1654*X44667*Y1742*X44933*X45051Y1624*X45917*X46025Y1732*X46311*Y1654*X46439*Y1732*X46537*Y1447*X45828Y1260D2*X45130D1*X45528Y749D2*X45620D1*X45528Y997D2*X45574Y1059D1*Y749*X45180D2*X45257D1*X45287Y765*X45310Y785*X45330Y816*X45345Y852*X45349Y904*X45345Y956*X45330Y992*X45310Y1023*X45287Y1044*X45257Y1059*X45180*Y749*X42913Y1400D2*X43005D1*X42913Y1648D2*X42959Y1710D1*Y1400*X42572Y1529D2*X42664D1*X42699Y1545*X42718Y1576*X42726Y1617*X42718Y1658*X42695Y1694*X42664Y1710*X42572*Y1400*X42251Y1710D2*X42427D1*X42339D2*Y1400D1*X38944Y1260D2*X38246D1*X38786Y837D2*X38594D1*X38736Y1059*Y749*X38296D2*X38373D1*X38403Y765*X38426Y785*X38445Y816*X38461Y852*X38465Y904*X38461Y956*X38445Y992*X38426Y1023*X38403Y1044*X38373Y1059*X38296*Y749*X37547Y1457D2*Y1732D1*X37635*Y1654*X37783*Y1742*X38049*X38167Y1624*X39033*X39141Y1732*X39427*Y1654*X39555*Y1732*X39653*Y1447*X33671Y1457D2*Y1732D1*X33759*Y1654*X33907*Y1742*X34173*X34291Y1624*X35157*X35265Y1732*X35551*Y1654*X35679*Y1732*X35777*Y1447*X35068Y1260D2*X34370D1*X34761Y1033D2*X34795Y1054D1*X34830Y1059*X34864Y1044*X34883Y1018*X34891Y987*X34883Y956*X34864Y930*X34841Y914*X34807*X34841D2*X34868Y904D1*X34895Y878*X34902Y842*X34899Y811*X34879Y780*X34849Y754*X34818Y749*X34784Y754*X34753Y775*X34730Y811*X34420Y749D2*X34497D1*X34527Y765*X34550Y785*X34569Y816*X34585Y852*X34589Y904*X34585Y956*X34569Y992*X34550Y1023*X34527Y1044*X34497Y1059*X34420*Y749*X29795Y1457D2*Y1732D1*X29883*Y1654*X30031*Y1742*X30297*X30415Y1624*X31281*X31389Y1732*X31675*Y1654*X31803*Y1732*X31901*Y1447*X31192Y1260D2*X30494D1*X31019Y749D2*X30858D1*X30866Y796*X30888Y847*X30923Y883*X31000Y935*X31015Y961*X31019Y992*X31011Y1023*X30984Y1049*X30946Y1059*X30915Y1054*X30888Y1038*X30866Y1007*X30544Y749D2*X30621D1*X30651Y765*X30674Y785*X30694Y816*X30709Y852*X30713Y904*X30709Y956*X30694Y992*X30674Y1023*X30651Y1044*X30621Y1059*X30544*Y749*X25768Y1000D2*X25606D1*X25614Y1046*X25637Y1098*X25672Y1134*X25748Y1186*X25764Y1212*X25768Y1243*X25760Y1274*X25733Y1300*X25695Y1310*X25664Y1305*X25637Y1289*X25614Y1258*X25300Y1129D2*X25392D1*X25427Y1145*X25446Y1176*X25454Y1217*X25446Y1258*X25423Y1294*X25392Y1310*X25300*Y1000*X24979Y1310D2*X25155D1*X25067D2*Y1000D1*X25919Y1457D2*Y1732D1*X26007*Y1654*X26155*Y1742*X26421*X26539Y1624*X27405*X27513Y1732*X27799*Y1654*X27927*Y1732*X28025*Y1447*X27316Y1260D2*X26618D1*X27016Y749D2*X27108D1*X27016Y997D2*X27062Y1059D1*Y749*X26668D2*X26745D1*X26775Y765*X26798Y785*X26818Y816*X26833Y852*X26837Y904*X26833Y956*X26818Y992*X26798Y1023*X26775Y1044*X26745Y1059*X26668*Y749*X24401Y1400D2*X24493D1*X24401Y1648D2*X24447Y1710D1*Y1400*X24060Y1529D2*X24152D1*X24187Y1545*X24206Y1576*X24214Y1617*X24206Y1658*X24183Y1694*X24152Y1710*X24060*Y1400*X23739Y1710D2*X23915D1*X23827D2*Y1400D1*X20432Y1260D2*X19734D1*X20274Y837D2*X20082D1*X20224Y1059*Y749*X19784D2*X19861D1*X19891Y765*X19914Y785*X19933Y816*X19949Y852*X19953Y904*X19949Y956*X19933Y992*X19914Y1023*X19891Y1044*X19861Y1059*X19784*Y749*X19035Y1457D2*Y1732D1*X19123*Y1654*X19271*Y1742*X19537*X19655Y1624*X20521*X20629Y1732*X20915*Y1654*X21043*Y1732*X21141*Y1447*X15159Y1457D2*Y1732D1*X15247*Y1654*X15395*Y1742*X15661*X15779Y1624*X16645*X16753Y1732*X17039*Y1654*X17167*Y1732*X17265*Y1447*X16556Y1260D2*X15858D1*X16249Y1033D2*X16283Y1054D1*X16318Y1059*X16352Y1044*X16371Y1018*X16379Y987*X16371Y956*X16352Y930*X16329Y914*X16295*X16329D2*X16356Y904D1*X16383Y878*X16390Y842*X16387Y811*X16367Y780*X16337Y754*X16306Y749*X16272Y754*X16241Y775*X16218Y811*X15908Y749D2*X15985D1*X16015Y765*X16038Y785*X16057Y816*X16073Y852*X16077Y904*X16073Y956*X16057Y992*X16038Y1023*X16015Y1044*X15985Y1059*X15908*Y749*X11283Y1457D2*Y1732D1*X11371*Y1654*X11519*Y1742*X11785*X11903Y1624*X12769*X12877Y1732*X13163*Y1654*X13291*Y1732*X13389*Y1447*X12680Y1260D2*X11982D1*X12507Y749D2*X12346D1*X12354Y796*X12376Y847*X12411Y883*X12488Y935*X12503Y961*X12507Y992*X12499Y1023*X12472Y1049*X12434Y1059*X12403Y1054*X12376Y1038*X12354Y1007*X12032Y749D2*X12109D1*X12139Y765*X12162Y785*X12182Y816*X12197Y852*X12201Y904*X12197Y956*X12182Y992*X12162Y1023*X12139Y1044*X12109Y1059*X12032*Y749*X7256Y1000D2*X7094D1*X7102Y1046*X7125Y1098*X7160Y1134*X7236Y1186*X7252Y1212*X7256Y1243*X7248Y1274*X7221Y1300*X7183Y1310*X7152Y1305*X7125Y1289*X7102Y1258*X6788Y1129D2*X6880D1*X6915Y1145*X6934Y1176*X6942Y1217*X6934Y1258*X6911Y1294*X6880Y1310*X6788*Y1000*X6467Y1310D2*X6643D1*X6555D2*Y1000D1*X7407Y1457D2*Y1732D1*X7495*Y1654*X7643*Y1742*X7909*X8027Y1624*X8893*X9001Y1732*X9287*Y1654*X9415*Y1732*X9513*Y1447*X8804Y1260D2*X8106D1*X8504Y749D2*X8596D1*X8504Y997D2*X8550Y1059D1*Y749*X8156D2*X8233D1*X8263Y765*X8286Y785*X8306Y816*X8321Y852*X8325Y904*X8321Y956*X8306Y992*X8286Y1023*X8263Y1044*X8233Y1059*X8156*Y749*X5889Y1400D2*X5981D1*X5889Y1648D2*X5935Y1710D1*Y1400*X5548Y1529D2*X5640D1*X5675Y1545*X5694Y1576*X5702Y1617*X5694Y1658*X5671Y1694*X5640Y1710*X5548*Y1400*X5227Y1710D2*X5403D1*X5315D2*Y1400D1*D120*X580Y-1282D2*Y-2082D1*X120Y-1282*Y-2082*X806Y-1622D2*X1247D1*Y-1282D2*X806D1*Y-2082*X1247*X1487Y-1622D2*X1928D1*Y-1282D2*X1487D1*Y-2082*X1928*X2494D2*X2614Y-1962D1*Y-1408*X2494Y-1282*X2154*Y-2082*X2494*X4000Y-1282D2*Y-1962D1*X3880Y-2082*X3641*X3521Y-1962*Y-1282*X4649Y-2082D2*X4214D1*Y-1282*X6009Y-2082D2*X5575D1*Y-1282*X6236Y-1408D2*Y-1962D1*X6356Y-2082*X6595*X6715Y-1962*Y-1408*X6595Y-1282*X6356*X6236Y-1408*X7143Y-1723D2*X7364D1*Y-2082*X7043*X6923Y-1962*Y-1408*X7043Y-1282*X7364*X7597Y-1408D2*Y-1962D1*X7717Y-2082*X7956*X8076Y-1962*Y-1408*X7956Y-1282*X7717*X7597Y-1408*X8517Y-1975D2*Y-1887D1*X8611*X8391Y-2082*X9978D2*X10098Y-1962D1*Y-1408*X9978Y-1282*X9638*Y-2082*X9978*X10318Y-1723D2*X10778D1*Y-2082D2*Y-1408D1*X10658Y-1282*X10438*X10318Y-1408*Y-2082*X11250D2*Y-1282D1*X11011D2*X11490D1*X11691Y-1622D2*X12132D1*Y-1282D2*X11691D1*Y-2082*X12132*X13506D2*X13146D1*X13027Y-1962*Y-1408*X13146Y-1282*X13506*X13720Y-1408D2*Y-1962D1*X13839Y-2082*X14079*X14198Y-1962*Y-1408*X14079Y-1282*X13839*X13720Y-1408*X14740Y-2082D2*X14860Y-1962D1*Y-1408*X14740Y-1282*X14400*Y-2082*X14740*X15093Y-1622D2*X15534D1*Y-1282D2*X15093D1*Y-2082*X15534*X16441Y-1723D2*X16901D1*Y-2082D2*Y-1408D1*X16781Y-1282*X16561*X16441Y-1408*Y-2082*X17587Y-1282D2*Y-2082D1*X17128Y-1282*Y-2082*X18142D2*X18261Y-1962D1*Y-1408*X18142Y-1282*X17802*Y-2082*X18142*X19509D2*X19269D1*X19389D2*Y-1282D1*X19269Y-1408*X19836Y-2082D2*X20315Y-1282D1*X19956D2*X19836Y-1408D1*Y-1962*X19956Y-2082*X20195*X20315Y-1962*Y-1408*X20195Y-1282*X19956*X20517Y-2082D2*X20995Y-1282D1*X20636D2*X20517Y-1408D1*Y-1962*X20636Y-2082*X20876*X20995Y-1962*Y-1408*X20876Y-1282*X20636*X21417Y-2082D2*X21657D1*Y-1843*X21417*Y-2082*X21178D2*X21657Y-1282D1*X21417*Y-1528*X21178*Y-1282*X21417*X22576Y-1622D2*X23017D1*Y-1282D2*X22576D1*Y-2082*X23017*X23370D2*X23490D1*Y-1962*X23370*Y-2082*X24176D2*Y-1282D1*X23937D2*X24416D1*X24731Y-2082D2*X24850D1*Y-1962*X24731*Y-2082*X25965Y-1723D2*X26425D1*Y-2082D2*Y-1408D1*X26306Y-1282*X26085*X25965Y-1408*Y-2082*X26665D2*X26986D1*X27106Y-1962*Y-1723*X26986Y-1603*X26784*X26665Y-1484*Y-1408*X26784Y-1282*X27106*X28019Y-1622D2*X28359D1*X28479Y-1502*Y-1408*X28359Y-1282*X28019*Y-2082*X28699Y-1622D2*X29140D1*Y-1282D2*X28699D1*Y-2082*X29140*X29827D2*X29587Y-1647D1*X29392D2*X29707D1*X29827Y-1528*Y-1408*X29707Y-1282*X29392*Y-2082*X30740Y-1622D2*X31080D1*X31200Y-1502*Y-1408*X31080Y-1282*X30740*Y-2082*X31868D2*X31628Y-1647D1*X31433D2*X31748D1*X31868Y-1528*Y-1408*X31748Y-1282*X31433*Y-2082*X32088Y-1408D2*Y-1962D1*X32208Y-2082*X32447*X32567Y-1962*Y-1408*X32447Y-1282*X32208*X32088Y-1408*X33247Y-1282D2*X33008Y-2082D1*X32769Y-1282*X33682Y-2082D2*X33443D1*X33562D2*Y-1282D1*X33682D2*X33443D1*X34469Y-2082D2*X34589Y-1962D1*Y-1408*X34469Y-1282*X34129*Y-2082*X34469*X34822Y-1622D2*X35263D1*Y-1282D2*X34822D1*Y-2082*X35263*X35830D2*X35950Y-1962D1*Y-1408*X35830Y-1282*X35490*Y-2082*X35830*X37317Y-1282D2*Y-2082D1*X36857Y-1282*Y-2082*X37543Y-1622D2*X37984D1*Y-1282D2*X37543D1*Y-2082*X37984*X38463D2*Y-1282D1*X38224D2*X38702D1*X39345Y-2082D2*X38910D1*Y-1282*X39805Y-2082D2*X39565D1*X39685D2*Y-1282D1*X39805D2*X39565D1*X40271Y-2082D2*X40592D1*X40712Y-1962*Y-1723*X40592Y-1603*X40391*X40271Y-1484*Y-1408*X40391Y-1282*X40712*X41184Y-2082D2*Y-1282D1*X40945D2*X41424D1*X42079Y-1962D2*X41600Y-1528D1*Y-1962D2*X42079Y-1528D1*Y-1748D2*X41600D1*X41839Y-1528D2*Y-1962D1*X42759D2*X42280Y-1528D1*Y-1962D2*X42759Y-1528D1*Y-1748D2*X42280D1*X42520Y-1528D2*Y-1962D1*X54772Y-2082D2*X54532D1*X54652D2*Y-1282D1*X54772D2*X54532D1*X55672Y-2082D2*Y-1282D1*X55452Y-1723*X55231Y-1282*Y-2082*X56353D2*Y-1282D1*X56132Y-1723*X55912Y-1282*Y-2082*X56592Y-1622D2*X57033D1*Y-1282D2*X56592D1*Y-2082*X57033*X57720D2*X57480Y-1647D1*X57285D2*X57600D1*X57720Y-1528*Y-1408*X57600Y-1282*X57285*Y-2082*X57959D2*X58280D1*X58400Y-1962*Y-1723*X58280Y-1603*X58079*X57959Y-1484*Y-1408*X58079Y-1282*X58400*X58854Y-2082D2*X58614D1*X58734D2*Y-1282D1*X58854D2*X58614D1*X59301Y-1408D2*Y-1962D1*X59420Y-2082*X59660*X59780Y-1962*Y-1408*X59660Y-1282*X59420*X59301Y-1408*X60447Y-1282D2*Y-2082D1*X59987Y-1282*Y-2082*X61569Y-1723D2*X61789D1*Y-2082*X61468*X61348Y-1962*Y-1408*X61468Y-1282*X61789*X62022Y-1408D2*Y-1962D1*X62142Y-2082*X62381*X62501Y-1962*Y-1408*X62381Y-1282*X62142*X62022Y-1408*X63156Y-2082D2*X62721D1*Y-1282*X63723Y-2082D2*X63843Y-1962D1*Y-1408*X63723Y-1282*X63383*Y-2082*X63723*X64529Y-1962D2*X64050Y-1528D1*Y-1962D2*X64529Y-1528D1*Y-1748D2*X64050D1*X64290Y-1528D2*Y-1962D1*X65209D2*X64731Y-1528D1*Y-1962D2*X65209Y-1528D1*Y-1748D2*X64731D1*X64970Y-1528D2*Y-1962D1*X441Y-2643D2*X126D1*Y-3102D2*Y-2302D1*X561*X1254Y-3102D2*X1014Y-2668D1*X819D2*X1134D1*X1254Y-2548*Y-2428*X1134Y-2302*X819*Y-3102*X1946Y-2863D2*X1487D1*X1827Y-2302*Y-3102*X3181D2*X2942D1*X3061D2*Y-2302D1*X2942Y-2428*X3628Y-3102D2*X3868Y-2302D1*X3509*X4189Y-3102D2*X4668Y-2302D1*X4309D2*X4189Y-2428D1*Y-2983*X4309Y-3102*X4548*X4668Y-2983*Y-2428*X4548Y-2302*X4309*X5128Y-3102D2*Y-2302D1*X4888D2*X5367D1*X5783Y-2743D2*X6003D1*Y-3102*X5682*X5562Y-2983*Y-2428*X5682Y-2302*X6003*X7370Y-3102D2*Y-2302D1*X7150Y-2743*X6929Y-2302*Y-3102*X7597Y-2743D2*X8057D1*Y-3102D2*Y-2428D1*X7937Y-2302*X7717*X7597Y-2428*Y-3102*X8529D2*Y-2302D1*X8290D2*X8769D1*X8970Y-2643D2*X9411D1*Y-2302D2*X8970D1*Y-3102*X9411*X10098D2*X9858Y-2668D1*X9663D2*X9978D1*X10098Y-2548*Y-2428*X9978Y-2302*X9663*Y-3102*X10551D2*X10312D1*X10431D2*Y-2302D1*X10551D2*X10312D1*X10998Y-2743D2*X11458D1*Y-3102D2*Y-2428D1*X11339Y-2302*X11118*X10998Y-2428*Y-3102*X12132D2*X11698D1*Y-2302*X12825Y-2983D2*X12346Y-2548D1*Y-2983D2*X12825Y-2548D1*Y-2769D2*X12346D1*X12586Y-2548D2*Y-2983D1*X13506D2*X13027Y-2548D1*Y-2983D2*X13506Y-2548D1*Y-2769D2*X13027D1*X13266Y-2548D2*Y-2983D1*X19156Y-3102D2*X19635Y-2302D1*X19276D2*X19156Y-2428D1*Y-2983*X19276Y-3102*X19515*X19635Y-2983*Y-2428*X19515Y-2302*X19276*X19969Y-3102D2*X20088D1*Y-2983*X19969*Y-3102*X20517D2*X20995Y-2302D1*X20636D2*X20517Y-2428D1*Y-2983*X20636Y-3102*X20876*X20995Y-2983*Y-2428*X20876Y-2302*X20636*X21178Y-2983D2*X21298Y-3102D1*X21543*X21663Y-2983*Y-2788*X21543Y-2668*X21663Y-2548*Y-2428*X21543Y-2302*X21298*X21178Y-2428*X22343Y-3102D2*X21883D1*X22343Y-2668*Y-2428*X22224Y-2302*X22003*X21883Y-2428*X22917Y-2504D2*Y-2302D1*X22677Y-2504D2*Y-2302D1*X24176Y-3102D2*Y-2302D1*X23937D2*X24416D1*X24605Y-2643D2*X25065D1*Y-2302D2*Y-3102D1*X24605D2*Y-2302D1*X25518Y-3102D2*X25279D1*X25398D2*Y-2302D1*X25518D2*X25279D1*X26431Y-3102D2*X26072D1*X25953Y-2983*Y-2428*X26072Y-2302*X26431*X26665Y-3102D2*Y-2302D1*X27106Y-3102D2*X26665Y-2643D1*X27106Y-2302*X27792Y-2983D2*X27313Y-2548D1*Y-2983D2*X27792Y-2548D1*Y-2769D2*X27313D1*X27553Y-2548D2*Y-2983D1*X28472D2*X27994Y-2548D1*Y-2983D2*X28472Y-2548D1*Y-2769D2*X27994D1*X28233Y-2548D2*Y-2983D1*X54738Y-262D2*X54499Y-1062D1*X54259Y-262*X55393Y-728D2*X54952D1*X55639Y-1062D2*X55960D1*X56080Y-942*Y-703*X55960Y-583*X55759*X55639Y-464*Y-388*X55759Y-262*X56080*X56766Y-1062D2*X56407D1*X56288Y-942*Y-388*X56407Y-262*X56766*X56981Y-388D2*Y-942D1*X57100Y-1062*X57340*X57459Y-942*Y-388*X57340Y-262*X57100*X56981Y-388*X58121Y-1062D2*X57881Y-627D1*X57686D2*X58001D1*X58121Y-508*Y-388*X58001Y-262*X57686*Y-1062*X58574D2*X58335D1*X58455D2*Y-262D1*X58574D2*X58335D1*X59488D2*Y-1062D1*X59028Y-262*Y-1062*X59929Y-703D2*X60149D1*Y-1062*X59828*X59708Y-942*Y-388*X59828Y-262*X60149*X60848Y-942D2*X60370Y-508D1*Y-942D2*X60848Y-508D1*Y-728D2*X60370D1*X60609Y-508D2*Y-942D1*X61529D2*X61050Y-508D1*Y-942D2*X61529Y-508D1*Y-728D2*X61050D1*X61289Y-508D2*Y-942D1*X26664Y-1062D2*X26986D1*X27105Y-942*Y-703*X26986Y-583*X26784*X26664Y-464*Y-388*X26784Y-262*X27105*X27559Y-1062D2*X27319D1*X27439D2*Y-262D1*X27559D2*X27319D1*X28460Y-1062D2*X28025D1*Y-262*X28705Y-1062D2*Y-262D1*X29146Y-1062D2*X28705Y-602D1*X29146Y-262*X30299Y-1062D2*Y-262D1*X30060D2*X30538D1*X30727Y-388D2*Y-942D1*X30847Y-1062*X31086*X31206Y-942*Y-388*X31086Y-262*X30847*X30727Y-388*X31420Y-602D2*X31760D1*X31880Y-482*Y-388*X31760Y-262*X31420*Y-1062*X2228Y41288D2*Y39588D1*X2748*Y41288*X2228*X2508Y42528D2*X2488D1*X1248Y41288*X3748*X2508Y42528*D19*X-1040Y79440D3*X66576D3*X-1040Y-1040D3*X0Y0D2*M02*