*%FSLAX24Y24*%
%MOIN*%
%IPPOS*%
%ADD10C,0.03*%
%ADD11C,0.024*%
%ADD12R,0.065X0.032*%
%ADD13C,0.0276*%
%ADD14C,0.01*%
%ADD15C,0.015*%
%ADD16C,0.125*%
%ADD17R,0.075X0.075*%
%ADD18R,0.08X0.08*%
%AMD19*
1,1,0.1,0.0,0.0*
1,0,0.0875,0.0,0.0*
1,1,0.05,0.0,0.0*
1,0,0.0375,0.0,0.0*
20,1,0.0062,0.0,-0.0969,0.0,0.0969,0.0*
20,1,0.0062,-0.0969,0.0,0.0969,0.0,0.0*%
%ADD19D19*%
G04:---LTIenv:A019:6,0.2,6 *
%ADD100C,0.03*%
%ADD101C,0.024*%
%ADD102R,0.012X0.024*%
%ADD103R,0.03X0.02*%
%ADD104C,0.007*%
%ADD105R,0.062X0.028*%
%ADD106R,0.0085X0.02*%
%ADD107R,0.026X0.018*%
%ADD108C,0.035*%
%ADD109R,0.07X0.037*%
%ADD110C,0.035*%
%ADD111R,0.017X0.029*%
%ADD112R,0.035X0.025*%
%ADD113C,0.005*%
%AMD117*
1,1,0.001,0.01,0.0*
20,1,0.001,0.01,0.0,-0.01,0.0,0.0*
1,1,0.001,-0.01,0.0*
1,1,0.001,0.0,0.01*
20,1,0.001,0.0,0.01,0.0,-0.01,0.0*
1,1,0.001,0.0,-0.01*%
%ADD117D117*%
%AMD118*
1,1,0.001,0.025,0.0*
20,1,0.001,0.025,0.0,0.0246,-0.0043,0.0*
1,1,0.001,0.0246,-0.0043*
20,1,0.001,0.0246,-0.0043,0.0235,-0.0086,0.0*
1,1,0.001,0.0235,-0.0086*
20,1,0.001,0.0235,-0.0086,0.0217,-0.0125,0.0*
1,1,0.001,0.0217,-0.0125*
20,1,0.001,0.0217,-0.0125,0.0192,-0.0161,0.0*
1,1,0.001,0.0192,-0.0161*
20,1,0.001,0.0192,-0.0161,0.0161,-0.0192,0.0*
1,1,0.001,0.0161,-0.0192*
20,1,0.001,0.0161,-0.0192,0.0125,-0.0217,0.0*
1,1,0.001,0.0125,-0.0217*
20,1,0.001,0.0125,-0.0217,0.0086,-0.0235,0.0*
1,1,0.001,0.0086,-0.0235*
20,1,0.001,0.0086,-0.0235,0.0043,-0.0246,0.0*
1,1,0.001,0.0043,-0.0246*
20,1,0.001,0.0043,-0.0246,0.0,-0.025,0.0*
1,1,0.001,0.0,-0.025*
20,1,0.001,0.0,-0.025,-0.0043,-0.0246,0.0*
1,1,0.001,-0.0043,-0.0246*
20,1,0.001,-0.0043,-0.0246,-0.0086,-0.0235,0.0*
1,1,0.001,-0.0086,-0.0235*
20,1,0.001,-0.0086,-0.0235,-0.0125,-0.0217,0.0*
1,1,0.001,-0.0125,-0.0217*
20,1,0.001,-0.0125,-0.0217,-0.0161,-0.0192,0.0*
1,1,0.001,-0.0161,-0.0192*
20,1,0.001,-0.0161,-0.0192,-0.0192,-0.0161,0.0*
1,1,0.001,-0.0192,-0.0161*
20,1,0.001,-0.0192,-0.0161,-0.0217,-0.0125,0.0*
1,1,0.001,-0.0217,-0.0125*
20,1,0.001,-0.0217,-0.0125,-0.0235,-0.0086,0.0*
1,1,0.001,-0.0235,-0.0086*
20,1,0.001,-0.0235,-0.0086,-0.0246,-0.0043,0.0*
1,1,0.001,-0.0246,-0.0043*
20,1,0.001,-0.0246,-0.0043,-0.025,0.0,0.0*
1,1,0.001,-0.025,0.0*
20,1,0.001,-0.025,0.0,-0.0246,0.0043,0.0*
1,1,0.001,-0.0246,0.0043*
20,1,0.001,-0.0246,0.0043,-0.0235,0.0086,0.0*
1,1,0.001,-0.0235,0.0086*
20,1,0.001,-0.0235,0.0086,-0.0217,0.0125,0.0*
1,1,0.001,-0.0217,0.0125*
20,1,0.001,-0.0217,0.0125,-0.0192,0.0161,0.0*
1,1,0.001,-0.0192,0.0161*
20,1,0.001,-0.0192,0.0161,-0.0161,0.0192,0.0*
1,1,0.001,-0.0161,0.0192*
20,1,0.001,-0.0161,0.0192,-0.0125,0.0217,0.0*
1,1,0.001,-0.0125,0.0217*
20,1,0.001,-0.0125,0.0217,-0.0086,0.0235,0.0*
1,1,0.001,-0.0086,0.0235*
20,1,0.001,-0.0086,0.0235,-0.0043,0.0246,0.0*
1,1,0.001,-0.0043,0.0246*
20,1,0.001,-0.0043,0.0246,0.0,0.025,0.0*
1,1,0.001,0.0,0.025*
20,1,0.001,0.0,0.025,0.0043,0.0246,0.0*
1,1,0.001,0.0043,0.0246*
20,1,0.001,0.0043,0.0246,0.0086,0.0235,0.0*
1,1,0.001,0.0086,0.0235*
20,1,0.001,0.0086,0.0235,0.0125,0.0217,0.0*
1,1,0.001,0.0125,0.0217*
20,1,0.001,0.0125,0.0217,0.0161,0.0192,0.0*
1,1,0.001,0.0161,0.0192*
20,1,0.001,0.0161,0.0192,0.0192,0.0161,0.0*
1,1,0.001,0.0192,0.0161*
20,1,0.001,0.0192,0.0161,0.0217,0.0125,0.0*
1,1,0.001,0.0217,0.0125*
20,1,0.001,0.0217,0.0125,0.0235,0.0086,0.0*
1,1,0.001,0.0235,0.0086*
20,1,0.001,0.0235,0.0086,0.0246,0.0043,0.0*
1,1,0.001,0.0246,0.0043*
20,1,0.001,0.0246,0.0043,0.025,0.0,0.0*
1,1,0.001,0.025,0.0*
1,1,0.001,0.0125,0.0*
20,1,0.001,0.0125,0.0,-0.0125,0.0,0.0*
1,1,0.001,-0.0125,0.0*
1,1,0.001,0.0,0.0125*
20,1,0.001,0.0,0.0125,0.0,-0.0125,0.0*
1,1,0.001,0.0,-0.0125*%
%ADD118D118*%
%ADD119C,0.08*%
%ADD120C,0.008*%
%ADD200C,0.002*%
%ADD901C,0.0118*%
G04:---LTIenv:A901:15,0.0118,1 *
%ADD902C,0.02*%
G04:---LTIenv:A902:15,0.02,2 *

%LPD*%
D120*X580Y-1282D2*Y-2082D1*X120Y-1282*Y-2082*X806Y-1622D2*X1247D1*Y-1282D2*X806D1*Y-2082*X1247*X1487Y-1622D2*X1928D1*Y-1282D2*X1487D1*Y-2082*X1928*X2494D2*X2614Y-1962D1*Y-1408*X2494Y-1282*X2154*Y-2082*X2494*X4000Y-1282D2*Y-1962D1*X3880Y-2082*X3641*X3521Y-1962*Y-1282*X4649Y-2082D2*X4214D1*Y-1282*X6009Y-2082D2*X5575D1*Y-1282*X6236Y-1408D2*Y-1962D1*X6356Y-2082*X6595*X6715Y-1962*Y-1408*X6595Y-1282*X6356*X6236Y-1408*X7143Y-1723D2*X7364D1*Y-2082*X7043*X6923Y-1962*Y-1408*X7043Y-1282*X7364*X7597Y-1408D2*Y-1962D1*X7717Y-2082*X7956*X8076Y-1962*Y-1408*X7956Y-1282*X7717*X7597Y-1408*X8517Y-1975D2*Y-1887D1*X8611*X8391Y-2082*X9978D2*X10098Y-1962D1*Y-1408*X9978Y-1282*X9638*Y-2082*X9978*X10318Y-1723D2*X10778D1*Y-2082D2*Y-1408D1*X10658Y-1282*X10438*X10318Y-1408*Y-2082*X11250D2*Y-1282D1*X11011D2*X11490D1*X11691Y-1622D2*X12132D1*Y-1282D2*X11691D1*Y-2082*X12132*X13506D2*X13146D1*X13027Y-1962*Y-1408*X13146Y-1282*X13506*X13720Y-1408D2*Y-1962D1*X13839Y-2082*X14079*X14198Y-1962*Y-1408*X14079Y-1282*X13839*X13720Y-1408*X14740Y-2082D2*X14860Y-1962D1*Y-1408*X14740Y-1282*X14400*Y-2082*X14740*X15093Y-1622D2*X15534D1*Y-1282D2*X15093D1*Y-2082*X15534*X16441Y-1723D2*X16901D1*Y-2082D2*Y-1408D1*X16781Y-1282*X16561*X16441Y-1408*Y-2082*X17587Y-1282D2*Y-2082D1*X17128Y-1282*Y-2082*X18142D2*X18261Y-1962D1*Y-1408*X18142Y-1282*X17802*Y-2082*X18142*X19509D2*X19269D1*X19389D2*Y-1282D1*X19269Y-1408*X19836Y-2082D2*X20315Y-1282D1*X19956D2*X19836Y-1408D1*Y-1962*X19956Y-2082*X20195*X20315Y-1962*Y-1408*X20195Y-1282*X19956*X20517Y-2082D2*X20995Y-1282D1*X20636D2*X20517Y-1408D1*Y-1962*X20636Y-2082*X20876*X20995Y-1962*Y-1408*X20876Y-1282*X20636*X21417Y-2082D2*X21657D1*Y-1843*X21417*Y-2082*X21178D2*X21657Y-1282D1*X21417*Y-1528*X21178*Y-1282*X21417*X22576Y-1622D2*X23017D1*Y-1282D2*X22576D1*Y-2082*X23017*X23370D2*X23490D1*Y-1962*X23370*Y-2082*X24176D2*Y-1282D1*X23937D2*X24416D1*X24731Y-2082D2*X24850D1*Y-1962*X24731*Y-2082*X25965Y-1723D2*X26425D1*Y-2082D2*Y-1408D1*X26306Y-1282*X26085*X25965Y-1408*Y-2082*X26665D2*X26986D1*X27106Y-1962*Y-1723*X26986Y-1603*X26784*X26665Y-1484*Y-1408*X26784Y-1282*X27106*X28019Y-1622D2*X28359D1*X28479Y-1502*Y-1408*X28359Y-1282*X28019*Y-2082*X28699Y-1622D2*X29140D1*Y-1282D2*X28699D1*Y-2082*X29140*X29827D2*X29587Y-1647D1*X29392D2*X29707D1*X29827Y-1528*Y-1408*X29707Y-1282*X29392*Y-2082*X30740Y-1622D2*X31080D1*X31200Y-1502*Y-1408*X31080Y-1282*X30740*Y-2082*X31868D2*X31628Y-1647D1*X31433D2*X31748D1*X31868Y-1528*Y-1408*X31748Y-1282*X31433*Y-2082*X32088Y-1408D2*Y-1962D1*X32208Y-2082*X32447*X32567Y-1962*Y-1408*X32447Y-1282*X32208*X32088Y-1408*X33247Y-1282D2*X33008Y-2082D1*X32769Y-1282*X33682Y-2082D2*X33443D1*X33562D2*Y-1282D1*X33682D2*X33443D1*X34469Y-2082D2*X34589Y-1962D1*Y-1408*X34469Y-1282*X34129*Y-2082*X34469*X34822Y-1622D2*X35263D1*Y-1282D2*X34822D1*Y-2082*X35263*X35830D2*X35950Y-1962D1*Y-1408*X35830Y-1282*X35490*Y-2082*X35830*X37317Y-1282D2*Y-2082D1*X36857Y-1282*Y-2082*X37543Y-1622D2*X37984D1*Y-1282D2*X37543D1*Y-2082*X37984*X38463D2*Y-1282D1*X38224D2*X38702D1*X39345Y-2082D2*X38910D1*Y-1282*X39805Y-2082D2*X39565D1*X39685D2*Y-1282D1*X39805D2*X39565D1*X40271Y-2082D2*X40592D1*X40712Y-1962*Y-1723*X40592Y-1603*X40391*X40271Y-1484*Y-1408*X40391Y-1282*X40712*X41184Y-2082D2*Y-1282D1*X40945D2*X41424D1*X42079Y-1962D2*X41600Y-1528D1*Y-1962D2*X42079Y-1528D1*Y-1748D2*X41600D1*X41839Y-1528D2*Y-1962D1*X42759D2*X42280Y-1528D1*Y-1962D2*X42759Y-1528D1*Y-1748D2*X42280D1*X42520Y-1528D2*Y-1962D1*X54772Y-2082D2*X54532D1*X54652D2*Y-1282D1*X54772D2*X54532D1*X55672Y-2082D2*Y-1282D1*X55452Y-1723*X55231Y-1282*Y-2082*X56353D2*Y-1282D1*X56132Y-1723*X55912Y-1282*Y-2082*X56592Y-1622D2*X57033D1*Y-1282D2*X56592D1*Y-2082*X57033*X57720D2*X57480Y-1647D1*X57285D2*X57600D1*X57720Y-1528*Y-1408*X57600Y-1282*X57285*Y-2082*X57959D2*X58280D1*X58400Y-1962*Y-1723*X58280Y-1603*X58079*X57959Y-1484*Y-1408*X58079Y-1282*X58400*X58854Y-2082D2*X58614D1*X58734D2*Y-1282D1*X58854D2*X58614D1*X59301Y-1408D2*Y-1962D1*X59420Y-2082*X59660*X59780Y-1962*Y-1408*X59660Y-1282*X59420*X59301Y-1408*X60447Y-1282D2*Y-2082D1*X59987Y-1282*Y-2082*X61569Y-1723D2*X61789D1*Y-2082*X61468*X61348Y-1962*Y-1408*X61468Y-1282*X61789*X62022Y-1408D2*Y-1962D1*X62142Y-2082*X62381*X62501Y-1962*Y-1408*X62381Y-1282*X62142*X62022Y-1408*X63156Y-2082D2*X62721D1*Y-1282*X63723Y-2082D2*X63843Y-1962D1*Y-1408*X63723Y-1282*X63383*Y-2082*X63723*X64529Y-1962D2*X64050Y-1528D1*Y-1962D2*X64529Y-1528D1*Y-1748D2*X64050D1*X64290Y-1528D2*Y-1962D1*X65209D2*X64731Y-1528D1*Y-1962D2*X65209Y-1528D1*Y-1748D2*X64731D1*X64970Y-1528D2*Y-1962D1*X441Y-2643D2*X126D1*Y-3102D2*Y-2302D1*X561*X1254Y-3102D2*X1014Y-2668D1*X819D2*X1134D1*X1254Y-2548*Y-2428*X1134Y-2302*X819*Y-3102*X1946Y-2863D2*X1487D1*X1827Y-2302*Y-3102*X3181D2*X2942D1*X3061D2*Y-2302D1*X2942Y-2428*X3628Y-3102D2*X3868Y-2302D1*X3509*X4189Y-3102D2*X4668Y-2302D1*X4309D2*X4189Y-2428D1*Y-2983*X4309Y-3102*X4548*X4668Y-2983*Y-2428*X4548Y-2302*X4309*X5128Y-3102D2*Y-2302D1*X4888D2*X5367D1*X5783Y-2743D2*X6003D1*Y-3102*X5682*X5562Y-2983*Y-2428*X5682Y-2302*X6003*X7370Y-3102D2*Y-2302D1*X7150Y-2743*X6929Y-2302*Y-3102*X7597Y-2743D2*X8057D1*Y-3102D2*Y-2428D1*X7937Y-2302*X7717*X7597Y-2428*Y-3102*X8529D2*Y-2302D1*X8290D2*X8769D1*X8970Y-2643D2*X9411D1*Y-2302D2*X8970D1*Y-3102*X9411*X10098D2*X9858Y-2668D1*X9663D2*X9978D1*X10098Y-2548*Y-2428*X9978Y-2302*X9663*Y-3102*X10551D2*X10312D1*X10431D2*Y-2302D1*X10551D2*X10312D1*X10998Y-2743D2*X11458D1*Y-3102D2*Y-2428D1*X11339Y-2302*X11118*X10998Y-2428*Y-3102*X12132D2*X11698D1*Y-2302*X12825Y-2983D2*X12346Y-2548D1*Y-2983D2*X12825Y-2548D1*Y-2769D2*X12346D1*X12586Y-2548D2*Y-2983D1*X13506D2*X13027Y-2548D1*Y-2983D2*X13506Y-2548D1*Y-2769D2*X13027D1*X13266Y-2548D2*Y-2983D1*X19156Y-3102D2*X19635Y-2302D1*X19276D2*X19156Y-2428D1*Y-2983*X19276Y-3102*X19515*X19635Y-2983*Y-2428*X19515Y-2302*X19276*X19969Y-3102D2*X20088D1*Y-2983*X19969*Y-3102*X20517D2*X20995Y-2302D1*X20636D2*X20517Y-2428D1*Y-2983*X20636Y-3102*X20876*X20995Y-2983*Y-2428*X20876Y-2302*X20636*X21178Y-2983D2*X21298Y-3102D1*X21543*X21663Y-2983*Y-2788*X21543Y-2668*X21663Y-2548*Y-2428*X21543Y-2302*X21298*X21178Y-2428*X22343Y-3102D2*X21883D1*X22343Y-2668*Y-2428*X22224Y-2302*X22003*X21883Y-2428*X22917Y-2504D2*Y-2302D1*X22677Y-2504D2*Y-2302D1*X24176Y-3102D2*Y-2302D1*X23937D2*X24416D1*X24605Y-2643D2*X25065D1*Y-2302D2*Y-3102D1*X24605D2*Y-2302D1*X25518Y-3102D2*X25279D1*X25398D2*Y-2302D1*X25518D2*X25279D1*X26431Y-3102D2*X26072D1*X25953Y-2983*Y-2428*X26072Y-2302*X26431*X26665Y-3102D2*Y-2302D1*X27106Y-3102D2*X26665Y-2643D1*X27106Y-2302*X27792Y-2983D2*X27313Y-2548D1*Y-2983D2*X27792Y-2548D1*Y-2769D2*X27313D1*X27553Y-2548D2*Y-2983D1*X28472D2*X27994Y-2548D1*Y-2983D2*X28472Y-2548D1*Y-2769D2*X27994D1*X28233Y-2548D2*Y-2983D1*X54738Y-262D2*X54499Y-1062D1*X54259Y-262*X55393Y-728D2*X54952D1*X55639Y-1062D2*X55960D1*X56080Y-942*Y-703*X55960Y-583*X55759*X55639Y-464*Y-388*X55759Y-262*X56080*X56766Y-1062D2*X56407D1*X56288Y-942*Y-388*X56407Y-262*X56766*X56981Y-388D2*Y-942D1*X57100Y-1062*X57340*X57459Y-942*Y-388*X57340Y-262*X57100*X56981Y-388*X58121Y-1062D2*X57881Y-627D1*X57686D2*X58001D1*X58121Y-508*Y-388*X58001Y-262*X57686*Y-1062*X58574D2*X58335D1*X58455D2*Y-262D1*X58574D2*X58335D1*X59488D2*Y-1062D1*X59028Y-262*Y-1062*X59929Y-703D2*X60149D1*Y-1062*X59828*X59708Y-942*Y-388*X59828Y-262*X60149*X60848Y-942D2*X60370Y-508D1*Y-942D2*X60848Y-508D1*Y-728D2*X60370D1*X60609Y-508D2*Y-942D1*X61529D2*X61050Y-508D1*Y-942D2*X61529Y-508D1*Y-728D2*X61050D1*X61289Y-508D2*Y-942D1*X38539Y-602D2*X38224D1*Y-1062D2*Y-262D1*X38659*X38892Y-703D2*X39352D1*Y-1062D2*Y-388D1*X39232Y-262*X39011*X38892Y-388*Y-1062*X39566Y-602D2*X39925D1*X39566Y-1062D2*X39925D1*X40044Y-942*Y-703*X39925Y-602*X40044Y-508*Y-388*X39925Y-262*X39566*Y-1062*X41273D2*X41392Y-942D1*Y-388*X41273Y-262*X40933*Y-1062*X41273*X42073D2*X41833Y-627D1*X41638D2*X41953D1*X42073Y-508*Y-388*X41953Y-262*X41638*Y-1062*X42766Y-262D2*X42665Y-1062D1*X42545Y-583*X42426Y-1062*X42306Y-262*X65536Y74480D2*X60536D1*X65536Y70560D2*X60536D1*X65536Y66640D2*X60536D1*X65536Y62720D2*X60536D1*X65536Y58800D2*X60536D1*X65536Y54880D2*X60536D1*X65536Y50960D2*X60536D1*X65536Y47040D2*X60536D1*X65536Y43120D2*X60536D1*X65536Y39200D2*X60536D1*X65536Y35280D2*X60536D1*X65536Y31360D2*X60536D1*X65536Y27440D2*X60536D1*X65536Y23520D2*X60536D1*X65536Y19600D2*X60536D1*X65536Y15680D2*X60536D1*X65536Y11760D2*X60536D1*X65536Y7840D2*X60536D1*X65536Y3920D2*X60536D1*X65536Y78400D2*X60536D1*Y0*X65536*Y78400D2*Y74480D1*Y70560*Y66640*Y62720*Y58800*Y54880*Y50960*Y47040*Y43120*Y39200*Y35280*Y31360*Y27440*Y23520*Y19600*Y15680*Y11760*Y7840*Y3920*Y0*X5000Y74480D2*X0D1*X5000Y70560D2*X0D1*X5000Y66640D2*X0D1*X5000Y62720D2*X0D1*X5000Y58800D2*X0D1*X5000Y54880D2*X0D1*X5000Y50960D2*X0D1*X5000Y47040D2*X0D1*X5000Y43120D2*X0D1*X5000Y39200D2*X0D1*X5000Y35280D2*X0D1*X5000Y31360D2*X0D1*X5000Y27440D2*X0D1*X5000Y23520D2*X0D1*X5000Y19600D2*X0D1*X5000Y15680D2*X0D1*X5000Y11760D2*X0D1*X5000Y7840D2*X0D1*X5000Y3920D2*X0D1*X5000Y78400D2*X0D1*Y0*X5000*Y74480D2*Y78400D1*X23512*Y74480*X5000*X23512D2*Y78400D1*X42024*Y74480*X23512*X42024D2*Y78400D1*X60536*Y74480*X42024*Y70560*Y74480D2*X60536D1*Y70560*X42024*X23512D2*Y74480D1*X42024*Y70560*X23512*X5000D2*Y74480D1*X23512*Y70560*X5000*Y66640*Y70560D2*X23512D1*Y66640*X5000*X23512D2*Y70560D1*X42024*Y66640*X23512*X42024D2*Y70560D1*X60536*Y66640*X42024*Y62720*Y66640D2*X60536D1*Y62720*X42024*X23512D2*Y66640D1*X42024*Y62720*X23512*X5000D2*Y66640D1*X23512*Y62720*X5000*Y58800*Y62720D2*X23512D1*Y58800*X5000*X23512D2*Y62720D1*X42024*Y58800*X23512*X42024D2*Y62720D1*X60536*Y58800*X42024*Y54880*Y58800D2*X60536D1*Y54880*X42024*X23512D2*Y58800D1*X42024*Y54880*X23512*X5000D2*Y58800D1*X23512*Y54880*X5000*Y50960*Y54880D2*X23512D1*Y50960*X5000*X23512D2*Y54880D1*X42024*Y50960*X23512*X42024D2*Y54880D1*X60536*Y50960*X42024*Y47040*Y50960D2*X60536D1*Y47040*X42024*X23512D2*Y50960D1*X42024*Y47040*X23512*X5000D2*Y50960D1*X23512*Y47040*X5000*Y43120*Y47040D2*X23512D1*Y43120*X5000*X23512D2*Y47040D1*X42024*Y43120*X23512*X42024D2*Y47040D1*X60536*Y43120*X42024*Y39200*Y43120D2*X60536D1*Y39200*X42024*X23512D2*Y43120D1*X42024*Y39200*X23512*X5000D2*Y43120D1*X23512*Y39200*X5000*Y35280*Y39200D2*X23512D1*Y35280*X5000*X23512D2*Y39200D1*X42024*Y35280*X23512*X42024D2*Y39200D1*X60536*Y35280*X42024*Y31360*Y35280D2*X60536D1*Y31360*X42024*X23512D2*Y35280D1*X42024*Y31360*X23512*X5000D2*Y35280D1*X23512*Y31360*X5000*Y27440*Y31360D2*X23512D1*Y27440*X5000*X23512D2*Y31360D1*X42024*Y27440*X23512*X42024D2*Y31360D1*X60536*Y27440*X42024*Y23520*Y27440D2*X60536D1*Y23520*X42024*X23512D2*Y27440D1*X42024*Y23520*X23512*X5000D2*Y27440D1*X23512*Y23520*X5000*Y19600*Y23520D2*X23512D1*Y19600*X5000*X23512D2*Y23520D1*X42024*Y19600*X23512*X42024D2*Y23520D1*X60536*Y19600*X42024*Y15680*Y19600D2*X60536D1*Y15680*X42024*X23512D2*Y19600D1*X42024*Y15680*X23512*X5000D2*Y19600D1*X23512*Y15680*X5000*Y11760*Y15680D2*X23512D1*Y11760*X5000*X23512D2*Y15680D1*X42024*Y11760*X23512*X42024D2*Y15680D1*X60536*Y11760*X42024*Y7840*Y11760D2*X60536D1*Y7840*X42024*X23512D2*Y11760D1*X42024*Y7840*X23512*X5000D2*Y11760D1*X23512*Y7840*X5000*Y3920*Y7840D2*X23512D1*Y3920*X5000*X23512D2*Y7840D1*X42024*Y3920*X23512*X42024D2*Y7840D1*X60536*Y3920*X42024*Y0*Y3920D2*X60536D1*Y0*X42024*X23512D2*Y3920D1*X42024*Y0*X23512*X5000D2*Y3920D1*X23512*Y0*X5000*X0Y0D2*M02*