*
%LPD*%
%LNGBR.GBR Bottom*%
%FSLAX26Y26*%
%MOIN*%
%AD*%
%AD*%
%ADD15R,0.0085X0.02*%
%ADD16R,0.026X0.018*%
%ADD17R,0.075X0.075*%
%ADD18C,0.08*%
%ADD20C,0.1*%
%ADD36C,0.01*%
G54D20*
%SRX1Y1I0.0J0.0*%
G1X-11500000Y-11500000D2*
G1X-11500000Y11500000D1*
G1X11500000Y11500000D1*
G1X11500000Y-11500000D1*
G1X-11500000Y-11500000D1*
G54D18*
G1X2926800Y3420000D3*
G1X2926800Y-3420000D3*
G1X-2926800Y3420000D3*
G54D17*
G1X-2926800Y-920000D3*
G54D16*
G1X1340800Y3568000D3*
G1X1340800Y3608000D3*
G1X1730800Y3568000D3*
G1X1730800Y3608000D3*
G1X2110800Y3568000D3*
G1X2110800Y3608000D3*
G1X2500800Y3568000D3*
G1X2500800Y3608000D3*
G1X-510400Y3568000D3*
G1X-510400Y3608000D3*
G1X-120400Y3568000D3*
G1X-120400Y3608000D3*
G1X259600Y3568000D3*
G1X259600Y3608000D3*
G1X649600Y3568000D3*
G1X649600Y3608000D3*
G1X-2361600Y3568000D3*
G1X-2361600Y3608000D3*
G1X-1971600Y3568000D3*
G1X-1971600Y3608000D3*
G1X-1591600Y3568000D3*
G1X-1591600Y3608000D3*
G1X-1201600Y3568000D3*
G1X-1201600Y3608000D3*
G1X-2361600Y3176000D3*
G1X-2361600Y3216000D3*
G1X-1971600Y3176000D3*
G1X-1971600Y3216000D3*
G1X-1591600Y3176000D3*
G1X-1591600Y3216000D3*
G1X-1201600Y3176000D3*
G1X-1201600Y3216000D3*
G1X-510400Y3176000D3*
G1X-510400Y3216000D3*
G1X-120400Y3176000D3*
G1X-120400Y3216000D3*
G1X259600Y3176000D3*
G1X259600Y3216000D3*
G1X649600Y3176000D3*
G1X649600Y3216000D3*
G1X1340800Y3176000D3*
G1X1340800Y3216000D3*
G1X1730800Y3176000D3*
G1X1730800Y3216000D3*
G1X2110800Y3176000D3*
G1X2110800Y3216000D3*
G1X2500800Y3176000D3*
G1X2500800Y3216000D3*
G1X1340800Y2784000D3*
G1X1340800Y2824000D3*
G1X1730800Y2784000D3*
G1X1730800Y2824000D3*
G1X2110800Y2784000D3*
G1X2110800Y2824000D3*
G1X2500800Y2784000D3*
G1X2500800Y2824000D3*
G1X-510400Y2784000D3*
G1X-510400Y2824000D3*
G1X-120400Y2784000D3*
G1X-120400Y2824000D3*
G1X259600Y2784000D3*
G1X259600Y2824000D3*
G1X649600Y2784000D3*
G1X649600Y2824000D3*
G1X-2361600Y2784000D3*
G1X-2361600Y2824000D3*
G1X-1971600Y2784000D3*
G1X-1971600Y2824000D3*
G1X-1591600Y2784000D3*
G1X-1591600Y2824000D3*
G1X-1201600Y2784000D3*
G1X-1201600Y2824000D3*
G1X-2361600Y2392000D3*
G1X-2361600Y2432000D3*
G1X-1971600Y2392000D3*
G1X-1971600Y2432000D3*
G1X-1591600Y2392000D3*
G1X-1591600Y2432000D3*
G1X-1201600Y2392000D3*
G1X-1201600Y2432000D3*
G1X-510400Y2392000D3*
G1X-510400Y2432000D3*
G1X-120400Y2392000D3*
G1X-120400Y2432000D3*
G1X259600Y2392000D3*
G1X259600Y2432000D3*
G1X649600Y2392000D3*
G1X649600Y2432000D3*
G1X1340800Y2392000D3*
G1X1340800Y2432000D3*
G1X1730800Y2392000D3*
G1X1730800Y2432000D3*
G1X2110800Y2392000D3*
G1X2110800Y2432000D3*
G1X2500800Y2392000D3*
G1X2500800Y2432000D3*
G1X1340800Y2000000D3*
G1X1340800Y2040000D3*
G1X1730800Y2000000D3*
G1X1730800Y2040000D3*
G1X2110800Y2000000D3*
G1X2110800Y2040000D3*
G1X2500800Y2000000D3*
G1X2500800Y2040000D3*
G1X-510400Y2000000D3*
G1X-510400Y2040000D3*
G1X-120400Y2000000D3*
G1X-120400Y2040000D3*
G1X259600Y2000000D3*
G1X259600Y2040000D3*
G1X649600Y2000000D3*
G1X649600Y2040000D3*
G1X-2361600Y2000000D3*
G1X-2361600Y2040000D3*
G1X-1971600Y2000000D3*
G1X-1971600Y2040000D3*
G1X-1591600Y2000000D3*
G1X-1591600Y2040000D3*
G1X-1201600Y2000000D3*
G1X-1201600Y2040000D3*
G1X-2361600Y1608000D3*
G1X-2361600Y1648000D3*
G1X-1971600Y1608000D3*
G1X-1971600Y1648000D3*
G1X-1591600Y1608000D3*
G1X-1591600Y1648000D3*
G1X-1201600Y1608000D3*
G1X-1201600Y1648000D3*
G1X-510400Y1608000D3*
G1X-510400Y1648000D3*
G1X-120400Y1608000D3*
G1X-120400Y1648000D3*
G1X259600Y1608000D3*
G1X259600Y1648000D3*
G1X649600Y1608000D3*
G1X649600Y1648000D3*
G1X1340800Y1608000D3*
G1X1340800Y1648000D3*
G1X1730800Y1608000D3*
G1X1730800Y1648000D3*
G1X2110800Y1608000D3*
G1X2110800Y1648000D3*
G1X2500800Y1608000D3*
G1X2500800Y1648000D3*
G1X1340800Y1216000D3*
G1X1340800Y1256000D3*
G1X1730800Y1216000D3*
G1X1730800Y1256000D3*
G1X2110800Y1216000D3*
G1X2110800Y1256000D3*
G1X2500800Y1216000D3*
G1X2500800Y1256000D3*
G1X-510400Y1216000D3*
G1X-510400Y1256000D3*
G1X-120400Y1216000D3*
G1X-120400Y1256000D3*
G1X259600Y1216000D3*
G1X259600Y1256000D3*
G1X649600Y1216000D3*
G1X649600Y1256000D3*
G1X-2361600Y1216000D3*
G1X-2361600Y1256000D3*
G1X-1971600Y1216000D3*
G1X-1971600Y1256000D3*
G1X-1591600Y1216000D3*
G1X-1591600Y1256000D3*
G1X-1201600Y1216000D3*
G1X-1201600Y1256000D3*
G1X-2361600Y824000D3*
G1X-2361600Y864000D3*
G1X-1971600Y824000D3*
G1X-1971600Y864000D3*
G1X-1591600Y824000D3*
G1X-1591600Y864000D3*
G1X-1201600Y824000D3*
G1X-1201600Y864000D3*
G1X-510400Y824000D3*
G1X-510400Y864000D3*
G1X-120400Y824000D3*
G1X-120400Y864000D3*
G1X259600Y824000D3*
G1X259600Y864000D3*
G1X649600Y824000D3*
G1X649600Y864000D3*
G1X1340800Y824000D3*
G1X1340800Y864000D3*
G1X1730800Y824000D3*
G1X1730800Y864000D3*
G1X2110800Y824000D3*
G1X2110800Y864000D3*
G1X2500800Y824000D3*
G1X2500800Y864000D3*
G1X1340800Y432000D3*
G1X1340800Y472000D3*
G1X1730800Y432000D3*
G1X1730800Y472000D3*
G1X2110800Y432000D3*
G1X2110800Y472000D3*
G1X2500800Y432000D3*
G1X2500800Y472000D3*
G1X-510400Y432000D3*
G1X-510400Y472000D3*
G1X-120400Y432000D3*
G1X-120400Y472000D3*
G1X259600Y432000D3*
G1X259600Y472000D3*
G1X649600Y432000D3*
G1X649600Y472000D3*
G1X-2361600Y432000D3*
G1X-2361600Y472000D3*
G1X-1971600Y432000D3*
G1X-1971600Y472000D3*
G1X-1591600Y432000D3*
G1X-1591600Y472000D3*
G1X-1201600Y432000D3*
G1X-1201600Y472000D3*
G1X-2361600Y40000D3*
G1X-2361600Y80000D3*
G1X-1971600Y40000D3*
G1X-1971600Y80000D3*
G1X-1591600Y40000D3*
G1X-1591600Y80000D3*
G1X-1201600Y40000D3*
G1X-1201600Y80000D3*
G1X-510400Y40000D3*
G1X-510400Y80000D3*
G1X-120400Y40000D3*
G1X-120400Y80000D3*
G1X259600Y40000D3*
G1X259600Y80000D3*
G1X649600Y40000D3*
G1X649600Y80000D3*
G1X1340800Y40000D3*
G1X1340800Y80000D3*
G1X1730800Y40000D3*
G1X1730800Y80000D3*
G1X2110800Y40000D3*
G1X2110800Y80000D3*
G1X2500800Y40000D3*
G1X2500800Y80000D3*
G1X1340800Y-352000D3*
G1X1340800Y-312000D3*
G1X1730800Y-352000D3*
G1X1730800Y-312000D3*
G1X2110800Y-352000D3*
G1X2110800Y-312000D3*
G1X2500800Y-352000D3*
G1X2500800Y-312000D3*
G1X-510400Y-352000D3*
G1X-510400Y-312000D3*
G1X-120400Y-352000D3*
G1X-120400Y-312000D3*
G1X259600Y-352000D3*
G1X259600Y-312000D3*
G1X649600Y-352000D3*
G1X649600Y-312000D3*
G1X-2361600Y-352000D3*
G1X-2361600Y-312000D3*
G1X-1971600Y-352000D3*
G1X-1971600Y-312000D3*
G1X-1591600Y-352000D3*
G1X-1591600Y-312000D3*
G1X-1201600Y-352000D3*
G1X-1201600Y-312000D3*
G1X-2361600Y-744000D3*
G1X-2361600Y-704000D3*
G1X-1971600Y-744000D3*
G1X-1971600Y-704000D3*
G1X-1591600Y-744000D3*
G1X-1591600Y-704000D3*
G1X-1201600Y-744000D3*
G1X-1201600Y-704000D3*
G1X-510400Y-744000D3*
G1X-510400Y-704000D3*
G1X-120400Y-744000D3*
G1X-120400Y-704000D3*
G1X259600Y-744000D3*
G1X259600Y-704000D3*
G1X649600Y-744000D3*
G1X649600Y-704000D3*
G1X1340800Y-744000D3*
G1X1340800Y-704000D3*
G1X1730800Y-744000D3*
G1X1730800Y-704000D3*
G1X2110800Y-744000D3*
G1X2110800Y-704000D3*
G1X2500800Y-744000D3*
G1X2500800Y-704000D3*
G1X1340800Y-1136000D3*
G1X1340800Y-1096000D3*
G1X1730800Y-1136000D3*
G1X1730800Y-1096000D3*
G1X2110800Y-1136000D3*
G1X2110800Y-1096000D3*
G1X2500800Y-1136000D3*
G1X2500800Y-1096000D3*
G1X-510400Y-1136000D3*
G1X-510400Y-1096000D3*
G1X-120400Y-1136000D3*
G1X-120400Y-1096000D3*
G1X259600Y-1136000D3*
G1X259600Y-1096000D3*
G1X649600Y-1136000D3*
G1X649600Y-1096000D3*
G1X-2361600Y-1136000D3*
G1X-2361600Y-1096000D3*
G1X-1971600Y-1136000D3*
G1X-1971600Y-1096000D3*
G1X-1591600Y-1136000D3*
G1X-1591600Y-1096000D3*
G1X-1201600Y-1136000D3*
G1X-1201600Y-1096000D3*
G1X-2361600Y-1528000D3*
G1X-2361600Y-1488000D3*
G1X-1971600Y-1528000D3*
G1X-1971600Y-1488000D3*
G1X-1591600Y-1528000D3*
G1X-1591600Y-1488000D3*
G1X-1201600Y-1528000D3*
G1X-1201600Y-1488000D3*
G1X-510400Y-1528000D3*
G1X-510400Y-1488000D3*
G1X-120400Y-1528000D3*
G1X-120400Y-1488000D3*
G1X259600Y-1528000D3*
G1X259600Y-1488000D3*
G1X649600Y-1528000D3*
G1X649600Y-1488000D3*
G1X1340800Y-1528000D3*
G1X1340800Y-1488000D3*
G1X1730800Y-1528000D3*
G1X1730800Y-1488000D3*
G1X2110800Y-1528000D3*
G1X2110800Y-1488000D3*
G1X2500800Y-1528000D3*
G1X2500800Y-1488000D3*
G1X1340800Y-1920000D3*
G1X1340800Y-1880000D3*
G1X1730800Y-1920000D3*
G1X1730800Y-1880000D3*
G1X2110800Y-1920000D3*
G1X2110800Y-1880000D3*
G1X2500800Y-1920000D3*
G1X2500800Y-1880000D3*
G1X-510400Y-1920000D3*
G1X-510400Y-1880000D3*
G1X-120400Y-1920000D3*
G1X-120400Y-1880000D3*
G1X259600Y-1920000D3*
G1X259600Y-1880000D3*
G1X649600Y-1920000D3*
G1X649600Y-1880000D3*
G1X-2361600Y-1920000D3*
G1X-2361600Y-1880000D3*
G1X-1971600Y-1920000D3*
G1X-1971600Y-1880000D3*
G1X-1591600Y-1920000D3*
G1X-1591600Y-1880000D3*
G1X-1201600Y-1920000D3*
G1X-1201600Y-1880000D3*
G1X-2361600Y-2312000D3*
G1X-2361600Y-2272000D3*
G1X-1971600Y-2312000D3*
G1X-1971600Y-2272000D3*
G1X-1591600Y-2312000D3*
G1X-1591600Y-2272000D3*
G1X-1201600Y-2312000D3*
G1X-1201600Y-2272000D3*
G1X-510400Y-2312000D3*
G1X-510400Y-2272000D3*
G1X-120400Y-2312000D3*
G1X-120400Y-2272000D3*
G1X259600Y-2312000D3*
G1X259600Y-2272000D3*
G1X649600Y-2312000D3*
G1X649600Y-2272000D3*
G1X1340800Y-2312000D3*
G1X1340800Y-2272000D3*
G1X1730800Y-2312000D3*
G1X1730800Y-2272000D3*
G1X2110800Y-2312000D3*
G1X2110800Y-2272000D3*
G1X2500800Y-2312000D3*
G1X2500800Y-2272000D3*
G1X1340800Y-2704000D3*
G1X1340800Y-2664000D3*
G1X1730800Y-2704000D3*
G1X1730800Y-2664000D3*
G1X2110800Y-2704000D3*
G1X2110800Y-2664000D3*
G1X2500800Y-2704000D3*
G1X2500800Y-2664000D3*
G1X-510400Y-2704000D3*
G1X-510400Y-2664000D3*
G1X-120400Y-2704000D3*
G1X-120400Y-2664000D3*
G1X259600Y-2704000D3*
G1X259600Y-2664000D3*
G1X649600Y-2704000D3*
G1X649600Y-2664000D3*
G1X-2361600Y-2704000D3*
G1X-2361600Y-2664000D3*
G1X-1971600Y-2704000D3*
G1X-1971600Y-2664000D3*
G1X-1591600Y-2704000D3*
G1X-1591600Y-2664000D3*
G1X-1201600Y-2704000D3*
G1X-1201600Y-2664000D3*
G1X-2361600Y-3096000D3*
G1X-2361600Y-3056000D3*
G1X-1971600Y-3096000D3*
G1X-1971600Y-3056000D3*
G1X-1591600Y-3096000D3*
G1X-1591600Y-3056000D3*
G1X-1201600Y-3096000D3*
G1X-1201600Y-3056000D3*
G1X-510400Y-3096000D3*
G1X-510400Y-3056000D3*
G1X-120400Y-3096000D3*
G1X-120400Y-3056000D3*
G1X259600Y-3096000D3*
G1X259600Y-3056000D3*
G1X649600Y-3096000D3*
G1X649600Y-3056000D3*
G1X1340800Y-3096000D3*
G1X1340800Y-3056000D3*
G1X1730800Y-3096000D3*
G1X1730800Y-3056000D3*
G1X2110800Y-3096000D3*
G1X2110800Y-3056000D3*
G1X2500800Y-3096000D3*
G1X2500800Y-3056000D3*
G1X1340800Y-3488000D3*
G1X1340800Y-3448000D3*
G1X1730800Y-3488000D3*
G1X1730800Y-3448000D3*
G1X2110800Y-3488000D3*
G1X2110800Y-3448000D3*
G1X2500800Y-3488000D3*
G1X2500800Y-3448000D3*
G1X-510400Y-3488000D3*
G1X-510400Y-3448000D3*
G1X-120400Y-3488000D3*
G1X-120400Y-3448000D3*
G1X259600Y-3488000D3*
G1X259600Y-3448000D3*
G1X649600Y-3488000D3*
G1X649600Y-3448000D3*
G1X-2361600Y-3488000D3*
G1X-2361600Y-3448000D3*
G1X-1971600Y-3488000D3*
G1X-1971600Y-3448000D3*
G1X-1591600Y-3488000D3*
G1X-1591600Y-3448000D3*
G1X-1201600Y-3488000D3*
G1X-1201600Y-3448000D3*
G1X-2361600Y-3880000D3*
G1X-2361600Y-3840000D3*
G1X-1971600Y-3880000D3*
G1X-1971600Y-3840000D3*
G1X-1591600Y-3880000D3*
G1X-1591600Y-3840000D3*
G1X-1201600Y-3880000D3*
G1X-1201600Y-3840000D3*
G1X-510400Y-3880000D3*
G1X-510400Y-3840000D3*
G1X-120400Y-3880000D3*
G1X-120400Y-3840000D3*
G1X259600Y-3880000D3*
G1X259600Y-3840000D3*
G1X649600Y-3880000D3*
G1X649600Y-3840000D3*
G1X1340800Y-3880000D3*
G1X1340800Y-3840000D3*
G1X1730800Y-3880000D3*
G1X1730800Y-3840000D3*
G1X2110800Y-3880000D3*
G1X2110800Y-3840000D3*
G1X2500800Y-3880000D3*
G1X2500800Y-3840000D3*
G54D15*
G1X-1052000Y-2193700D3*
G1X-1040200Y-2302300D3*
G1X-981200Y-2193700D3*
G1X-1004800Y-2193700D3*
G1X-1028400Y-2193700D3*
G1X-1016600Y-2302300D3*
G1X-993000Y-2302300D3*
G1X2650400Y3686300D3*
G1X2662200Y3577700D3*
G1X2721200Y3686300D3*
G1X2697600Y3686300D3*
G1X2674000Y3686300D3*
G1X2685800Y3577700D3*
G1X2709400Y3577700D3*
G1X799200Y3686300D3*
G1X811000Y3577700D3*
G1X870000Y3686300D3*
G1X846400Y3686300D3*
G1X822800Y3686300D3*
G1X834600Y3577700D3*
G1X858200Y3577700D3*
G1X-1052000Y3686300D3*
G1X-1040200Y3577700D3*
G1X-981200Y3686300D3*
G1X-1004800Y3686300D3*
G1X-1028400Y3686300D3*
G1X-1016600Y3577700D3*
G1X-993000Y3577700D3*
G1X-1052000Y3294300D3*
G1X-1040200Y3185700D3*
G1X-981200Y3294300D3*
G1X-1004800Y3294300D3*
G1X-1028400Y3294300D3*
G1X-1016600Y3185700D3*
G1X-993000Y3185700D3*
G1X799200Y3294300D3*
G1X811000Y3185700D3*
G1X870000Y3294300D3*
G1X846400Y3294300D3*
G1X822800Y3294300D3*
G1X834600Y3185700D3*
G1X858200Y3185700D3*
G1X2650400Y3294300D3*
G1X2662200Y3185700D3*
G1X2721200Y3294300D3*
G1X2697600Y3294300D3*
G1X2674000Y3294300D3*
G1X2685800Y3185700D3*
G1X2709400Y3185700D3*
G1X2650400Y2902300D3*
G1X2662200Y2793700D3*
G1X2721200Y2902300D3*
G1X2697600Y2902300D3*
G1X2674000Y2902300D3*
G1X2685800Y2793700D3*
G1X2709400Y2793700D3*
G1X799200Y2902300D3*
G1X811000Y2793700D3*
G1X870000Y2902300D3*
G1X846400Y2902300D3*
G1X822800Y2902300D3*
G1X834600Y2793700D3*
G1X858200Y2793700D3*
G1X-1052000Y2902300D3*
G1X-1040200Y2793700D3*
G1X-981200Y2902300D3*
G1X-1004800Y2902300D3*
G1X-1028400Y2902300D3*
G1X-1016600Y2793700D3*
G1X-993000Y2793700D3*
G1X-1052000Y2510300D3*
G1X-1040200Y2401700D3*
G1X-981200Y2510300D3*
G1X-1004800Y2510300D3*
G1X-1028400Y2510300D3*
G1X-1016600Y2401700D3*
G1X-993000Y2401700D3*
G1X799200Y2510300D3*
G1X811000Y2401700D3*
G1X870000Y2510300D3*
G1X846400Y2510300D3*
G1X822800Y2510300D3*
G1X834600Y2401700D3*
G1X858200Y2401700D3*
G1X2650400Y2510300D3*
G1X2662200Y2401700D3*
G1X2721200Y2510300D3*
G1X2697600Y2510300D3*
G1X2674000Y2510300D3*
G1X2685800Y2401700D3*
G1X2709400Y2401700D3*
G1X2650400Y2118300D3*
G1X2662200Y2009700D3*
G1X2721200Y2118300D3*
G1X2697600Y2118300D3*
G1X2674000Y2118300D3*
G1X2685800Y2009700D3*
G1X2709400Y2009700D3*
G1X799200Y2118300D3*
G1X811000Y2009700D3*
G1X870000Y2118300D3*
G1X846400Y2118300D3*
G1X822800Y2118300D3*
G1X834600Y2009700D3*
G1X858200Y2009700D3*
G1X-1052000Y2118300D3*
G1X-1040200Y2009700D3*
G1X-981200Y2118300D3*
G1X-1004800Y2118300D3*
G1X-1028400Y2118300D3*
G1X-1016600Y2009700D3*
G1X-993000Y2009700D3*
G1X-1052000Y1726300D3*
G1X-1040200Y1617700D3*
G1X-981200Y1726300D3*
G1X-1004800Y1726300D3*
G1X-1028400Y1726300D3*
G1X-1016600Y1617700D3*
G1X-993000Y1617700D3*
G1X799200Y1726300D3*
G1X811000Y1617700D3*
G1X870000Y1726300D3*
G1X846400Y1726300D3*
G1X822800Y1726300D3*
G1X834600Y1617700D3*
G1X858200Y1617700D3*
G1X2650400Y1726300D3*
G1X2662200Y1617700D3*
G1X2721200Y1726300D3*
G1X2697600Y1726300D3*
G1X2674000Y1726300D3*
G1X2685800Y1617700D3*
G1X2709400Y1617700D3*
G1X2650400Y1334300D3*
G1X2662200Y1225700D3*
G1X2721200Y1334300D3*
G1X2697600Y1334300D3*
G1X2674000Y1334300D3*
G1X2685800Y1225700D3*
G1X2709400Y1225700D3*
G1X799200Y1334300D3*
G1X811000Y1225700D3*
G1X870000Y1334300D3*
G1X846400Y1334300D3*
G1X822800Y1334300D3*
G1X834600Y1225700D3*
G1X858200Y1225700D3*
G1X-1052000Y1334300D3*
G1X-1040200Y1225700D3*
G1X-981200Y1334300D3*
G1X-1004800Y1334300D3*
G1X-1028400Y1334300D3*
G1X-1016600Y1225700D3*
G1X-993000Y1225700D3*
G1X-1052000Y942300D3*
G1X-1040200Y833700D3*
G1X-981200Y942300D3*
G1X-1004800Y942300D3*
G1X-1028400Y942300D3*
G1X-1016600Y833700D3*
G1X-993000Y833700D3*
G1X799200Y942300D3*
G1X811000Y833700D3*
G1X870000Y942300D3*
G1X846400Y942300D3*
G1X822800Y942300D3*
G1X834600Y833700D3*
G1X858200Y833700D3*
G1X2650400Y942300D3*
G1X2662200Y833700D3*
G1X2721200Y942300D3*
G1X2697600Y942300D3*
G1X2674000Y942300D3*
G1X2685800Y833700D3*
G1X2709400Y833700D3*
G1X2650400Y550300D3*
G1X2662200Y441700D3*
G1X2721200Y550300D3*
G1X2697600Y550300D3*
G1X2674000Y550300D3*
G1X2685800Y441700D3*
G1X2709400Y441700D3*
G1X799200Y550300D3*
G1X811000Y441700D3*
G1X870000Y550300D3*
G1X846400Y550300D3*
G1X822800Y550300D3*
G1X834600Y441700D3*
G1X858200Y441700D3*
G1X-1052000Y550300D3*
G1X-1040200Y441700D3*
G1X-981200Y550300D3*
G1X-1004800Y550300D3*
G1X-1028400Y550300D3*
G1X-1016600Y441700D3*
G1X-993000Y441700D3*
G1X-1052000Y158300D3*
G1X-1040200Y49700D3*
G1X-981200Y158300D3*
G1X-1004800Y158300D3*
G1X-1028400Y158300D3*
G1X-1016600Y49700D3*
G1X-993000Y49700D3*
G1X799200Y158300D3*
G1X811000Y49700D3*
G1X870000Y158300D3*
G1X846400Y158300D3*
G1X822800Y158300D3*
G1X834600Y49700D3*
G1X858200Y49700D3*
G1X2650400Y158300D3*
G1X2662200Y49700D3*
G1X2721200Y158300D3*
G1X2697600Y158300D3*
G1X2674000Y158300D3*
G1X2685800Y49700D3*
G1X2709400Y49700D3*
G1X2650400Y-233700D3*
G1X2662200Y-342300D3*
G1X2721200Y-233700D3*
G1X2697600Y-233700D3*
G1X2674000Y-233700D3*
G1X2685800Y-342300D3*
G1X2709400Y-342300D3*
G1X799200Y-233700D3*
G1X811000Y-342300D3*
G1X870000Y-233700D3*
G1X846400Y-233700D3*
G1X822800Y-233700D3*
G1X834600Y-342300D3*
G1X858200Y-342300D3*
G1X-1052000Y-233700D3*
G1X-1040200Y-342300D3*
G1X-981200Y-233700D3*
G1X-1004800Y-233700D3*
G1X-1028400Y-233700D3*
G1X-1016600Y-342300D3*
G1X-993000Y-342300D3*
G1X-1052000Y-625700D3*
G1X-1040200Y-734300D3*
G1X-981200Y-625700D3*
G1X-1004800Y-625700D3*
G1X-1028400Y-625700D3*
G1X-1016600Y-734300D3*
G1X-993000Y-734300D3*
G1X799200Y-625700D3*
G1X811000Y-734300D3*
G1X870000Y-625700D3*
G1X846400Y-625700D3*
G1X822800Y-625700D3*
G1X834600Y-734300D3*
G1X858200Y-734300D3*
G1X2650400Y-625700D3*
G1X2662200Y-734300D3*
G1X2721200Y-625700D3*
G1X2697600Y-625700D3*
G1X2674000Y-625700D3*
G1X2685800Y-734300D3*
G1X2709400Y-734300D3*
G1X2650400Y-1017700D3*
G1X2662200Y-1126300D3*
G1X2721200Y-1017700D3*
G1X2697600Y-1017700D3*
G1X2674000Y-1017700D3*
G1X2685800Y-1126300D3*
G1X2709400Y-1126300D3*
G1X799200Y-1017700D3*
G1X811000Y-1126300D3*
G1X870000Y-1017700D3*
G1X846400Y-1017700D3*
G1X822800Y-1017700D3*
G1X834600Y-1126300D3*
G1X858200Y-1126300D3*
G1X-1052000Y-1017700D3*
G1X-1040200Y-1126300D3*
G1X-981200Y-1017700D3*
G1X-1004800Y-1017700D3*
G1X-1028400Y-1017700D3*
G1X-1016600Y-1126300D3*
G1X-993000Y-1126300D3*
G1X-1052000Y-1409700D3*
G1X-1040200Y-1518300D3*
G1X-981200Y-1409700D3*
G1X-1004800Y-1409700D3*
G1X-1028400Y-1409700D3*
G1X-1016600Y-1518300D3*
G1X-993000Y-1518300D3*
G1X799200Y-1409700D3*
G1X811000Y-1518300D3*
G1X870000Y-1409700D3*
G1X846400Y-1409700D3*
G1X822800Y-1409700D3*
G1X834600Y-1518300D3*
G1X858200Y-1518300D3*
G1X2650400Y-1409700D3*
G1X2662200Y-1518300D3*
G1X2721200Y-1409700D3*
G1X2697600Y-1409700D3*
G1X2674000Y-1409700D3*
G1X2685800Y-1518300D3*
G1X2709400Y-1518300D3*
G1X2650400Y-1801700D3*
G1X2662200Y-1910300D3*
G1X2721200Y-1801700D3*
G1X2697600Y-1801700D3*
G1X2674000Y-1801700D3*
G1X2685800Y-1910300D3*
G1X2709400Y-1910300D3*
G1X799200Y-1801700D3*
G1X811000Y-1910300D3*
G1X870000Y-1801700D3*
G1X846400Y-1801700D3*
G1X822800Y-1801700D3*
G1X834600Y-1910300D3*
G1X858200Y-1910300D3*
G1X-1052000Y-1801700D3*
G1X-1040200Y-1910300D3*
G1X-981200Y-1801700D3*
G1X-1004800Y-1801700D3*
G1X-1028400Y-1801700D3*
G1X-1016600Y-1910300D3*
G1X-993000Y-1910300D3*
G1X799200Y-2193700D3*
G1X811000Y-2302300D3*
G1X870000Y-2193700D3*
G1X846400Y-2193700D3*
G1X822800Y-2193700D3*
G1X834600Y-2302300D3*
G1X858200Y-2302300D3*
G1X2650400Y-2193700D3*
G1X2662200Y-2302300D3*
G1X2721200Y-2193700D3*
G1X2697600Y-2193700D3*
G1X2674000Y-2193700D3*
G1X2685800Y-2302300D3*
G1X2709400Y-2302300D3*
G1X2650400Y-2585700D3*
G1X2662200Y-2694300D3*
G1X2721200Y-2585700D3*
G1X2697600Y-2585700D3*
G1X2674000Y-2585700D3*
G1X2685800Y-2694300D3*
G1X2709400Y-2694300D3*
G1X799200Y-2585700D3*
G1X811000Y-2694300D3*
G1X870000Y-2585700D3*
G1X846400Y-2585700D3*
G1X822800Y-2585700D3*
G1X834600Y-2694300D3*
G1X858200Y-2694300D3*
G1X-1052000Y-2585700D3*
G1X-1040200Y-2694300D3*
G1X-981200Y-2585700D3*
G1X-1004800Y-2585700D3*
G1X-1028400Y-2585700D3*
G1X-1016600Y-2694300D3*
G1X-993000Y-2694300D3*
G1X-1052000Y-2977700D3*
G1X-1040200Y-3086300D3*
G1X-981200Y-2977700D3*
G1X-1004800Y-2977700D3*
G1X-1028400Y-2977700D3*
G1X-1016600Y-3086300D3*
G1X-993000Y-3086300D3*
G1X799200Y-2977700D3*
G1X811000Y-3086300D3*
G1X870000Y-2977700D3*
G1X846400Y-2977700D3*
G1X822800Y-2977700D3*
G1X834600Y-3086300D3*
G1X858200Y-3086300D3*
G1X2650400Y-2977700D3*
G1X2662200Y-3086300D3*
G1X2721200Y-2977700D3*
G1X2697600Y-2977700D3*
G1X2674000Y-2977700D3*
G1X2685800Y-3086300D3*
G1X2709400Y-3086300D3*
G1X2650400Y-3369700D3*
G1X2662200Y-3478300D3*
G1X2721200Y-3369700D3*
G1X2697600Y-3369700D3*
G1X2674000Y-3369700D3*
G1X2685800Y-3478300D3*
G1X2709400Y-3478300D3*
G1X799200Y-3369700D3*
G1X811000Y-3478300D3*
G1X870000Y-3369700D3*
G1X846400Y-3369700D3*
G1X822800Y-3369700D3*
G1X834600Y-3478300D3*
G1X858200Y-3478300D3*
G1X-1052000Y-3369700D3*
G1X-1040200Y-3478300D3*
G1X-981200Y-3369700D3*
G1X-1004800Y-3369700D3*
G1X-1028400Y-3369700D3*
G1X-1016600Y-3478300D3*
G1X-993000Y-3478300D3*
G1X-1052000Y-3761700D3*
G1X-1040200Y-3870300D3*
G1X-981200Y-3761700D3*
G1X-1004800Y-3761700D3*
G1X-1028400Y-3761700D3*
G1X-1016600Y-3870300D3*
G1X-993000Y-3870300D3*
G1X799200Y-3761700D3*
G1X811000Y-3870300D3*
G1X870000Y-3761700D3*
G1X846400Y-3761700D3*
G1X822800Y-3761700D3*
G1X834600Y-3870300D3*
G1X858200Y-3870300D3*
G1X2650400Y-3761700D3*
G1X2662200Y-3870300D3*
G1X2721200Y-3761700D3*
G1X2697600Y-3761700D3*
G1X2674000Y-3761700D3*
G1X2685800Y-3870300D3*
G1X2709400Y-3870300D3*
G1X-7206250Y-6618750D2*
G54D36*
G1X-7225000Y-6600000D1*
G1X-7281250Y-6600000D1*
G1X-7300000Y-6618750D1*
G1X-7300000Y-6637500D1*
G1X-7206250Y-6675000D2*
G1X-7206250Y-6693750D1*
G1X-7225000Y-6712500D1*
G1X-7281250Y-6712500D1*
G1X-7300000Y-6693750D1*
G1X-7300000Y-6637500D2*
G1X-7281250Y-6656250D1*
G1X-7225000Y-6656250D1*
G1X-7206250Y-6675000D1*
G1X-7086250Y-6600000D2*
G1X-7086250Y-6693750D1*
G1X-7067500Y-6712500D1*
G1X-7048750Y-6637500D2*
G1X-7123750Y-6637500D1*
G1X-6891250Y-6675000D2*
G1X-6891250Y-6656250D1*
G1X-6910000Y-6637500D1*
G1X-6966250Y-6637500D1*
G1X-6985000Y-6656250D1*
G1X-6985000Y-6693750D1*
G1X-6966250Y-6712500D1*
G1X-6891250Y-6675000D2*
G1X-6985000Y-6675000D1*
G1X-6966250Y-6712500D2*
G1X-6891250Y-6712500D1*
G1X-6827500Y-6712500D2*
G1X-6827500Y-6637500D1*
G1X-6752500Y-6637500D2*
G1X-6733750Y-6656250D1*
G1X-6733750Y-6712500D1*
G1X-6752500Y-6637500D2*
G1X-6790000Y-6637500D1*
G1X-6827500Y-6656250D1*
G1X-6613750Y-6600000D2*
G1X-6613750Y-6693750D1*
G1X-6595000Y-6712500D1*
G1X-6576250Y-6637500D2*
G1X-6651250Y-6637500D1*
G1X-6418750Y-6675000D2*
G1X-6418750Y-6656250D1*
G1X-6437500Y-6637500D1*
G1X-6493750Y-6637500D1*
G1X-6512500Y-6656250D1*
G1X-6512500Y-6693750D1*
G1X-6493750Y-6712500D1*
G1X-6418750Y-6675000D2*
G1X-6512500Y-6675000D1*
G1X-6493750Y-6712500D2*
G1X-6418750Y-6712500D1*
G1X-6280000Y-6637500D2*
G1X-6336250Y-6637500D1*
G1X-6355000Y-6656250D1*
G1X-6355000Y-6693750D1*
G1X-6336250Y-6712500D1*
G1X-6280000Y-6712500D1*
G1X-6178750Y-6600000D2*
G1X-6178750Y-6712500D1*
G1X-6178750Y-6675000D2*
G1X-6160000Y-6656250D1*
G1X-6122500Y-6656250D1*
G1X-6103750Y-6675000D1*
G1X-6103750Y-6712500D1*
G1X-7206250Y-6780000D2*
G1X-7206250Y-6873750D1*
G1X-7225000Y-6892500D1*
G1X-7281250Y-6892500D1*
G1X-7300000Y-6873750D1*
G1X-7300000Y-6855000D1*
G1X-7123750Y-6817500D2*
G1X-7067500Y-6817500D1*
G1X-7048750Y-6836250D1*
G1X-7048750Y-6873750D1*
G1X-7067500Y-6892500D1*
G1X-7123750Y-6892500D1*
G1X-7142500Y-6873750D1*
G1X-7142500Y-6836250D1*
G1X-7123750Y-6817500D1*
G1X-6966250Y-6780000D2*
G1X-6966250Y-6892500D1*
G1X-6891250Y-6836250D2*
G1X-6872500Y-6855000D1*
G1X-6872500Y-6873750D1*
G1X-6891250Y-6892500D1*
G1X-6947500Y-6892500D1*
G1X-6966250Y-6873750D1*
G1X-6891250Y-6836250D2*
G1X-6947500Y-6836250D1*
G1X-6966250Y-6855000D1*
G1X-6808750Y-6892500D2*
G1X-6808750Y-6780000D1*
G1X-6733750Y-6780000D2*
G1X-6733750Y-6892500D1*
G1X-6827500Y-6817500D2*
G1X-6715000Y-6817500D1*
G1X-6827500Y-6855000D2*
G1X-6715000Y-6855000D1*
G1X-6493750Y-6780000D2*
G1X-6437500Y-6780000D1*
G1X-6418750Y-6798750D1*
G1X-6418750Y-6817500D1*
G1X-6437500Y-6836250D1*
G1X-6418750Y-6855000D1*
G1X-6418750Y-6873750D1*
G1X-6437500Y-6892500D1*
G1X-6493750Y-6892500D1*
G1X-6512500Y-6873750D1*
G1X-6512500Y-6855000D1*
G1X-6493750Y-6836250D1*
G1X-6512500Y-6817500D1*
G1X-6512500Y-6798750D1*
G1X-6493750Y-6780000D1*
G1X-6493750Y-6836250D2*
G1X-6437500Y-6836250D1*
G1X-6280000Y-6780000D2*
G1X-6317500Y-6780000D1*
G1X-6355000Y-6817500D1*
G1X-6355000Y-6873750D1*
G1X-6336250Y-6892500D1*
G1X-6280000Y-6892500D1*
G1X-6261250Y-6873750D1*
G1X-6261250Y-6855000D1*
G1X-6280000Y-6836250D1*
G1X-6336250Y-6836250D1*
G1X-6355000Y-6855000D1*
G1X-6122500Y-6836250D2*
G1X-6178750Y-6836250D1*
G1X-6197500Y-6817500D1*
G1X-6197500Y-6798750D1*
G1X-6178750Y-6780000D1*
G1X-6122500Y-6780000D1*
G1X-6103750Y-6798750D1*
G1X-6103750Y-6855000D1*
G1X-6141250Y-6892500D1*
G1X-6178750Y-6892500D1*
G1X-6122500Y-6836250D2*
G1X-6103750Y-6817500D1*
G1X-6021250Y-6780000D2*
G1X-5965000Y-6780000D1*
G1X-5946250Y-6798750D1*
G1X-5946250Y-6817500D1*
G1X-5965000Y-6836250D1*
G1X-5946250Y-6855000D1*
G1X-5946250Y-6873750D1*
G1X-5965000Y-6892500D1*
G1X-6021250Y-6892500D1*
G1X-6040000Y-6873750D1*
G1X-6040000Y-6855000D1*
G1X-6021250Y-6836250D1*
G1X-6040000Y-6817500D1*
G1X-6040000Y-6798750D1*
G1X-6021250Y-6780000D1*
G1X-6021250Y-6836250D2*
G1X-5965000Y-6836250D1*
G1X-5826250Y-6780000D2*
G1X-5788750Y-6780000D1*
G1X-5788750Y-6892500D1*
G1X-5826250Y-6780000D2*
G1X-5882500Y-6836250D1*
G1X-5882500Y-6855000D1*
G1X-5770000Y-6855000D1*
G1X-5668750Y-6780000D2*
G1X-5668750Y-6892500D1*
G1X-5687500Y-6892500D2*
G1X-5650000Y-6892500D1*
G1X-5668750Y-6780000D2*
G1X-5687500Y-6798750D1*
G1X-7243750Y-6960000D2*
G1X-7243750Y-7072500D1*
G1X-7300000Y-6960000D2*
G1X-7187500Y-6960000D1*
G1X-7123750Y-6960000D2*
G1X-7142500Y-6978750D1*
G1X-7142500Y-7053750D1*
G1X-7123750Y-7072500D1*
G1X-7048750Y-7072500D1*
G1X-7030000Y-7053750D1*
G1X-7030000Y-6978750D1*
G1X-7048750Y-6960000D1*
G1X-7123750Y-6960000D1*
G1X-6966250Y-6960000D2*
G1X-6966250Y-7053750D1*
G1X-6947500Y-7072500D1*
G1X-6891250Y-7072500D1*
G1X-6872500Y-7053750D1*
G1X-6872500Y-6960000D1*
G1X-6715000Y-6978750D2*
G1X-6733750Y-6960000D1*
G1X-6790000Y-6960000D1*
G1X-6790000Y-7072500D2*
G1X-6733750Y-7072500D1*
G1X-6715000Y-7053750D1*
G1X-6808750Y-6978750D2*
G1X-6808750Y-7053750D1*
G1X-6790000Y-6960000D2*
G1X-6808750Y-6978750D1*
G1X-6808750Y-7053750D2*
G1X-6790000Y-7072500D1*
G1X-6651250Y-6960000D2*
G1X-6651250Y-7072500D1*
G1X-6557500Y-6960000D2*
G1X-6557500Y-7072500D1*
G1X-6557500Y-7016250D2*
G1X-6651250Y-7016250D1*
G1X-6418750Y-6978750D2*
G1X-6437500Y-6960000D1*
G1X-6493750Y-6960000D1*
G1X-6512500Y-6978750D1*
G1X-6512500Y-6997500D1*
G1X-6418750Y-7035000D2*
G1X-6418750Y-7053750D1*
G1X-6437500Y-7072500D1*
G1X-6493750Y-7072500D1*
G1X-6512500Y-7053750D1*
G1X-6512500Y-6997500D2*
G1X-6493750Y-7016250D1*
G1X-6437500Y-7016250D1*
G1X-6418750Y-7035000D1*
G1X-6298750Y-6960000D2*
G1X-6298750Y-7072500D1*
G1X-6355000Y-6960000D2*
G1X-6242500Y-6960000D1*
G1X-6178750Y-6960000D2*
G1X-6197500Y-6978750D1*
G1X-6197500Y-7053750D1*
G1X-6178750Y-7072500D1*
G1X-6103750Y-7072500D1*
G1X-6085000Y-7053750D1*
G1X-6085000Y-6978750D1*
G1X-6103750Y-6960000D1*
G1X-6178750Y-6960000D1*
G1X-6021250Y-6960000D2*
G1X-6021250Y-7072500D1*
G1X-5927500Y-6960000D2*
G1X-5927500Y-7072500D1*
G1X-6021250Y-6960000D2*
G1X-5927500Y-7072500D1*
G1X-5863750Y-6960000D2*
G1X-5863750Y-7072500D1*
G1X-5863750Y-6960000D2*
G1X-5770000Y-6960000D1*
G1X-5863750Y-7072500D2*
G1X-5770000Y-7072500D1*
G1X-5863750Y-7016250D2*
G1X-5788750Y-7016250D1*
G1X-7206250Y-7140000D2*
G1X-7187500Y-7158750D1*
G1X-7187500Y-7177500D1*
G1X-7206250Y-7196250D1*
G1X-7281250Y-7140000D2*
G1X-7281250Y-7252500D1*
G1X-7206250Y-7140000D2*
G1X-7281250Y-7140000D1*
G1X-7206250Y-7196250D2*
G1X-7281250Y-7196250D1*
G1X-7030000Y-7140000D2*
G1X-7142500Y-7252500D1*
G1X-6966250Y-7140000D2*
G1X-6966250Y-7252500D1*
G1X-6872500Y-7140000D2*
G1X-6872500Y-7252500D1*
G1X-6966250Y-7140000D2*
G1X-6872500Y-7252500D1*
G1X-6771250Y-7158750D2*
G1X-6771250Y-7177500D1*
G1X-6771250Y-7233750D2*
G1X-6771250Y-7252500D1*
G1X-6418750Y-7140000D2*
G1X-6400000Y-7158750D1*
G1X-6400000Y-7177500D1*
G1X-6418750Y-7196250D1*
G1X-6493750Y-7140000D2*
G1X-6493750Y-7252500D1*
G1X-6418750Y-7140000D2*
G1X-6493750Y-7140000D1*
G1X-6418750Y-7196250D2*
G1X-6493750Y-7196250D1*
G1X-6242500Y-7158750D2*
G1X-6261250Y-7140000D1*
G1X-6317500Y-7140000D1*
G1X-6317500Y-7252500D2*
G1X-6261250Y-7252500D1*
G1X-6242500Y-7233750D1*
G1X-6336250Y-7158750D2*
G1X-6336250Y-7233750D1*
G1X-6317500Y-7140000D2*
G1X-6336250Y-7158750D1*
G1X-6336250Y-7233750D2*
G1X-6317500Y-7252500D1*
G1X-6103750Y-7140000D2*
G1X-6085000Y-7158750D1*
G1X-6085000Y-7177500D1*
G1X-6103750Y-7196250D1*
G1X-6085000Y-7215000D1*
G1X-6085000Y-7233750D1*
G1X-6103750Y-7252500D1*
G1X-6178750Y-7140000D2*
G1X-6178750Y-7252500D1*
G1X-6103750Y-7196250D2*
G1X-6178750Y-7196250D1*
G1X-6178750Y-7140000D2*
G1X-6103750Y-7140000D1*
G1X-6103750Y-7252500D2*
G1X-6178750Y-7252500D1*
G1X-6021250Y-7140000D2*
G1X-5946250Y-7140000D1*
G1X-5927500Y-7158750D1*
G1X-5927500Y-7233750D1*
G1X-5946250Y-7252500D1*
G1X-6021250Y-7252500D1*
G1X-6040000Y-7233750D1*
G1X-6040000Y-7158750D1*
G1X-6021250Y-7140000D1*
G1X-5946250Y-7140000D2*
G1X-6021250Y-7252500D1*
G1X-5882500Y-7158750D2*
G1X-5863750Y-7140000D1*
G1X-5807500Y-7140000D1*
G1X-5788750Y-7158750D1*
G1X-5788750Y-7177500D1*
G1X-5807500Y-7196250D1*
G1X-5845000Y-7196250D2*
G1X-5807500Y-7196250D1*
G1X-5788750Y-7215000D1*
G1X-5788750Y-7233750D1*
G1X-5807500Y-7252500D1*
G1X-5863750Y-7252500D1*
G1X-5882500Y-7233750D1*
G1X-5706250Y-7140000D2*
G1X-5650000Y-7140000D1*
G1X-5631250Y-7158750D1*
G1X-5631250Y-7177500D1*
G1X-5650000Y-7196250D1*
G1X-5631250Y-7215000D1*
G1X-5631250Y-7233750D1*
G1X-5650000Y-7252500D1*
G1X-5706250Y-7252500D1*
G1X-5725000Y-7233750D1*
G1X-5725000Y-7215000D1*
G1X-5706250Y-7196250D1*
G1X-5725000Y-7177500D1*
G1X-5725000Y-7158750D1*
G1X-5706250Y-7140000D1*
G1X-5706250Y-7196250D2*
G1X-5650000Y-7196250D1*
G1X-5492500Y-7196250D2*
G1X-5548750Y-7196250D1*
G1X-5567500Y-7177500D1*
G1X-5567500Y-7158750D1*
G1X-5548750Y-7140000D1*
G1X-5492500Y-7140000D1*
G1X-5473750Y-7158750D1*
G1X-5473750Y-7215000D1*
G1X-5511250Y-7252500D1*
G1X-5548750Y-7252500D1*
G1X-5492500Y-7196250D2*
G1X-5473750Y-7177500D1*
G1X-5410000Y-7196250D2*
G1X-5316250Y-7196250D1*
G1X-5158750Y-7140000D2*
G1X-5140000Y-7158750D1*
G1X-5140000Y-7177500D1*
G1X-5158750Y-7196250D1*
G1X-5233750Y-7140000D2*
G1X-5233750Y-7252500D1*
G1X-5233750Y-7140000D2*
G1X-5158750Y-7140000D1*
G1X-5158750Y-7196250D2*
G1X-5233750Y-7196250D1*
G1X-5177500Y-7196250D2*
G1X-5140000Y-7252500D1*
G1X-5001250Y-7215000D2*
G1X-5001250Y-7196250D1*
G1X-5020000Y-7177500D1*
G1X-5076250Y-7177500D1*
G1X-5095000Y-7196250D1*
G1X-5095000Y-7233750D1*
G1X-5076250Y-7252500D1*
G1X-5001250Y-7215000D2*
G1X-5095000Y-7215000D1*
G1X-5076250Y-7252500D2*
G1X-5001250Y-7252500D1*
G1X-4881250Y-7252500D2*
G1X-4918750Y-7177500D1*
G1X-4881250Y-7252500D2*
G1X-4843750Y-7177500D1*
G1X-4780000Y-7196250D2*
G1X-4686250Y-7196250D1*
G1X-4566250Y-7140000D2*
G1X-4566250Y-7252500D1*
G1X-4585000Y-7252500D2*
G1X-4547500Y-7252500D1*
G1X-4566250Y-7140000D2*
G1X-4585000Y-7158750D1*
G1X-4465000Y-7196250D2*
G1X-4371250Y-7196250D1*
G1X-4213750Y-7140000D2*
G1X-4195000Y-7158750D1*
G1X-4195000Y-7177500D1*
G1X-4213750Y-7196250D1*
G1X-4195000Y-7215000D1*
G1X-4195000Y-7233750D1*
G1X-4213750Y-7252500D1*
G1X-4288750Y-7140000D2*
G1X-4288750Y-7252500D1*
G1X-4213750Y-7196250D2*
G1X-4288750Y-7196250D1*
G1X-4288750Y-7140000D2*
G1X-4213750Y-7140000D1*
G1X-4213750Y-7252500D2*
G1X-4288750Y-7252500D1*
G1X-4131250Y-7140000D2*
G1X-4150000Y-7158750D1*
G1X-4150000Y-7233750D1*
G1X-4131250Y-7252500D1*
G1X-4056250Y-7252500D1*
G1X-4037500Y-7233750D1*
G1X-4037500Y-7158750D1*
G1X-4056250Y-7140000D1*
G1X-4131250Y-7140000D1*
G1X-3936250Y-7140000D2*
G1X-3936250Y-7252500D1*
G1X-3992500Y-7140000D2*
G1X-3880000Y-7140000D1*
G1X-7243750Y-7320000D2*
G1X-7243750Y-7432500D1*
G1X-7300000Y-7320000D2*
G1X-7187500Y-7320000D1*
G1X-7123750Y-7320000D2*
G1X-7123750Y-7432500D1*
G1X-7123750Y-7395000D2*
G1X-7105000Y-7376250D1*
G1X-7067500Y-7376250D1*
G1X-7048750Y-7395000D1*
G1X-7048750Y-7432500D1*
G1X-6966250Y-7320000D2*
G1X-6966250Y-7432500D1*
G1X-6891250Y-7376250D2*
G1X-6891250Y-7357500D1*
G1X-6891250Y-7413750D2*
G1X-6891250Y-7432500D1*
G1X-6891250Y-7376250D2*
G1X-6928750Y-7395000D1*
G1X-6966250Y-7395000D1*
G1X-6891250Y-7413750D2*
G1X-6928750Y-7395000D1*
G1X-6771250Y-7338750D2*
G1X-6771250Y-7357500D1*
G1X-6771250Y-7413750D2*
G1X-6771250Y-7432500D1*
G1X-6456250Y-7320000D2*
G1X-6418750Y-7320000D1*
G1X-6418750Y-7432500D1*
G1X-6456250Y-7320000D2*
G1X-6512500Y-7376250D1*
G1X-6512500Y-7395000D1*
G1X-6400000Y-7395000D1*
G1X-6160000Y-7357500D2*
G1X-6141250Y-7376250D1*
G1X-6141250Y-7432500D1*
G1X-6141250Y-7376250D2*
G1X-6122500Y-7357500D1*
G1X-6103750Y-7357500D1*
G1X-6085000Y-7376250D1*
G1X-6085000Y-7432500D1*
G1X-6178750Y-7357500D2*
G1X-6160000Y-7357500D1*
G1X-6178750Y-7357500D2*
G1X-6197500Y-7376250D1*
G1X-6197500Y-7432500D2*
G1X-6197500Y-7357500D1*
G1X-5983750Y-7320000D2*
G1X-5983750Y-7338750D1*
G1X-6002500Y-7357500D2*
G1X-5983750Y-7357500D1*
G1X-5983750Y-7432500D1*
G1X-5983750Y-7320000D2*
G1X-6002500Y-7320000D1*
G1X-6002500Y-7338750D1*
G1X-5983750Y-7338750D1*
G1X-5826250Y-7320000D2*
G1X-5826250Y-7432500D1*
G1X-5826250Y-7320000D2*
G1X-5845000Y-7320000D1*
G1X-5845000Y-7432500D2*
G1X-5807500Y-7432500D1*
G1X-5706250Y-7357500D2*
G1X-5725000Y-7376250D1*
G1X-5706250Y-7395000D1*
G1X-5650000Y-7395000D1*
G1X-5631250Y-7413750D1*
G1X-5650000Y-7432500D1*
G1X-5706250Y-7357500D2*
G1X-5650000Y-7357500D1*
G1X-5706250Y-7432500D2*
G1X-5650000Y-7432500D1*
G1X-7225000Y-7500000D2*
G1X-7187500Y-7537500D1*
G1X-7187500Y-7575000D1*
G1X-7225000Y-7612500D1*
G1X-7281250Y-7500000D2*
G1X-7281250Y-7612500D1*
G1X-7281250Y-7500000D2*
G1X-7225000Y-7500000D1*
G1X-7225000Y-7612500D2*
G1X-7281250Y-7612500D1*
G1X-7123750Y-7537500D2*
G1X-7067500Y-7537500D1*
G1X-7048750Y-7556250D1*
G1X-7048750Y-7612500D1*
G1X-7030000Y-7612500D1*
G1X-7123750Y-7575000D2*
G1X-7142500Y-7593750D1*
G1X-7123750Y-7612500D1*
G1X-7123750Y-7575000D2*
G1X-7048750Y-7575000D1*
G1X-7048750Y-7593750D2*
G1X-7067500Y-7612500D1*
G1X-7123750Y-7612500D1*
G1X-6928750Y-7500000D2*
G1X-6928750Y-7593750D1*
G1X-6910000Y-7612500D1*
G1X-6891250Y-7537500D2*
G1X-6966250Y-7537500D1*
G1X-6733750Y-7575000D2*
G1X-6733750Y-7556250D1*
G1X-6752500Y-7537500D1*
G1X-6808750Y-7537500D1*
G1X-6827500Y-7556250D1*
G1X-6827500Y-7593750D1*
G1X-6808750Y-7612500D1*
G1X-6733750Y-7575000D2*
G1X-6827500Y-7575000D1*
G1X-6808750Y-7612500D2*
G1X-6733750Y-7612500D1*
G1X-6613750Y-7518750D2*
G1X-6613750Y-7537500D1*
G1X-6613750Y-7593750D2*
G1X-6613750Y-7612500D1*
G1X-6336250Y-7500000D2*
G1X-6261250Y-7500000D1*
G1X-6242500Y-7518750D1*
G1X-6242500Y-7593750D1*
G1X-6261250Y-7612500D1*
G1X-6336250Y-7612500D1*
G1X-6355000Y-7593750D1*
G1X-6355000Y-7518750D1*
G1X-6336250Y-7500000D1*
G1X-6261250Y-7500000D2*
G1X-6336250Y-7612500D1*
G1X-6122500Y-7500000D2*
G1X-6160000Y-7500000D1*
G1X-6197500Y-7537500D1*
G1X-6197500Y-7593750D1*
G1X-6178750Y-7612500D1*
G1X-6122500Y-7612500D1*
G1X-6103750Y-7593750D1*
G1X-6103750Y-7575000D1*
G1X-6122500Y-7556250D1*
G1X-6178750Y-7556250D1*
G1X-6197500Y-7575000D1*
G1X-6040000Y-7556250D2*
G1X-5946250Y-7556250D1*
G1X-5826250Y-7500000D2*
G1X-5826250Y-7612500D1*
G1X-5845000Y-7612500D2*
G1X-5807500Y-7612500D1*
G1X-5826250Y-7500000D2*
G1X-5845000Y-7518750D1*
G1X-5668750Y-7500000D2*
G1X-5631250Y-7500000D1*
G1X-5631250Y-7612500D1*
G1X-5668750Y-7500000D2*
G1X-5725000Y-7556250D1*
G1X-5725000Y-7575000D1*
G1X-5612500Y-7575000D1*
G1X-5567500Y-7556250D2*
G1X-5473750Y-7556250D1*
G1X-5410000Y-7518750D2*
G1X-5391250Y-7500000D1*
G1X-5335000Y-7500000D1*
G1X-5316250Y-7518750D1*
G1X-5316250Y-7537500D1*
G1X-5335000Y-7556250D1*
G1X-5391250Y-7575000D1*
G1X-5410000Y-7593750D1*
G1X-5410000Y-7612500D1*
G1X-5316250Y-7612500D1*
G1X-5233750Y-7500000D2*
G1X-5158750Y-7500000D1*
G1X-5140000Y-7518750D1*
G1X-5140000Y-7593750D1*
G1X-5158750Y-7612500D1*
G1X-5233750Y-7612500D1*
G1X-5252500Y-7593750D1*
G1X-5252500Y-7518750D1*
G1X-5233750Y-7500000D1*
G1X-5158750Y-7500000D2*
G1X-5233750Y-7612500D1*
G1X-5038750Y-7500000D2*
G1X-5038750Y-7612500D1*
G1X-5057500Y-7612500D2*
G1X-5020000Y-7612500D1*
G1X-5038750Y-7500000D2*
G1X-5057500Y-7518750D1*
G1X-4862500Y-7500000D2*
G1X-4900000Y-7500000D1*
G1X-4937500Y-7537500D1*
G1X-4937500Y-7593750D1*
G1X-4918750Y-7612500D1*
G1X-4862500Y-7612500D1*
G1X-4843750Y-7593750D1*
G1X-4843750Y-7575000D1*
G1X-4862500Y-7556250D1*
G1X-4918750Y-7556250D1*
G1X-4937500Y-7575000D1*
M2*
