*
%LPD*%
%LNGBR.GBR Top*%
%FSLAX26Y26*%
%MOIN*%
%AD*%
%AD*%
%ADD14R,0.062X0.028*%
%ADD17R,0.075X0.075*%
%ADD18C,0.08*%
%ADD20C,0.1*%
%ADD36C,0.01*%
G54D20*
%SRX1Y1I0.0J0.0*%
G1X-11500000Y-11500000D2*
G1X-11500000Y11500000D1*
G1X11500000Y11500000D1*
G1X11500000Y-11500000D1*
G1X-11500000Y-11500000D1*
G54D18*
G1X-2926800Y3420000D3*
G1X-2926800Y-3420000D3*
G1X2926800Y3420000D3*
G54D17*
G1X2926800Y-920000D3*
G54D14*
G1X-2501700Y3654000D3*
G1X-2359900Y3654000D3*
G1X-1197100Y3654000D3*
G1X-1338900Y3654000D3*
G1X-1584700Y3654000D3*
G1X-1726500Y3654000D3*
G1X-1972300Y3654000D3*
G1X-2114100Y3654000D3*
G1X654100Y3654000D3*
G1X512300Y3654000D3*
G1X266500Y3654000D3*
G1X124700Y3654000D3*
G1X-121100Y3654000D3*
G1X-262900Y3654000D3*
G1X-508700Y3654000D3*
G1X-650500Y3654000D3*
G1X2505300Y3654000D3*
G1X2363500Y3654000D3*
G1X2117700Y3654000D3*
G1X1975900Y3654000D3*
G1X1730100Y3654000D3*
G1X1588300Y3654000D3*
G1X1342500Y3654000D3*
G1X1200700Y3654000D3*
G1X2505300Y3262000D3*
G1X2363500Y3262000D3*
G1X2117700Y3262000D3*
G1X1975900Y3262000D3*
G1X1730100Y3262000D3*
G1X1588300Y3262000D3*
G1X1342500Y3262000D3*
G1X1200700Y3262000D3*
G1X654100Y3262000D3*
G1X512300Y3262000D3*
G1X266500Y3262000D3*
G1X124700Y3262000D3*
G1X-121100Y3262000D3*
G1X-262900Y3262000D3*
G1X-508700Y3262000D3*
G1X-650500Y3262000D3*
G1X-1197100Y3262000D3*
G1X-1338900Y3262000D3*
G1X-1584700Y3262000D3*
G1X-1726500Y3262000D3*
G1X-1972300Y3262000D3*
G1X-2114100Y3262000D3*
G1X-2359900Y3262000D3*
G1X-2501700Y3262000D3*
G1X-1197100Y2870000D3*
G1X-1338900Y2870000D3*
G1X-1584700Y2870000D3*
G1X-1726500Y2870000D3*
G1X-1972300Y2870000D3*
G1X-2114100Y2870000D3*
G1X-2359900Y2870000D3*
G1X-2501700Y2870000D3*
G1X654100Y2870000D3*
G1X512300Y2870000D3*
G1X266500Y2870000D3*
G1X124700Y2870000D3*
G1X-121100Y2870000D3*
G1X-262900Y2870000D3*
G1X-508700Y2870000D3*
G1X-650500Y2870000D3*
G1X2505300Y2870000D3*
G1X2363500Y2870000D3*
G1X2117700Y2870000D3*
G1X1975900Y2870000D3*
G1X1730100Y2870000D3*
G1X1588300Y2870000D3*
G1X1342500Y2870000D3*
G1X1200700Y2870000D3*
G1X2505300Y2478000D3*
G1X2363500Y2478000D3*
G1X2117700Y2478000D3*
G1X1975900Y2478000D3*
G1X1730100Y2478000D3*
G1X1588300Y2478000D3*
G1X1342500Y2478000D3*
G1X1200700Y2478000D3*
G1X654100Y2478000D3*
G1X512300Y2478000D3*
G1X266500Y2478000D3*
G1X124700Y2478000D3*
G1X-121100Y2478000D3*
G1X-262900Y2478000D3*
G1X-508700Y2478000D3*
G1X-650500Y2478000D3*
G1X-1197100Y2478000D3*
G1X-1338900Y2478000D3*
G1X-1584700Y2478000D3*
G1X-1726500Y2478000D3*
G1X-1972300Y2478000D3*
G1X-2114100Y2478000D3*
G1X-2359900Y2478000D3*
G1X-2501700Y2478000D3*
G1X-1197100Y2086000D3*
G1X-1338900Y2086000D3*
G1X-1584700Y2086000D3*
G1X-1726500Y2086000D3*
G1X-1972300Y2086000D3*
G1X-2114100Y2086000D3*
G1X-2359900Y2086000D3*
G1X-2501700Y2086000D3*
G1X654100Y2086000D3*
G1X512300Y2086000D3*
G1X266500Y2086000D3*
G1X124700Y2086000D3*
G1X-121100Y2086000D3*
G1X-262900Y2086000D3*
G1X-508700Y2086000D3*
G1X-650500Y2086000D3*
G1X2505300Y2086000D3*
G1X2363500Y2086000D3*
G1X2117700Y2086000D3*
G1X1975900Y2086000D3*
G1X1730100Y2086000D3*
G1X1588300Y2086000D3*
G1X1342500Y2086000D3*
G1X1200700Y2086000D3*
G1X2505300Y1694000D3*
G1X2363500Y1694000D3*
G1X2117700Y1694000D3*
G1X1975900Y1694000D3*
G1X1730100Y1694000D3*
G1X1588300Y1694000D3*
G1X1342500Y1694000D3*
G1X1200700Y1694000D3*
G1X654100Y1694000D3*
G1X512300Y1694000D3*
G1X266500Y1694000D3*
G1X124700Y1694000D3*
G1X-121100Y1694000D3*
G1X-262900Y1694000D3*
G1X-508700Y1694000D3*
G1X-650500Y1694000D3*
G1X-1197100Y1694000D3*
G1X-1338900Y1694000D3*
G1X-1584700Y1694000D3*
G1X-1726500Y1694000D3*
G1X-1972300Y1694000D3*
G1X-2114100Y1694000D3*
G1X-2359900Y1694000D3*
G1X-2501700Y1694000D3*
G1X-1197100Y1302000D3*
G1X-1338900Y1302000D3*
G1X-1584700Y1302000D3*
G1X-1726500Y1302000D3*
G1X-1972300Y1302000D3*
G1X-2114100Y1302000D3*
G1X-2359900Y1302000D3*
G1X-2501700Y1302000D3*
G1X654100Y1302000D3*
G1X512300Y1302000D3*
G1X266500Y1302000D3*
G1X124700Y1302000D3*
G1X-121100Y1302000D3*
G1X-262900Y1302000D3*
G1X-508700Y1302000D3*
G1X-650500Y1302000D3*
G1X2505300Y1302000D3*
G1X2363500Y1302000D3*
G1X2117700Y1302000D3*
G1X1975900Y1302000D3*
G1X1730100Y1302000D3*
G1X1588300Y1302000D3*
G1X1342500Y1302000D3*
G1X1200700Y1302000D3*
G1X2505300Y910000D3*
G1X2363500Y910000D3*
G1X2117700Y910000D3*
G1X1975900Y910000D3*
G1X1730100Y910000D3*
G1X1588300Y910000D3*
G1X1342500Y910000D3*
G1X1200700Y910000D3*
G1X654100Y910000D3*
G1X512300Y910000D3*
G1X266500Y910000D3*
G1X124700Y910000D3*
G1X-121100Y910000D3*
G1X-262900Y910000D3*
G1X-508700Y910000D3*
G1X-650500Y910000D3*
G1X-1197100Y910000D3*
G1X-1338900Y910000D3*
G1X-1584700Y910000D3*
G1X-1726500Y910000D3*
G1X-1972300Y910000D3*
G1X-2114100Y910000D3*
G1X-2359900Y910000D3*
G1X-2501700Y910000D3*
G1X-1197100Y518000D3*
G1X-1338900Y518000D3*
G1X-1584700Y518000D3*
G1X-1726500Y518000D3*
G1X-1972300Y518000D3*
G1X-2114100Y518000D3*
G1X-2359900Y518000D3*
G1X-2501700Y518000D3*
G1X654100Y518000D3*
G1X512300Y518000D3*
G1X266500Y518000D3*
G1X124700Y518000D3*
G1X-121100Y518000D3*
G1X-262900Y518000D3*
G1X-508700Y518000D3*
G1X-650500Y518000D3*
G1X2505300Y518000D3*
G1X2363500Y518000D3*
G1X2117700Y518000D3*
G1X1975900Y518000D3*
G1X1730100Y518000D3*
G1X1588300Y518000D3*
G1X1342500Y518000D3*
G1X1200700Y518000D3*
G1X2505300Y126000D3*
G1X2363500Y126000D3*
G1X2117700Y126000D3*
G1X1975900Y126000D3*
G1X1730100Y126000D3*
G1X1588300Y126000D3*
G1X1342500Y126000D3*
G1X1200700Y126000D3*
G1X654100Y126000D3*
G1X512300Y126000D3*
G1X266500Y126000D3*
G1X124700Y126000D3*
G1X-121100Y126000D3*
G1X-262900Y126000D3*
G1X-508700Y126000D3*
G1X-650500Y126000D3*
G1X-1197100Y126000D3*
G1X-1338900Y126000D3*
G1X-1584700Y126000D3*
G1X-1726500Y126000D3*
G1X-1972300Y126000D3*
G1X-2114100Y126000D3*
G1X-2359900Y126000D3*
G1X-2501700Y126000D3*
G1X-1197100Y-266000D3*
G1X-1338900Y-266000D3*
G1X-1584700Y-266000D3*
G1X-1726500Y-266000D3*
G1X-1972300Y-266000D3*
G1X-2114100Y-266000D3*
G1X-2359900Y-266000D3*
G1X-2501700Y-266000D3*
G1X654100Y-266000D3*
G1X512300Y-266000D3*
G1X266500Y-266000D3*
G1X124700Y-266000D3*
G1X-121100Y-266000D3*
G1X-262900Y-266000D3*
G1X-508700Y-266000D3*
G1X-650500Y-266000D3*
G1X2505300Y-266000D3*
G1X2363500Y-266000D3*
G1X2117700Y-266000D3*
G1X1975900Y-266000D3*
G1X1730100Y-266000D3*
G1X1588300Y-266000D3*
G1X1342500Y-266000D3*
G1X1200700Y-266000D3*
G1X2505300Y-658000D3*
G1X2363500Y-658000D3*
G1X2117700Y-658000D3*
G1X1975900Y-658000D3*
G1X1730100Y-658000D3*
G1X1588300Y-658000D3*
G1X1342500Y-658000D3*
G1X1200700Y-658000D3*
G1X654100Y-658000D3*
G1X512300Y-658000D3*
G1X266500Y-658000D3*
G1X124700Y-658000D3*
G1X-121100Y-658000D3*
G1X-262900Y-658000D3*
G1X-508700Y-658000D3*
G1X-650500Y-658000D3*
G1X-1197100Y-658000D3*
G1X-1338900Y-658000D3*
G1X-1584700Y-658000D3*
G1X-1726500Y-658000D3*
G1X-1972300Y-658000D3*
G1X-2114100Y-658000D3*
G1X-2359900Y-658000D3*
G1X-2501700Y-658000D3*
G1X-1197100Y-1050000D3*
G1X-1338900Y-1050000D3*
G1X-1584700Y-1050000D3*
G1X-1726500Y-1050000D3*
G1X-1972300Y-1050000D3*
G1X-2114100Y-1050000D3*
G1X-2359900Y-1050000D3*
G1X-2501700Y-1050000D3*
G1X654100Y-1050000D3*
G1X512300Y-1050000D3*
G1X266500Y-1050000D3*
G1X124700Y-1050000D3*
G1X-121100Y-1050000D3*
G1X-262900Y-1050000D3*
G1X-508700Y-1050000D3*
G1X-650500Y-1050000D3*
G1X2505300Y-1050000D3*
G1X2363500Y-1050000D3*
G1X2117700Y-1050000D3*
G1X1975900Y-1050000D3*
G1X1730100Y-1050000D3*
G1X1588300Y-1050000D3*
G1X1342500Y-1050000D3*
G1X1200700Y-1050000D3*
G1X2505300Y-1442000D3*
G1X2363500Y-1442000D3*
G1X1975900Y-1442000D3*
G1X2117700Y-1442000D3*
G1X1730100Y-1442000D3*
G1X1588300Y-1442000D3*
G1X1342500Y-1442000D3*
G1X1200700Y-1442000D3*
G1X654100Y-1442000D3*
G1X512300Y-1442000D3*
G1X266500Y-1442000D3*
G1X124700Y-1442000D3*
G1X-121100Y-1442000D3*
G1X-262900Y-1442000D3*
G1X-508700Y-1442000D3*
G1X-650500Y-1442000D3*
G1X-1197100Y-1442000D3*
G1X-1338900Y-1442000D3*
G1X-1584700Y-1442000D3*
G1X-1726500Y-1442000D3*
G1X-1972300Y-1442000D3*
G1X-2114100Y-1442000D3*
G1X-2359900Y-1442000D3*
G1X-2501700Y-1442000D3*
G1X-1197100Y-1834000D3*
G1X-1338900Y-1834000D3*
G1X-1584700Y-1834000D3*
G1X-1726500Y-1834000D3*
G1X-1972300Y-1834000D3*
G1X-2114100Y-1834000D3*
G1X-2359900Y-1834000D3*
G1X-2501700Y-1834000D3*
G1X654100Y-1834000D3*
G1X512300Y-1834000D3*
G1X266500Y-1834000D3*
G1X124700Y-1834000D3*
G1X-121100Y-1834000D3*
G1X-262900Y-1834000D3*
G1X-508700Y-1834000D3*
G1X-650500Y-1834000D3*
G1X2505300Y-1834000D3*
G1X2363500Y-1834000D3*
G1X2117700Y-1834000D3*
G1X1975900Y-1834000D3*
G1X1730100Y-1834000D3*
G1X1588300Y-1834000D3*
G1X1342500Y-1834000D3*
G1X1200700Y-1834000D3*
G1X2505300Y-2226000D3*
G1X2363500Y-2226000D3*
G1X2117700Y-2226000D3*
G1X1975900Y-2226000D3*
G1X1730100Y-2226000D3*
G1X1588300Y-2226000D3*
G1X1342500Y-2226000D3*
G1X1200700Y-2226000D3*
G1X654100Y-2226000D3*
G1X512300Y-2226000D3*
G1X266500Y-2226000D3*
G1X124700Y-2226000D3*
G1X-121100Y-2226000D3*
G1X-262900Y-2226000D3*
G1X-508700Y-2226000D3*
G1X-650500Y-2226000D3*
G1X-1197100Y-2226000D3*
G1X-1338900Y-2226000D3*
G1X-1584700Y-2226000D3*
G1X-1726500Y-2226000D3*
G1X-1972300Y-2226000D3*
G1X-2114100Y-2226000D3*
G1X-2359900Y-2226000D3*
G1X-2501700Y-2226000D3*
G1X-1197100Y-2618000D3*
G1X-1338900Y-2618000D3*
G1X-1584700Y-2618000D3*
G1X-1726500Y-2618000D3*
G1X-1972300Y-2618000D3*
G1X-2114100Y-2618000D3*
G1X-2359900Y-2618000D3*
G1X-2501700Y-2618000D3*
G1X654100Y-2618000D3*
G1X512300Y-2618000D3*
G1X266500Y-2618000D3*
G1X124700Y-2618000D3*
G1X-121100Y-2618000D3*
G1X-262900Y-2618000D3*
G1X-508700Y-2618000D3*
G1X-650500Y-2618000D3*
G1X2505300Y-2618000D3*
G1X2363500Y-2618000D3*
G1X2117700Y-2618000D3*
G1X1975900Y-2618000D3*
G1X1730100Y-2618000D3*
G1X1588300Y-2618000D3*
G1X1342500Y-2618000D3*
G1X1200700Y-2618000D3*
G1X2505300Y-3010000D3*
G1X2363500Y-3010000D3*
G1X2117700Y-3010000D3*
G1X1975900Y-3010000D3*
G1X1730100Y-3010000D3*
G1X1588300Y-3010000D3*
G1X1342500Y-3010000D3*
G1X1200700Y-3010000D3*
G1X654100Y-3010000D3*
G1X512300Y-3010000D3*
G1X266500Y-3010000D3*
G1X124700Y-3010000D3*
G1X-121100Y-3010000D3*
G1X-262900Y-3010000D3*
G1X-508700Y-3010000D3*
G1X-650500Y-3010000D3*
G1X-1197100Y-3010000D3*
G1X-1338900Y-3010000D3*
G1X-1584700Y-3010000D3*
G1X-1726500Y-3010000D3*
G1X-1972300Y-3010000D3*
G1X-2114100Y-3010000D3*
G1X-2359900Y-3010000D3*
G1X-2501700Y-3010000D3*
G1X-1197100Y-3402000D3*
G1X-1338900Y-3402000D3*
G1X-1584700Y-3402000D3*
G1X-1726500Y-3402000D3*
G1X-1972300Y-3402000D3*
G1X-2114100Y-3402000D3*
G1X-2359900Y-3402000D3*
G1X-2501700Y-3402000D3*
G1X654100Y-3402000D3*
G1X512300Y-3402000D3*
G1X266500Y-3402000D3*
G1X124700Y-3402000D3*
G1X-121100Y-3402000D3*
G1X-262900Y-3402000D3*
G1X-508700Y-3402000D3*
G1X-650500Y-3402000D3*
G1X2505300Y-3402000D3*
G1X2363500Y-3402000D3*
G1X2117700Y-3402000D3*
G1X1975900Y-3402000D3*
G1X1730100Y-3402000D3*
G1X1588300Y-3402000D3*
G1X1342500Y-3402000D3*
G1X1200700Y-3402000D3*
G1X2505300Y-3794000D3*
G1X2363500Y-3794000D3*
G1X2117700Y-3794000D3*
G1X1975900Y-3794000D3*
G1X1730100Y-3794000D3*
G1X1588300Y-3794000D3*
G1X1342500Y-3794000D3*
G1X1200700Y-3794000D3*
G1X654100Y-3794000D3*
G1X512300Y-3794000D3*
G1X266500Y-3794000D3*
G1X124700Y-3794000D3*
G1X-121100Y-3794000D3*
G1X-262900Y-3794000D3*
G1X-508700Y-3794000D3*
G1X-650500Y-3794000D3*
G1X-1197100Y-3794000D3*
G1X-1338900Y-3794000D3*
G1X-1584700Y-3794000D3*
G1X-1726500Y-3794000D3*
G1X-1972300Y-3794000D3*
G1X-2114100Y-3794000D3*
G1X-2359900Y-3794000D3*
G1X-2501700Y-3794000D3*
G1X-7206250Y-6618750D2*
G54D36*
G1X-7225000Y-6600000D1*
G1X-7281250Y-6600000D1*
G1X-7300000Y-6618750D1*
G1X-7300000Y-6637500D1*
G1X-7206250Y-6675000D2*
G1X-7206250Y-6693750D1*
G1X-7225000Y-6712500D1*
G1X-7281250Y-6712500D1*
G1X-7300000Y-6693750D1*
G1X-7300000Y-6637500D2*
G1X-7281250Y-6656250D1*
G1X-7225000Y-6656250D1*
G1X-7206250Y-6675000D1*
G1X-7086250Y-6600000D2*
G1X-7086250Y-6693750D1*
G1X-7067500Y-6712500D1*
G1X-7048750Y-6637500D2*
G1X-7123750Y-6637500D1*
G1X-6891250Y-6675000D2*
G1X-6891250Y-6656250D1*
G1X-6910000Y-6637500D1*
G1X-6966250Y-6637500D1*
G1X-6985000Y-6656250D1*
G1X-6985000Y-6693750D1*
G1X-6966250Y-6712500D1*
G1X-6891250Y-6675000D2*
G1X-6985000Y-6675000D1*
G1X-6966250Y-6712500D2*
G1X-6891250Y-6712500D1*
G1X-6827500Y-6712500D2*
G1X-6827500Y-6637500D1*
G1X-6752500Y-6637500D2*
G1X-6733750Y-6656250D1*
G1X-6733750Y-6712500D1*
G1X-6752500Y-6637500D2*
G1X-6790000Y-6637500D1*
G1X-6827500Y-6656250D1*
G1X-6613750Y-6600000D2*
G1X-6613750Y-6693750D1*
G1X-6595000Y-6712500D1*
G1X-6576250Y-6637500D2*
G1X-6651250Y-6637500D1*
G1X-6418750Y-6675000D2*
G1X-6418750Y-6656250D1*
G1X-6437500Y-6637500D1*
G1X-6493750Y-6637500D1*
G1X-6512500Y-6656250D1*
G1X-6512500Y-6693750D1*
G1X-6493750Y-6712500D1*
G1X-6418750Y-6675000D2*
G1X-6512500Y-6675000D1*
G1X-6493750Y-6712500D2*
G1X-6418750Y-6712500D1*
G1X-6280000Y-6637500D2*
G1X-6336250Y-6637500D1*
G1X-6355000Y-6656250D1*
G1X-6355000Y-6693750D1*
G1X-6336250Y-6712500D1*
G1X-6280000Y-6712500D1*
G1X-6178750Y-6600000D2*
G1X-6178750Y-6712500D1*
G1X-6178750Y-6675000D2*
G1X-6160000Y-6656250D1*
G1X-6122500Y-6656250D1*
G1X-6103750Y-6675000D1*
G1X-6103750Y-6712500D1*
G1X-7206250Y-6780000D2*
G1X-7206250Y-6873750D1*
G1X-7225000Y-6892500D1*
G1X-7281250Y-6892500D1*
G1X-7300000Y-6873750D1*
G1X-7300000Y-6855000D1*
G1X-7123750Y-6817500D2*
G1X-7067500Y-6817500D1*
G1X-7048750Y-6836250D1*
G1X-7048750Y-6873750D1*
G1X-7067500Y-6892500D1*
G1X-7123750Y-6892500D1*
G1X-7142500Y-6873750D1*
G1X-7142500Y-6836250D1*
G1X-7123750Y-6817500D1*
G1X-6966250Y-6780000D2*
G1X-6966250Y-6892500D1*
G1X-6891250Y-6836250D2*
G1X-6872500Y-6855000D1*
G1X-6872500Y-6873750D1*
G1X-6891250Y-6892500D1*
G1X-6947500Y-6892500D1*
G1X-6966250Y-6873750D1*
G1X-6891250Y-6836250D2*
G1X-6947500Y-6836250D1*
G1X-6966250Y-6855000D1*
G1X-6808750Y-6892500D2*
G1X-6808750Y-6780000D1*
G1X-6733750Y-6780000D2*
G1X-6733750Y-6892500D1*
G1X-6827500Y-6817500D2*
G1X-6715000Y-6817500D1*
G1X-6827500Y-6855000D2*
G1X-6715000Y-6855000D1*
G1X-6493750Y-6780000D2*
G1X-6437500Y-6780000D1*
G1X-6418750Y-6798750D1*
G1X-6418750Y-6817500D1*
G1X-6437500Y-6836250D1*
G1X-6418750Y-6855000D1*
G1X-6418750Y-6873750D1*
G1X-6437500Y-6892500D1*
G1X-6493750Y-6892500D1*
G1X-6512500Y-6873750D1*
G1X-6512500Y-6855000D1*
G1X-6493750Y-6836250D1*
G1X-6512500Y-6817500D1*
G1X-6512500Y-6798750D1*
G1X-6493750Y-6780000D1*
G1X-6493750Y-6836250D2*
G1X-6437500Y-6836250D1*
G1X-6280000Y-6780000D2*
G1X-6317500Y-6780000D1*
G1X-6355000Y-6817500D1*
G1X-6355000Y-6873750D1*
G1X-6336250Y-6892500D1*
G1X-6280000Y-6892500D1*
G1X-6261250Y-6873750D1*
G1X-6261250Y-6855000D1*
G1X-6280000Y-6836250D1*
G1X-6336250Y-6836250D1*
G1X-6355000Y-6855000D1*
G1X-6122500Y-6836250D2*
G1X-6178750Y-6836250D1*
G1X-6197500Y-6817500D1*
G1X-6197500Y-6798750D1*
G1X-6178750Y-6780000D1*
G1X-6122500Y-6780000D1*
G1X-6103750Y-6798750D1*
G1X-6103750Y-6855000D1*
G1X-6141250Y-6892500D1*
G1X-6178750Y-6892500D1*
G1X-6122500Y-6836250D2*
G1X-6103750Y-6817500D1*
G1X-6021250Y-6780000D2*
G1X-5965000Y-6780000D1*
G1X-5946250Y-6798750D1*
G1X-5946250Y-6817500D1*
G1X-5965000Y-6836250D1*
G1X-5946250Y-6855000D1*
G1X-5946250Y-6873750D1*
G1X-5965000Y-6892500D1*
G1X-6021250Y-6892500D1*
G1X-6040000Y-6873750D1*
G1X-6040000Y-6855000D1*
G1X-6021250Y-6836250D1*
G1X-6040000Y-6817500D1*
G1X-6040000Y-6798750D1*
G1X-6021250Y-6780000D1*
G1X-6021250Y-6836250D2*
G1X-5965000Y-6836250D1*
G1X-5826250Y-6780000D2*
G1X-5788750Y-6780000D1*
G1X-5788750Y-6892500D1*
G1X-5826250Y-6780000D2*
G1X-5882500Y-6836250D1*
G1X-5882500Y-6855000D1*
G1X-5770000Y-6855000D1*
G1X-5668750Y-6780000D2*
G1X-5668750Y-6892500D1*
G1X-5687500Y-6892500D2*
G1X-5650000Y-6892500D1*
G1X-5668750Y-6780000D2*
G1X-5687500Y-6798750D1*
G1X-7243750Y-6960000D2*
G1X-7243750Y-7072500D1*
G1X-7300000Y-6960000D2*
G1X-7187500Y-6960000D1*
G1X-7123750Y-6960000D2*
G1X-7142500Y-6978750D1*
G1X-7142500Y-7053750D1*
G1X-7123750Y-7072500D1*
G1X-7048750Y-7072500D1*
G1X-7030000Y-7053750D1*
G1X-7030000Y-6978750D1*
G1X-7048750Y-6960000D1*
G1X-7123750Y-6960000D1*
G1X-6966250Y-6960000D2*
G1X-6966250Y-7053750D1*
G1X-6947500Y-7072500D1*
G1X-6891250Y-7072500D1*
G1X-6872500Y-7053750D1*
G1X-6872500Y-6960000D1*
G1X-6715000Y-6978750D2*
G1X-6733750Y-6960000D1*
G1X-6790000Y-6960000D1*
G1X-6790000Y-7072500D2*
G1X-6733750Y-7072500D1*
G1X-6715000Y-7053750D1*
G1X-6808750Y-6978750D2*
G1X-6808750Y-7053750D1*
G1X-6790000Y-6960000D2*
G1X-6808750Y-6978750D1*
G1X-6808750Y-7053750D2*
G1X-6790000Y-7072500D1*
G1X-6651250Y-6960000D2*
G1X-6651250Y-7072500D1*
G1X-6557500Y-6960000D2*
G1X-6557500Y-7072500D1*
G1X-6557500Y-7016250D2*
G1X-6651250Y-7016250D1*
G1X-6418750Y-6978750D2*
G1X-6437500Y-6960000D1*
G1X-6493750Y-6960000D1*
G1X-6512500Y-6978750D1*
G1X-6512500Y-6997500D1*
G1X-6418750Y-7035000D2*
G1X-6418750Y-7053750D1*
G1X-6437500Y-7072500D1*
G1X-6493750Y-7072500D1*
G1X-6512500Y-7053750D1*
G1X-6512500Y-6997500D2*
G1X-6493750Y-7016250D1*
G1X-6437500Y-7016250D1*
G1X-6418750Y-7035000D1*
G1X-6298750Y-6960000D2*
G1X-6298750Y-7072500D1*
G1X-6355000Y-6960000D2*
G1X-6242500Y-6960000D1*
G1X-6178750Y-6960000D2*
G1X-6197500Y-6978750D1*
G1X-6197500Y-7053750D1*
G1X-6178750Y-7072500D1*
G1X-6103750Y-7072500D1*
G1X-6085000Y-7053750D1*
G1X-6085000Y-6978750D1*
G1X-6103750Y-6960000D1*
G1X-6178750Y-6960000D1*
G1X-6021250Y-6960000D2*
G1X-6021250Y-7072500D1*
G1X-5927500Y-6960000D2*
G1X-5927500Y-7072500D1*
G1X-6021250Y-6960000D2*
G1X-5927500Y-7072500D1*
G1X-5863750Y-6960000D2*
G1X-5863750Y-7072500D1*
G1X-5863750Y-6960000D2*
G1X-5770000Y-6960000D1*
G1X-5863750Y-7072500D2*
G1X-5770000Y-7072500D1*
G1X-5863750Y-7016250D2*
G1X-5788750Y-7016250D1*
G1X-7206250Y-7140000D2*
G1X-7187500Y-7158750D1*
G1X-7187500Y-7177500D1*
G1X-7206250Y-7196250D1*
G1X-7281250Y-7140000D2*
G1X-7281250Y-7252500D1*
G1X-7206250Y-7140000D2*
G1X-7281250Y-7140000D1*
G1X-7206250Y-7196250D2*
G1X-7281250Y-7196250D1*
G1X-7030000Y-7140000D2*
G1X-7142500Y-7252500D1*
G1X-6966250Y-7140000D2*
G1X-6966250Y-7252500D1*
G1X-6872500Y-7140000D2*
G1X-6872500Y-7252500D1*
G1X-6966250Y-7140000D2*
G1X-6872500Y-7252500D1*
G1X-6771250Y-7158750D2*
G1X-6771250Y-7177500D1*
G1X-6771250Y-7233750D2*
G1X-6771250Y-7252500D1*
G1X-6418750Y-7140000D2*
G1X-6400000Y-7158750D1*
G1X-6400000Y-7177500D1*
G1X-6418750Y-7196250D1*
G1X-6493750Y-7140000D2*
G1X-6493750Y-7252500D1*
G1X-6418750Y-7140000D2*
G1X-6493750Y-7140000D1*
G1X-6418750Y-7196250D2*
G1X-6493750Y-7196250D1*
G1X-6242500Y-7158750D2*
G1X-6261250Y-7140000D1*
G1X-6317500Y-7140000D1*
G1X-6317500Y-7252500D2*
G1X-6261250Y-7252500D1*
G1X-6242500Y-7233750D1*
G1X-6336250Y-7158750D2*
G1X-6336250Y-7233750D1*
G1X-6317500Y-7140000D2*
G1X-6336250Y-7158750D1*
G1X-6336250Y-7233750D2*
G1X-6317500Y-7252500D1*
G1X-6103750Y-7140000D2*
G1X-6085000Y-7158750D1*
G1X-6085000Y-7177500D1*
G1X-6103750Y-7196250D1*
G1X-6085000Y-7215000D1*
G1X-6085000Y-7233750D1*
G1X-6103750Y-7252500D1*
G1X-6178750Y-7140000D2*
G1X-6178750Y-7252500D1*
G1X-6103750Y-7196250D2*
G1X-6178750Y-7196250D1*
G1X-6178750Y-7140000D2*
G1X-6103750Y-7140000D1*
G1X-6103750Y-7252500D2*
G1X-6178750Y-7252500D1*
G1X-6021250Y-7140000D2*
G1X-5946250Y-7140000D1*
G1X-5927500Y-7158750D1*
G1X-5927500Y-7233750D1*
G1X-5946250Y-7252500D1*
G1X-6021250Y-7252500D1*
G1X-6040000Y-7233750D1*
G1X-6040000Y-7158750D1*
G1X-6021250Y-7140000D1*
G1X-5946250Y-7140000D2*
G1X-6021250Y-7252500D1*
G1X-5882500Y-7158750D2*
G1X-5863750Y-7140000D1*
G1X-5807500Y-7140000D1*
G1X-5788750Y-7158750D1*
G1X-5788750Y-7177500D1*
G1X-5807500Y-7196250D1*
G1X-5845000Y-7196250D2*
G1X-5807500Y-7196250D1*
G1X-5788750Y-7215000D1*
G1X-5788750Y-7233750D1*
G1X-5807500Y-7252500D1*
G1X-5863750Y-7252500D1*
G1X-5882500Y-7233750D1*
G1X-5706250Y-7140000D2*
G1X-5650000Y-7140000D1*
G1X-5631250Y-7158750D1*
G1X-5631250Y-7177500D1*
G1X-5650000Y-7196250D1*
G1X-5631250Y-7215000D1*
G1X-5631250Y-7233750D1*
G1X-5650000Y-7252500D1*
G1X-5706250Y-7252500D1*
G1X-5725000Y-7233750D1*
G1X-5725000Y-7215000D1*
G1X-5706250Y-7196250D1*
G1X-5725000Y-7177500D1*
G1X-5725000Y-7158750D1*
G1X-5706250Y-7140000D1*
G1X-5706250Y-7196250D2*
G1X-5650000Y-7196250D1*
G1X-5492500Y-7196250D2*
G1X-5548750Y-7196250D1*
G1X-5567500Y-7177500D1*
G1X-5567500Y-7158750D1*
G1X-5548750Y-7140000D1*
G1X-5492500Y-7140000D1*
G1X-5473750Y-7158750D1*
G1X-5473750Y-7215000D1*
G1X-5511250Y-7252500D1*
G1X-5548750Y-7252500D1*
G1X-5492500Y-7196250D2*
G1X-5473750Y-7177500D1*
G1X-5410000Y-7196250D2*
G1X-5316250Y-7196250D1*
G1X-5158750Y-7140000D2*
G1X-5140000Y-7158750D1*
G1X-5140000Y-7177500D1*
G1X-5158750Y-7196250D1*
G1X-5233750Y-7140000D2*
G1X-5233750Y-7252500D1*
G1X-5233750Y-7140000D2*
G1X-5158750Y-7140000D1*
G1X-5158750Y-7196250D2*
G1X-5233750Y-7196250D1*
G1X-5177500Y-7196250D2*
G1X-5140000Y-7252500D1*
G1X-5001250Y-7215000D2*
G1X-5001250Y-7196250D1*
G1X-5020000Y-7177500D1*
G1X-5076250Y-7177500D1*
G1X-5095000Y-7196250D1*
G1X-5095000Y-7233750D1*
G1X-5076250Y-7252500D1*
G1X-5001250Y-7215000D2*
G1X-5095000Y-7215000D1*
G1X-5076250Y-7252500D2*
G1X-5001250Y-7252500D1*
G1X-4881250Y-7252500D2*
G1X-4918750Y-7177500D1*
G1X-4881250Y-7252500D2*
G1X-4843750Y-7177500D1*
G1X-4780000Y-7196250D2*
G1X-4686250Y-7196250D1*
G1X-4566250Y-7140000D2*
G1X-4566250Y-7252500D1*
G1X-4585000Y-7252500D2*
G1X-4547500Y-7252500D1*
G1X-4566250Y-7140000D2*
G1X-4585000Y-7158750D1*
G1X-4465000Y-7196250D2*
G1X-4371250Y-7196250D1*
G1X-4251250Y-7140000D2*
G1X-4251250Y-7252500D1*
G1X-4307500Y-7140000D2*
G1X-4195000Y-7140000D1*
G1X-4131250Y-7177500D2*
G1X-4075000Y-7177500D1*
G1X-4056250Y-7196250D1*
G1X-4056250Y-7233750D1*
G1X-4075000Y-7252500D1*
G1X-4131250Y-7252500D1*
G1X-4150000Y-7233750D1*
G1X-4150000Y-7196250D1*
G1X-4131250Y-7177500D1*
G1X-3973750Y-7177500D2*
G1X-3973750Y-7271250D1*
G1X-3898750Y-7177500D2*
G1X-3880000Y-7196250D1*
G1X-3880000Y-7215000D1*
G1X-3898750Y-7233750D1*
G1X-3955000Y-7233750D1*
G1X-3898750Y-7177500D2*
G1X-3955000Y-7177500D1*
G1X-3973750Y-7196250D1*
G1X-3955000Y-7233750D2*
G1X-3973750Y-7215000D1*
G1X-7243750Y-7320000D2*
G1X-7243750Y-7432500D1*
G1X-7300000Y-7320000D2*
G1X-7187500Y-7320000D1*
G1X-7123750Y-7320000D2*
G1X-7123750Y-7432500D1*
G1X-7123750Y-7395000D2*
G1X-7105000Y-7376250D1*
G1X-7067500Y-7376250D1*
G1X-7048750Y-7395000D1*
G1X-7048750Y-7432500D1*
G1X-6966250Y-7320000D2*
G1X-6966250Y-7432500D1*
G1X-6891250Y-7376250D2*
G1X-6891250Y-7357500D1*
G1X-6891250Y-7413750D2*
G1X-6891250Y-7432500D1*
G1X-6891250Y-7376250D2*
G1X-6928750Y-7395000D1*
G1X-6966250Y-7395000D1*
G1X-6891250Y-7413750D2*
G1X-6928750Y-7395000D1*
G1X-6771250Y-7338750D2*
G1X-6771250Y-7357500D1*
G1X-6771250Y-7413750D2*
G1X-6771250Y-7432500D1*
G1X-6456250Y-7320000D2*
G1X-6418750Y-7320000D1*
G1X-6418750Y-7432500D1*
G1X-6456250Y-7320000D2*
G1X-6512500Y-7376250D1*
G1X-6512500Y-7395000D1*
G1X-6400000Y-7395000D1*
G1X-6160000Y-7357500D2*
G1X-6141250Y-7376250D1*
G1X-6141250Y-7432500D1*
G1X-6141250Y-7376250D2*
G1X-6122500Y-7357500D1*
G1X-6103750Y-7357500D1*
G1X-6085000Y-7376250D1*
G1X-6085000Y-7432500D1*
G1X-6178750Y-7357500D2*
G1X-6160000Y-7357500D1*
G1X-6178750Y-7357500D2*
G1X-6197500Y-7376250D1*
G1X-6197500Y-7432500D2*
G1X-6197500Y-7357500D1*
G1X-5983750Y-7320000D2*
G1X-5983750Y-7338750D1*
G1X-6002500Y-7357500D2*
G1X-5983750Y-7357500D1*
G1X-5983750Y-7432500D1*
G1X-5983750Y-7320000D2*
G1X-6002500Y-7320000D1*
G1X-6002500Y-7338750D1*
G1X-5983750Y-7338750D1*
G1X-5826250Y-7320000D2*
G1X-5826250Y-7432500D1*
G1X-5826250Y-7320000D2*
G1X-5845000Y-7320000D1*
G1X-5845000Y-7432500D2*
G1X-5807500Y-7432500D1*
G1X-5706250Y-7357500D2*
G1X-5725000Y-7376250D1*
G1X-5706250Y-7395000D1*
G1X-5650000Y-7395000D1*
G1X-5631250Y-7413750D1*
G1X-5650000Y-7432500D1*
G1X-5706250Y-7357500D2*
G1X-5650000Y-7357500D1*
G1X-5706250Y-7432500D2*
G1X-5650000Y-7432500D1*
G1X-7225000Y-7500000D2*
G1X-7187500Y-7537500D1*
G1X-7187500Y-7575000D1*
G1X-7225000Y-7612500D1*
G1X-7281250Y-7500000D2*
G1X-7281250Y-7612500D1*
G1X-7281250Y-7500000D2*
G1X-7225000Y-7500000D1*
G1X-7225000Y-7612500D2*
G1X-7281250Y-7612500D1*
G1X-7123750Y-7537500D2*
G1X-7067500Y-7537500D1*
G1X-7048750Y-7556250D1*
G1X-7048750Y-7612500D1*
G1X-7030000Y-7612500D1*
G1X-7123750Y-7575000D2*
G1X-7142500Y-7593750D1*
G1X-7123750Y-7612500D1*
G1X-7123750Y-7575000D2*
G1X-7048750Y-7575000D1*
G1X-7048750Y-7593750D2*
G1X-7067500Y-7612500D1*
G1X-7123750Y-7612500D1*
G1X-6928750Y-7500000D2*
G1X-6928750Y-7593750D1*
G1X-6910000Y-7612500D1*
G1X-6891250Y-7537500D2*
G1X-6966250Y-7537500D1*
G1X-6733750Y-7575000D2*
G1X-6733750Y-7556250D1*
G1X-6752500Y-7537500D1*
G1X-6808750Y-7537500D1*
G1X-6827500Y-7556250D1*
G1X-6827500Y-7593750D1*
G1X-6808750Y-7612500D1*
G1X-6733750Y-7575000D2*
G1X-6827500Y-7575000D1*
G1X-6808750Y-7612500D2*
G1X-6733750Y-7612500D1*
G1X-6613750Y-7518750D2*
G1X-6613750Y-7537500D1*
G1X-6613750Y-7593750D2*
G1X-6613750Y-7612500D1*
G1X-6336250Y-7500000D2*
G1X-6261250Y-7500000D1*
G1X-6242500Y-7518750D1*
G1X-6242500Y-7593750D1*
G1X-6261250Y-7612500D1*
G1X-6336250Y-7612500D1*
G1X-6355000Y-7593750D1*
G1X-6355000Y-7518750D1*
G1X-6336250Y-7500000D1*
G1X-6261250Y-7500000D2*
G1X-6336250Y-7612500D1*
G1X-6122500Y-7500000D2*
G1X-6160000Y-7500000D1*
G1X-6197500Y-7537500D1*
G1X-6197500Y-7593750D1*
G1X-6178750Y-7612500D1*
G1X-6122500Y-7612500D1*
G1X-6103750Y-7593750D1*
G1X-6103750Y-7575000D1*
G1X-6122500Y-7556250D1*
G1X-6178750Y-7556250D1*
G1X-6197500Y-7575000D1*
G1X-6040000Y-7556250D2*
G1X-5946250Y-7556250D1*
G1X-5826250Y-7500000D2*
G1X-5826250Y-7612500D1*
G1X-5845000Y-7612500D2*
G1X-5807500Y-7612500D1*
G1X-5826250Y-7500000D2*
G1X-5845000Y-7518750D1*
G1X-5668750Y-7500000D2*
G1X-5631250Y-7500000D1*
G1X-5631250Y-7612500D1*
G1X-5668750Y-7500000D2*
G1X-5725000Y-7556250D1*
G1X-5725000Y-7575000D1*
G1X-5612500Y-7575000D1*
G1X-5567500Y-7556250D2*
G1X-5473750Y-7556250D1*
G1X-5410000Y-7518750D2*
G1X-5391250Y-7500000D1*
G1X-5335000Y-7500000D1*
G1X-5316250Y-7518750D1*
G1X-5316250Y-7537500D1*
G1X-5335000Y-7556250D1*
G1X-5391250Y-7575000D1*
G1X-5410000Y-7593750D1*
G1X-5410000Y-7612500D1*
G1X-5316250Y-7612500D1*
G1X-5233750Y-7500000D2*
G1X-5158750Y-7500000D1*
G1X-5140000Y-7518750D1*
G1X-5140000Y-7593750D1*
G1X-5158750Y-7612500D1*
G1X-5233750Y-7612500D1*
G1X-5252500Y-7593750D1*
G1X-5252500Y-7518750D1*
G1X-5233750Y-7500000D1*
G1X-5158750Y-7500000D2*
G1X-5233750Y-7612500D1*
G1X-5038750Y-7500000D2*
G1X-5038750Y-7612500D1*
G1X-5057500Y-7612500D2*
G1X-5020000Y-7612500D1*
G1X-5038750Y-7500000D2*
G1X-5057500Y-7518750D1*
G1X-4862500Y-7500000D2*
G1X-4900000Y-7500000D1*
G1X-4937500Y-7537500D1*
G1X-4937500Y-7593750D1*
G1X-4918750Y-7612500D1*
G1X-4862500Y-7612500D1*
G1X-4843750Y-7593750D1*
G1X-4843750Y-7575000D1*
G1X-4862500Y-7556250D1*
G1X-4918750Y-7556250D1*
G1X-4937500Y-7575000D1*
M2*
